<svg xmlns="http://www.w3.org/2000/svg" width="136.419" height="136.423" viewBox="0 0 136.419 136.423">
  <g id="Grupo_120463" data-name="Grupo 120463" transform="translate(504.663 -1491.008)">
    <path id="Trazado_181481" data-name="Trazado 181481" d="M-473.485,1491.008h1.332a2.538,2.538,0,0,1,1.613,2.822c-.072.881.039,1.777-.03,2.659-.06.777.23.953.964.939,2.35-.045,4.7-.017,7.053-.017,2.654,0,2.681,0,2.642-2.676-.02-1.432-.107-2.846,1.346-3.727h1.332a2.537,2.537,0,0,1,1.614,2.819c-.076.88.038,1.777-.03,2.659-.059.774.224.956.961.941,2.35-.045,4.7-.017,7.054-.017,2.653,0,2.681,0,2.643-2.677-.021-1.432-.108-2.846,1.346-3.726h1.332a2.547,2.547,0,0,1,1.613,2.823c-.073.881.039,1.777-.03,2.659-.061.778.231.952.964.938,2.35-.045,4.7-.017,7.053-.017,2.652,0,2.68,0,2.641-2.677-.02-1.432-.107-2.846,1.347-3.726h1.332a2.547,2.547,0,0,1,1.613,2.823c-.073.881.039,1.777-.03,2.659-.061.778.231.952.964.938,2.35-.045,4.7-.017,7.052-.017,2.652,0,2.68,0,2.641-2.678-.021-1.432-.107-2.846,1.347-3.725h1.332a2.532,2.532,0,0,1,1.613,2.817c-.072.836.049,1.689-.031,2.524-.084.883.23,1.092,1.089,1.083,4.476-.043,8.952-.028,13.428-.016,1.739,0,2.525.783,2.544,2.5.019,1.684,0,3.369,0,5.053v4.263c1.864-2.817,3.5-5.644,5.122-8.478a6.221,6.221,0,0,1,3.422-2.99,2.368,2.368,0,0,0,1.543-1.3c1.152-2.444,2.688-4.515,5.369-5.455h2.665c.093.078.174.2.28.227a6.32,6.32,0,0,1,4.005,9.446q-.6,1.108-1.265,2.184a2.337,2.337,0,0,0-.385,1.855,6.114,6.114,0,0,1-.6,4.133c-.35.684-1.238,1.383-.923,2.037.291.6,1.294.843,1.952,1.288,1.481,1,3.315,1.5,4.394,3.075v1.332q-5.724,9.877-11.451,19.751a7.5,7.5,0,0,1-.873,1.329,1.919,1.919,0,0,1-2.642.361,1.931,1.931,0,0,1-.865-2.524,7.511,7.511,0,0,1,.553-1.055q4.343-7.54,8.691-15.077c.485-.843,1.427-1.777,1.3-2.525-.147-.871-1.592-1.037-2.377-1.647-.764-.593-1.16-.528-1.681.384q-7.845,13.724-15.8,27.388a3.329,3.329,0,0,0-.45,1.755q.016,24.769-.018,49.538c0,1.023.275,1.216,1.241,1.21,7.1-.044,14.2,0,21.306-.049a3.322,3.322,0,0,1,3.06,1.358V1614.9c-.469.215-.309.7-.4,1.047a14.823,14.823,0,0,1-14.632,11.465q-53.2.035-106.408,0a14.771,14.771,0,0,1-14.959-14.946q-.05-56.2-.012-112.4c0-1.9.752-2.642,2.667-2.647,3.2-.008,6.393,0,9.589,0,2.661,0,2.689,0,2.65-2.67-.021-1.433-.105-2.848,1.344-3.733h1.332a2.534,2.534,0,0,1,1.614,2.82c-.075.881.038,1.777-.03,2.659-.059.774.226.955.962.941,2.35-.045,4.7-.017,7.054-.017,2.654,0,2.681,0,2.643-2.676C-474.851,1493.3-474.939,1491.889-473.485,1491.008Zm97.264,4.476c-1.534-.4-2.811.389-3.324,2.292-.272,1.007.891.906,1.4,1.307,2.176,1.462,2.228,1.45,3.137-.729A2.038,2.038,0,0,0-376.221,1495.484Zm-19.456,125.269a18.558,18.558,0,0,1-2.44-10.041c.061-19.269.03-38.538.022-57.807a2.382,2.382,0,0,0-.183-1.434c-2.719,4.706-5.393,9.3-8.025,13.917a6.128,6.128,0,0,1-2.063,2.187c-3.2,2.07-6.361,4.2-9.558,6.278a5.075,5.075,0,0,0-1.716,1.789c-.822,1.439-1.883,1.8-3.059,1.132-1.2-.681-1.439-1.861-.571-3.312a4.954,4.954,0,0,0,.675-2.383c.208-3.9.479-7.8.69-11.7a5.43,5.43,0,0,1,.806-2.488q11.213-19.382,22.391-38.785a3.277,3.277,0,0,0,.636-1.706q-.045-6.926,0-13.852c0-.693-.187-.9-.888-.891q-5.527.051-11.055,0c-.73-.007-.9.234-.87.908.05,1.108.043,2.22,0,3.329a2.032,2.032,0,0,1-2.172,2.164,2.026,2.026,0,0,1-2.073-2.126c-.041-1.109-.059-2.223.005-3.329.045-.776-.235-.961-.971-.945-2.086.046-4.173.007-6.26.02-1.1.007-2.536-.356-3.211.194-.718.586-.146,2.078-.225,3.171-.019.265.006.533-.007.8a2.061,2.061,0,0,1-2.129,2.216,2.046,2.046,0,0,1-2.126-2.21c-.031-1.02-.053-2.045.007-3.063.047-.809-.111-1.159-1.053-1.136-2.884.069-5.772.048-8.657.009-.727-.01-1.022.153-.976.938a33.256,33.256,0,0,1,0,3.328,2.034,2.034,0,0,1-2.2,2.134,2.031,2.031,0,0,1-2.041-2.16c-.037-1.153-.032-2.309,0-3.463.016-.553-.121-.78-.731-.774q-4.595.043-9.19,0c-.583-.005-.774.167-.753.751.04,1.109.03,2.22.006,3.329a2.069,2.069,0,0,1-2.157,2.316c-1.3-.016-2.073-.875-2.1-2.374-.018-1.021-.049-2.045.011-3.063.045-.747-.186-.985-.95-.965-2,.053-4,.01-5.993.021-1.191.007-2.788-.414-3.469.188-.791.7-.17,2.332-.257,3.555-.006.088,0,.178,0,.266-.045,1.508-.8,2.357-2.11,2.371a2.073,2.073,0,0,1-2.15-2.322c-.022-1.065-.048-2.133.01-3.2.039-.713-.213-.889-.9-.881-2.974.035-5.95.041-8.924,0-.741-.011-.89.255-.861.917.047,1.063.032,2.131.006,3.2a2.061,2.061,0,0,1-2.183,2.289,2.062,2.062,0,0,1-2.069-2.272c-.035-1.286-.034-2.573-.049-3.859.037-.184-.03-.26-.218-.213l-8.259.007c-2.136-.119-2.136-.119-2.136,1.957q0,54.011,0,108.022c0,7.029,4.429,11.456,11.472,11.456q46.885,0,93.77,0h1.443Zm12.478-21.025v-.014c-3.15,0-6.3.033-9.449-.021-.9-.015-1.214.178-1.2,1.147.059,3.859.005,7.719.03,11.578a10.611,10.611,0,0,0,10.594,10.719,10.614,10.614,0,0,0,10.69-10.624c.048-3.9-.018-7.808.031-11.711.011-.89-.263-1.106-1.117-1.094C-376.811,1599.757-380.005,1599.728-383.2,1599.728Zm2.39-87.047c.046-.4-.268-.463-.477-.584-2.035-1.172-4.091-2.308-6.108-3.51-.619-.368-.817-.1-1.1.385q-7,12.155-14.039,24.288c-.353.607-.267.873.331,1.207,1.934,1.08,3.854,2.189,5.739,3.352.71.438,1,.3,1.4-.4q6.9-12.057,13.871-24.075Zm-37.368,56.235c2.614-1.719,4.974-3.282,7.348-4.824a2.982,2.982,0,0,0,.972-1.06q5.837-10.122,11.694-20.232c.374-.643.317-.94-.356-1.3-1.906-1.031-3.795-2.1-5.639-3.24-.772-.476-1.082-.3-1.5.435q-5.741,10.024-11.547,20.011a2.769,2.769,0,0,0-.46,1.232C-417.829,1562.845-418,1565.755-418.177,1568.916Zm40.953-63.028a2.088,2.088,0,0,0-1.159-1.945c-.835-.5-1.677-.98-2.519-1.464-2.442-1.4-3.483-1.064-4.685,1.443-.231.483-.155.675.272.919,2.07,1.182,4.126,2.389,6.188,3.587.268.156.561.371.784-.035A5.717,5.717,0,0,0-377.224,1505.887Z" fill="#020201"/>
    <path id="Trazado_181482" data-name="Trazado 181482" d="M-478.206,1520.979c.015,1.287.014,2.573.049,3.859a2.063,2.063,0,0,0,2.069,2.272,2.061,2.061,0,0,0,2.183-2.288c.026-1.065.041-2.133-.006-3.2-.03-.662.12-.928.861-.917,2.974.043,5.949.038,8.924,0,.685-.008.936.168.9.881-.058,1.063-.032,2.131-.01,3.2a2.073,2.073,0,0,0,2.15,2.322c1.309-.014,2.065-.863,2.11-2.371,0-.089,0-.178,0-.266.087-1.224-.534-2.856.257-3.555.681-.6,2.277-.181,3.469-.188,2-.011,4,.032,5.993-.021.764-.02.994.218.95.965-.061,1.018-.029,2.042-.011,3.063.026,1.5.8,2.358,2.1,2.374a2.069,2.069,0,0,0,2.157-2.316c.024-1.11.034-2.221-.006-3.329-.021-.584.17-.756.753-.751q4.6.04,9.19,0c.61-.006.746.221.731.774-.032,1.153-.037,2.309,0,3.462a2.031,2.031,0,0,0,2.041,2.16,2.034,2.034,0,0,0,2.2-2.134,33.258,33.258,0,0,0,0-3.329c-.047-.785.249-.947.976-.937,2.885.039,5.773.06,8.657-.009.941-.023,1.1.327,1.053,1.136-.06,1.018-.038,2.042-.007,3.063a2.046,2.046,0,0,0,2.126,2.21,2.061,2.061,0,0,0,2.129-2.216c.013-.266-.012-.534.007-.8.08-1.093-.492-2.585.225-3.171.675-.55,2.11-.187,3.211-.194,2.087-.014,4.174.026,6.26-.02.736-.016,1.016.169.971.945-.064,1.106-.046,2.22,0,3.329a2.026,2.026,0,0,0,2.073,2.127,2.032,2.032,0,0,0,2.172-2.164c.04-1.108.047-2.221,0-3.329-.03-.675.14-.916.87-.908q5.527.057,11.055,0c.7-.006.892.2.888.891q-.043,6.926,0,13.852a3.277,3.277,0,0,1-.636,1.706q-11.184,19.4-22.391,38.785a5.43,5.43,0,0,0-.806,2.488c-.212,3.9-.483,7.8-.69,11.7a4.954,4.954,0,0,1-.675,2.383c-.868,1.451-.628,2.631.571,3.312,1.176.667,2.237.307,3.059-1.132a5.075,5.075,0,0,1,1.716-1.789c3.2-2.075,6.357-4.209,9.558-6.278a6.13,6.13,0,0,0,2.063-2.187c2.632-4.617,5.306-9.211,8.025-13.917a2.382,2.382,0,0,1,.183,1.434c.009,19.269.04,38.538-.022,57.807a18.558,18.558,0,0,0,2.44,10.041c-.482.488-1.095.265-1.645.265q-43.214.018-86.429.007a28.693,28.693,0,0,1-3.966-.227c-5.532-.767-10.539-6.363-10.541-12q-.014-53.536,0-107.072l8.259-.007Zm12.822,42.368c1.463,0,2.926.031,4.388-.006a6.337,6.337,0,0,0,6.266-6.284q.075-4.387,0-8.777a6.3,6.3,0,0,0-6.182-6.226q-4.452-.1-8.909,0a6.293,6.293,0,0,0-6.194,6.208c-.054,2.925-.048,5.852,0,8.777a6.347,6.347,0,0,0,6.248,6.3C-468.31,1563.378-466.846,1563.346-465.384,1563.347Zm10.663,19.193c0-1.465.031-2.931-.006-4.4a6.321,6.321,0,0,0-6.177-6.247q-4.459-.1-8.923,0a6.309,6.309,0,0,0-6.191,6.231q-.077,4.394,0,8.79a6.31,6.31,0,0,0,6.173,6.249q4.459.1,8.923,0a6.333,6.333,0,0,0,6.2-6.232C-454.688,1585.471-454.72,1584-454.72,1582.54Zm0,29.809c0-1.421.023-2.842,0-4.263a6.359,6.359,0,0,0-6.344-6.366q-4.328-.061-8.659,0a6.328,6.328,0,0,0-6.3,6.27c-.047,2.886-.04,5.773,0,8.659a6.346,6.346,0,0,0,6.337,6.368q4.329.058,8.659,0a6.351,6.351,0,0,0,6.3-6.272C-454.689,1615.281-454.72,1613.815-454.718,1612.349Zm28.786,6.414q8.781,0,17.562.006a2.392,2.392,0,0,0,2.327-.965,2.132,2.132,0,0,0,.052-2.276,2.185,2.185,0,0,0-2.145-1.036q-17.828.016-35.656.007a4.237,4.237,0,0,0-.532.012,2.1,2.1,0,0,0-1.69,2.965,2.222,2.222,0,0,0,2.387,1.292Q-434.779,1618.754-425.932,1618.764Zm-2.141-59.672c5.238,0,10.475-.009,15.713.007a2.223,2.223,0,0,0,2.392-1.288c.663-1.613-.413-2.987-2.367-2.989q-15.581-.013-31.161,0c-1.81,0-2.725.758-2.691,2.19.033,1.375.916,2.077,2.666,2.079Q-435.8,1559.1-428.073,1559.092Zm-5.426,29.831q5.119,0,10.239,0c1.727,0,2.619-.724,2.636-2.1s-.89-2.155-2.586-2.156q-10.173-.01-20.345,0c-1.73,0-2.616.725-2.631,2.107s.877,2.148,2.582,2.152C-440.236,1588.929-436.868,1588.923-433.5,1588.923Zm-3.1-42.631c-2.348,0-4.7-.011-7.042,0-1.679.011-2.581.806-2.546,2.2.034,1.336.9,2.066,2.532,2.07q7.043.015,14.085,0c1.673,0,2.588-.809,2.551-2.189-.036-1.33-.914-2.067-2.538-2.077C-431.9,1546.282-434.251,1546.293-436.6,1546.293Zm-.049,34.1c2.392,0,4.784.01,7.176,0,1.582-.009,2.468-.8,2.453-2.148a2.08,2.08,0,0,0-2.369-2.107q-7.242-.026-14.484,0a2.061,2.061,0,0,0-2.316,2.152c.013,1.3.872,2.087,2.364,2.1C-441.431,1580.41-439.04,1580.4-436.647,1580.4Zm.132,25.577c-2.392,0-4.784-.009-7.175,0-1.608.008-2.482.76-2.5,2.1s.866,2.148,2.45,2.153q7.109.02,14.217,0c1.6,0,2.486-.769,2.5-2.108s-.871-2.139-2.455-2.149C-431.821,1605.963-434.168,1605.974-436.516,1605.974Z" transform="translate(-11.575 -19.05)" fill="#ffe39f"/>
    <path id="Trazado_181483" data-name="Trazado 181483" d="M-490.538,1521.024q0,53.536,0,107.072c0,5.641,5.009,11.237,10.541,12a28.674,28.674,0,0,0,3.966.227q43.215.007,86.429-.007c.55,0,1.163.223,1.645-.265l1.968,2.406h-1.443q-46.885,0-93.77,0c-7.043,0-11.471-4.427-11.472-11.456q0-54.011,0-108.022C-492.674,1520.906-492.674,1520.906-490.538,1521.024Z" transform="translate(-7.72 -19.301)" fill="#ffd05c"/>
    <path id="Trazado_181484" data-name="Trazado 181484" d="M-182.8,1796.271c3.194,0,6.388.029,9.581-.019.854-.012,1.128.2,1.117,1.094-.049,3.9.016,7.808-.031,11.711a10.614,10.614,0,0,1-10.69,10.624,10.611,10.611,0,0,1-10.594-10.719c-.025-3.859.029-7.719-.03-11.578-.015-.969.3-1.163,1.2-1.147,3.148.054,6.3.021,9.449.021Z" transform="translate(-200.397 -196.543)" fill="#e0a103"/>
    <path id="Trazado_181485" data-name="Trazado 181485" d="M-196.495,1544.158l-.382.662q-6.945,12.033-13.871,24.075c-.4.706-.69.839-1.4.4-1.885-1.163-3.805-2.272-5.739-3.352-.6-.334-.684-.6-.331-1.207q7.046-12.129,14.039-24.288c.282-.489.48-.753,1.1-.385,2.017,1.2,4.074,2.338,6.108,3.51C-196.763,1543.7-196.448,1543.763-196.495,1544.158Z" transform="translate(-184.314 -31.477)" fill="#fcc827"/>
    <path id="Trazado_181486" data-name="Trazado 181486" d="M-261.778,1653.879c.18-3.161.348-6.071.51-8.981a2.768,2.768,0,0,1,.46-1.232q5.782-10,11.547-20.012c.419-.731.729-.912,1.5-.435,1.844,1.138,3.733,2.209,5.639,3.24.673.364.73.66.356,1.3q-5.873,10.1-11.694,20.231a2.982,2.982,0,0,1-.972,1.06C-256.8,1650.6-259.164,1652.16-261.778,1653.879Z" transform="translate(-156.399 -84.964)" fill="#fcc827"/>
    <path id="Trazado_181487" data-name="Trazado 181487" d="M-162.121,1525.144a5.717,5.717,0,0,1-1.119,2.505c-.223.405-.516.19-.784.034-2.062-1.2-4.118-2.4-6.188-3.587-.427-.244-.5-.436-.272-.919,1.2-2.507,2.243-2.847,4.685-1.443.842.484,1.685.968,2.519,1.464A2.088,2.088,0,0,1-162.121,1525.144Z" transform="translate(-215.103 -19.256)" fill="#fcc827"/>
    <path id="Trazado_181488" data-name="Trazado 181488" d="M-147.422,1503.579a2.038,2.038,0,0,1,1.216,2.87c-.909,2.179-.961,2.191-3.137.729A16.327,16.327,0,0,1-147.422,1503.579Z" transform="translate(-228.798 -8.095)" fill="#e3eef7"/>
    <path id="Trazado_181489" data-name="Trazado 181489" d="M-150.033,1503.394a16.329,16.329,0,0,0-1.921,3.6c-.512-.4-1.675-.3-1.4-1.307C-152.844,1503.782-151.567,1502.99-150.033,1503.394Z" transform="translate(-226.187 -7.909)" fill="#c3dbef"/>
    <path id="Trazado_181490" data-name="Trazado 181490" d="M-463.263,1521.267l-.218-.213C-463.293,1521.008-463.226,1521.084-463.263,1521.267Z" transform="translate(-26.518 -19.339)" fill="#c3dbef"/>
    <path id="Trazado_181491" data-name="Trazado 181491" d="M-446.157,1602.065c-1.463,0-2.927.031-4.388-.007a6.347,6.347,0,0,1-6.248-6.3c-.044-2.925-.05-5.852,0-8.777a6.293,6.293,0,0,1,6.194-6.208q4.452-.1,8.909,0a6.3,6.3,0,0,1,6.181,6.226q.083,4.387,0,8.777a6.337,6.337,0,0,1-6.266,6.284C-443.231,1602.1-444.695,1602.065-446.157,1602.065Zm-6.369-10.792c0,1.375-.02,2.751,0,4.125a2.132,2.132,0,0,0,2.382,2.387q3.992.039,7.985,0a2.14,2.14,0,0,0,2.391-2.39q.05-4.058,0-8.118a2.073,2.073,0,0,0-2.247-2.251q-4.058-.058-8.118,0a2.141,2.141,0,0,0-2.39,2.391C-452.546,1588.7-452.527,1589.987-452.527,1591.273Z" transform="translate(-30.801 -57.768)" fill="#020201"/>
    <path id="Trazado_181492" data-name="Trazado 181492" d="M-435.494,1675.233c0,1.465.032,2.931-.006,4.395a6.333,6.333,0,0,1-6.2,6.232q-4.46.094-8.923,0a6.31,6.31,0,0,1-6.173-6.249q-.072-4.394,0-8.79a6.309,6.309,0,0,1,6.191-6.231q4.459-.092,8.923,0a6.321,6.321,0,0,1,6.177,6.247C-435.463,1672.3-435.494,1673.768-435.494,1675.233Zm-4.26.013c0-1.331.018-2.662-.005-3.992a2.146,2.146,0,0,0-2.354-2.419q-3.992-.037-7.984,0a2.142,2.142,0,0,0-2.421,2.358q-.042,4.058,0,8.117a2.094,2.094,0,0,0,2.347,2.282q3.991.042,7.984,0a2.144,2.144,0,0,0,2.422-2.357C-439.727,1677.908-439.756,1676.577-439.754,1675.246Z" transform="translate(-30.801 -111.743)" fill="#020201"/>
    <path id="Trazado_181493" data-name="Trazado 181493" d="M-435.488,1759c0,1.466.03,2.932-.007,4.4a6.351,6.351,0,0,1-6.3,6.272q-4.328.064-8.659,0a6.346,6.346,0,0,1-6.337-6.368c-.037-2.886-.044-5.773,0-8.659a6.328,6.328,0,0,1,6.3-6.269q4.328-.067,8.659,0a6.359,6.359,0,0,1,6.344,6.366C-435.464,1756.161-435.487,1757.583-435.488,1759Zm-10.586-6.373c-1.331,0-2.662-.022-3.992.005a2.177,2.177,0,0,0-2.452,2.466q-.028,3.925,0,7.85a2.154,2.154,0,0,0,2.457,2.446q3.925.027,7.851,0a2.174,2.174,0,0,0,2.451-2.467q.042-3.992,0-7.984a2.1,2.1,0,0,0-2.322-2.309C-443.412,1752.607-444.743,1752.63-446.074,1752.63Z" transform="translate(-30.805 -165.704)" fill="#020201"/>
    <path id="Trazado_181494" data-name="Trazado 181494" d="M-352.708,1788.572q-8.847,0-17.695,0a2.222,2.222,0,0,1-2.387-1.291,2.1,2.1,0,0,1,1.69-2.965,4.26,4.26,0,0,1,.532-.012q17.828,0,35.656-.007a2.185,2.185,0,0,1,2.145,1.036,2.133,2.133,0,0,1-.052,2.276,2.392,2.392,0,0,1-2.327.965Q-343.926,1788.561-352.708,1788.572Z" transform="translate(-84.799 -188.858)" fill="#020201"/>
    <path id="Trazado_181495" data-name="Trazado 181495" d="M-354.835,1620.983q-7.724,0-15.447,0c-1.75,0-2.634-.7-2.666-2.08-.034-1.431.882-2.189,2.691-2.19q15.58-.006,31.161,0c1.954,0,3.031,1.376,2.367,2.989a2.223,2.223,0,0,1-2.392,1.288C-344.36,1620.974-349.6,1620.983-354.835,1620.983Z" transform="translate(-84.813 -80.941)" fill="#020201"/>
    <path id="Trazado_181496" data-name="Trazado 181496" d="M-360.26,1704.777c-3.369,0-6.737.005-10.106,0-1.7,0-2.6-.759-2.582-2.152s.9-2.106,2.631-2.107q10.173-.008,20.345,0c1.7,0,2.6.773,2.586,2.156s-.908,2.1-2.636,2.1Q-355.14,1704.784-360.26,1704.777Z" transform="translate(-84.814 -134.903)" fill="#020201"/>
    <path id="Trazado_181497" data-name="Trazado 181497" d="M-363.361,1592.762c2.348,0,4.695-.011,7.042,0,1.623.01,2.5.747,2.538,2.077.037,1.38-.878,2.186-2.551,2.189q-7.042.015-14.085,0c-1.631,0-2.5-.734-2.532-2.07-.036-1.391.867-2.186,2.546-2.2C-368.056,1592.751-365.708,1592.762-363.361,1592.762Z" transform="translate(-84.813 -65.519)" fill="#020201"/>
    <path id="Trazado_181498" data-name="Trazado 181498" d="M-363.408,1680.825c-2.392,0-4.784.013-7.176,0-1.492-.011-2.35-.8-2.364-2.1a2.061,2.061,0,0,1,2.316-2.152q7.242-.031,14.484,0a2.08,2.08,0,0,1,2.369,2.106c.015,1.347-.872,2.139-2.453,2.148C-358.624,1680.834-361.016,1680.825-363.408,1680.825Z" transform="translate(-84.815 -119.477)" fill="#020201"/>
    <path id="Trazado_181499" data-name="Trazado 181499" d="M-363.276,1760.369c2.347,0,4.695-.011,7.042,0,1.584.01,2.469.8,2.455,2.149s-.9,2.1-2.5,2.108q-7.109.016-14.217,0c-1.583,0-2.464-.805-2.45-2.153s.888-2.095,2.5-2.1C-368.06,1760.36-365.668,1760.369-363.276,1760.369Z" transform="translate(-84.815 -173.445)" fill="#020201"/>
    <path id="Trazado_181500" data-name="Trazado 181500" d="M-444.76,1599.007c0-1.286-.02-2.573,0-3.859a2.141,2.141,0,0,1,2.39-2.391q4.058-.052,8.118,0a2.073,2.073,0,0,1,2.247,2.251q.054,4.058,0,8.117a2.14,2.14,0,0,1-2.391,2.39q-3.992.039-7.985,0a2.132,2.132,0,0,1-2.382-2.387C-444.78,1601.758-444.76,1600.383-444.76,1599.007Z" transform="translate(-38.568 -65.502)" fill="#ff6b00"/>
    <path id="Trazado_181501" data-name="Trazado 181501" d="M-432,1682.973c0,1.331.028,2.662-.008,3.992a2.144,2.144,0,0,1-2.422,2.357q-3.991.034-7.984,0a2.094,2.094,0,0,1-2.347-2.282q-.048-4.058,0-8.117a2.142,2.142,0,0,1,2.421-2.358q3.992-.04,7.984,0a2.146,2.146,0,0,1,2.354,2.419C-431.979,1680.312-432,1681.643-432,1682.973Z" transform="translate(-38.558 -119.47)" fill="#ff6b00"/>
    <path id="Trazado_181502" data-name="Trazado 181502" d="M-438.316,1760.367c1.331,0,2.662-.023,3.992.006a2.1,2.1,0,0,1,2.322,2.31q.046,3.991,0,7.984a2.174,2.174,0,0,1-2.451,2.467q-3.925.03-7.851,0a2.154,2.154,0,0,1-2.457-2.446q-.032-3.925,0-7.85a2.177,2.177,0,0,1,2.452-2.466C-440.978,1760.345-439.647,1760.367-438.316,1760.367Z" transform="translate(-38.564 -173.441)" fill="#ff6b00"/>
  </g>
</svg>
