<svg xmlns="http://www.w3.org/2000/svg" xmlns:xlink="http://www.w3.org/1999/xlink" width="248.012" height="239.912" viewBox="0 0 248.012 239.912">
  <defs>
    <linearGradient id="linear-gradient" x1="4.391" y1="-7.189" x2="5.067" y2="-6.783" gradientUnits="objectBoundingBox">
      <stop offset="0" stop-color="#fff"/>
      <stop offset="0.368" stop-color="#fbfbfb"/>
      <stop offset="0.695" stop-color="#f0f0f0"/>
      <stop offset="1" stop-color="#dfdfdf"/>
    </linearGradient>
  </defs>
  <g id="Grupo_120480" data-name="Grupo 120480" transform="translate(-429.659 -664.213)">
    <g id="Grupo_120217" data-name="Grupo 120217" transform="translate(0 -730)">
      <path id="Trazado_181095" data-name="Trazado 181095" d="M-1625.292,1468.973a384.428,384.428,0,0,1-52.452,98.812,392.777,392.777,0,0,1-77.5,79.2L-1873.3,1484.8a188.892,188.892,0,0,0,57.048-77.725Z" transform="translate(2302.963 -12.863)" fill="#ff6b00"/>
      <path id="Trazado_181104" data-name="Trazado 181104" d="M-1620.463,1492.854a374.611,374.611,0,0,1-47.142,85.711,382.25,382.25,0,0,1-66.745,70.207l-105.635-145.116a199.165,199.165,0,0,0,48.575-66.209Z" transform="translate(2284.172 -29.99)" fill="url(#linear-gradient)"/>
      <path id="Trazado_181105" data-name="Trazado 181105" d="M-1618.312,1504.681a369.955,369.955,0,0,1-44.363,79.2,377.192,377.192,0,0,1-61.441,65.608l-99.457-136.628A206.247,206.247,0,0,0-1779.3,1452.5Z" transform="translate(2274.917 -38.481)" fill="#f6f6f6"/>
    </g>
    <g id="Grupo_120225" data-name="Grupo 120225" transform="translate(1035.676 -788.527)">
      <path id="Trazado_181180" data-name="Trazado 181180" d="M-484.866,1601.417h-43.553c-1.7,0-2.124-.42-2.125-2.114q0-3.876,0-7.751c0-1.456.483-1.987,1.92-1.928.8.033,1.058-.149,1.055-1.019-.035-10.734-.023-21.469-.023-32.2,0-1.84.384-2.232,2.19-2.232,6.8,0,13.6-.022,20.392.026.927.007,1.092-.259,1.063-1.11-.068-1.966-.026-3.936-.02-5.905,0-1.373.507-1.863,1.9-1.869,1.107,0,2.216-.041,3.321.015.6.031.7-.184.691-.725-.031-2.091-.016-4.183-.011-6.275,0-1.379.508-1.941,1.9-1.849.926.061,1.277-.238,1.574-1.114a6.8,6.8,0,0,1,4.6-4.424c.65-.207.781-.5.815-1.129a3.367,3.367,0,0,0-1.018-2.793,12,12,0,0,1-2.175-3.184,1.142,1.142,0,0,0-1.216-.687,14.064,14.064,0,0,1-3.49-.138,5.172,5.172,0,0,1-3.922-5.589,5.136,5.136,0,0,1,5.059-4.569c.69,0,.867-.165.848-.854-.048-1.7.4-2.12,2.1-2.12h16.425c1.707,0,2.155.413,2.113,2.109-.017.664.119.864.834.867a5.1,5.1,0,0,1,5.087,5.2,5.157,5.157,0,0,1-5.112,5.109c-.83.013-1.663.041-2.49-.012a.914.914,0,0,0-.982.6,16.1,16.1,0,0,1-2.711,3.821c-.9.9-.385,1.973-.492,2.967-.03.279.326.223.507.281a7.272,7.272,0,0,1,5.074,5.139c.117.4.291.556.7.5a5.016,5.016,0,0,1,.737-.006c1.31.014,1.812.524,1.816,1.868.006,2,.056,4-.023,6-.036.892.275,1.062,1.066,1.01.98-.065,1.968-.019,2.952-.015,1.433.005,1.91.492,1.913,1.956,0,2,.047,4-.022,6-.028.807.235.926.966.923,6.89-.029,13.779-.018,20.669-.017,1.558,0,2.01.46,2.01,2.043q0,16.24-.02,32.481c0,.789.209.958.957.93,1.563-.058,2.015.438,2.016,2.018q0,3.921,0,7.843c0,1.441-.492,1.93-1.94,1.93Q-462.9,1601.418-484.866,1601.417Zm41.43-8.828c-.368-.01-.737-.029-1.1-.029q-40.134,0-80.268.007c-.909,0-2.2-.408-2.63.173-.457.611-.115,1.82-.122,2.768a15.048,15.048,0,0,1-.044,1.841c-.132.94.214,1.139,1.134,1.138q41.69-.041,83.38-.022a1.726,1.726,0,0,1,.276,0c.656.108.919-.095.878-.825-.069-1.226-.019-2.458-.019-3.688C-441.956,1592.512-441.956,1592.512-443.436,1592.589Zm-25.11-23.562c0-6.643-.008-13.287.013-19.93,0-.617-.117-.836-.793-.835q-15.455.027-30.91-.014c-.675,0-.793.216-.792.834q.033,19.837.009,39.675c0,.711.2.85.874.849q15.363-.033,30.726,0c.764,0,.889-.245.886-.93C-468.556,1582.129-468.546,1575.578-468.546,1569.027Zm-35.43,4.335h.008c0-5.1-.011-10.207.013-15.311,0-.678-.112-.952-.888-.948q-9.454.052-18.908,0c-.754,0-.9.234-.9.933q.036,15.311,0,30.622c0,.784.225.958.977.954q9.362-.045,18.724.005c.855.006.994-.266.989-1.038C-503.992,1583.508-503.976,1578.435-503.976,1573.362Zm59.059.1c0-5.164-.009-10.329.012-15.493,0-.6-.1-.857-.791-.854q-9.545.036-19.09-.007c-.669,0-.807.217-.806.84q.03,15.4,0,30.8c0,.7.2.865.88.862q9.453-.038,18.905,0c.758,0,.9-.239.9-.936C-444.93,1583.607-444.917,1578.535-444.917,1573.463Zm-39.857-60.634c-2.213,0-4.427.023-6.64-.015-.614-.01-.768.174-.752.769a18.4,18.4,0,0,0,5.069,12.506,2.722,2.722,0,0,1,.861,2.127c-.057,1.135-.009,2.274-.015,3.411-.007,1.3-.443,1.766-1.723,1.883a4.431,4.431,0,0,0-3.634,2.336c-.273.475-.17.615.38.613q6.455-.023,12.911,0c.553,0,.649-.139.378-.613a4.426,4.426,0,0,0-3.635-2.336c-1.283-.117-1.715-.581-1.721-1.883-.006-1.137.042-2.277-.015-3.411a2.725,2.725,0,0,1,.863-2.125,18.451,18.451,0,0,0,5.067-12.509c.017-.6-.142-.777-.753-.767C-480.347,1512.852-482.561,1512.829-484.774,1512.829Zm-.1,32.443c3.194,0,6.388-.016,9.582.014.635.006.853-.155.831-.814-.049-1.442-.031-2.887-.006-4.33.008-.488-.093-.709-.651-.708q-9.674.011-19.348-.03c-.573,0-.649.245-.639.72.03,1.412.065,2.826.021,4.237-.022.706.155.941.9.931C-491.08,1545.246-487.977,1545.272-484.875,1545.272Zm-9.1-25.063a23.432,23.432,0,0,1-.922-3.955c-.036-.248-.026-.433-.382-.485a2.4,2.4,0,0,0-2.757,1.966,2.244,2.244,0,0,0,2.234,2.469C-495.229,1520.23-494.649,1520.208-493.98,1520.208Zm18.41,0c.623,0,1.141.009,1.659,0a2.264,2.264,0,0,0,2.417-2.3,2.33,2.33,0,0,0-2.6-2.133c-.374.013-.513.1-.564.5A21.5,21.5,0,0,1-475.57,1520.211Z" fill="#010100"/>
      <path id="Trazado_181181" data-name="Trazado 181181" d="M-463.454,1629.269c-1.616,0-1.616,0-1.328-1.624a11.831,11.831,0,0,1,10.052-10.088c1.671-.3,1.671-.3,1.671,1.36,0,1.423,0,1.423-1.161,1.611a8.605,8.605,0,0,0-7.556,7.627c-.144,1-.5,1.284-1.4,1.115A1.544,1.544,0,0,0-463.454,1629.269Z" transform="translate(-49.432 -81.005)" fill="#010100"/>
      <path id="Trazado_181182" data-name="Trazado 181182" d="M-201.629,1619a1.566,1.566,0,0,0,0,.276c.157.857-.154,1.128-1.062,1.26a8.661,8.661,0,0,0-7.743,8.061c-.065.571-.219.741-.757.674a8.258,8.258,0,0,0-1.014-.008c-1.4,0-1.4,0-1.186-1.437a11.906,11.906,0,0,1,10.174-10.293C-201.629,1617.263-201.629,1617.263-201.629,1619Z" transform="translate(-238.85 -81.006)" fill="#010100"/>
      <path id="Trazado_181183" data-name="Trazado 181183" d="M-514.512,1629.361c-.733.144-1.256.076-1.419-1.131a8.6,8.6,0,0,0-8.013-7.673c-.54-.062-.772-.168-.694-.739a8.227,8.227,0,0,0,.009-1.106c0-1.26,0-1.26,1.237-1.134a11.963,11.963,0,0,1,10.544,10.543C-512.715,1629.361-512.715,1629.361-514.512,1629.361Z" transform="translate(-4.439 -81.097)" fill="#010100"/>
      <path id="Trazado_181184" data-name="Trazado 181184" d="M-262.951,1629.281a1,1,0,0,0-.184,0c-.874.168-1.205-.109-1.345-1.075a8.638,8.638,0,0,0-8.069-7.728c-.6-.066-.712-.264-.658-.773a8.7,8.7,0,0,0,.006-.922c0-1.48,0-1.48,1.452-1.261a11.92,11.92,0,0,1,10.311,10.367C-261.241,1629.281-261.241,1629.281-262.951,1629.281Z" transform="translate(-193.855 -81.016)" fill="#010100"/>
      <path id="Trazado_181185" data-name="Trazado 181185" d="M-473.749,1592.083c0,1.23-.023,2.461.011,3.689.014.52-.058.74-.677.74-2.288,0-2.288.03-2.288-2.254,0-1.968.016-3.936-.011-5.9-.007-.519.058-.74.677-.74,2.287,0,2.287-.03,2.287,2.254Z" transform="translate(-40.553 -58.565)" fill="#010100"/>
      <path id="Trazado_181186" data-name="Trazado 181186" d="M-222.34,1592.087c0,1.261-.021,2.522.011,3.782.012.48-.124.607-.609.617-2.355.049-2.355.066-2.355-2.273,0-2,.015-4-.011-6-.006-.479.124-.607.609-.617,2.355-.049,2.355-.066,2.355,2.274Z" transform="translate(-229.951 -58.544)" fill="#010100"/>
      <path id="Trazado_181187" data-name="Trazado 181187" d="M-505.331,1586.845c-.282.233-.608.465-.89.743-1.214,1.2-1.209,1.2-2.4.005-.086-.086-.177-.169-.259-.26-.465-.522-1.482-1.074-1.336-1.5.252-.731,1.1-1.256,1.689-1.874a.278.278,0,0,1,.461-.011q1.263,1.264,2.525,2.528A2.4,2.4,0,0,1-505.331,1586.845Z" transform="translate(-15.301 -55.715)" fill="#010100"/>
      <path id="Trazado_181188" data-name="Trazado 181188" d="M-447.012,1583.634c.14.131.254.233.362.341.436.434.854.888,1.311,1.3.324.29.346.491.015.8-.759.718-1.493,1.464-2.217,2.217-.276.287-.442.262-.738,0-1.832-1.644-1.841-1.635-.137-3.339.348-.348.691-.7,1.044-1.042A3.7,3.7,0,0,1-447.012,1583.634Z" transform="translate(-60.924 -55.566)" fill="#010100"/>
      <path id="Trazado_181189" data-name="Trazado 181189" d="M-253.409,1586.977c-.053.3-.285.422-.448.589-1.547,1.586-1.549,1.584-3.114.018-1.413-1.413-1.385-1.387.015-2.867.513-.543.821-.617,1.326-.016.568.676,1.239,1.265,1.864,1.893C-253.639,1586.723-253.52,1586.858-253.409,1586.977Z" transform="translate(-205.306 -56.052)" fill="#010100"/>
      <path id="Trazado_181190" data-name="Trazado 181190" d="M-196.967,1589.576a6.467,6.467,0,0,1-.54-.5c-.473-.544-1.415-.957-1.371-1.583.037-.537.867-1.027,1.361-1.524,1.41-1.419,1.387-1.388,2.871.019.551.522.6.829,0,1.33-.677.567-1.265,1.24-1.894,1.865C-196.666,1589.313-196.805,1589.429-196.967,1589.576Z" transform="translate(-249.858 -56.535)" fill="#010100"/>
      <path id="Trazado_181191" data-name="Trazado 181191" d="M-378.393,1686.226c0,6.551-.009,13.1.014,19.653,0,.685-.123.932-.886.93q-15.363-.043-30.726,0c-.671,0-.875-.138-.874-.849q.028-19.837-.009-39.675c0-.618.117-.835.792-.834q15.455.041,30.91.014c.676,0,.795.218.793.835C-378.4,1672.939-378.393,1679.582-378.393,1686.226Zm-24.824-4.522c-1.073,0-1.935.024-2.794-.007a1.59,1.59,0,0,0-1.825,1.065c-.27.846.222,1.38.84,1.867,1.858,1.465,3.682,2.975,5.56,4.413a.911.911,0,0,1,.317,1.3c-.706,1.667-1.336,3.365-2.036,5.034-.33.787-.548,1.538.194,2.189.788.692,1.525.3,2.27-.152,1.754-1.074,3.54-2.1,5.28-3.193a1.272,1.272,0,0,1,1.572-.017c1.817,1.147,3.679,2.224,5.513,3.345a1.574,1.574,0,0,0,2.036.031,1.587,1.587,0,0,0,.294-2.018c-.724-1.759-1.406-3.536-2.154-5.284a.864.864,0,0,1,.331-1.222c1.923-1.482,3.807-3.014,5.711-4.519a1.545,1.545,0,0,0,.694-1.834,1.53,1.53,0,0,0-1.674-1.008c-1.813.03-3.628-.017-5.441.025a1.047,1.047,0,0,1-1.111-.707c-1.112-2.292-2.274-4.561-3.394-6.849-.333-.679-.751-1.232-1.56-1.242a1.721,1.721,0,0,0-1.581,1.206c-.721,1.492-1.473,2.969-2.221,4.448-.512,1.012-.805,2.336-1.625,2.935C-400.884,1682.144-402.272,1681.619-403.217,1681.7Z" transform="translate(-90.153 -117.199)" fill="#ff6b00"/>
      <path id="Trazado_181192" data-name="Trazado 181192" d="M-485.978,1717.607c0,5.073-.016,10.146.017,15.219,0,.772-.133,1.044-.989,1.038q-9.362-.062-18.724-.005c-.752,0-.979-.169-.977-.954q.037-15.311,0-30.622c0-.7.147-.937.9-.933q9.454.048,18.908,0c.776,0,.891.27.888.948-.024,5.1-.013,10.207-.013,15.311Z" transform="translate(-17.998 -144.245)" fill="#ffb600"/>
      <path id="Trazado_181193" data-name="Trazado 181193" d="M-246.535,1717.723c0,5.072-.013,10.144.015,15.216,0,.7-.142.94-.9.936q-9.452-.049-18.905,0c-.678,0-.881-.159-.88-.862q.031-15.4,0-30.8c0-.623.137-.843.806-.84q9.545.041,19.09.007c.687,0,.793.251.791.854C-246.543,1707.394-246.535,1712.558-246.535,1717.723Z" transform="translate(-198.382 -144.26)" fill="#ffb600"/>
      <path id="Trazado_181194" data-name="Trazado 181194" d="M-434.539,1845.133c1.48-.077,1.48-.077,1.48,1.364,0,1.23-.05,2.462.019,3.688.041.73-.221.933-.878.825a1.726,1.726,0,0,0-.276,0q-41.69,0-83.38.022c-.919,0-1.266-.2-1.134-1.138a15.035,15.035,0,0,0,.044-1.841l81.268,0C-434.626,1848.055-434.521,1847.948-434.539,1845.133Z" transform="translate(-8.897 -252.544)" fill="#565656"/>
      <path id="Trazado_181195" data-name="Trazado 181195" d="M-434.676,1844.719c.018,2.815-.087,2.922-2.857,2.922l-81.267,0c.007-.948-.335-2.156.122-2.768.435-.581,1.721-.173,2.63-.173q40.134-.014,80.268-.007C-435.412,1844.69-435.044,1844.709-434.676,1844.719Z" transform="translate(-8.76 -252.131)" fill="#565656"/>
      <path id="Trazado_181196" data-name="Trazado 181196" d="M-367.558,1521.8c2.213,0,4.427.022,6.64-.015.611-.01.769.168.753.767a18.451,18.451,0,0,1-5.067,12.509,2.725,2.725,0,0,0-.863,2.125c.057,1.135.009,2.274.015,3.411.006,1.3.439,1.767,1.721,1.883a4.426,4.426,0,0,1,3.635,2.336c.271.474.175.615-.378.613q-6.455-.023-12.911,0c-.551,0-.653-.137-.38-.613a4.431,4.431,0,0,1,3.634-2.336c1.281-.117,1.716-.583,1.723-1.883.006-1.137-.042-2.277.015-3.411a2.722,2.722,0,0,0-.861-2.127,18.4,18.4,0,0,1-5.069-12.506c-.016-.6.137-.779.752-.769C-371.985,1521.826-369.772,1521.8-367.558,1521.8Z" transform="translate(-117.216 -8.974)" fill="#ffd05c"/>
      <path id="Trazado_181197" data-name="Trazado 181197" d="M-376.64,1635.457c-3.1,0-6.2-.026-9.306.019-.75.011-.927-.224-.9-.931.044-1.411.009-2.825-.021-4.237-.01-.475.066-.722.639-.72q9.674.042,19.348.03c.558,0,.659.22.651.708-.024,1.443-.042,2.888.006,4.33.022.66-.2.82-.831.814C-370.252,1635.441-373.446,1635.457-376.64,1635.457Z" transform="translate(-108.235 -90.185)" fill="#ff8d3b"/>
      <path id="Trazado_181198" data-name="Trazado 181198" d="M-394.169,1704.531c.945-.085,2.333.44,3.2-.193.819-.6,1.112-1.924,1.624-2.935.748-1.479,1.5-2.956,2.221-4.448a1.721,1.721,0,0,1,1.581-1.206c.81.01,1.228.563,1.56,1.242,1.121,2.289,2.282,4.557,3.395,6.849a1.047,1.047,0,0,0,1.111.707c1.813-.042,3.628.005,5.441-.025a1.53,1.53,0,0,1,1.674,1.008,1.545,1.545,0,0,1-.694,1.834c-1.9,1.505-3.789,3.037-5.711,4.519a.864.864,0,0,0-.331,1.222c.747,1.749,1.43,3.525,2.154,5.284a1.587,1.587,0,0,1-.294,2.018,1.574,1.574,0,0,1-2.036-.031c-1.834-1.121-3.7-2.2-5.513-3.345a1.272,1.272,0,0,0-1.572.017c-1.74,1.1-3.526,2.12-5.28,3.193-.744.456-1.482.844-2.27.152-.741-.651-.524-1.4-.194-2.189.7-1.669,1.33-3.367,2.036-5.034a.911.911,0,0,0-.317-1.3c-1.879-1.438-3.7-2.948-5.56-4.413-.618-.487-1.11-1.021-.84-1.867a1.59,1.59,0,0,1,1.825-1.065C-396.1,1704.554-395.242,1704.531-394.169,1704.531Zm12.591,10.957.209.091,0-.235c-.335-.855-.673-1.708-1.005-2.564a1.574,1.574,0,0,1,.606-2.235c1.209-.975,2.421-1.947,3.819-3.069-1.129,0-2.034-.018-2.939.005a1.674,1.674,0,0,1-1.687-1.029c-.672-1.377-1.363-2.744-2.047-4.115-.292-.584-.585-1.167-.951-1.9-1.052,2.1-2.023,4.01-2.958,5.934a1.763,1.763,0,0,1-1.823,1.111c-.868-.037-1.739-.008-2.827-.008l3.7,2.961c1.067.853,1.16,1.224.644,2.528-.341.865-.675,1.732-1.1,2.811,1.268-.76,2.329-1.37,3.364-2.023a1.7,1.7,0,0,1,1.977-.023C-383.6,1714.339-382.584,1714.9-381.578,1715.488Z" transform="translate(-99.202 -140.025)" fill="#010100"/>
      <path id="Trazado_181199" data-name="Trazado 181199" d="M-364.228,1729.818c-1.006-.584-2.024-1.149-3.015-1.757a1.7,1.7,0,0,0-1.977.023c-1.034.653-2.1,1.264-3.364,2.023.42-1.079.754-1.947,1.1-2.811.515-1.3.423-1.675-.644-2.528l-3.7-2.961c1.088,0,1.958-.029,2.827.008a1.763,1.763,0,0,0,1.823-1.111c.936-1.924,1.907-3.831,2.958-5.934.366.731.66,1.314.951,1.9.684,1.371,1.375,2.738,2.047,4.115a1.674,1.674,0,0,0,1.687,1.029c.9-.023,1.81-.005,2.939-.005-1.4,1.123-2.61,2.094-3.819,3.069a1.574,1.574,0,0,0-.606,2.235c.332.856.67,1.709,1.005,2.564Z" transform="translate(-116.551 -154.356)" fill="#ffb600"/>
      <path id="Trazado_181200" data-name="Trazado 181200" d="M-328.576,1775.2l0,.235-.209-.091Z" transform="translate(-151.996 -199.878)" fill="#f8d166"/>
    </g>
  </g>
</svg>
