<svg xmlns="http://www.w3.org/2000/svg" width="66.959" height="75" viewBox="0 0 66.959 75">
  <g id="Grupo_119077" data-name="Grupo 119077" transform="translate(858.478 -1589.851)">
    <path id="Trazado_179711" data-name="Trazado 179711" d="M-800.956,1637.722c1.028.231,1.433.687,1.434,1.71.007,6.664.024,13.328-.006,19.992a5.306,5.306,0,0,1-5.5,5.421q-19,.011-38,0a5.284,5.284,0,0,1-5.432-5.1,22.683,22.683,0,0,1-.017-2.269c.015-.424-.132-.538-.542-.53-1.269.024-2.538.012-3.807.008a5.335,5.335,0,0,1-5.642-5.643q-.013-11.315,0-22.629,0-14.976,0-29.952a5.381,5.381,0,0,1,4.2-5.587,6.931,6.931,0,0,1,1.6-.109q17.83,0,35.66.006a2.156,2.156,0,0,0,1.347-.41,15.012,15.012,0,0,1,6.583-2.631c.13-.02.3.049.361-.152h3.515c.81.189,1.628.349,2.429.571a15.194,15.194,0,0,1,11.14,12.84c.706,6.51-1.818,11.585-7.324,15.144a1.057,1.057,0,0,0-.572,1.035c.027,2.047.014,4.1.01,6.143,0,1.149-.322,1.559-1.429,1.87-1.179-.266-1.5-.655-1.5-1.86,0-1.635-.019-3.271.009-4.906.009-.529-.033-.71-.657-.546a13.552,13.552,0,0,1-5.581.354c-.677-.106-.839.062-.837.748.023,9.958-.025,19.917.037,29.875a5.613,5.613,0,0,1-5.837,5.871c-9.371-.092-18.742-.035-28.114-.029-.678,0-1.567-.287-1.981.112-.453.436-.135,1.339-.141,2.036-.014,1.912.9,2.809,2.828,2.809h37.339c2.057,0,2.932-.878,2.932-2.942q0-9.738,0-19.477C-802.447,1638.349-802.063,1637.9-800.956,1637.722Zm-18.186-41.755h-.787q-16.436,0-32.872,0a2.43,2.43,0,0,0-2.743,2.749q0,26.286,0,52.573a2.437,2.437,0,0,0,2.758,2.736q18.779,0,37.558,0c1.879,0,2.8-.9,2.8-2.77q0-15.523.011-31.046a.777.777,0,0,0-.552-.862,14.991,14.991,0,0,1-6.189-4.874c-.423-.563-.718-1.3-1.644-.767-.092.053-.24.01-.362.01q-12.812,0-25.624,0c-1.326,0-1.861-.535-1.866-1.863-.006-1.708,0-3.417,0-5.125s.414-2.13,2.1-2.13h22.842c1.374,0,1.394,0,1.577-1.316A15.835,15.835,0,0,1-819.142,1595.967Zm-.169,9.294a12.433,12.433,0,0,0,12.5,12.427,12.485,12.485,0,0,0,12.4-12.473,12.5,12.5,0,0,0-12.523-12.433A12.448,12.448,0,0,0-819.311,1605.261Zm-14.738,5.524c3.732,0,7.463-.009,11.195.011.48,0,.645-.123.615-.608a13.309,13.309,0,0,1,0-1.9c.05-.6-.137-.781-.754-.776-3.707.029-7.414.014-11.122.014-3.659,0-7.317.009-10.976-.011-.509,0-.687.136-.652.652a13.227,13.227,0,0,1,0,1.9c-.044.569.127.736.716.732C-841.366,1610.771-837.707,1610.786-834.048,1610.786Z" transform="translate(0 0)" fill="#030303"/>
    <path id="Trazado_179712" data-name="Trazado 179712" d="M-748.257,1761.939c-1.106.182-1.491.628-1.492,1.776q0,9.738,0,19.477c0,2.064-.876,2.942-2.932,2.942h-37.339c-1.923,0-2.842-.9-2.828-2.809.005-.7-.312-1.6.141-2.036.413-.4,1.3-.111,1.981-.112,9.371-.006,18.743-.062,28.114.029a5.613,5.613,0,0,0,5.837-5.871c-.062-9.958-.014-19.916-.037-29.875,0-.687.159-.854.837-.748a13.552,13.552,0,0,0,5.581-.354c.624-.165.666.017.657.546-.028,1.635-.013,3.27-.009,4.906,0,1.205.32,1.594,1.5,1.86q0,1.813,0,3.626c-1.082.189-1.606.778-1.475,1.689.121.834.719,1.15,1.464,1.288Q-748.26,1760.106-748.257,1761.939Z" transform="translate(-52.699 -124.217)" fill="#ffe39f"/>
    <path id="Trazado_179713" data-name="Trazado 179713" d="M-570.743,1803.455c-.745-.137-1.344-.454-1.464-1.288-.132-.911.393-1.5,1.475-1.689.913.2,1.382.669,1.424,1.409S-569.753,1803.168-570.743,1803.455Z" transform="translate(-230.22 -169.4)" fill="#030303"/>
    <path id="Trazado_179714" data-name="Trazado 179714" d="M-807.094,1621.1a15.833,15.833,0,0,0-3,7.312c-.184,1.319-.2,1.316-1.578,1.316h-22.843c-1.684,0-2.1.421-2.1,2.13s0,3.417,0,5.125c0,1.328.54,1.862,1.866,1.863q12.812,0,25.625,0c.122,0,.27.043.362-.01.927-.537,1.221.2,1.644.767a14.991,14.991,0,0,0,6.189,4.874.777.777,0,0,1,.552.862q-.018,15.523-.011,31.046c0,1.868-.918,2.77-2.8,2.77q-18.779,0-37.558,0a2.437,2.437,0,0,1-2.758-2.736q0-26.286,0-52.573a2.43,2.43,0,0,1,2.743-2.749q16.436,0,32.872,0Zm-14.85,39.65h12.595c1.393,0,2.09-.5,2.066-1.491q-.034-1.438-2.057-1.441-12.6,0-25.19,0a5.036,5.036,0,0,0-.875.054,1.434,1.434,0,0,0-1.2,1.448,1.437,1.437,0,0,0,1.257,1.4,5.954,5.954,0,0,0,.8.03Q-828.241,1660.748-821.943,1660.747Zm.009-13.882h12.6c1.353,0,2.031-.475,2.055-1.438.025-.985-.674-1.494-2.064-1.494q-12.6,0-25.191,0a5.861,5.861,0,0,0-.8.032,1.345,1.345,0,0,0-1.2,1.109c-.241,1.024.483,1.785,1.723,1.786Q-828.379,1646.871-821.934,1646.864Zm.017,6.938h12.581c.219,0,.44.01.658-.007a1.455,1.455,0,0,0,1.393-1.422,1.467,1.467,0,0,0-1.325-1.489,4.908,4.908,0,0,0-.585-.012H-834.65a4.8,4.8,0,0,0-.658.016,1.484,1.484,0,0,0-1.29,1.454,1.469,1.469,0,0,0,1.367,1.451c.218.019.439.009.658.009Zm.014,10.975q-6.547,0-13.093,0a1.48,1.48,0,0,0-1.6,1.44,1.5,1.5,0,0,0,1.568,1.486c.146.006.293,0,.439,0h25.309a4.8,4.8,0,0,0,.73-.021,1.446,1.446,0,0,0,1.222-1.758,1.454,1.454,0,0,0-1.628-1.149Q-815.431,1664.773-821.9,1664.777Z" transform="translate(-12.049 -25.129)" fill="#fff"/>
    <path id="Trazado_179715" data-name="Trazado 179715" d="M-658.378,1617.3A12.447,12.447,0,0,1-646,1604.823a12.5,12.5,0,0,1,12.523,12.433,12.485,12.485,0,0,1-12.4,12.473A12.433,12.433,0,0,1-658.378,1617.3Zm10.994,3.1c0,1.585-.007,3.171,0,4.756.006,1.04.547,1.657,1.428,1.668a1.459,1.459,0,0,0,1.494-1.621q.024-4.829,0-9.659a1.487,1.487,0,0,0-1.486-1.639c-.878.007-1.429.631-1.436,1.666C-647.393,1617.18-647.385,1618.789-647.385,1620.4Zm0-9.765a1.462,1.462,0,0,0,1.466,1.484,1.5,1.5,0,0,0,1.442-1.453,1.457,1.457,0,0,0-1.485-1.465A1.416,1.416,0,0,0-647.383,1610.634Z" transform="translate(-160.933 -12.041)" fill="#ff6b00"/>
    <path id="Trazado_179716" data-name="Trazado 179716" d="M-781.734,1683.353c-3.659,0-7.317-.015-10.975.015-.589,0-.76-.163-.716-.732a13.22,13.22,0,0,0,0-1.9c-.035-.516.143-.655.652-.652,3.658.021,7.317.011,10.976.011,3.707,0,7.415.015,11.122-.014.617,0,.8.174.754.776a13.3,13.3,0,0,0,0,1.9c.029.484-.135.61-.615.608C-774.27,1683.344-778,1683.353-781.734,1683.353Z" transform="translate(-52.315 -72.567)" fill="#5a189a"/>
    <path id="Trazado_179717" data-name="Trazado 179717" d="M-793.6,1811.616q-6.3,0-12.6,0a5.952,5.952,0,0,1-.8-.03,1.437,1.437,0,0,1-1.257-1.4,1.434,1.434,0,0,1,1.2-1.448,5.048,5.048,0,0,1,.875-.054q12.6,0,25.19,0,2.025,0,2.057,1.441c.023.987-.674,1.491-2.066,1.491Z" transform="translate(-40.392 -175.998)" fill="#030303"/>
    <path id="Trazado_179718" data-name="Trazado 179718" d="M-793.56,1740.7q-6.444,0-12.889,0c-1.24,0-1.964-.762-1.722-1.786a1.344,1.344,0,0,1,1.2-1.109,5.84,5.84,0,0,1,.8-.032q12.6,0,25.191,0c1.39,0,2.089.508,2.064,1.494-.025.963-.7,1.438-2.055,1.438Z" transform="translate(-40.423 -118.961)" fill="#030303"/>
    <path id="Trazado_179719" data-name="Trazado 179719" d="M-793.566,1776.135h-12.654c-.219,0-.44.01-.658-.009a1.469,1.469,0,0,1-1.367-1.451,1.484,1.484,0,0,1,1.29-1.454,4.8,4.8,0,0,1,.658-.016h25.455a4.885,4.885,0,0,1,.585.012,1.467,1.467,0,0,1,1.325,1.489,1.455,1.455,0,0,1-1.393,1.422c-.218.017-.439.007-.658.007Z" transform="translate(-40.4 -147.462)" fill="#030303"/>
    <path id="Trazado_179720" data-name="Trazado 179720" d="M-793.554,1844.25q6.474,0,12.947,0a1.454,1.454,0,0,1,1.628,1.149,1.446,1.446,0,0,1-1.222,1.758,4.782,4.782,0,0,1-.73.021h-25.309c-.146,0-.293,0-.439,0a1.5,1.5,0,0,1-1.568-1.486,1.48,1.48,0,0,1,1.6-1.44Q-800.1,1844.244-793.554,1844.25Z" transform="translate(-40.399 -204.603)" fill="#030303"/>
    <path id="Trazado_179721" data-name="Trazado 179721" d="M-602.226,1657.711c0-1.61-.008-3.219,0-4.829.007-1.035.557-1.659,1.436-1.666a1.487,1.487,0,0,1,1.486,1.639q.022,4.829,0,9.659a1.459,1.459,0,0,1-1.494,1.621c-.881-.011-1.421-.628-1.428-1.668C-602.233,1660.882-602.226,1659.3-602.226,1657.711Z" transform="translate(-206.091 -49.353)" fill="#030303"/>
    <path id="Trazado_179722" data-name="Trazado 179722" d="M-602.2,1628.619a1.416,1.416,0,0,1,1.424-1.434,1.457,1.457,0,0,1,1.485,1.465,1.5,1.5,0,0,1-1.442,1.453A1.462,1.462,0,0,1-602.2,1628.619Z" transform="translate(-206.111 -30.026)" fill="#030303"/>
  </g>
</svg>
