<svg xmlns="http://www.w3.org/2000/svg" width="70.312" height="58.902" viewBox="0 0 70.312 58.902">
  <g id="Grupo_120155" data-name="Grupo 120155" transform="translate(541.382 -1679.294)">
    <path id="Trazado_180249" data-name="Trazado 180249" d="M-479.082,1703.793a1.047,1.047,0,0,1,1.18-.977c1.212.014,2.425-.009,3.637.007a3.168,3.168,0,0,1,3.173,3.123c.032,1.853.029,3.706,0,5.559a3.163,3.163,0,0,1-3.211,3.155q-6.074.021-12.148,0a3.162,3.162,0,0,1-3.214-3.008c-.017-.228-.017-.457-.018-.686,0-1.2,0-1.2-1.239-1.2-1.343,0-1.343,0-1.343,1.356q0,6.383,0,12.767c0,1.28-.295,1.571-1.583,1.573-.824,0-1.648.027-2.47-.011-.463-.021-.648.084-.615.587a6.315,6.315,0,0,1-.057,1.641,3.128,3.128,0,0,1-3.054,2.644q-6.176.04-12.353,0a3.169,3.169,0,0,1-3.139-3.024c-.006-.068,0-.138-.009-.206-.057-.538.235-1.414-.117-1.548a6.143,6.143,0,0,0-2.233-.084c-.362.009-.238.332-.239.532-.008,1.945,0,3.889-.006,5.834,0,1.165-.3,1.458-1.461,1.46-.847,0-1.7.041-2.539-.014-.573-.037-.7.184-.656.693a7.554,7.554,0,0,1-.017,1.234,3.092,3.092,0,0,1-2.974,2.948c-2.1.073-4.208.034-6.313.039-1.876,0-3.752-.02-5.628.007a3.341,3.341,0,0,1-3.521-2.275c-.02-.052-.091-.086-.138-.128v-7.14c.146-.014.163-.143.2-.241a3.244,3.244,0,0,1,3.28-2.1c1.073.012,2.146,0,3.218,0,.853,0,1.118.225,1.312,1.067a1.145,1.145,0,0,1-1.323,1c-1.1-.022-2.195-.014-3.292,0a1.193,1.193,0,0,0-1.338,1.362q-.012,2.5,0,5.007c0,.928.413,1.36,1.327,1.361q5.932.008,11.864-.011a1.119,1.119,0,0,0,1.263-1.273q.025-2.572,0-5.144a1.158,1.158,0,0,0-1.322-1.3c-1.074-.012-2.15-.034-3.223,0a1.228,1.228,0,0,1-1.411-1c.27-.909.474-1.068,1.4-1.071,1.121,0,2.242-.012,3.364,0a3.212,3.212,0,0,1,3.27,3.112c.042.588-.262,1.409.139,1.7s1.186.057,1.8.117c.561.056.673-.16.67-.684-.022-3.684-.006-7.368-.017-11.052,0-.61.265-1.412-.114-1.778s-1.176-.048-1.784-.117-.752.177-.694.73a6.481,6.481,0,0,1-.02,1.233,3.123,3.123,0,0,1-3.087,2.91q-6.177.037-12.356,0a3.085,3.085,0,0,1-2.83-1.845c-.09-.172-.071-.411-.3-.5V1713c.229-.089.21-.329.3-.5a3.1,3.1,0,0,1,2.836-1.837q6.178-.031,12.355,0a3.129,3.129,0,0,1,3.068,2.857,8.3,8.3,0,0,1,.027,1.439c-.04.5.16.616.624.6.891-.033,1.784-.015,2.677-.008,1.04.009,1.353.319,1.356,1.35.005,1.785,0,3.57,0,5.355,0,1.146,0,1.146,1.152,1.146,1.433,0,1.432,0,1.44-1.4,0-.137,0-.275.007-.412a3.2,3.2,0,0,1,3.148-3.1q6.177-.035,12.355,0a3.163,3.163,0,0,1,3.022,2.526,8.326,8.326,0,0,1,.086,1.914c0,.349.087.5.46.472a7.36,7.36,0,0,1,1.371,0c.649.08.781-.176.779-.789-.02-8.879-.011-17.757-.019-26.636,0-.61.266-1.4-.119-1.782s-1.176-.061-1.784-.124c-.512-.053-.768.078-.69.655a6.026,6.026,0,0,1,0,1.1A3.214,3.214,0,0,1-500.15,1699q-6.075.029-12.149,0a3.147,3.147,0,0,1-3.179-2.745,9.866,9.866,0,0,1-.057-1.71c.008-.362-.111-.482-.47-.463a9.894,9.894,0,0,1-1.509,0c-.542-.054-.639.165-.633.659.027,1.99.018,3.982.008,5.972,0,.865-.346,1.2-1.2,1.215-.709.012-1.419,0-2.128,0-1.306,0-1.306,0-1.313,1.33a3.247,3.247,0,0,1-3.56,3.582q-5.732.008-11.463,0a4.7,4.7,0,0,1-1.156-.1,3.611,3.611,0,0,1-2.418-2.388v-7c.146-.02.15-.153.191-.25a3.222,3.222,0,0,1,3.249-2.122q1.672.015,3.344,0a1.076,1.076,0,0,1,1.224,1c-.177.794-.467,1.058-1.253,1.068-1.119.014-2.239,0-3.359.007-.914.007-1.329.426-1.333,1.351q-.012,2.5,0,5c0,.92.427,1.365,1.328,1.367q5.929.009,11.858-.007a1.131,1.131,0,0,0,1.268-1.275q.026-2.57,0-5.141c-.008-.9-.417-1.283-1.313-1.291-1.074-.01-2.148,0-3.222-.011-.9-.006-1.159-.206-1.416-1.066a1.157,1.157,0,0,1,1.316-1.012c1.166.028,2.333-.011,3.5.016a3.186,3.186,0,0,1,3.21,3.091c.043.582-.266,1.4.151,1.684s1.19.049,1.8.114c.577.06.656-.186.653-.689-.019-3.637,0-7.273-.017-10.91,0-.655.3-1.532-.123-1.908-.441-.4-1.31-.07-1.989-.121-.356-.027-.491.1-.475.462a12.4,12.4,0,0,1-.016,1.44,3.17,3.17,0,0,1-3.21,3.015q-6.072.022-12.144,0a3.143,3.143,0,0,1-2.941-1.9c-.077-.154-.066-.368-.282-.432v-7.14c.146-.024.145-.158.186-.256a3.218,3.218,0,0,1,3.2-2.138c1.532-.006,3.065,0,4.6,0q3.465,0,6.931,0c2.428,0,3.681,1.253,3.689,3.663,0,1.237,0,1.237,1.255,1.237.686,0,1.372,0,2.059,0,.989.007,1.328.334,1.332,1.31.007,1.967.023,3.935-.012,5.9-.009.532.153.677.656.635a10.133,10.133,0,0,1,1.508,0c.38.025.452-.131.449-.471a8.552,8.552,0,0,1,.075-1.846,3.088,3.088,0,0,1,2.911-2.555c4.208-.041,8.417-.048,12.625,0a3.147,3.147,0,0,1,3,3.156c.025.543-.173,1.3.108,1.578.37.363,1.122.093,1.709.115.5.019,1.006,0,1.509.006.972.017,1.327.367,1.33,1.339.007,2.676,0,5.353,0,8.03,0,1.922.014,3.843-.01,5.765-.005.448.118.6.571.569.635-.047,1.431.189,1.868-.114s.112-1.148.161-1.753a3.2,3.2,0,0,1,3.262-3.038c1.144-.01,2.288.024,3.431-.011a1.15,1.15,0,0,1,1.327.993c-.242.873-.493,1.068-1.4,1.071-1.074,0-2.149-.008-3.223,0-.9.01-1.318.405-1.327,1.287q-.025,2.571,0,5.143a1.144,1.144,0,0,0,1.318,1.3q5.9.008,11.793-.009c.912,0,1.334-.435,1.339-1.352q.013-2.5,0-5.006a1.178,1.178,0,0,0-1.339-1.352c-1.1-.013-2.194,0-3.291-.014C-478.629,1704.867-478.923,1704.617-479.082,1703.793Zm-27.149-6.85v-.009q2.88,0,5.759,0c1.05,0,1.474-.407,1.48-1.435q.015-2.434,0-4.869c-.006-1-.422-1.408-1.428-1.41q-5.794-.014-11.588-.013c-1.051,0-1.467.408-1.473,1.439q-.014,2.435,0,4.869c.006,1,.43,1.424,1.42,1.427C-510.117,1696.947-508.174,1696.943-506.231,1696.943Zm0,31.33v-.01c1.943,0,3.885,0,5.828,0,.995,0,1.4-.413,1.41-1.424q.014-2.435,0-4.869c-.006-1-.433-1.414-1.429-1.416q-5.794-.01-11.588-.008c-1.047,0-1.466.408-1.472,1.444q-.014,2.435,0,4.869c.006,1,.422,1.41,1.423,1.414C-510.114,1728.277-508.172,1728.272-506.229,1728.272Zm-25.816-46.893v-.014c-1.965,0-3.93-.008-5.9,0-.962.006-1.375.43-1.379,1.385q-.01,2.468,0,4.936c0,.992.426,1.414,1.424,1.414q5.827,0,11.654-.008c.961,0,1.367-.407,1.373-1.381q.016-2.468,0-4.936c-.006-1.019-.384-1.392-1.418-1.4C-528.207,1681.373-530.126,1681.379-532.045,1681.379Zm-.065,39.058v-.01c1.988,0,3.976.007,5.964,0a1.117,1.117,0,0,0,1.276-1.257q.027-2.571,0-5.142a1.142,1.142,0,0,0-1.306-1.3q-5.9-.015-11.791-.009a1.184,1.184,0,0,0-1.352,1.342q-.014,2.5,0,5.005c0,.959.419,1.372,1.381,1.375C-536,1720.442-534.053,1720.437-532.111,1720.437Z" transform="translate(0 0)" fill="#040403"/>
    <path id="Trazado_180250" data-name="Trazado 180250" d="M-239.863,1812.8c.159.823.453,1.074,1.3,1.081,1.1.009,2.194,0,3.291.014a1.178,1.178,0,0,1,1.339,1.352q.013,2.5,0,5.006c0,.917-.427,1.349-1.339,1.352q-5.9.015-11.794.009a1.144,1.144,0,0,1-1.318-1.3q-.024-2.571,0-5.143c.009-.882.428-1.277,1.327-1.287,1.074-.012,2.149,0,3.223,0,.907,0,1.158-.2,1.4-1.071Z" transform="translate(-239.219 -109.002)" fill="#ff6b00"/>
    <path id="Trazado_180251" data-name="Trazado 180251" d="M-524.223,1770.194l2.56.006c.257.859.517,1.06,1.416,1.066,1.074.007,2.148,0,3.222.01.9.008,1.3.4,1.313,1.292q.024,2.57,0,5.141a1.131,1.131,0,0,1-1.268,1.275q-5.929.016-11.858.007c-.9,0-1.323-.446-1.328-1.367q-.011-2.5,0-5c0-.925.42-1.343,1.333-1.351,1.119-.009,2.239.008,3.359-.007C-524.69,1771.252-524.4,1770.988-524.223,1770.194Z" transform="translate(-9.152 -74.219)" fill="#5a189a"/>
    <path id="Trazado_180252" data-name="Trazado 180252" d="M-524.215,1941.336l2.544,0a1.228,1.228,0,0,0,1.411,1c1.073-.033,2.149-.012,3.223,0,.884.01,1.314.417,1.322,1.3q.025,2.572,0,5.144a1.119,1.119,0,0,1-1.263,1.273q-5.932.019-11.864.01c-.914,0-1.322-.433-1.327-1.361q-.011-2.5,0-5.006a1.193,1.193,0,0,1,1.338-1.362c1.1-.011,2.195-.02,3.292,0A1.145,1.145,0,0,0-524.215,1941.336Z" transform="translate(-9.152 -213.954)" fill="#5a189a"/>
    <path id="Trazado_180253" data-name="Trazado 180253" d="M-382.122,1741.039c-1.943,0-3.886,0-5.828,0-.99,0-1.414-.426-1.42-1.427q-.015-2.434,0-4.869c.006-1.031.422-1.439,1.473-1.439q5.794,0,11.588.013c1.005,0,1.422.414,1.428,1.41q.015,2.434,0,4.869c-.006,1.028-.43,1.433-1.48,1.435q-2.88.006-5.759,0Z" transform="translate(-124.11 -44.096)" fill="#ffb600"/>
    <path id="Trazado_180254" data-name="Trazado 180254" d="M-382.117,1911.8c-1.943,0-3.885,0-5.828,0-1,0-1.417-.412-1.423-1.413q-.015-2.435,0-4.869c.006-1.036.424-1.444,1.472-1.444q5.794,0,11.588.008c1,0,1.423.42,1.429,1.416q.016,2.434,0,4.869c-.006,1.011-.415,1.421-1.41,1.424-1.943.006-3.885,0-5.828,0Z" transform="translate(-124.112 -183.532)" fill="#5a189a"/>
    <path id="Trazado_180255" data-name="Trazado 180255" d="M-522.89,1690.58c1.919,0,3.839-.006,5.758,0,1.034,0,1.413.378,1.418,1.4q.013,2.468,0,4.936c-.006.974-.412,1.379-1.373,1.381q-5.827.01-11.654.008c-1,0-1.42-.422-1.424-1.414q-.009-2.468,0-4.936c0-.955.417-1.379,1.379-1.385,1.965-.012,3.93,0,5.9,0Z" transform="translate(-9.155 -9.201)" fill="#ff8d3b"/>
    <path id="Trazado_180256" data-name="Trazado 180256" d="M-522.959,1869.118c-1.942,0-3.885,0-5.827,0-.963,0-1.377-.416-1.381-1.375q-.011-2.5,0-5.005a1.184,1.184,0,0,1,1.352-1.342q5.9-.006,11.791.009a1.142,1.142,0,0,1,1.306,1.3q.022,2.571,0,5.142a1.117,1.117,0,0,1-1.276,1.257c-1.988.01-3.976,0-5.964,0Z" transform="translate(-9.152 -148.681)" fill="#ff6b00"/>
    <path id="Trazado_180257" data-name="Trazado 180257" d="M-388.393,1814.517c.593-1.387-.3-2.615-1.461-3.838a1.686,1.686,0,0,1,.931-2.937,4.6,4.6,0,0,0,3.774-2.741,1.658,1.658,0,0,1,3.03-.022,4.615,4.615,0,0,0,3.828,2.772,1.709,1.709,0,0,1,.96,2.874,16.608,16.608,0,0,1-1.2,1.4,1.446,1.446,0,0,0-.4,1.357,16.533,16.533,0,0,1,.14,1.775,1.68,1.68,0,0,1-2.422,1.729,4.592,4.592,0,0,0-4.78,0C-387.173,1817.552-388.69,1816.487-388.393,1814.517Zm4.771-8.113c-.392.627-.777,1.187-1.1,1.779a1.7,1.7,0,0,1-1.261.934c-.68.125-1.346.326-2.245.55a4.308,4.308,0,0,1,1.825,5.223,4.329,4.329,0,0,1,5.459.049,10.019,10.019,0,0,0-.1-2.194,1.847,1.847,0,0,1,.526-1.551c.458-.47.857-1,1.336-1.566a16.533,16.533,0,0,0-1.713-.418,2.159,2.159,0,0,1-1.79-1.287C-382.938,1807.418-383.279,1806.958-383.622,1806.4Z" transform="translate(-123.27 -101.824)" fill="#040403"/>
    <path id="Trazado_180258" data-name="Trazado 180258" d="M-373.947,1817.083c.344.554.684,1.015.929,1.521a2.159,2.159,0,0,0,1.79,1.287,16.538,16.538,0,0,1,1.713.418c-.479.568-.878,1.1-1.336,1.566a1.848,1.848,0,0,0-.526,1.551,10.017,10.017,0,0,1,.1,2.194,4.329,4.329,0,0,0-5.459-.049,4.308,4.308,0,0,0-1.825-5.223c.9-.224,1.564-.426,2.245-.551a1.7,1.7,0,0,0,1.261-.934C-374.724,1818.27-374.339,1817.71-373.947,1817.083Z" transform="translate(-132.945 -112.503)" fill="#ffe39f"/>
  </g>
</svg>
