<svg xmlns="http://www.w3.org/2000/svg" width="505" height="294.537" viewBox="0 0 505 294.537">
  <g id="Grupo_120466" data-name="Grupo 120466" transform="translate(-180 -773.41)">
    <g id="Grupo_119091" data-name="Grupo 119091" transform="translate(232.59 804.323)">
      <path id="Trazado_179723" data-name="Trazado 179723" d="M119.887,494.8c-35.475-33.126-83.96-67.33-64.948-119,12.505-33.984,43.166-43.457,68.652-64.412,12.578-10.342,4.667-25.4,4.433-40.336-.533-38.261,49.257-67.951,95.033-67.331,49.582.671,71.045,43.42,112.637,45.712,16.332.215,30.956-8.005,45.406-14.534,42.816-19.347,110.756-7.009,114.189,39.779.886,25.268-32.648,65.919.951,79.209,26.777,10.592,53.829,14.493,58.655,52.376,6.316,49.584-27.076,76.8-70.587,89.558Z" transform="translate(-103.253 -234.627)" fill="#a757f7" opacity="0.101"/>
      <g id="Grupo_119078" data-name="Grupo 119078" transform="translate(62.389 91.676)">
        <path id="Trazado_179724" data-name="Trazado 179724" d="M475.591,815.65h37.855a8.484,8.484,0,0,1,8.484,8.484v17.647a8.484,8.484,0,0,1-8.484,8.484h-.281l3.038,10.178a.482.482,0,0,1-.755.522l-14.026-10.7H475.591a8.484,8.484,0,0,1-8.484-8.484V824.134A8.484,8.484,0,0,1,475.591,815.65Z" transform="translate(-467.107 -815.65)" fill="#fff"/>
        <path id="Trazado_179725" data-name="Trazado 179725" d="M546.218,866.9H509.875a4.2,4.2,0,0,1-4.2-4.2h0a4.2,4.2,0,0,1,4.2-4.2h36.344a4.2,4.2,0,0,1,4.2,4.2h0A4.2,4.2,0,0,1,546.218,866.9Z" transform="translate(-499.897 -852.077)" fill="#a757f7" opacity="0.247"/>
        <path id="Trazado_179726" data-name="Trazado 179726" d="M546.218,952.5H509.875a4.2,4.2,0,0,1-4.2-4.2h0a4.2,4.2,0,0,1,4.2-4.2h36.344a4.2,4.2,0,0,1,4.2,4.2h0A4.2,4.2,0,0,1,546.218,952.5Z" transform="translate(-499.897 -924.861)" fill="#a757f7" opacity="0.247"/>
      </g>
      <g id="Grupo_119079" data-name="Grupo 119079" transform="translate(252.002 44.043)">
        <path id="Trazado_179727" data-name="Trazado 179727" d="M1783.309,497.7h-41.283a9.252,9.252,0,0,0-9.252,9.252V526.2a9.252,9.252,0,0,0,9.252,9.252h.306l-3.313,11.1a.526.526,0,0,0,.823.569l15.3-11.669h28.17a9.253,9.253,0,0,0,9.252-9.252V506.95A9.253,9.253,0,0,0,1783.309,497.7Z" transform="translate(-1732.774 -497.698)" fill="#fff"/>
        <path id="Rectángulo_36633" data-name="Rectángulo 36633" d="M4.2,0H44.832a4.2,4.2,0,0,1,4.2,4.2v0a4.2,4.2,0,0,1-4.2,4.2H4.2A4.2,4.2,0,0,1,0,4.2v0A4.2,4.2,0,0,1,4.2,0Z" transform="translate(4.888 7.866)" fill="#a757f7" opacity="0.252"/>
        <path id="Rectángulo_36634" data-name="Rectángulo 36634" d="M4.2,0H23.664a4.2,4.2,0,0,1,4.2,4.2v0a4.2,4.2,0,0,1-4.2,4.2H4.2A4.2,4.2,0,0,1,0,4.2v0A4.2,4.2,0,0,1,4.2,0Z" transform="translate(6.233 20.565)" fill="#a757f7" opacity="0.252"/>
      </g>
      <g id="Grupo_119080" data-name="Grupo 119080" transform="translate(25.79 184.859)">
        <path id="Trazado_179728" data-name="Trazado 179728" d="M224.063,1439.422a9.075,9.075,0,0,1,5.634-1.774c4.729,0,7.233,2.573,7.233,6.19,0,2.087-1.008,4.208-3.06,6.329-2.608,2.747-4.486,4.1-5.668,4.1a1.959,1.959,0,0,1-1.982-1.982c0-.974.9-1.947,2.469-3.373a1.512,1.512,0,0,1,.278-.243c1.773-1.635,2.33-2.539,2.33-3.651a2.066,2.066,0,0,0-2.3-2.156,7.441,7.441,0,0,0-2.225.417,7.156,7.156,0,0,1-1.878.417,2.169,2.169,0,0,1-2.087-2.226A2.629,2.629,0,0,1,224.063,1439.422Zm4.764,23.195a3.454,3.454,0,0,1-3.547-3.547,3.4,3.4,0,0,1,3.547-3.269,3.333,3.333,0,0,1,3.269,3.269A3.376,3.376,0,0,1,228.827,1462.617Z" transform="translate(-222.811 -1437.648)" fill="#a757f7"/>
      </g>
      <g id="Grupo_119081" data-name="Grupo 119081" transform="translate(310.316 107.433)">
        <path id="Trazado_179729" data-name="Trazado 179729" d="M2122.844,922a5.969,5.969,0,0,1,3.7-1.166c3.11,0,4.757,1.692,4.757,4.071a6.085,6.085,0,0,1-2.013,4.162c-1.715,1.807-2.95,2.7-3.728,2.7a1.289,1.289,0,0,1-1.3-1.3c0-.64.594-1.281,1.624-2.218a.994.994,0,0,1,.183-.16c1.167-1.075,1.532-1.669,1.532-2.4a1.358,1.358,0,0,0-1.509-1.418,4.9,4.9,0,0,0-1.464.275,4.7,4.7,0,0,1-1.235.274,1.426,1.426,0,0,1-1.372-1.464A1.729,1.729,0,0,1,2122.844,922Zm3.133,15.254a2.272,2.272,0,0,1-2.333-2.333,2.237,2.237,0,0,1,2.333-2.15,2.192,2.192,0,0,1,2.15,2.15A2.22,2.22,0,0,1,2125.977,937.251Z" transform="translate(-2122.02 -920.831)" fill="#a757f7"/>
      </g>
      <g id="Grupo_119087" data-name="Grupo 119087" transform="translate(334.734 152.962)">
        <g id="Grupo_119082" data-name="Grupo 119082">
          <path id="Trazado_179730" data-name="Trazado 179730" d="M2329.823,1264.893H2286.4a1.39,1.39,0,0,1-1.39-1.39v-37.375a1.39,1.39,0,1,1,2.78,0v35.985h42.029a1.39,1.39,0,1,1,0,2.78Z" transform="translate(-2285.014 -1224.738)" fill="#a757f7"/>
        </g>
        <g id="Grupo_119086" data-name="Grupo 119086" transform="translate(3.287 5.995)">
          <g id="Grupo_119083" data-name="Grupo 119083" transform="translate(0 3.642)">
            <path id="Trazado_179731" data-name="Trazado 179731" d="M2308.343,1310.446a1.39,1.39,0,0,1-1-2.356l14.033-14.516a1.39,1.39,0,0,1,1.756-.2l6.636,4.3,7-8.131a1.39,1.39,0,1,1,2.107,1.813l-7.789,9.051a1.39,1.39,0,0,1-1.81.259l-6.694-4.342-13.238,13.693A1.386,1.386,0,0,1,2308.343,1310.446Z" transform="translate(-2306.953 -1289.064)" fill="#a757f7"/>
          </g>
          <g id="Grupo_119085" data-name="Grupo 119085" transform="translate(25.708)">
            <g id="Grupo_119084" data-name="Grupo 119084">
              <path id="Trazado_179732" data-name="Trazado 179732" d="M2484.8,1274.841l-1.98-4.012-4.262-1.36,9.488-4.713Z" transform="translate(-2478.557 -1264.756)" fill="#a757f7"/>
            </g>
          </g>
        </g>
      </g>
      <g id="Grupo_119088" data-name="Grupo 119088" transform="translate(79.431 40.761)">
        <path id="Trazado_179733" data-name="Trazado 179733" d="M589.279,492.614a8.411,8.411,0,1,1,8.411-8.411A8.42,8.42,0,0,1,589.279,492.614Zm0-14.505a6.094,6.094,0,1,0,6.094,6.094A6.1,6.1,0,0,0,589.279,478.109Z" transform="translate(-580.868 -475.792)" fill="#a757f7"/>
      </g>
      <g id="Grupo_119089" data-name="Grupo 119089" transform="translate(338.281 112.204)">
        <path id="Trazado_179734" data-name="Trazado 179734" d="M2314.847,965a6.161,6.161,0,1,1,6.16-6.161A6.168,6.168,0,0,1,2314.847,965Zm0-10.625a4.464,4.464,0,1,0,4.464,4.464A4.469,4.469,0,0,0,2314.847,954.373Z" transform="translate(-2308.686 -952.676)" fill="#ffb580"/>
      </g>
      <g id="Grupo_119090" data-name="Grupo 119090" transform="translate(15.489 147.234)">
        <path id="Trazado_179735" data-name="Trazado 179735" d="M159.582,1197.564a5.532,5.532,0,1,1,5.532-5.532A5.538,5.538,0,0,1,159.582,1197.564Zm0-9.54a4.008,4.008,0,1,0,4.008,4.008A4.013,4.013,0,0,0,159.582,1188.025Z" transform="translate(-154.05 -1186.501)" fill="#ffb580"/>
      </g>
      <circle id="Elipse_4946" data-name="Elipse 4946" cx="3.01" cy="3.01" r="3.01" transform="translate(311.081 35.538) rotate(-80.783)" fill="#ffb600"/>
      <path id="Trazado_179736" data-name="Trazado 179736" d="M342.352,762.66a5.917,5.917,0,1,1-5.917-5.917A5.917,5.917,0,0,1,342.352,762.66Z" transform="translate(-288.591 -673.891)" fill="#ffb580"/>
      <path id="Trazado_179737" data-name="Trazado 179737" d="M2239.807,321.189a4.448,4.448,0,1,1-4.449-4.448A4.448,4.448,0,0,1,2239.807,321.189Z" transform="translate(-1904.281 -299.808)" fill="#ffe39f"/>
      <path id="Trazado_179738" data-name="Trazado 179738" d="M2392.51,1037.893a3.8,3.8,0,1,1-3.8-3.8A3.8,3.8,0,0,1,2392.51,1037.893Z" transform="translate(-2035.216 -909.694)" fill="#ffb580"/>
      <path id="Trazado_179739" data-name="Trazado 179739" d="M2162.477,473.112a4.734,4.734,0,1,1-4.734-4.734A4.734,4.734,0,0,1,2162.477,473.112Z" transform="translate(-1838.051 -428.728)" fill="#ffb600"/>
      <path id="Trazado_179740" data-name="Trazado 179740" d="M708.372,415.339a4.8,4.8,0,1,1-4.8-4.8A4.8,4.8,0,0,1,708.372,415.339Z" transform="translate(-601.674 -379.552)" fill="#a757f7"/>
    </g>
    <path id="Trazado_179741" data-name="Trazado 179741" d="M783.655,1940.848H372.644a2.428,2.428,0,0,1-2.428-2.428h0a2.428,2.428,0,0,1,2.428-2.428H783.655a2.428,2.428,0,0,1,2.428,2.428h0A2.428,2.428,0,0,1,783.655,1940.848Z" transform="translate(-145.298 -872.9)" fill="#404040"/>
    <g id="Grupo_119140" data-name="Grupo 119140" transform="translate(265.298 888.132)">
      <g id="Grupo_119098" data-name="Grupo 119098" transform="translate(94.666 8.069)">
        <path id="v-2" d="M979.693,976.95h.005l4.363.016.988,10.3-5.093,2.689-5.431-2.659.878-10.335Z" transform="translate(-963.493 -952.987)" fill="#f37a50"/>
        <g id="Grupo_119097" data-name="Grupo 119097">
          <path id="Trazado_179742" data-name="Trazado 179742" d="M922.376,852.633c2.685,6.71,9.134,10.439,14.4,8.331s7.365-9.258,4.68-15.968-9.134-10.439-14.4-8.33S919.691,845.923,922.376,852.633Z" transform="translate(-918.162 -833.218)" fill="#f37a50"/>
          <path id="Trazado_179743" data-name="Trazado 179743" d="M1040.1,901.514a.987.987,0,1,0,.247-1.374A.987.987,0,0,0,1040.1,901.514Z" transform="translate(-1019.092 -887.534)"/>
          <path id="Trazado_179744" data-name="Trazado 179744" d="M990.663,920.931a1.069,1.069,0,1,0,.267-1.487A1.069,1.069,0,0,0,990.663,920.931Z" transform="translate(-977.05 -903.933)"/>
          <path id="Trazado_179745" data-name="Trazado 179745" d="M1031.1,920.831c1.335,1.052,3,2.321,3,2.321a2.591,2.591,0,0,1-1.863,2.307c.68-.617,1.277-1.438.57-2.386S1031.1,920.831,1031.1,920.831Z" transform="translate(-1011.589 -905.275)" fill="#de623c"/>
          <g id="Grupo_119092" data-name="Grupo 119092" transform="translate(11.174 13.651)">
            <path id="Trazado_179746" data-name="Trazado 179746" d="M975.966,910.819a.493.493,0,0,1-.479-.607,2.628,2.628,0,0,1,2.4-2.1.492.492,0,1,1,0,.985c-1.112.005-1.441,1.328-1.444,1.341A.493.493,0,0,1,975.966,910.819Z" transform="translate(-975.473 -908.114)" fill="#201d40"/>
          </g>
          <g id="Grupo_119093" data-name="Grupo 119093" transform="translate(19.562 10.343)">
            <path id="Trazado_179747" data-name="Trazado 179747" d="M1031.874,887.583a.411.411,0,0,1-.354-.618,2.025,2.025,0,0,1,1.265-.9,2.1,2.1,0,0,1,1.711.542.41.41,0,0,1-.513.641,1.337,1.337,0,0,0-1.048-.376,1.187,1.187,0,0,0-.706.512A.41.41,0,0,1,1031.874,887.583Z" transform="translate(-1031.464 -886.033)" fill="#201d40"/>
          </g>
          <path id="Trazado_179748" data-name="Trazado 179748" d="M901.431,831.4c-2.271-6.466,3.261-10.183,3.261-10.183s-1.484-.133-1.662-2.217a5.484,5.484,0,0,0,3.451-.075c7.374-2.67,12.451-2.635,12.451.521,0,1.123,4.87.354,4.462,7.909.029-.533-1.711-3.64-3.356-3.95s-.16,1.888-3.6,2.36c-3.467.476-6.017-.365-8.135,1.59-1.657,1.705-2.068,10.384-1.816,10.906C905.914,837.064,902.43,834.242,901.431,831.4Z" transform="translate(-900.884 -816.997)" fill="#12263f"/>
          <path id="Trazado_179749" data-name="Trazado 179749" d="M956.992,920.831s.314,3.937-.254,5.154c-.591-1.579-1.859.095-3.051.252-2.879.381-8.073-.579-8.588,3.739-3.518,1.113-6.814-6.418-6.814-6.418-.2,8.413,5.955,13.191,14.815,11.792C958.938,934.429,959.479,926.3,956.992,920.831Z" transform="translate(-932.678 -905.275)" fill="#12263f"/>
          <g id="Grupo_119094" data-name="Grupo 119094" transform="translate(16.294 21.292)">
            <path id="Trazado_179750" data-name="Trazado 179750" d="M1011.6,961.452a7.486,7.486,0,0,1-1.777-.7.328.328,0,0,1,.31-.579,4.756,4.756,0,0,0,3.632.616,3.426,3.426,0,0,0,1.891-1.5.328.328,0,0,1,.582.3,4.035,4.035,0,0,1-2.269,1.816A4.434,4.434,0,0,1,1011.6,961.452Z" transform="translate(-1009.649 -959.121)" fill="#de623c"/>
          </g>
          <g id="Grupo_119096" data-name="Grupo 119096" transform="translate(1.337 17.872)">
            <path id="Trazado_179751" data-name="Trazado 179751" d="M914,936.757a2.569,2.569,0,1,1-3.916.689A2.84,2.84,0,0,1,914,936.757Z" transform="translate(-909.811 -936.289)" fill="#f37a50"/>
            <g id="Grupo_119095" data-name="Grupo 119095" transform="translate(1.652 1.372)">
              <path id="Trazado_179752" data-name="Trazado 179752" d="M923.149,948.174a.37.37,0,0,0,.113-.128,1.68,1.68,0,0,0-.178-2.056,1.791,1.791,0,0,0-2.04-.374.372.372,0,1,0,.336.663,1.06,1.06,0,0,1,1.172.229.952.952,0,0,1,.057,1.184.372.372,0,0,0,.54.481Z" transform="translate(-920.84 -945.445)" fill="#de623c"/>
            </g>
          </g>
        </g>
      </g>
      <path id="Trazado_179753" data-name="Trazado 179753" d="M1017.391,1879.62a4.03,4.03,0,0,1,2.913-2.8c3.858,5.323,13.331,2.056,13.017,9.256-14.406-.093-20.393,0-20.393,0a52.792,52.792,0,0,1,.636-7.114l.751.138Z" transform="translate(-901.476 -1709.974)"/>
      <path id="Trazado_179754" data-name="Trazado 179754" d="M873.517,1880.552a4.031,4.031,0,0,1,2.913-2.8c3.858,5.323,13.331,2.056,13.017,9.255-14.406-.093-20.393,0-20.393,0a52.8,52.8,0,0,1,.636-7.114l.751.138Z" transform="translate(-779.156 -1710.766)"/>
      <path id="Trazado_179755" data-name="Trazado 179755" d="M1001.2,1334.43s2.339,34.114,1.389,41.7-4.315,17.307-3.934,42.393c-4.7,1.176-11.5,0-11.5,0s-1.009-28.365,3.956-41.035c-2.019-12.306-8.5-40.493-8.5-40.493Z" transform="translate(-875.707 -1248.843)" fill="#201d40"/>
      <path id="Trazado_179756" data-name="Trazado 179756" d="M892.067,1340.654s-4.723,38.3-7.035,45.562-6.821,13.406-11.006,38.118c-4.826.241-9.32,0-9.32,0s.651-31.347,8.168-38.476c.254-12.479-1.215-44.959-1.215-44.959Z" transform="translate(-775.46 -1254.134)" fill="#2c2858"/>
      <g id="v" transform="translate(93.753 41.154)">
        <path id="h-5" d="M895.869,1039.74s8.2-2.872,10.938-1.555c8.5,4.093,10.449,0,10.449,0,2.716.234,10.915,1.555,10.915,1.555,0,9.156.611,18.344.445,25.272-.117,6.034,1.033,22.454,1.033,22.454a82.883,82.883,0,0,1-17.6,2.433,80.517,80.517,0,0,1-17.263-2.336s.457-16.631.837-22.812C895.5,1057.821,895.869,1048.871,895.869,1039.74Z" transform="translate(-894.786 -1037.839)" fill="#ff6b00"/>
      </g>
      <g id="c" transform="translate(124.807 43.055)">
        <path id="c-2" data-name="c" d="M1118.984,1064.131c-3.386-8.078-13.433-13.216-14.581-13.608l-2.33,10.371a60.726,60.726,0,0,1,8.33,5.942c-.594,2.888-.495,5.72-2.166,9.372,0,0,1.452-2,3.243-.818,1.741,1.152,4.943-1.2,4.943-1.2A8.579,8.579,0,0,0,1118.984,1064.131Z" transform="translate(-1102.072 -1050.523)" fill="#903e02"/>
      </g>
      <g id="c-3" data-name="c" transform="translate(82.807 43.055)">
        <g id="c-4" data-name="c" transform="translate(33.535 3.13)">
          <g id="c-5" data-name="c">
            <path id="c-6" data-name="c" d="M1073.974,1102.306a.908.908,0,0,0,.176.036h.193a.917.917,0,0,0,.779-.639l9.026-29.1a.769.769,0,0,0,.037-.291c0-.023,0-.046,0-.069s-.008-.039-.011-.06a.914.914,0,0,0-.628-.727.938.938,0,0,0-.172-.037.905.905,0,0,0-.2,0h-22.722l-9.105,30.923h22.639Z" transform="translate(-1050.483 -1071.413)" fill="#afafaf"/>
            <path id="c-7" data-name="c" d="M1055.745,1071.454a.917.917,0,0,0-1.148.6l-8.969,29.029-.02.068a.916.916,0,0,0,.6,1.144v0a.917.917,0,0,0,1.148-.6l8.993-29.1A.917.917,0,0,0,1055.745,1071.454Z" transform="translate(-1045.566 -1071.413)" fill="#636363"/>
          </g>
        </g>
        <path id="c-8" data-name="c" d="M1225.521,1160.6a.943.943,0,0,1,.272-.118c-.01-.014-.021-.028-.03-.042a1.656,1.656,0,0,1,.084-2.277.975.975,0,0,1,.326-.137,1.37,1.37,0,0,1,.421-1.523,1.029,1.029,0,0,1,.587-.164,1.369,1.369,0,0,1,.448-1.6,1.605,1.605,0,0,1,1.747,2.636,1.151,1.151,0,0,1-.507.182,1.56,1.56,0,0,1-.228,2.029.978.978,0,0,1-.326.137,1.369,1.369,0,0,1-.42,1.523,1.021,1.021,0,0,1-.541.164,1.171,1.171,0,0,1-.356,1.412,1.356,1.356,0,0,1-1.476-2.226Z" transform="translate(-1164.641 -1138.97)" fill="#f37a50"/>
        <path id="Trazado_179757" data-name="Trazado 179757" d="M1041.63,1158.766l2.072-1.2a3.914,3.914,0,0,1,3.9-3.008l-.93,3.008s1.637,1.271,5.52-.9c3.8-.853,2.175,1.914,3.433,2.113,1.856.293-1.353,3.941-5.143,4.5-4.9.722-5.486-.281-5.486-.281l-2.775.97Z" transform="translate(-1008.685 -1138.971)" fill="#f37a50"/>
        <path id="c-9" data-name="c" d="M835.5,1073.456c6.923-.484,18.733-3.9,18.733-3.9a11.164,11.164,0,0,1,1.367,6.749c-10.751,9.426-26.932,12.473-31.9,10.2-4.533-2.071-1.333-29.663,10.047-35.983h0C837.651,1057.125,835.5,1073.456,835.5,1073.456Z" transform="translate(-821.721 -1050.523)" fill="#c15201"/>
      </g>
      <g id="Grupo_119107" data-name="Grupo 119107" transform="translate(169.802)">
        <path id="Trazado_179758" data-name="Trazado 179758" d="M1584.564,1878.435c-3.858,5.146-13.331,1.988-13.017,8.948,14.406-.089,20.393,0,20.393,0a49.432,49.432,0,0,0-.636-6.878Z" transform="translate(-1546.203 -1711.349)"/>
        <path id="Trazado_179759" data-name="Trazado 179759" d="M1728.438,1879.335c-3.857,5.146-13.331,1.988-13.017,8.948,14.406-.089,20.393,0,20.393,0a49.4,49.4,0,0,0-.636-6.878Z" transform="translate(-1668.522 -1712.114)"/>
        <path id="Trazado_179760" data-name="Trazado 179760" d="M1604.8,1354.084s-2.339,32.979-1.389,40.311,4.315,16.732,3.934,40.983c4.7,1.137,11.5,0,11.5,0s1.009-27.422-3.956-39.67c2.019-11.9,8.5-39.147,8.5-39.147Z" transform="translate(-1573.103 -1265.552)" fill="#896302"/>
        <path id="Trazado_179761" data-name="Trazado 179761" d="M1673.3,1360.1s4.723,37.025,7.035,44.047,6.821,12.96,11.006,36.851a50.135,50.135,0,0,0,10.577-.955s-1.908-29.349-9.425-36.241c-.254-12.065,1.215-43.464,1.215-43.464Z" transform="translate(-1632.719 -1270.667)" fill="#a37603"/>
        <g id="Grupo_119104" data-name="Grupo 119104" transform="translate(38.687 8.507)">
          <g id="Grupo_119103" data-name="Grupo 119103">
            <g id="Grupo_119102" data-name="Grupo 119102">
              <path id="Trazado_179762" data-name="Trazado 179762" d="M1692.116,866.2c-2.56,6.4-8.708,9.953-13.732,7.942s-7.022-8.826-4.462-15.223,8.708-9.953,13.732-7.942S1694.676,859.8,1692.116,866.2Z" transform="translate(-1670.986 -845.844)" fill="#f37a50"/>
              <path id="Trazado_179763" data-name="Trazado 179763" d="M1685.107,912.8a.941.941,0,1,1-.235-1.31A.941.941,0,0,1,1685.107,912.8Z" transform="translate(-1679.986 -897.628)"/>
              <path id="Trazado_179764" data-name="Trazado 179764" d="M1731.357,931.312a1.019,1.019,0,1,1-.255-1.418A1.019,1.019,0,0,1,1731.357,931.312Z" transform="translate(-1719.187 -913.263)"/>
              <path id="Trazado_179765" data-name="Trazado 179765" d="M1688.123,931.216c-1.272,1-2.863,2.213-2.863,2.213a2.47,2.47,0,0,0,1.776,2.2c-.649-.588-1.218-1.371-.543-2.275S1688.123,931.216,1688.123,931.216Z" transform="translate(-1681.574 -914.542)" fill="#de623c"/>
              <g id="Grupo_119099" data-name="Grupo 119099" transform="translate(11.724 14.858)">
                <path id="Trazado_179766" data-name="Trazado 179766" d="M1741.21,921.671a.47.47,0,0,1-.456-.361c-.012-.05-.328-1.274-1.377-1.279a.47.47,0,0,1,0-.939,2.5,2.5,0,0,1,2.286,2,.47.47,0,0,1-.457.579Z" transform="translate(-1738.91 -919.092)"/>
              </g>
              <g id="Grupo_119100" data-name="Grupo 119100" transform="translate(3.46 11.704)">
                <path id="Trazado_179767" data-name="Trazado 179767" d="M1686.394,899.519a.391.391,0,0,1-.337-.191,1.14,1.14,0,0,0-.68-.491,1.28,1.28,0,0,0-.994.359.391.391,0,1,1-.489-.611,2.006,2.006,0,0,1,1.631-.517,1.928,1.928,0,0,1,1.206.862.391.391,0,0,1-.337.589Z" transform="translate(-1683.747 -898.041)"/>
              </g>
              <path id="Trazado_179768" data-name="Trazado 179768" d="M1680,840.938c-1.852-5.952.49-9.115.49-9.115-1.589-.319-2.207.231-2.207.231a3.531,3.531,0,0,1-.2-3.056c-3.285-1.28-4.921.847-7.885,1.564-4.059.982-9.073-.637-9.542-5.592a.846.846,0,0,1,1.32-.781,3.73,3.73,0,0,0,2.211.646,3.986,3.986,0,0,1-.894-2.286.845.845,0,0,1,1.4-.658c.844.7,2.409,1.366,5.2.843,1.858-.348,6.111-3.324,8.76-2.742,2.166.475,3.884,2.318,4.624,4.956a6.805,6.805,0,0,1,5.857,6.41c.524,5.756-6.143,10.172-6.143,10.172Z" transform="translate(-1660.653 -819.916)"/>
              <path id="Trazado_179769" data-name="Trazado 179769" d="M1775.677,951.041a2.449,2.449,0,1,0,3.736.642A2.708,2.708,0,0,0,1775.677,951.041Z" transform="translate(-1757.058 -931.013)" fill="#f37a50"/>
              <g id="Grupo_119101" data-name="Grupo 119101" transform="translate(18.482 20.885)">
                <path id="Trazado_179770" data-name="Trazado 179770" d="M1784.385,961.928a.351.351,0,0,1-.108-.121,1.6,1.6,0,0,1,.163-1.961,1.707,1.707,0,0,1,1.944-.364.354.354,0,0,1-.318.633,1.01,1.01,0,0,0-1.116.223.907.907,0,0,0-.05,1.129.354.354,0,0,1-.514.46Z" transform="translate(-1784.022 -959.322)" fill="#de623c"/>
              </g>
              <path id="Trazado_179771" data-name="Trazado 179771" d="M1686.947,971.717a.3.3,0,0,1,.316-.452,21.274,21.274,0,0,0,5.626.5.3.3,0,0,1,.232.5,3.743,3.743,0,0,1-6.175-.551Z" transform="translate(-1682.969 -948.585)" fill="#fff"/>
            </g>
          </g>
        </g>
        <path id="Trazado_179772" data-name="Trazado 179772" d="M1494.244,1027.359s.24-.651-20.492-.484l-5.558,6.569c5.752,4.613,25.018,5.432,25.018,5.432Z" transform="translate(-1458.34 -987.34)" fill="#e0a103"/>
        <path id="Trazado_179773" data-name="Trazado 179773" d="M1692.357,1023.232l6.539-.61,6.326,1.764-7.128,7.335Z" transform="translate(-1648.92 -983.747)" fill="#95a6db"/>
        <path id="Trazado_179774" data-name="Trazado 179774" d="M1707.488,1000.052c2.665,2.188,3.21,3.7,8.87.776l.849-8.7-9.216-.726Z" transform="translate(-1661.784 -957.2)" fill="#f37a50"/>
        <path id="Trazado_179775" data-name="Trazado 179775" d="M1642.92,1031.352h0l-1.938-.767.259-2.737-5.375,4.317-1.518.242-1.451-.508-4.521-5.2-.232,2.739-1.71.343h0l-6.166,1-.734,34.224-2.432,11.644a58.675,58.675,0,0,0,26.326,2.161l-.3-11.689,6.389-33.447Z" transform="translate(-1584.939 -987.21)" fill="#f6f6f6"/>
        <path id="Trazado_179776" data-name="Trazado 179776" d="M1702.41,1087.9l-3.863,26.13,2.139,2.971,2.789-2.142.949-26.743Z" transform="translate(-1654.183 -1039.246)" fill="#ff6b00"/>
        <path id="Trazado_179777" data-name="Trazado 179777" d="M1722.795,1065.2l1.412-.372,1.438.628-.608,3.1-2.025-.182Z" transform="translate(-1674.798 -1019.626)" fill="#ff6b00"/>
        <g id="Grupo_119105" data-name="Grupo 119105" transform="translate(27.534 39.704)">
          <path id="Trazado_179778" data-name="Trazado 179778" d="M1602.017,1028.156l-.969,31.565-4.178,20.325s-6.607-.666-10.667-4.529l5.2-15.3,1.779-31.976Z" transform="translate(-1586.204 -1028.156)" fill="#e0a103"/>
          <path id="Trazado_179779" data-name="Trazado 179779" d="M1659,1028.156l-.963,31.141-4.809-23.866Z" transform="translate(-1643.186 -1028.156)" fill="#ffd05c"/>
        </g>
        <g id="Grupo_119106" data-name="Grupo 119106" transform="translate(48.216 41.723)">
          <path id="Trazado_179780" data-name="Trazado 179780" d="M1732.84,1041.635l-8.58,51.172s11.385,1.4,16.067-1.68l-2.541-16.822,3.105-28.559Z" transform="translate(-1724.26 -1041.635)" fill="#e0a103"/>
          <path id="Trazado_179781" data-name="Trazado 179781" d="M1753.074,1041.635l-5.014,29.993,8.979-22.629Z" transform="translate(-1744.494 -1041.635)" fill="#ffd05c"/>
        </g>
        <path id="Trazado_179782" data-name="Trazado 179782" d="M1402.518,774.762c.457,1.6.593,3.319,2.618,4.179,0,0-.3,5.3-.076,9.645,0,0,4.9-5.526,4.9-5.531a29.123,29.123,0,0,1-.238-6.946c.07-.488.166-.974.242-1.464a5.486,5.486,0,0,0-.163-3.838c-2.8-5.54-1.855-7.364-2.241-7.634-.626-.276-2.1.839-1.266,3.561a9.956,9.956,0,0,1,.607,3.927s-2.113-.4-2.864.34C1403.7,771.339,1401.984,772.9,1402.518,774.762Z" transform="translate(-1402.416 -763.134)" fill="#f37a50"/>
        <path id="Trazado_179783" data-name="Trazado 179783" d="M1410.689,882.771a18.807,18.807,0,0,1,6.581-1.38c5.251,15.648,8.994,21.544,7.433,26.037-1.3,3.745-5.42,3.446-7.433.639C1414.614,904.365,1412.262,890.3,1410.689,882.771Z" transform="translate(-1409.45 -863.674)" fill="#e0a103"/>
        <path id="Trazado_179784" data-name="Trazado 179784" d="M1817.654,1069.08l16.543,25.882,19.648,11.094-6.056,6.029-19.712-8.641-13.529-19.088Z" transform="translate(-1752.806 -1023.245)" fill="#e0a103"/>
        <path id="Trazado_179785" data-name="Trazado 179785" d="M1690.694,1032.407a13.6,13.6,0,0,1-4.671,3.086l-2.646-7,1.345-1.8Z" transform="translate(-1641.285 -987.21)" fill="#fff"/>
        <path id="Trazado_179786" data-name="Trazado 179786" d="M1732.219,1038.954a11.728,11.728,0,0,0,4.048,3.868l3.85-6.394-1-2.032Z" transform="translate(-1682.81 -993.758)" fill="#fff"/>
      </g>
      <g id="с" transform="translate(86.624 110.605)">
        <path id="с-2" data-name="с" d="M997.8,1509.693H853.351c-3.395,0-6.147-1.852-6.147-4.136h0c0-2.284,2.752-4.136,6.147-4.136H997.8c3.395,0,6.147,1.852,6.147,4.136h0C1003.944,1507.841,1001.192,1509.693,997.8,1509.693Z" transform="translate(-847.204 -1501.42)" fill="#565656"/>
        <g id="Grupo_119108" data-name="Grupo 119108" transform="translate(58.332 5.1)">
          <path id="Trazado_179787" data-name="Trazado 179787" d="M1238.521,1596.922h0a1.949,1.949,0,0,1-1.632-3.014l38.139-58.446,3.265,2.13-38.139,58.446A1.949,1.949,0,0,1,1238.521,1596.922Z" transform="translate(-1236.568 -1535.461)" fill="#565656"/>
        </g>
        <g id="Grupo_119109" data-name="Grupo 119109" transform="translate(56.685 5.1)">
          <path id="Trazado_179788" data-name="Trazado 179788" d="M1265.345,1596.922h0a1.949,1.949,0,0,0,1.632-3.014l-38.139-58.446-3.265,2.13,38.139,58.446A1.95,1.95,0,0,0,1265.345,1596.922Z" transform="translate(-1225.574 -1535.461)" fill="#565656"/>
        </g>
      </g>
      <g id="с-3" data-name="с" transform="translate(236.025 87.733)">
        <path id="с-4" data-name="с" d="M1880.2,1741.19h0a1.867,1.867,0,0,1-1.867-1.867V1706.24h3.734v33.083A1.867,1.867,0,0,1,1880.2,1741.19Z" transform="translate(-1873.257 -1652.683)" fill="#565656"/>
        <path id="с-5" data-name="с" d="M1967.654,1741.19h0a1.867,1.867,0,0,1-1.867-1.867V1706.24h3.735v33.083A1.867,1.867,0,0,1,1967.654,1741.19Z" transform="translate(-1947.61 -1652.683)" fill="#565656"/>
        <path id="с-6" data-name="с" d="M2082.411,1741.19h0a1.867,1.867,0,0,1-1.867-1.867V1706.24h3.734v33.083A1.867,1.867,0,0,1,2082.411,1741.19Z" transform="translate(-2045.175 -1652.683)" fill="#565656"/>
        <path id="с-7" data-name="с" d="M2169.867,1741.19h0a1.867,1.867,0,0,1-1.867-1.867V1706.24h3.734v33.083A1.867,1.867,0,0,1,2169.867,1741.19Z" transform="translate(-2119.529 -1652.683)" fill="#565656"/>
        <path id="с-8" data-name="с" d="M1874.131,1353.209v39.368a.811.811,0,0,1-.811.811h-24.409a4.459,4.459,0,0,0-4.459,4.459h0a4.459,4.459,0,0,0,4.459,4.459h29.679a4.459,4.459,0,0,0,4.459-4.459v-44.638a4.459,4.459,0,0,0-4.459-4.459h0A4.459,4.459,0,0,0,1874.131,1353.209Z" transform="translate(-1844.452 -1348.75)" fill="#afafaf"/>
        <path id="с-9" data-name="с" d="M0,0H19.3V45.362H0Z" transform="translate(34.138)" fill="#afafaf"/>
        <path id="с-10" data-name="с" d="M2002.951,1353.209v39.368a.811.811,0,0,1-.811.811H1977.73a4.459,4.459,0,0,0-4.459,4.459h0a4.459,4.459,0,0,0,4.459,4.459h29.68a4.459,4.459,0,0,0,4.459-4.459v-44.638a4.459,4.459,0,0,0-4.459-4.459h0A4.459,4.459,0,0,0,2002.951,1353.209Z" transform="translate(-1953.972 -1348.75)" fill="#565656"/>
      </g>
      <g id="с-11" data-name="с" transform="translate(34.24 87.733)">
        <path id="с-12" data-name="с" d="M827.055,1741.19h0a1.867,1.867,0,0,0,1.867-1.867V1706.24h-3.734v33.083A1.867,1.867,0,0,0,827.055,1741.19Z" transform="translate(-776.102 -1652.683)" fill="#565656"/>
        <path id="с-13" data-name="с" d="M739.6,1741.19h0a1.867,1.867,0,0,0,1.867-1.867V1706.24h-3.734v33.083A1.867,1.867,0,0,0,739.6,1741.19Z" transform="translate(-701.747 -1652.683)" fill="#565656"/>
        <path id="с-14" data-name="с" d="M624.842,1741.19h0a1.867,1.867,0,0,0,1.867-1.867V1706.24h-3.734v33.083A1.867,1.867,0,0,0,624.842,1741.19Z" transform="translate(-604.183 -1652.683)" fill="#565656"/>
        <path id="с-15" data-name="с" d="M537.386,1741.19h0a1.867,1.867,0,0,0,1.867-1.867V1706.24h-3.734v33.083A1.867,1.867,0,0,0,537.386,1741.19Z" transform="translate(-529.829 -1652.683)" fill="#565656"/>
        <path id="с-16" data-name="с" d="M635.273,1353.209v39.368a.811.811,0,0,0,.811.811h24.409a4.459,4.459,0,0,1,4.459,4.459h0a4.459,4.459,0,0,1-4.459,4.459h-29.68a4.459,4.459,0,0,1-4.459-4.459v-44.638a4.459,4.459,0,0,1,4.459-4.459h0A4.459,4.459,0,0,1,635.273,1353.209Z" transform="translate(-607.056 -1348.75)" fill="#afafaf"/>
        <path id="с-17" data-name="с" d="M0,0H19.3V45.362H0Z" transform="translate(23.758 45.362) rotate(180)" fill="#afafaf"/>
        <path id="с-18" data-name="с" d="M506.454,1353.209v39.368a.811.811,0,0,0,.811.811h24.409a4.459,4.459,0,0,1,4.459,4.459h0a4.459,4.459,0,0,1-4.459,4.459H502a4.459,4.459,0,0,1-4.459-4.459v-44.638A4.459,4.459,0,0,1,502,1348.75h0A4.459,4.459,0,0,1,506.454,1353.209Z" transform="translate(-497.536 -1348.75)" fill="#565656"/>
      </g>
      <g id="Grupo_119114" data-name="Grupo 119114" transform="translate(180.702 44.252)">
        <path id="Trazado_179789" data-name="Trazado 179789" d="M1932.876,1091.407c-4.118-1.486-10.48-4.734-6.252-10.67s4.12-3.345,2.6-10.555,3.605-12.882,8.493-11.447,6.135,5.39,12.125,4.389,10.971,4.6,8.716,9.461-3.219,7.2-1.11,9.888,11.61,5.587,7.647,12.03-5.779,6.048-4.4,9.351-1.8,7.063-7.307,6.55-10.494-2.6-12.514-8.747S1932.876,1091.407,1932.876,1091.407Z" transform="translate(-1857.806 -1058.512)" fill="#2c2858"/>
        <path id="Trazado_179790" data-name="Trazado 179790" d="M1844.509,1868.159l-3.254.972-2.451-2.505a12.116,12.116,0,0,0-.374-3.641l6.079-1.009A52.611,52.611,0,0,1,1844.509,1868.159Z" transform="translate(-1784.009 -1741.607)" fill="#f37a50"/>
        <path id="Trazado_179791" data-name="Trazado 179791" d="M1782.068,1893.018a3.333,3.333,0,0,0-2.428-2.258c-3.215,4.288-11.11,1.657-10.849,7.457,12.006-.075,17,0,17,0a41.1,41.1,0,0,0-.53-5.732l-.625.111Z" transform="translate(-1724.799 -1766.079)" fill="#421072"/>
        <path id="Trazado_179792" data-name="Trazado 179792" d="M1704.25,1871.051l-3.388.232-1.949-2.076a19.732,19.732,0,0,0,.545-4.541l5.711.254A52.692,52.692,0,0,1,1704.25,1871.051Z" transform="translate(-1665.394 -1743.894)" fill="#f37a50"/>
        <path id="Trazado_179793" data-name="Trazado 179793" d="M1639,1893.018a3.332,3.332,0,0,0-2.427-2.258c-3.215,4.288-11.11,1.657-10.849,7.457,12.006-.075,17,0,17,0a41.1,41.1,0,0,0-.53-5.732l-.625.111Z" transform="translate(-1603.162 -1766.079)" fill="#421072"/>
        <path id="Trazado_179794" data-name="Trazado 179794" d="M1738.517,1527.637c-9.25,1.245-35.307,10.9-36.76,12.649-3,3.609-1.418,23.244-2.844,39.446l7.574.448c3.628-13.195,3.339-18.89,4.979-34.024,0,0,29.77,2.23,40.527-5.031C1763.085,1533.638,1746,1525.863,1738.517,1527.637Z" transform="translate(-1665.394 -1457.139)" fill="#421072"/>
        <path id="Trazado_179795" data-name="Trazado 179795" d="M1763.123,1400.693c2.186.373,3.028,2.127,3.555,5.357-8.328,4.906-20.7,5.255-20.7,5.255l-3.943-1.95S1751.956,1405.782,1763.123,1400.693Z" transform="translate(-1702.056 -1349.43)" fill="#de623c"/>
        <path id="Trazado_179796" data-name="Trazado 179796" d="M1905.881,1282.163c-3.645,5.3-17.606,16.685-19.918,17.044l-2.8-7.836s13.631-14.754,16.113-17.361C1903.564,1269.484,1911.848,1273.528,1905.881,1282.163Z" transform="translate(-1822.042 -1240.132)" fill="#de623c"/>
        <path id="Trazado_179797" data-name="Trazado 179797" d="M1932.314,1277.924c2.923-3.149,6.729-10.257,11.682-9.752s5.311,5.762,3.818,8.592-6.648,9.8-6.648,9.8Z" transform="translate(-1863.828 -1236.741)" fill="#e0a103"/>
        <path id="Trazado_179798" data-name="Trazado 179798" d="M1790.678,1422.34c2.1.723,3.3,7.336,2.708,7.843-9,3.565-27.728-.291-27.728-.291l-.994-3.392S1778.844,1425.632,1790.678,1422.34Z" transform="translate(-1721.294 -1367.834)" fill="#f37a50"/>
        <path id="Trazado_179799" data-name="Trazado 179799" d="M1973.59,1303.269c-2.059-10.619-2.946-14.383-3.8-19.38-2.113-12.351,4.1-21.032-6.551-26.951l-7.763,1.251c-6.277,6.6-10.141,12.6-10.473,16.739-.455,5.341,4.845,8.24,4.845,8.24l-2.132,14.542s-.5,1.188,8.252,2.841S1973.59,1303.269,1973.59,1303.269Z" transform="translate(-1874.592 -1227.211)" fill="#ffb600"/>
        <path id="Trazado_179800" data-name="Trazado 179800" d="M1961.538,1291.56c-3.645,5.357-19.218,18.972-21.558,19.093l-1.675-8.124s14.147-16.58,16.629-19.218C1959.221,1278.734,1967.505,1282.825,1961.538,1291.56Z" transform="translate(-1868.922 -1248.023)" fill="#f37a50"/>
        <path id="Trazado_179801" data-name="Trazado 179801" d="M1994.007,1288.211c2.719-3.957,8.205-11.258,13.158-10.753s5.311,5.762,3.818,8.592-6.648,9.8-6.648,9.8Z" transform="translate(-1916.279 -1244.636)" fill="#e0a103"/>
        <path id="Trazado_179802" data-name="Trazado 179802" d="M1698.863,1445.114c-2.863-.7-9.089-2.8-11.595,3.761.629,1.2,2.933-1.767,3.924-2.043,1.571-.437,2.919.389,4.109,1.526,1.706,1.63,4.557.147,4.557.147Z" transform="translate(-1655.493 -1386.448)" fill="#f37a50"/>
        <g id="Grupo_119110" data-name="Grupo 119110" transform="translate(0 38.719)">
          <path id="Trazado_179803" data-name="Trazado 179803" d="M1597.157,1480.462h-26.9v-3.611h30.508A3.611,3.611,0,0,1,1597.157,1480.462Z" transform="translate(-1556.015 -1452.898)" fill="#afafaf"/>
          <path id="Trazado_179804" data-name="Trazado 179804" d="M1475.587,1321.842l13.83,22.687,3.2-1.68-15.51-25.884h0A3.611,3.611,0,0,0,1475.587,1321.842Z" transform="translate(-1475.172 -1316.965)" fill="#afafaf"/>
        </g>
        <path id="Trazado_179805" data-name="Trazado 179805" d="M2000.419,1121.729c-1.308,5.462-5.846,9.057-10.136,8.03s-6.708-6.288-5.4-11.75,5.846-9.057,10.136-8.03S2001.727,1116.266,2000.419,1121.729Z" transform="translate(-1908.22 -1102.119)" fill="#f37a50"/>
        <path id="Trazado_179806" data-name="Trazado 179806" d="M2030.288,1208.607l-7.129,4.419s-.633,3.151-.948,4.173c-.652,2.11,1.845,3.031,3.955,1.718a6.174,6.174,0,0,0,2.647-3.07Z" transform="translate(-1940.167 -1186.121)" fill="#f37a50"/>
        <path id="Trazado_179807" data-name="Trazado 179807" d="M1983.623,1108.282c2.026.174,6.415-.177,8.016-2.075,1.141,3.854,5.992,7.522,10,9.242.161-3.954.132-11.228-6.957-14.25C1989.118,1098.825,1983.623,1108.282,1983.623,1108.282Z" transform="translate(-1907.451 -1094.479)" fill="#2c2858"/>
        <path id="Trazado_179808" data-name="Trazado 179808" d="M1992.067,1167.855a.767.767,0,1,1-.344-1.029A.767.767,0,0,1,1992.067,1167.855Z" transform="translate(-1913.394 -1150.531)"/>
        <path id="Trazado_179809" data-name="Trazado 179809" d="M2031.606,1177.259a.83.83,0,1,1-.373-1.114A.83.83,0,0,1,2031.606,1177.259Z" transform="translate(-1946.907 -1158.448)"/>
        <g id="Grupo_119111" data-name="Grupo 119111" transform="translate(83.685 16.337)">
          <path id="Trazado_179810" data-name="Trazado 179810" d="M2035.7,1169.347a.288.288,0,0,1-.133-.137,2.2,2.2,0,0,0-1.552-1.074.289.289,0,0,1,.082-.572,2.748,2.748,0,0,1,1.994,1.4.289.289,0,0,1-.391.38Z" transform="translate(-2033.77 -1167.561)" fill="#2c2858"/>
        </g>
        <g id="Grupo_119112" data-name="Grupo 119112" transform="translate(76.841 15.167)">
          <path id="Trazado_179811" data-name="Trazado 179811" d="M1988.243,1160.8a.278.278,0,0,1-.077-.056.288.288,0,0,1,0-.408,2.027,2.027,0,0,1,2.013-.494.289.289,0,0,1-.187.546,1.449,1.449,0,0,0-1.42.358A.288.288,0,0,1,1988.243,1160.8Z" transform="translate(-1988.083 -1159.754)" fill="#2c2858"/>
        </g>
        <path id="Trazado_179812" data-name="Trazado 179812" d="M1996.057,1185.047a7.653,7.653,0,0,1-1.192,1.133.3.3,0,0,0-.1.405,4.178,4.178,0,0,0,1.854,1.3.081.081,0,0,0,.085-.136,3.944,3.944,0,0,1-.945-1.1.362.362,0,0,1,0-.328c.12-.238.36-.722.522-1.124A.137.137,0,0,0,1996.057,1185.047Z" transform="translate(-1916.89 -1166.054)" fill="#de623c"/>
        <path id="Trazado_179813" data-name="Trazado 179813" d="M2070.938,1186.307a2,2,0,1,0,3.089.076A2.207,2.207,0,0,0,2070.938,1186.307Z" transform="translate(-1980.804 -1166.663)" fill="#f37a50"/>
        <g id="Grupo_119113" data-name="Grupo 119113" transform="translate(90.297 20.139)">
          <path id="Trazado_179814" data-name="Trazado 179814" d="M2078.333,1195.213a.283.283,0,0,1-.1-.085,1.305,1.305,0,0,1-.1-1.6,1.392,1.392,0,0,1,1.525-.523.289.289,0,1,1-.182.549.823.823,0,0,0-.874.312.739.739,0,0,0,.093.917.289.289,0,0,1-.36.432Z" transform="translate(-2077.902 -1192.943)" fill="#de623c"/>
        </g>
        <path id="Trazado_179815" data-name="Trazado 179815" d="M1819.189,1536.719c-9.25,1.245-35.347,9.7-36.8,11.45-3,3.609,3.678,19.062,5.815,38.957h8.929c-.093-14.175,1.039-27.216-3.323-31.837,0,0,25.014-1.669,37.484-1.669C1837.65,1553.62,1841.168,1532.14,1819.189,1536.719Z" transform="translate(-1735.717 -1464.533)" fill="#5a189a"/>
        <path id="Trazado_179816" data-name="Trazado 179816" d="M2000.739,1213.833a.235.235,0,0,1,.216-.375,16.688,16.688,0,0,0,4.429,0,.235.235,0,0,1,.216.375,2.935,2.935,0,0,1-4.861,0Z" transform="translate(-1921.962 -1190.244)" fill="#fff"/>
      </g>
      <g id="Grupo_119139" data-name="Grupo 119139" transform="translate(0 48.353)">
        <g id="Grupo_119115" data-name="Grupo 119115" transform="translate(59.882 32.101)">
          <path id="Trazado_179817" data-name="Trazado 179817" d="M808.458,1427.131c-1.766,1.176-1.277,7.581-.61,7.907,9.185,1.122,24.7-6.487,24.7-6.487l.608-3.4A159.3,159.3,0,0,1,808.458,1427.131Z" transform="translate(-786.484 -1406.422)" fill="#f37a50"/>
          <path id="Trazado_179818" data-name="Trazado 179818" d="M670.49,1309.765c3.284,5.251,17.656,18.828,19.886,19.029l1.9-7.7s-12.9-16.356-15.174-18.967C673.176,1297.6,665.113,1301.2,670.49,1309.765Z" transform="translate(-668.698 -1300.163)" fill="#f37a50"/>
        </g>
        <path id="Trazado_179819" data-name="Trazado 179819" d="M552.711,1099.535c.395-5.376-1.159-10.125-5.446-12.544-4.345-2.451-9.788-.047-9.788-.047h0s-4.607-1.639-8.782,2.96-1.017,8.646-2.725,12c-1.012,1.986-6.155,2.4-4.826,8.866.383,1.866,2.627,3.121,4.528,3.247,3.34.219,6.45-1.072,7.8.219,4.461,4.254,14.347,2.715,15.73-1.176.429-1.207,9.322,1.129,8.435-7.09C557.192,1101.806,552.358,1104.339,552.711,1099.535Z" transform="translate(-483.183 -1085.889)" fill="#2c2858"/>
        <g id="Grupo_119118" data-name="Grupo 119118" transform="translate(51.672 29.721)">
          <g id="Grupo_119117" data-name="Grupo 119117">
            <g id="Grupo_119116" data-name="Grupo 119116">
              <path id="Trazado_179820" data-name="Trazado 179820" d="M623.6,1285.582l-7.06-1.3L613.9,1287.8l5.627,11.536,8.276-7.024Z" transform="translate(-613.896 -1284.278)" fill="#f37a50"/>
            </g>
          </g>
        </g>
        <g id="Grupo_119121" data-name="Grupo 119121" transform="translate(43.175 29.712)">
          <g id="Grupo_119120" data-name="Grupo 119120">
            <g id="Grupo_119119" data-name="Grupo 119119">
              <path id="Trazado_179821" data-name="Trazado 179821" d="M584.535,1313.347c-.121-2.195,3.427-11.209,1.559-15.746-1.36-3.65-3.632-9.776-6.414-10.8-1.313-.482-2.662-.818-4.3-1.271,0,0,.923,4.6-1,4.753-3.7.3-6.061-6.057-6.061-6.057-2-.191-11.149,2.817-11.145,3.569.022,5.887,4.8,14.476,6.369,20.842.615,6.874-1.783,15.1-1.792,15.883,0,0,14.725,4.14,23.454-.666C585.391,1323.187,584.7,1316.378,584.535,1313.347Z" transform="translate(-557.178 -1284.22)" fill="#5a189a"/>
            </g>
          </g>
        </g>
        <path id="Trazado_179822" data-name="Trazado 179822" d="M579.036,1506.088s-3.251,8.2-4.044,13.364,3.681,8.475,3.681,8.475h37.2s3.983-6.459,2.836-10.92-3.786-5.17-3.786-5.17Z" transform="translate(-529.069 -1443.137)" fill="#5a189a"/>
        <path id="Trazado_179823" data-name="Trazado 179823" d="M713.215,1542.626c-4.75-.67-18.535,4.684-24.413,16.318h16.445Z" transform="translate(-625.908 -1474.154)" fill="#de623c"/>
        <g id="Grupo_119122" data-name="Grupo 119122" transform="translate(82.098 68.277)">
          <path id="Trazado_179824" data-name="Trazado 179824" d="M816.991,1546.118a13.171,13.171,0,0,0,1.662-2.364,4.1,4.1,0,0,1,6.615-.775c6.857,7.56,21.474,24.793,24.732,26.938.921.606,6.293,3.7,11.4,3.088,0,0,2.521.96.841,2.962-.864,1.03-13.843,2.095-13.843,2.095l-1.012-3.811c-7.555-5.592-16.96-5.19-24.935-15.412A30.723,30.723,0,0,1,816.991,1546.118Z" transform="translate(-816.991 -1541.641)" fill="#de623c"/>
          <path id="Trazado_179825" data-name="Trazado 179825" d="M1019.906,1747.3l5.223,3.39.718-.855-4.236-3.951c2.406-1.9,7.98-.315,7.98-.315,1.826-1.179,5.384-5,5.751-7.053-1.169-1.457-5.062,1.54-5.062,1.54a4.779,4.779,0,0,1-2.065,3.281c-4.252.917-8.491-.291-11.949-2.047C1016.266,1741.29,1013.376,1745.669,1019.906,1747.3Z" transform="translate(-985.87 -1708.682)" fill="#7926cb"/>
        </g>
        <g id="Grupo_119123" data-name="Grupo 119123" transform="translate(79.191 73.703)">
          <path id="Trazado_179826" data-name="Trazado 179826" d="M800.419,1577.933a2.458,2.458,0,0,0-1.8,2.028c-.372,2.639-2.293,7.982.306,13.578,6.381,13.737,10.148,22.788,10.817,26.334-1.666,3.121,4.979,11.647,5.078,12.206l4.783-1.5s-2.745-4.083-3.733-5.681c-2.353-3.807-2.738-8.478-3.12-12.1-1.633-15.459,1.175-25.219-10.011-34.287A2.61,2.61,0,0,0,800.419,1577.933Z" transform="translate(-797.589 -1577.855)" fill="#f37a50"/>
          <path id="Trazado_179827" data-name="Trazado 179827" d="M858.414,1864.862l.471,6.209,1.116.052.573-5.764c2.969.762,5.089,6.155,5.089,6.155,2.045.737,7.244,1.247,9.1.3.45-1.813-4.294-3.092-4.294-3.092a4.779,4.779,0,0,1-3.862.348,18.489,18.489,0,0,1-5.807-10.742S855.751,1858.68,858.414,1864.862Z" transform="translate(-848.642 -1816.305)" fill="#7926cb"/>
        </g>
        <g id="Grupo_119126" data-name="Grupo 119126" transform="translate(53.863 24.4)">
          <g id="Grupo_119125" data-name="Grupo 119125">
            <g id="Grupo_119124" data-name="Grupo 119124">
              <path id="Trazado_179828" data-name="Trazado 179828" d="M634.253,1249.617l-5.733-.859.457,5.321s1.1,2.411,2.37,2.574l4.69-1.271Z" transform="translate(-628.52 -1248.758)" fill="#f37a50"/>
            </g>
          </g>
        </g>
        <g id="Grupo_119130" data-name="Grupo 119130" transform="translate(47.002 4.07)">
          <path id="Trazado_179829" data-name="Trazado 179829" d="M590.833,1126.548c1.48,6.181,6.615,10.249,11.47,9.087s7.59-7.115,6.11-13.3-6.615-10.25-11.47-9.087S589.353,1120.367,590.833,1126.548Z" transform="translate(-589.276 -1113.054)" fill="#f37a50"/>
          <path id="Trazado_179830" data-name="Trazado 179830" d="M694.756,1178.747a.868.868,0,1,0,.39-1.164A.869.869,0,0,0,694.756,1178.747Z" transform="translate(-677.895 -1167.838)"/>
          <path id="Trazado_179831" data-name="Trazado 179831" d="M649.2,1189.387a.94.94,0,1,0,.422-1.26A.94.94,0,0,0,649.2,1189.387Z" transform="translate(-639.157 -1176.796)"/>
          <g id="Grupo_119127" data-name="Grupo 119127" transform="translate(8.531 9.792)">
            <path id="Trazado_179832" data-name="Trazado 179832" d="M640.142,1180.434a.324.324,0,0,0,.151-.155,2.49,2.49,0,0,1,1.756-1.216.327.327,0,0,0-.092-.647A3.109,3.109,0,0,0,639.7,1180a.327.327,0,0,0,.442.43Z" transform="translate(-639.67 -1178.412)" fill="#2c2858"/>
          </g>
          <g id="Grupo_119128" data-name="Grupo 119128" transform="translate(16.341 8.468)">
            <path id="Trazado_179833" data-name="Trazado 179833" d="M694.214,1170.761a.337.337,0,0,0,.087-.063.327.327,0,0,0,0-.462,2.3,2.3,0,0,0-2.277-.559.327.327,0,0,0,.212.619,1.639,1.639,0,0,1,1.606.405A.327.327,0,0,0,694.214,1170.761Z" transform="translate(-691.8 -1169.578)" fill="#2c2858"/>
          </g>
          <path id="Trazado_179834" data-name="Trazado 179834" d="M687.214,1198.2a8.714,8.714,0,0,0,1.349,1.281.344.344,0,0,1,.113.458,4.725,4.725,0,0,1-2.1,1.467.092.092,0,0,1-.1-.154,4.454,4.454,0,0,0,1.069-1.246.41.41,0,0,0,0-.372c-.136-.269-.407-.817-.59-1.271A.154.154,0,0,1,687.214,1198.2Z" transform="translate(-670.911 -1185.404)" fill="#de623c"/>
          <path id="Trazado_179835" data-name="Trazado 179835" d="M586.618,1199.626a2.259,2.259,0,1,1-3.5.086A2.5,2.5,0,0,1,586.618,1199.626Z" transform="translate(-582.726 -1186.092)" fill="#f37a50"/>
          <g id="Grupo_119129" data-name="Grupo 119129" transform="translate(1.5 14.095)">
            <path id="Trazado_179836" data-name="Trazado 179836" d="M594.461,1209.7a.321.321,0,0,0,.115-.1,1.477,1.477,0,0,0,.114-1.811,1.575,1.575,0,0,0-1.725-.592.327.327,0,0,0,.2.621.933.933,0,0,1,.989.353.837.837,0,0,1-.105,1.037.327.327,0,0,0,.407.489Z" transform="translate(-592.74 -1207.136)" fill="#de623c"/>
          </g>
          <path id="Trazado_179837" data-name="Trazado 179837" d="M655.428,1229a.26.26,0,0,1,.239-.415,18.465,18.465,0,0,0,4.906,0,.26.26,0,0,1,.239.415,3.251,3.251,0,0,1-5.385,0Z" transform="translate(-644.491 -1211.278)" fill="#fff"/>
        </g>
        <path id="Trazado_179838" data-name="Trazado 179838" d="M587.383,1119.329c5.794-.776,13.9-6.68,14.567-9.709-1.121-3.639-7.092-5.469-10.464-3.782S584.929,1114.749,587.383,1119.329Z" transform="translate(-538.945 -1102.311)" fill="#2c2858"/>
        <path id="Trazado_179839" data-name="Trazado 179839" d="M948.394,1320.212h0a1.469,1.469,0,0,1-.941-1.853l8.944-27.4a1.469,1.469,0,0,1,1.853-.941h0a1.469,1.469,0,0,1,.94,1.853l-8.944,27.4A1.469,1.469,0,0,1,948.394,1320.212Z" transform="translate(-845.748 -1259.377)" fill="#fff"/>
        <path id="Trazado_179840" data-name="Trazado 179840" d="M978.7,1394.74l1.822-5.583a7.549,7.549,0,0,1,0,6.26c-1.58,3.048-3.083,3.184-3.083,3.184Z" transform="translate(-871.306 -1343.724)" fill="#f37a50"/>
        <path id="Trazado_179841" data-name="Trazado 179841" d="M963.218,1394.981c-.461-1.083-1.546-3.795-.461-3.782s1.262,1.329,1.262,1.329Z" transform="translate(-858.425 -1345.46)" fill="#f37a50"/>
        <g id="Grupo_119138" data-name="Grupo 119138" transform="translate(0 24.869)">
          <g id="Grupo_119133" data-name="Grupo 119133" transform="translate(15.195 3.306)">
            <g id="Grupo_119132" data-name="Grupo 119132">
              <g id="Grupo_119131" data-name="Grupo 119131">
                <path id="Trazado_179842" data-name="Trazado 179842" d="M370.411,1278.986a4.062,4.062,0,0,0,.846-5.026c1.35-.29,8.471,10.5,11.541,17.352,5.356-5.4,14.793-12.688,17.345-13.113,0,0,3.443-.925,4.68,3.237,1.1,3.715-3.2,6.348-3.2,6.348s-18.421,13.005-21.145,11.849C376.237,1297.833,372.4,1282.355,370.411,1278.986Z" transform="translate(-370.411 -1273.954)" fill="#f37a50"/>
              </g>
            </g>
          </g>
          <g id="Grupo_119137" data-name="Grupo 119137">
            <g id="Grupo_119136" data-name="Grupo 119136">
              <g id="Grupo_119135" data-name="Grupo 119135">
                <g id="Grupo_119134" data-name="Grupo 119134">
                  <path id="Trazado_179843" data-name="Trazado 179843" d="M280.336,1259.918c1.5.092,3.362-.651,3.941.7l2.967-1.447.179-1.789c-2.549-4.085-8.763-5.244-9.378-5.3-1.6-.14-2.34-.305-2.465-.091s-.516,1.637,1.8,1.915c2.911.35.978,2.677-4.926.461-1.478-.554-4.261.165-3.255,1.246C270.311,1256.8,273.5,1259.5,280.336,1259.918Z" transform="translate(-268.987 -1251.888)" fill="#f37a50"/>
                </g>
              </g>
            </g>
          </g>
        </g>
      </g>
    </g>
    <g id="Grupo_119142" data-name="Grupo 119142" transform="translate(348.591 783.683)">
      <path id="Trazado_179844" data-name="Trazado 179844" d="M1204.7,750.3a11.8,11.8,0,0,1-.667,3.911c-2.178,6.253-9.449,10.846-18.085,10.846s-15.906-4.593-18.083-10.846a11.8,11.8,0,0,1-.667-3.911Z" transform="translate(-1115.924 -647.775)" fill="#565656"/>
      <path id="Trazado_179845" data-name="Trazado 179845" d="M1204.7,750.3a11.8,11.8,0,0,1-.667,3.911H1167.86a11.8,11.8,0,0,1-.667-3.911Z" transform="translate(-1115.924 -647.775)" fill="#404040"/>
      <path id="Trazado_179846" data-name="Trazado 179846" d="M1108.777,105.2a39.268,39.268,0,1,0-70.305,24.057,49.155,49.155,0,0,1,10.42,30.129v.193h41.234v-.192a49.3,49.3,0,0,1,10.447-30.165A39.089,39.089,0,0,0,1108.777,105.2Z" transform="translate(-999.488 -65.936)" fill="#ffb600"/>
      <g id="Grupo_119141" data-name="Grupo 119141" transform="translate(51.827 28.812)">
        <path id="Trazado_179847" data-name="Trazado 179847" d="M1195.052,318.645a1,1,0,0,1-.948-1.334c.046-.133,4.677-13.475,8.041-27.06,5.964-24.08,2.9-27.994,1.3-28.559-4.693-1.662-8.43.8-10.739,3.151a20,20,0,0,0-1.941,2.324,38.073,38.073,0,0,1,2.664,5.673c2.08,5.556,2.632,10.744,1.479,13.88a4.927,4.927,0,0,1-5.327,3.455,5.691,5.691,0,0,1-5.081-4.021c-1.058-2.809-.921-6.94.375-11.333a30.26,30.26,0,0,1,3.525-7.743,19.467,19.467,0,0,0-4.728-5.344c-2.584-1.884-5.011-1.966-7.214-.244-4.548,3.555-4.722,14.246-.5,30.919a220.871,220.871,0,0,0,8.072,24.856,1,1,0,0,1-1.862.751,223.11,223.11,0,0,1-8.152-25.1c-4.5-17.763-4.089-28.869,1.209-33.011,2.91-2.275,6.331-2.2,9.633.2a20.8,20.8,0,0,1,4.772,5.225,21.235,21.235,0,0,1,1.646-1.9c3.841-3.918,8.4-5.21,12.843-3.638,2.765.979,3.9,4.7,3.467,11.375a117.82,117.82,0,0,1-3.49,19.571c-3.387,13.674-8.045,27.092-8.091,27.226A1,1,0,0,1,1195.052,318.645Zm-5.511-49.6a28.5,28.5,0,0,0-2.743,6.344c-1.157,3.924-1.315,7.684-.421,10.058a3.715,3.715,0,0,0,3.352,2.726,2.923,2.923,0,0,0,3.292-2.146C1194.352,282.412,1192.737,275.025,1189.542,269.046Z" transform="translate(-1170.918 -258.254)" fill="#ff6b00"/>
      </g>
      <path id="Rectángulo_36635" data-name="Rectángulo 36635" d="M7.554,0H41.521a7.554,7.554,0,0,1,7.554,7.554v0a7.554,7.554,0,0,1-7.554,7.554H7.554A7.554,7.554,0,0,1,0,7.554v0A7.554,7.554,0,0,1,7.554,0Z" transform="translate(45.482 88.703)" fill="#565656"/>
      <path id="Trazado_179848" data-name="Trazado 179848" d="M1646.011,301.272h-12.84a3.309,3.309,0,0,1-3.309-3.309h0a3.309,3.309,0,0,1,3.309-3.309h12.84a3.309,3.309,0,0,1,3.309,3.309h0A3.309,3.309,0,0,1,1646.011,301.272Z" transform="translate(-1509.28 -260.389)" fill="#ffb600"/>
      <path id="Trazado_179849" data-name="Trazado 179849" d="M841.12,301.272H828.281a3.309,3.309,0,0,1-3.309-3.309h0a3.309,3.309,0,0,1,3.309-3.309H841.12a3.309,3.309,0,0,1,3.309,3.309h0A3.309,3.309,0,0,1,841.12,301.272Z" transform="translate(-824.972 -260.389)" fill="#ffb600"/>
      <path id="Trazado_179850" data-name="Trazado 179850" d="M921.834,79.653l-10.218-7.775a3.309,3.309,0,0,1-.63-4.637h0a3.309,3.309,0,0,1,4.637-.63l10.218,7.775a3.309,3.309,0,0,1,.629,4.637h0A3.309,3.309,0,0,1,921.834,79.653Z" transform="translate(-897.527 -65.935)" fill="#ffb600"/>
      <path id="Trazado_179851" data-name="Trazado 179851" d="M1562.965,79.653l10.218-7.775a3.309,3.309,0,0,0,.63-4.637h0a3.309,3.309,0,0,0-4.637-.63l-10.218,7.775a3.309,3.309,0,0,0-.629,4.637h0A3.309,3.309,0,0,0,1562.965,79.653Z" transform="translate(-1447.887 -65.935)" fill="#ffb600"/>
      <path id="Trazado_179852" data-name="Trazado 179852" d="M921.834,499.536l-10.218,7.775a3.309,3.309,0,0,0-.63,4.637h0a3.309,3.309,0,0,0,4.637.629l10.218-7.775a3.309,3.309,0,0,0,.629-4.637h0A3.309,3.309,0,0,0,921.834,499.536Z" transform="translate(-897.527 -434.003)" fill="#ffb600"/>
      <path id="Trazado_179853" data-name="Trazado 179853" d="M1562.965,499.536l10.218,7.775a3.309,3.309,0,0,1,.63,4.637h0a3.309,3.309,0,0,1-4.637.629l-10.218-7.775a3.309,3.309,0,0,1-.629-4.637h0A3.309,3.309,0,0,1,1562.965,499.536Z" transform="translate(-1447.887 -434.003)" fill="#ffb600"/>
    </g>
    <g id="Grupo_119143" data-name="Grupo 119143" transform="translate(420.014 958.329)">
      <path id="Vector_25" data-name="Vector 25" d="M1320.532,1258.195a48.461,48.461,0,0,1-4.134-11.48,65.233,65.233,0,0,1-.853-14.3.741.741,0,0,1,1.373-.357c1.858,3.039,5.218,9.144,5.973,14.661a114.328,114.328,0,0,1,1.044,11.48Z" transform="translate(-1313.419 -1231.702)" fill="#ffe39f"/>
      <path id="Vector_26" data-name="Vector 26" d="M1369.816,1291.171a91.593,91.593,0,0,1,4.134-11.354c1.574-3.3,5.157-7.258,7-9.171a.505.505,0,0,1,.862.443,43.164,43.164,0,0,1-3.348,10.874,51.438,51.438,0,0,1-6.612,9.208Z" transform="translate(-1359.615 -1264.677)" fill="#ffe39f"/>
      <path id="Vector_27" data-name="Vector 27" d="M1301.8,1362.508a.689.689,0,0,1,.833-.967,11.8,11.8,0,0,1,4.051,2.348,8.409,8.409,0,0,1,2.612,4.282l-.757.255S1304.434,1367.678,1301.8,1362.508Z" transform="translate(-1301.72 -1342.057)" fill="#e0a103"/>
      <path id="Vector_28" data-name="Vector 28" d="M1366.749,1257.93a.756.756,0,0,0-1.367-.387,28.3,28.3,0,0,0-4.961,11.521,27.391,27.391,0,0,0,.173,10.836h.87a75.178,75.178,0,0,0,4.455-10.186C1367.1,1265.831,1366.946,1260.675,1366.749,1257.93Z" transform="translate(-1351.262 -1253.403)" fill="#ffd05c"/>
      <path id="Vector_29" data-name="Vector 29" d="M1383.377,1360.271a14.134,14.134,0,0,1,8.15-8.477.452.452,0,0,1,.573.6c-.831,2.029-3.2,6.874-7.2,7.879Z" transform="translate(-1371.144 -1333.778)" fill="#e0a103"/>
      <path id="Vector_23" data-name="Vector 23" d="M1337.8,1401.6h-14.6l1.874,14.956h10.85Z" transform="translate(-1319.982 -1376.151)" fill="#ff8d3b"/>
    </g>
    <g id="Grupo_119146" data-name="Grupo 119146" transform="translate(393.912 983.655)">
      <g id="Grupo_119144" data-name="Grupo 119144" transform="translate(3.3 10.796)">
        <path id="Trazado_179854" data-name="Trazado 179854" d="M1174.44,1473.845v2.147h.584a.513.513,0,0,1,.514.513v.086a.513.513,0,0,1-.514.513h-24.909a.6.6,0,0,1-.6-.6v-3.092a.6.6,0,0,1,.6-.6h24.909a.513.513,0,0,1,.514.513h0a.513.513,0,0,1-.514.514Z" transform="translate(-1149.518 -1472.818)" fill="#ff6b00"/>
        <path id="Rectángulo_36636" data-name="Rectángulo 36636" d="M1.073,0H22.222a0,0,0,0,1,0,0V2.146a0,0,0,0,1,0,0H1.073A1.073,1.073,0,0,1,0,1.073v0A1.073,1.073,0,0,1,1.073,0Z" transform="translate(2.774 1.027)" fill="#fff"/>
      </g>
      <g id="Grupo_119145" data-name="Grupo 119145" transform="translate(0 6.052)">
        <path id="Trazado_179855" data-name="Trazado 179855" d="M1128.586,1442.289v2.375H1128a.543.543,0,0,0-.514.568v.1a.543.543,0,0,0,.514.568h24.909a.632.632,0,0,0,.6-.661v-3.422a.632.632,0,0,0-.6-.661H1128a.543.543,0,0,0-.514.568h0a.543.543,0,0,0,.514.568Z" transform="translate(-1127.488 -1441.152)" fill="#ffb600"/>
        <path id="Rectángulo_36637" data-name="Rectángulo 36637" d="M1.188,0H22.222a0,0,0,0,1,0,0V2.375a0,0,0,0,1,0,0H1.188A1.188,1.188,0,0,1,0,1.188v0A1.188,1.188,0,0,1,1.188,0Z" transform="translate(23.246 3.512) rotate(180)" fill="#fff"/>
      </g>
      <path id="Trazado_179856" data-name="Trazado 179856" d="M1.926,0H22.6a1.926,1.926,0,1,1,0,3.852H1.926A1.926,1.926,0,0,1,1.926,0Z" transform="translate(2.03)" fill="#ff6b00"/>
      <path id="Trazado_179857" data-name="Trazado 179857" d="M1.1,0H23.43a1.1,1.1,0,0,1,1.1,1.1h0a1.1,1.1,0,0,1-1.1,1.1H1.1A1.1,1.1,0,0,1,1.1,0Z" transform="translate(3.633 3.852)" fill="#565656"/>
    </g>
  </g>
</svg>
