<svg xmlns="http://www.w3.org/2000/svg" xmlns:xlink="http://www.w3.org/1999/xlink" width="207.461" height="220.345" viewBox="0 0 207.461 220.345">
  <defs>
    <linearGradient id="linear-gradient" x1="5.791" y1="-6.655" x2="6.748" y2="-5.995" gradientUnits="objectBoundingBox">
      <stop offset="0" stop-color="#fff"/>
      <stop offset="0.368" stop-color="#fbfbfb"/>
      <stop offset="0.695" stop-color="#f0f0f0"/>
      <stop offset="1" stop-color="#dfdfdf"/>
    </linearGradient>
  </defs>
  <g id="Grupo_120477" data-name="Grupo 120477" transform="translate(-492.943 -485.352)">
    <g id="Grupo_120214" data-name="Grupo 120214" transform="translate(0 -730)">
      <path id="Trazado_181093" data-name="Trazado 181093" d="M-1520.713,1107.805a386.17,386.17,0,0,1-16.11,109.435l-190.946-61.89a187.237,187.237,0,0,0,6.1-47.544,187.06,187.06,0,0,0-6.5-49.058l190.692-61.853A385.2,385.2,0,0,1-1520.713,1107.805Z" transform="translate(2221.117 218.457)" fill="#ff6b00"/>
      <path id="Trazado_181098" data-name="Trazado 181098" d="M-1514.918,1125.44a373.6,373.6,0,0,1-12.7,95.783l-170.931-55.4a198.806,198.806,0,0,0,4.13-40.38,198.688,198.688,0,0,0-4.457-41.922l170.656-55.353A371.6,371.6,0,0,1-1514.918,1125.44Z" transform="translate(2204.593 200.822)" fill="url(#linear-gradient)"/>
      <path id="Trazado_181099" data-name="Trazado 181099" d="M-1512.25,1134.3a367.49,367.49,0,0,1-11.105,88.921l-160.983-52.178a204.84,204.84,0,0,0,3.321-36.742,204.659,204.659,0,0,0-3.611-38.3l160.7-52.125A364.952,364.952,0,0,1-1512.25,1134.3Z" transform="translate(2196.56 191.959)" fill="#f6f6f6"/>
    </g>
    <g id="Grupo_120224" data-name="Grupo 120224" transform="translate(1887.884 -825.837)">
      <g id="Grupo_120207" data-name="Grupo 120207" transform="translate(-1345.526 1375.629)">
        <path id="Trazado_181147" data-name="Trazado 181147" d="M-1256.989,1442.694a2.178,2.178,0,0,1-.9-2.08c.048-1.5.011-3,.014-4.506,0-1.284.5-1.781,1.766-1.785,1.046,0,1.046,0,1.046-1.061q0-1.274,0-2.547c0-1.372.109-1.535,1.341-2.015,1.166.291,1.44.647,1.441,1.877,0,1.045.035,2.092-.014,3.135-.026.543.171.622.653.621q10.878-.021,21.756-.01c1.391,0,1.391,0,1.284-1.438.01-1,.025-2,.03-3,.005-1.141,0-1.172-1.168-1.143a7.117,7.117,0,0,1-7.031-5.264,3.65,3.65,0,0,1-.066-2.123,1.323,1.323,0,0,1,1.311-.984,1.384,1.384,0,0,1,1.325,1.061,3.316,3.316,0,0,1,.082.58,4.132,4.132,0,0,0,4.1,3.934q4.968.039,9.937,0a4.11,4.11,0,0,0,4.05-3.982c.032-.827-.014-1.657.025-2.483.02-.425-.138-.493-.52-.5a26.51,26.51,0,0,1-3.917-.086,5.829,5.829,0,0,1-3.509-1.713,1.315,1.315,0,0,1,.172-2.138,1.383,1.383,0,0,1,1.79.173,3.442,3.442,0,0,0,2.426.956c1.024,0,2.048-.01,3.07.02.427.013.492-.165.485-.537-.022-1.133-.016-2.266-.006-3.4s.533-1.643,1.645-1.634,2.222.041,3.334.039a1.938,1.938,0,0,0,2.006-1.832,2.351,2.351,0,0,0-.5-1.453q-3.561-5.966-7.152-11.915a4.214,4.214,0,0,1-.752-2.374,10.24,10.24,0,0,0-.178-1.752,15.36,15.36,0,0,0-13.26-12.72,34.7,34.7,0,0,0-13.576,1.185,1.434,1.434,0,0,1-1.991-.824,1.424,1.424,0,0,1,1.074-1.8,35.5,35.5,0,0,1,15.577-1.173,17.944,17.944,0,0,1,14.935,14.933c.108.732.183,1.47.229,2.208a1.672,1.672,0,0,0,.287.779c2.428,4.048,4.866,8.089,7.28,12.146a4.779,4.779,0,0,1-2.731,7.155,9.55,9.55,0,0,1-2.86.163c-.471-.01-.564.137-.56.581q.033,3.793.007,7.586a6.962,6.962,0,0,1-5.812,7.08,8.644,8.644,0,0,1-1.5.1q-2.387.018-4.775,0c-.3,0-.484.022-.48.409.019,1.613.016,3.226,0,4.839,0,.307.118.357.384.352.763-.014,1.526.011,2.289-.011a1.29,1.29,0,0,1,1.1.46c1.556,1.854,2.949,3.831,4.366,5.788.542.748.21,1.529-.773,2.13h-.916a12.526,12.526,0,0,1-.876-.941q-1.6-2.1-3.164-4.236a.942.942,0,0,0-.863-.431q-15.091.02-30.182.007c-.48,0-.7.074-.673.629.049,1.021-.016,2.047.023,3.069a1.805,1.805,0,0,1-1.024,1.9Z" transform="translate(1273.211 -1375.628)" fill="#030302"/>
        <path id="Trazado_181148" data-name="Trazado 181148" d="M-1247.5,1732.757a1.8,1.8,0,0,0,1.024-1.9c-.039-1.022.026-2.048-.023-3.069-.027-.556.193-.63.673-.629q15.091.014,30.182-.007a.942.942,0,0,1,.863.431q1.559,2.136,3.165,4.236a12.5,12.5,0,0,0,.876.941Z" transform="translate(1264.642 -1665.691)" fill="#a757f7"/>
        <path id="Trazado_181149" data-name="Trazado 181149" d="M-1345.526,1488.613a2.128,2.128,0,0,1,2.138-.892c.648.043,1.3-.009,1.953.014a1.422,1.422,0,0,1,1.491,1.4,1.419,1.419,0,0,1-1.491,1.4c-.868.026-1.737,0-2.6.009a1.882,1.882,0,0,1-1.487-.885Z" transform="translate(1345.526 -1468.115)" fill="#030302"/>
        <path id="Trazado_181150" data-name="Trazado 181150" d="M-1215.732,1392.119a1.434,1.434,0,0,0,1.991.824,34.7,34.7,0,0,1,13.576-1.185,15.36,15.36,0,0,1,13.26,12.72,10.24,10.24,0,0,1,.178,1.752,4.214,4.214,0,0,0,.752,2.374q3.6,5.94,7.152,11.915a2.35,2.35,0,0,1,.5,1.452,1.938,1.938,0,0,1-2.005,1.832c-1.111,0-2.222-.029-3.334-.039s-1.635.505-1.645,1.634-.016,2.266.006,3.4c.007.372-.057.55-.485.537-1.023-.031-2.047-.017-3.07-.02a3.442,3.442,0,0,1-2.426-.956,1.383,1.383,0,0,0-1.79-.173,1.315,1.315,0,0,0-.172,2.138,5.828,5.828,0,0,0,3.509,1.713,26.493,26.493,0,0,0,3.917.086c.382,0,.54.072.52.5-.038.826.007,1.657-.025,2.483a4.11,4.11,0,0,1-4.05,3.982q-4.968.049-9.937,0a4.132,4.132,0,0,1-4.1-3.934,3.317,3.317,0,0,0-.082-.581,1.384,1.384,0,0,0-1.325-1.061,1.324,1.324,0,0,0-1.311.984,3.652,3.652,0,0,0,.066,2.123,7.117,7.117,0,0,0,7.031,5.264c1.168-.028,1.173,0,1.168,1.143,0,1-.02,2-.03,3-5.155,0-10.312-.05-15.466.024a5.848,5.848,0,0,1-5.083-3.632,12.366,12.366,0,0,1-.387-3.99,7.1,7.1,0,0,0,3.957-4.587,1.092,1.092,0,0,1,.662-.779,4.152,4.152,0,0,0,.513-7.192.653.653,0,0,1-.29-.936,30.76,30.76,0,0,1,3.97-7.387,12.274,12.274,0,0,0,2.361-6.6,13.834,13.834,0,0,0-7.022-13.283,14,14,0,0,0-6-1.831c.524-.718,1.236-1.258,1.82-1.919.118-.134.431-.183.286-.482A10.726,10.726,0,0,1-1215.732,1392.119Zm9.478.932a1.068,1.068,0,0,0-.785.276c-1.043,1.021-2.1,2.031-3.092,3.1a1.305,1.305,0,0,0,.116,1.785,1.315,1.315,0,0,0,1.784.162,33.271,33.271,0,0,0,3.139-3.142,1.213,1.213,0,0,0,.077-1.471A1.352,1.352,0,0,0-1206.254,1393.051Zm2.765,18.147c.478,0,.957.025,1.433-.005a1.4,1.4,0,0,0,1.409-1.408,1.387,1.387,0,0,0-1.428-1.387c-.911-.032-1.825-.034-2.735,0a1.4,1.4,0,0,0-1.417,1.4,1.424,1.424,0,0,0,1.436,1.391C-1204.359,1411.22-1203.923,1411.2-1203.489,1411.2Z" transform="translate(1242.505 -1388.773)" fill="#fdddc6"/>
        <path id="Trazado_181151" data-name="Trazado 181151" d="M-1290.824,1415.854a14,14,0,0,1,6,1.831,13.834,13.834,0,0,1,7.022,13.283,12.274,12.274,0,0,1-2.361,6.6,30.762,30.762,0,0,0-3.97,7.387.653.653,0,0,0,.29.936,4.153,4.153,0,0,1-.513,7.192,1.091,1.091,0,0,0-.662.779,7.1,7.1,0,0,1-3.957,4.587,8.148,8.148,0,0,1-4.178.4,10.013,10.013,0,0,1-2.105-.851,6.9,6.9,0,0,1-3.187-4.208.881.881,0,0,0-.523-.659,4.144,4.144,0,0,1-.621-7.249.625.625,0,0,0,.277-.892,28.782,28.782,0,0,0-3.329-6.476,15.084,15.084,0,0,1-2.754-5.64,14.014,14.014,0,0,1,12.5-16.958c.26-.02.517-.068.776-.1Zm-2.992,37.7h-1.845a4.1,4.1,0,0,0,3.386,2.71,3.852,3.852,0,0,0,3.822-1.589,2.472,2.472,0,0,0,.64-1.122Zm9.018-4.243a1.246,1.246,0,0,0-1.285-1.33c-3.584-.01-7.169.008-10.753.016-1.126-.089-1.783.355-1.836,1.241-.056.936.575,1.493,1.7,1.5q1.794,0,3.588,0c2.37,0,4.74.006,7.11,0A1.322,1.322,0,0,0-1284.8,1449.313Zm-6.93-7.207c.136-.376.21-.574.279-.774q1.3-3.793,2.6-7.586a1.4,1.4,0,0,1,1.85-1.06,1.412,1.412,0,0,1,.8,1.93c-.193.6-.4,1.2-.6,1.793-.93,2.736-1.855,5.474-2.8,8.2-.146.42-.1.568.379.537a16.639,16.639,0,0,1,1.7,0,.44.44,0,0,0,.507-.375,29.243,29.243,0,0,1,4.426-8.6,10.885,10.885,0,0,0,.278-12.35,10.717,10.717,0,0,0-11.3-5,11.091,11.091,0,0,0-7.427,17.043,32.454,32.454,0,0,1,4.63,8.933c.058.2.137.348.4.344.76-.013,1.52,0,2.329,0-.082-.264-.144-.47-.21-.674q-1.6-4.929-3.2-9.859a1.4,1.4,0,0,1,.995-1.974,1.393,1.393,0,0,1,1.652,1.118C-1293.559,1436.473-1292.675,1439.2-1291.727,1442.106Z" transform="translate(1312.651 -1408.789)" fill="#030302"/>
        <path id="Trazado_181152" data-name="Trazado 181152" d="M-1234.037,1660.065a8.148,8.148,0,0,0,4.178-.4,12.366,12.366,0,0,0,.387,3.99,5.847,5.847,0,0,0,5.083,3.632c5.154-.074,10.31-.024,15.466-.024.108,1.438.108,1.438-1.283,1.438q-10.878,0-21.756.01c-.482,0-.679-.078-.653-.621.05-1.043.015-2.09.014-3.135,0-1.23-.275-1.586-1.441-1.877Q-1234.04,1661.569-1234.037,1660.065Z" transform="translate(1253.533 -1610.003)" fill="#f5cbae"/>
        <path id="Trazado_181153" data-name="Trazado 181153" d="M-1316.095,1404.135a1.435,1.435,0,0,1-.8,1.29,1.232,1.232,0,0,1-1.461-.164c-1.037-.988-2.061-1.993-3.036-3.041a1.3,1.3,0,0,1,.119-1.826,1.3,1.3,0,0,1,1.828-.1c1.046.977,2.038,2.014,3.043,3.035A1.4,1.4,0,0,1-1316.095,1404.135Z" transform="translate(1325.877 -1395.709)" fill="#030302"/>
        <path id="Trazado_181154" data-name="Trazado 181154" d="M-1233.875,1378.979c0-.434-.015-.869,0-1.3a1.415,1.415,0,0,1,1.381-1.505,1.392,1.392,0,0,1,1.421,1.461c.03.889.031,1.781,0,2.67a1.412,1.412,0,0,1-1.375,1.45,1.427,1.427,0,0,1-1.423-1.47C-1233.892,1379.848-1233.875,1379.413-1233.875,1378.979Z" transform="translate(1253.4 -1376.076)" fill="#030302"/>
        <path id="Trazado_181155" data-name="Trazado 181155" d="M-1226.809,1404.7l-1.3-.039a13.789,13.789,0,0,1,3.4-2.362c.145.3-.167.348-.286.482C-1225.573,1403.446-1226.284,1403.986-1226.809,1404.7Z" transform="translate(1248.636 -1397.64)" fill="#f5cbae"/>
        <path id="Trazado_181156" data-name="Trazado 181156" d="M-1157.9,1400.093a1.352,1.352,0,0,1,1.24.71,1.213,1.213,0,0,1-.077,1.471,33.241,33.241,0,0,1-3.139,3.142,1.315,1.315,0,0,1-1.784-.162,1.3,1.3,0,0,1-.116-1.785c.993-1.068,2.049-2.078,3.092-3.1A1.068,1.068,0,0,1-1157.9,1400.093Z" transform="translate(1194.153 -1395.815)" fill="#030302"/>
        <path id="Trazado_181157" data-name="Trazado 181157" d="M-1135.286,1490.557c-.434,0-.87.022-1.3,0a1.424,1.424,0,0,1-1.436-1.391,1.4,1.4,0,0,1,1.417-1.4c.91-.036,1.824-.034,2.735,0a1.387,1.387,0,0,1,1.428,1.387,1.4,1.4,0,0,1-1.409,1.408C-1134.329,1490.581-1134.808,1490.557-1135.286,1490.557Z" transform="translate(1174.302 -1468.132)" fill="#030302"/>
        <path id="Trazado_181158" data-name="Trazado 181158" d="M-1278.56,1455.506c-.948-2.908-1.832-5.633-2.726-8.354a1.392,1.392,0,0,0-1.652-1.118,1.4,1.4,0,0,0-.995,1.974q1.594,4.932,3.2,9.859c.066.2.128.41.21.674-.809,0-1.569-.009-2.329,0-.259,0-.338-.146-.4-.344a32.454,32.454,0,0,0-4.63-8.933,11.092,11.092,0,0,1,7.427-17.044,10.717,10.717,0,0,1,11.3,5,10.885,10.885,0,0,1-.278,12.35,29.24,29.24,0,0,0-4.426,8.6.44.44,0,0,1-.507.375,16.5,16.5,0,0,0-1.7,0c-.479.031-.525-.117-.379-.537.946-2.731,1.871-5.469,2.8-8.2.2-.6.405-1.194.6-1.794a1.412,1.412,0,0,0-.8-1.93,1.4,1.4,0,0,0-1.85,1.06q-1.306,3.791-2.6,7.586C-1278.35,1454.932-1278.424,1455.13-1278.56,1455.506Z" transform="translate(1299.484 -1422.189)" fill="#ffd05c"/>
        <path id="Trazado_181159" data-name="Trazado 181159" d="M-1251.707,1601.164a1.322,1.322,0,0,1-1.478,1.42c-2.37.01-4.74,0-7.11,0-1.2,0-2.392,0-3.587,0-1.124,0-1.754-.56-1.7-1.5.053-.886.71-1.331,1.836-1.241a2.284,2.284,0,0,0,2.227,1.3C-1258.247,1601.165-1254.977,1601.16-1251.707,1601.164Z" transform="translate(1279.561 -1560.64)" fill="#afafaf"/>
        <path id="Trazado_181160" data-name="Trazado 181160" d="M-1243.024,1601.125c-3.27,0-6.54,0-9.811-.016a2.284,2.284,0,0,1-2.227-1.3c3.584-.008,7.168-.027,10.753-.016A1.246,1.246,0,0,1-1243.024,1601.125Z" transform="translate(1270.878 -1560.601)" fill="#afafaf"/>
        <path id="Trazado_181161" data-name="Trazado 181161" d="M-1241.138,1632.81a3.852,3.852,0,0,1-3.822,1.588,4.1,4.1,0,0,1-3.386-2.71h1.846a3.547,3.547,0,0,0,1.849,1.107A6.146,6.146,0,0,0-1241.138,1632.81Z" transform="translate(1265.336 -1586.921)" fill="#afafaf"/>
        <path id="Trazado_181162" data-name="Trazado 181162" d="M-1232.427,1632.81a6.146,6.146,0,0,1-3.514-.015,3.547,3.547,0,0,1-1.848-1.107h6A2.472,2.472,0,0,1-1232.427,1632.81Z" transform="translate(1256.625 -1586.921)" fill="#afafaf"/>
      </g>
      <g id="Grupo_120208" data-name="Grupo 120208" transform="translate(-1284.775 1409.161)">
        <path id="Trazado_181163" data-name="Trazado 181163" d="M-993.85,1594.774c.207-3.472,1.373-4.635,4.22-4.183,0-.415-.014-.822,0-1.228a2.964,2.964,0,0,1,1.611-2.657.794.794,0,0,0,.484-.847q-.016-8.47-.007-16.94c0-1.194.3-1.49,1.514-1.49H-938.8c1.2,0,1.5.3,1.5,1.508q0,13.048-.014,26.1c0,.552.136.7.675.663.782-.051,1.569-.023,2.354-.01a1.052,1.052,0,0,1,1.168,1.176q.012,5.1,0,10.2a1.053,1.053,0,0,1-1.172,1.174c-.828.012-1.658.027-2.485-.007-.427-.018-.538.105-.536.534.019,3.139.01,6.279.01,9.418q0,6.344,0,12.688c0,1.115-.324,1.439-1.436,1.439h-57.825c-1.119,0-1.443-.321-1.443-1.43q0-4.84,0-9.68c0-1.124.319-1.49,1.424-1.43.651.036.686-.206.613-.736a10.314,10.314,0,0,0-.929-3.11,11.24,11.24,0,0,1-1.111-4.988c.009-4.208.089-8.418-.032-12.622C-998.1,1596.1-996.426,1594.12-993.85,1594.774Zm52.361.89c.479.007.962-.023,1.436.031.547.063.674-.12.672-.666-.02-7.847-.01-15.695-.02-23.542,0-.644.291-1.556-.125-1.862-.436-.322-1.292-.077-1.964-.08-.109-.007-.217-.021-.325-.021H-984.9a.752.752,0,0,1-.131,0c-.36-.064-.424.113-.423.437q.013,8.04,0,16.08a.55.55,0,0,0,.358.592,2.939,2.939,0,0,1,1.695,2.326,11.139,11.139,0,0,1,.014,1.63,2.5,2.5,0,0,0,.276-.017,3.118,3.118,0,0,1,3.942,3.218c.005,1.264,0,2.527,0,3.791v5.552a1.436,1.436,0,0,0,.234,0,3.12,3.12,0,0,1,3.952,3.206c.006,1.22-.024,2.441.006,3.661a8.538,8.538,0,0,1-2.514,6.437,6.094,6.094,0,0,0-1.492,2.714c-.126.458-.079.642.478.622,1.113-.041,1.427.311,1.43,1.427q.01,3.464.021,6.927c-.007.479.023.962-.031,1.436-.063.547.12.673.666.672q18.182-.026,36.364,0c.541,0,.674-.123.672-.669-.021-6.452-.01-12.9-.02-19.357,0-.644.291-1.556-.125-1.862-.436-.322-1.292-.077-1.964-.08a2.117,2.117,0,0,0-1.434.284,15.161,15.161,0,0,1-4.032,1.456c-2.642.556-5.182.526-7.518-1.1a4.22,4.22,0,0,0-2.425-.662c-1.155-.006-2.311.023-3.465-.015a.979.979,0,0,0-1.021.565c-1.349,2.334-2.741,4.644-4.117,6.963a2.4,2.4,0,0,1-.609.754q-1.967,1.459-3.919,2.939a1.067,1.067,0,0,1-1.327.132,1.091,1.091,0,0,1-.435-1.265c.173-.808.363-1.615.48-2.432a10.8,10.8,0,0,1,1.917-5.059c.095-.127.234-.266.184-.464a2.719,2.719,0,0,1-2.308-3.989q3.673-6.464,7.39-12.9a3.876,3.876,0,0,1,2.706-1.875,13.143,13.143,0,0,1,2.8-.083,1.055,1.055,0,0,0,1.069-.6c2.179-3.714,4.387-7.41,6.588-11.111.594-1,1.051-1.108,2-.479q1.252.827,2.5,1.663c.908.609,1,1.011.447,1.945-1.7,2.861-3.389,5.726-5.1,8.577-.251.417-.243.579.246.768,2.652,1.031,5.292,2.09,7.929,3.16A2.7,2.7,0,0,0-941.489,1595.663Zm-43.957,3.016q0-3.171,0-6.343c0-.959.013-1.918-.006-2.877a1.034,1.034,0,0,0-1.05-1.1,1.049,1.049,0,0,0-1.035,1.113c-.008.174,0,.349,0,.523q0,8.37,0,16.74c0,1.513,0,1.488-1.508,1.518-.5.01-.6-.135-.6-.612.019-4.533.012-9.067.011-13.6a3.144,3.144,0,0,0-.016-.587.99.99,0,0,0-1.032-.9.988.988,0,0,0-1.029.9,3.244,3.244,0,0,0-.015.587q0,6.441,0,12.882c0,1.315,0,1.273-1.305,1.332-.659.03-.814-.149-.806-.8.039-3.16.015-6.321.021-9.481a1.108,1.108,0,0,0-.667-1.159.976.976,0,0,0-1.09.2,1.232,1.232,0,0,0-.342,1.015q.008,6.572,0,13.143a8.426,8.426,0,0,0,.852,3.722,11.576,11.576,0,0,1,1.206,4.441c.02.346.129.431.458.423.872-.021,1.744-.007,2.616-.007q4.512,0,9.025,0c.27,0,.558.085.616-.359a8.229,8.229,0,0,1,2.381-4.687,5.65,5.65,0,0,0,1.583-3.227,46.8,46.8,0,0,0,.094-5.223,1.035,1.035,0,0,0-1.06-1.15,1.059,1.059,0,0,0-1.024,1.189c-.01.872,0,1.744,0,2.616,0,1.425,0,1.4-1.393,1.437-.549.016-.721-.091-.718-.691.029-5.187.017-10.375.017-15.563a5.186,5.186,0,0,0-.01-.588,1.04,1.04,0,0,0-1.053-.958,1.04,1.04,0,0,0-1.023.99c-.018.194-.007.392-.007.588q0,6.278,0,12.555c0,1.585,0,1.564-1.582,1.574-.455,0-.521-.153-.519-.553C-985.439,1604.7-985.446,1601.687-985.446,1598.679Zm28.832,2.124a6.621,6.621,0,0,0,1.833-.286c.472-.094.948-.64,1.346-.363.36.25.451.868.708,1.3.21.35.077.486-.238.619a11.234,11.234,0,0,1-4.374.938c-1.787.008-3.574,0-5.362,0a1.6,1.6,0,0,0-1.808,1.546c-.014.956.707,1.588,1.829,1.591,1.787,0,3.575.02,5.362,0a7.644,7.644,0,0,1,4.391,1.237,4.494,4.494,0,0,0,1.8.739,12.282,12.282,0,0,0,7.307-1.446c.258-.126.244-.321.244-.54,0-2.768,0-5.535,0-8.3a.475.475,0,0,0-.335-.534q-4.121-1.63-8.232-3.284c-.224-.09-.388-.111-.539.144C-953.968,1596.348-955.267,1598.531-956.614,1600.8Zm-30.99,29.4c2.617,0,5.233-.01,7.849.01.452,0,.59-.109.586-.575-.024-2.4-.028-4.8,0-7.194.007-.523-.177-.594-.635-.593q-7.751.016-15.5-.015c-.482,0-.626.11-.619.609q.048,3.6.015,7.194c0,.466.133.58.586.576C-992.75,1630.194-990.177,1630.205-987.6,1630.205Zm52.382-28.191c0-1.243-.01-2.486.006-3.728,0-.343-.057-.506-.456-.5q-2.681.023-5.363-.014c-.4-.005-.46.155-.458.5q.024,3.7.013,7.39c0,.366.1.487.475.484,1.766-.018,3.532-.022,5.3,0,.434.006.5-.162.492-.535C-935.234,1604.412-935.222,1603.213-935.222,1602.014Zm-25.709-1.113a8.778,8.778,0,0,1,1.092.009.978.978,0,0,0,1.07-.6c1.634-2.8,3.3-5.576,4.953-8.362,1.8-3.029,3.588-6.062,5.4-9.084.2-.34.245-.56-.157-.741a1.451,1.451,0,0,1-.38-.252c-.393-.362-.616-.314-.907.18q-5.4,9.159-10.841,18.295C-960.8,1600.5-960.96,1600.64-960.931,1600.9Zm1.766-7.306c-.322,0-.515.018-.7,0a2.681,2.681,0,0,0-2.892,1.633c-1.352,2.507-2.81,4.958-4.224,7.432-.864,1.51-1.736,3.016-2.589,4.533-.342.608-.094.971.59,1.06a1.375,1.375,0,0,0,1.676-.913,7.176,7.176,0,0,1,.693-1.181.927.927,0,0,0,.127-.738,3.576,3.576,0,0,1,2.64-4.369.717.717,0,0,0,.456-.325C-962.009,1598.387-960.623,1596.052-959.165,1593.6Zm-9.927,22.334a4.547,4.547,0,0,0,1.891-1.453q1.6-2.687,3.2-5.377c.472-.793.472-.793-.347-1.129a1.137,1.137,0,0,1-.293-.139c-.32-.261-.47-.087-.635.2-.709,1.221-1.417,2.443-2.159,3.644A8.147,8.147,0,0,0-969.092,1615.93Z" transform="translate(998.042 -1567.429)" fill="#010101"/>
        <path id="Trazado_181164" data-name="Trazado 181164" d="M-917.626,1637.939q-.011-3.464-.021-6.927c0-1.117-.317-1.468-1.43-1.427-.557.02-.6-.164-.478-.622a6.094,6.094,0,0,1,1.492-2.714,8.538,8.538,0,0,0,2.514-6.437c-.03-1.22,0-2.44-.006-3.661a3.119,3.119,0,0,0-3.952-3.206,1.453,1.453,0,0,1-.234,0v-5.552c0-1.264,0-2.528,0-3.792a3.118,3.118,0,0,0-3.942-3.218,2.4,2.4,0,0,1-.276.017,11.14,11.14,0,0,0-.014-1.63,2.939,2.939,0,0,0-1.695-2.326.55.55,0,0,1-.358-.592q.011-8.04,0-16.081c0-.324.063-.5.423-.437a.752.752,0,0,0,.131,0h43.083c.108,0,.217.013.325.021q0,2.612,0,5.224c-.849,0-1.7-.012-2.547-.013-1.72,0-1.71,0-1.644,1.7.012.311.089.405.4.4,1.263-.021,2.526-.016,3.788-.021l0,18.829a2.694,2.694,0,0,1-1.456-.222c-2.636-1.069-5.277-2.129-7.929-3.16-.489-.19-.5-.352-.246-.768,1.716-2.85,3.407-5.715,5.1-8.577.554-.934.461-1.336-.447-1.945q-1.247-.836-2.5-1.663c-.952-.629-1.409-.52-2,.479-2.2,3.7-4.409,7.4-6.588,11.11a1.054,1.054,0,0,1-1.069.6,13.151,13.151,0,0,0-2.8.083,3.877,3.877,0,0,0-2.706,1.875q-3.721,6.438-7.39,12.9a2.719,2.719,0,0,0,2.309,3.989c.049.2-.09.336-.184.464a10.8,10.8,0,0,0-1.917,5.059c-.117.817-.307,1.624-.48,2.432a1.091,1.091,0,0,0,.435,1.265,1.067,1.067,0,0,0,1.327-.132q1.955-1.476,3.919-2.939a2.4,2.4,0,0,0,.609-.754c1.376-2.319,2.768-4.629,4.117-6.963a.979.979,0,0,1,1.021-.565c1.154.038,2.31.009,3.465.015a4.215,4.215,0,0,1,2.425.662c2.335,1.622,4.876,1.652,7.518,1.1a15.161,15.161,0,0,0,4.032-1.456,2.12,2.12,0,0,1,1.434-.284q0,4.705,0,9.41c-.849,0-1.7-.012-2.547-.013-1.72,0-1.71,0-1.644,1.7.012.311.089.405.4.4,1.263-.021,2.526-.016,3.788-.021,0,2.572-.014,5.145.017,7.717.007.567-.192.679-.713.678Q-900.195,1637.931-917.626,1637.939Zm14.63-53.37h-13.212c-1.443,0-1.413,0-1.455,1.44-.016.55.134.668.673.667q13.571-.028,27.142-.014c1.513,0,1.489,0,1.519-1.505.01-.5-.123-.6-.607-.6C-893.622,1584.578-898.309,1584.57-903,1584.57Zm-6.34,6.28h11.183c1.44,0,1.41,0,1.453-1.442.016-.554-.141-.666-.676-.665q-11.478.029-22.956.013c-1.511,0-1.486,0-1.518,1.508-.01.5.13.6.609.6C-917.272,1590.84-913.3,1590.849-909.337,1590.849Zm-.005,4.186h11.183c1.445,0,1.417,0,1.458-1.437.016-.545-.126-.672-.67-.67q-11.478.031-22.956.014c-1.516,0-1.493,0-1.522,1.5-.01.489.114.606.6.6C-917.277,1595.025-913.309,1595.035-909.342,1595.035Zm11.578,32.441h-7.978c-1.442,0-1.413,0-1.455,1.44-.016.551.134.669.673.667,5.559-.022,11.118-.014,16.676-.014,1.513,0,1.489,0,1.519-1.505.01-.5-.122-.6-.606-.6C-891.878,1627.489-894.82,1627.476-897.763,1627.476Z" transform="translate(938.617 -1577.244)" fill="#e8e8e8"/>
        <path id="Trazado_181165" data-name="Trazado 181165" d="M-975.406,1697.485c0,3.008.007,6.016-.008,9.024,0,.4.065.557.52.554,1.582-.01,1.582.01,1.582-1.575q0-6.277,0-12.555c0-.2-.011-.394.007-.588a1.04,1.04,0,0,1,1.023-.989,1.04,1.04,0,0,1,1.053.958,5.214,5.214,0,0,1,.009.588c0,5.188.013,10.375-.017,15.563,0,.6.169.707.718.691,1.392-.039,1.393-.012,1.393-1.437,0-.872-.007-1.744,0-2.616a1.059,1.059,0,0,1,1.024-1.189,1.035,1.035,0,0,1,1.06,1.15,46.824,46.824,0,0,1-.094,5.223,5.65,5.65,0,0,1-1.583,3.227,8.229,8.229,0,0,0-2.381,4.687c-.058.445-.346.359-.616.36q-4.512,0-9.025,0c-.872,0-1.744-.014-2.616.007-.328.008-.438-.077-.458-.423a11.575,11.575,0,0,0-1.206-4.44,8.428,8.428,0,0,1-.852-3.723q-.006-6.571,0-13.143a1.232,1.232,0,0,1,.342-1.015.976.976,0,0,1,1.09-.2,1.108,1.108,0,0,1,.667,1.159c-.006,3.161.018,6.322-.021,9.481-.008.656.146.835.806.805,1.3-.059,1.306-.017,1.306-1.332q0-6.441,0-12.882a3.255,3.255,0,0,1,.015-.587.988.988,0,0,1,1.029-.9.99.99,0,0,1,1.032.9,3.152,3.152,0,0,1,.016.587c0,4.534.008,9.067-.011,13.6,0,.476.094.622.6.612,1.508-.031,1.509-.006,1.509-1.518q0-8.37,0-16.74c0-.175-.006-.349,0-.523a1.049,1.049,0,0,1,1.035-1.113,1.034,1.034,0,0,1,1.049,1.1c.019.958.006,1.918.006,2.877Q-975.406,1694.314-975.406,1697.485Z" transform="translate(988.002 -1666.235)" fill="#f9e0c9"/>
        <path id="Trazado_181166" data-name="Trazado 181166" d="M-798.344,1725.986c1.347-2.272,2.646-4.455,3.934-6.645.15-.255.314-.234.539-.144q4.113,1.648,8.232,3.283a.475.475,0,0,1,.335.534c-.01,2.768-.006,5.535,0,8.3,0,.219.014.414-.244.54a12.283,12.283,0,0,1-7.307,1.446,4.5,4.5,0,0,1-1.8-.739,7.644,7.644,0,0,0-4.391-1.237c-1.787.025-3.574.009-5.362,0-1.122,0-1.843-.635-1.829-1.591a1.6,1.6,0,0,1,1.808-1.546c1.787-.005,3.575,0,5.362,0a11.231,11.231,0,0,0,4.374-.938c.315-.134.448-.27.238-.619-.256-.428-.347-1.045-.708-1.3-.4-.277-.874.268-1.346.363A6.623,6.623,0,0,1-798.344,1725.986Z" transform="translate(839.772 -1692.613)" fill="#f9e0c9"/>
        <path id="Trazado_181167" data-name="Trazado 181167" d="M-977.607,1887c-2.573,0-5.146-.011-7.718.01-.453,0-.589-.11-.586-.576q.029-3.6-.015-7.194c-.007-.5.137-.611.619-.609q7.751.033,15.5.015c.459,0,.642.07.635.594-.031,2.4-.026,4.8,0,7.194,0,.466-.134.579-.586.575C-972.374,1886.989-974.99,1887-977.607,1887Z" transform="translate(988.044 -1824.224)" fill="#a757f7"/>
        <path id="Trazado_181168" data-name="Trazado 181168" d="M-842.62,1810q0-4.705,0-9.41c.672,0,1.528-.243,1.965.08.415.307.123,1.219.125,1.862.01,6.452,0,12.9.02,19.357,0,.546-.131.669-.672.669q-18.182-.026-36.364,0c-.545,0-.728-.126-.665-.672.054-.473.024-.957.031-1.436q17.432,0,34.863.012c.521,0,.72-.111.713-.678-.031-2.572-.016-5.145-.017-7.717Z" transform="translate(899.17 -1759.757)" fill="#dfdfdf"/>
        <path id="Trazado_181169" data-name="Trazado 181169" d="M-674.582,1605.237l0-18.829v-2.066q0-2.612,0-5.224c.672,0,1.528-.243,1.965.08.415.307.124,1.218.125,1.862.009,7.847,0,15.7.02,23.543,0,.545-.126.728-.672.665C-673.619,1605.214-674.1,1605.245-674.582,1605.237Z" transform="translate(731.134 -1577.003)" fill="#e8e8e8"/>
        <path id="Trazado_181170" data-name="Trazado 181170" d="M-668.321,1745.217c0,1.2-.012,2.4.007,3.6.006.372-.058.541-.492.535-1.766-.025-3.532-.02-5.3,0-.377,0-.477-.118-.475-.484q.014-3.7-.013-7.39c0-.345.058-.505.458-.5q2.681.037,5.363.014c.4,0,.461.159.456.5C-668.33,1742.731-668.321,1743.974-668.321,1745.217Z" transform="translate(731.14 -1710.631)" fill="#a757f7"/>
        <path id="Trazado_181171" data-name="Trazado 181171" d="M-785.789,1667.932c-.03-.262.135-.4.229-.559q5.422-9.146,10.841-18.295c.291-.494.514-.543.907-.18a1.449,1.449,0,0,0,.38.252c.4.181.36.4.157.741-1.809,3.022-3.6,6.055-5.4,9.084-1.654,2.786-3.319,5.565-4.953,8.362a.978.978,0,0,1-1.07.6A8.8,8.8,0,0,0-785.789,1667.932Z" transform="translate(822.901 -1634.46)" fill="#e0a103"/>
        <path id="Trazado_181172" data-name="Trazado 181172" d="M-825.521,1716.969c-1.458,2.457-2.844,4.791-4.227,7.128a.718.718,0,0,1-.456.325,3.576,3.576,0,0,0-2.64,4.369.927.927,0,0,1-.127.738,7.179,7.179,0,0,0-.692,1.181,1.376,1.376,0,0,1-1.676.913c-.684-.089-.932-.451-.59-1.06.853-1.517,1.725-3.023,2.589-4.533,1.415-2.474,2.872-4.924,4.224-7.431a2.681,2.681,0,0,1,2.891-1.633C-826.036,1716.987-825.843,1716.969-825.521,1716.969Z" transform="translate(864.397 -1690.802)" fill="#f9e0c9"/>
        <path id="Trazado_181173" data-name="Trazado 181173" d="M-832.453,1806.019a8.149,8.149,0,0,1,1.654-4.258c.742-1.2,1.449-2.423,2.159-3.644.165-.284.316-.457.635-.2a1.147,1.147,0,0,0,.293.139c.819.336.819.335.347,1.129q-1.6,2.688-3.2,5.377A4.546,4.546,0,0,1-832.453,1806.019Z" transform="translate(861.403 -1757.519)" fill="#e0a103"/>
        <path id="Trazado_181174" data-name="Trazado 181174" d="M-863.527,1609.273c4.687,0,9.374.008,14.061-.012.483,0,.617.1.607.6-.031,1.5-.006,1.505-1.519,1.505q-13.571,0-27.142.013c-.539,0-.689-.116-.673-.667.042-1.439.013-1.44,1.455-1.44Z" transform="translate(899.148 -1601.948)" fill="#010101"/>
        <path id="Trazado_181175" data-name="Trazado 181175" d="M-889.619,1635.3c-3.968,0-7.935-.009-11.9.012-.479,0-.619-.1-.609-.6.031-1.507.006-1.508,1.517-1.508q11.478,0,22.956-.013c.535,0,.692.11.676.665-.043,1.441-.013,1.442-1.453,1.442Z" transform="translate(918.899 -1621.699)" fill="#010101"/>
        <path id="Trazado_181176" data-name="Trazado 181176" d="M-889.62,1659.245c-3.968,0-7.935-.01-11.9.013-.49,0-.613-.114-.6-.6.029-1.5.006-1.5,1.522-1.5q11.478,0,22.956-.014c.544,0,.686.125.67.67-.041,1.436-.013,1.437-1.458,1.437Z" transform="translate(918.896 -1641.454)" fill="#010101"/>
        <path id="Trazado_181177" data-name="Trazado 181177" d="M-808.894,1854.689c2.943,0,5.886.012,8.828-.012.484,0,.617.105.606.6-.03,1.5-.006,1.506-1.519,1.506-5.559,0-11.117-.009-16.676.013-.539,0-.689-.117-.673-.667.042-1.439.013-1.44,1.455-1.44Z" transform="translate(849.748 -1804.457)" fill="#010101"/>
        <path id="Trazado_181178" data-name="Trazado 181178" d="M-694.464,1609.347v2.066c-1.263,0-2.526,0-3.789.021-.314.005-.391-.089-.4-.4-.066-1.7-.076-1.7,1.644-1.7C-696.162,1609.334-695.313,1609.342-694.464,1609.347Z" transform="translate(751.014 -1602.007)" fill="#010101"/>
        <path id="Trazado_181179" data-name="Trazado 181179" d="M-694.463,1854.765v2.066c-1.263,0-2.526,0-3.789.021-.314.005-.391-.089-.4-.4-.066-1.7-.076-1.7,1.644-1.7C-696.162,1854.752-695.313,1854.76-694.463,1854.765Z" transform="translate(751.014 -1804.519)" fill="#010101"/>
      </g>
    </g>
  </g>
</svg>
