<svg xmlns="http://www.w3.org/2000/svg" xmlns:xlink="http://www.w3.org/1999/xlink" width="248.707" height="239.417" viewBox="0 0 248.707 239.417">
  <defs>
    <linearGradient id="linear-gradient" x1="5.763" y1="-5.313" x2="6.752" y2="-4.946" gradientUnits="objectBoundingBox">
      <stop offset="0" stop-color="#fff"/>
      <stop offset="0.368" stop-color="#fbfbfb"/>
      <stop offset="0.695" stop-color="#f0f0f0"/>
      <stop offset="1" stop-color="#dfdfdf"/>
    </linearGradient>
  </defs>
  <g id="Grupo_120474" data-name="Grupo 120474" transform="translate(-428.451 -1017.467)">
    <g id="Grupo_120197" data-name="Grupo 120197">
      <path id="Trazado_181094" data-name="Trazado 181094" d="M-1818.384,782.5a188.847,188.847,0,0,0-57.689-77.257l118.054-162.161a392.7,392.7,0,0,1,77.948,79.084,384.533,384.533,0,0,1,52.705,98.414Z" transform="translate(2304.524 474.381)" fill="#ff6b00"/>
      <path id="Trazado_181100" data-name="Trazado 181100" d="M-1793.549,789.082a199.117,199.117,0,0,0-49.093-65.832l105.6-145.06a382.223,382.223,0,0,1,67.19,70.153,374.732,374.732,0,0,1,47.329,85.3Z" transform="translate(2285.671 454.584)" fill="url(#linear-gradient)"/>
      <path id="Trazado_181101" data-name="Trazado 181101" d="M-1781.446,792.556a206.193,206.193,0,0,0-44.734-60.023l99.418-136.561a377.117,377.117,0,0,1,61.883,65.588,370.066,370.066,0,0,1,44.517,78.779Z" transform="translate(2276.387 444.557)" fill="#f6f6f6"/>
    </g>
    <g id="Grupo_120206" data-name="Grupo 120206" transform="translate(12.539 12.016)">
      <g id="Grupo_120205" data-name="Grupo 120205" transform="translate(513.71 1129.294)">
        <path id="Trazado_181136" data-name="Trazado 181136" d="M-894.349,2198.588c-.166.208-.338.413-.5.627-.855,1.145-1.68,1.15-2.535.011v-.887q4.9-6.6,9.8-13.193,4.424-5.96,8.84-11.926a5.047,5.047,0,0,1,8.486-.057c.357.47.707.947,1.057,1.423a1.39,1.39,0,0,1,.073,2,1.7,1.7,0,0,1-1.314.269,7.307,7.307,0,0,1-1.7-2.006c-1.461-1.917-3.226-1.935-4.649-.014q-3.936,5.311-7.869,10.625Q-889.508,2192.019-894.349,2198.588Z" transform="translate(897.381 -2154.496)" fill="#030303"/>
        <path id="Trazado_181137" data-name="Trazado 181137" d="M-645.032,2169.8q.017,4.547.033,9.093c.005,2.119,0,4.239,0,6.359q-5.434.005-10.868.012c-1.053,0-1.415.3-1.615,1.314q-3.964-.005-7.927-.009c-.215,0-.446-.051-.623.134a18.679,18.679,0,0,1-4.476-3.091c-1.622-1.6-1.8-2.538-.953-4.624a4.8,4.8,0,0,0-1.813-6.329,20.17,20.17,0,0,0-2.647-1.437,2.483,2.483,0,0,1,.167-.4q3.668-5.764,7.335-11.53c.136-.215.487-.417.216-.766a.116.116,0,0,1,.072-.035c.175.12.178-.034.214-.134l.5-.43c1.346-1.159,2.324-1.152,3.7.025a4.847,4.847,0,0,0,1.786.99c1.178.35,1.767.013,2.026-1.182a2.536,2.536,0,0,0,1.484-.567,24.222,24.222,0,0,0,1.828-1.707c.157.188.324.368.471.564q4.828,6.441,9.645,12.89A1.729,1.729,0,0,0-645.032,2169.8Z" transform="translate(719.712 -2142.146)" fill="#e0a103"/>
        <path id="Trazado_181138" data-name="Trazado 181138" d="M-788.417,2103.647c-.258,1.194-.848,1.531-2.026,1.181a4.837,4.837,0,0,1-1.786-.99c-1.372-1.177-2.35-1.183-3.7-.025l-.5.43-.214.135a.11.11,0,0,0-.072.035c-2.719,1.34-4.9.478-6.79-1.76l-8.391,13.157a26.257,26.257,0,0,1,7.463,1.3,20.125,20.125,0,0,1,2.647,1.436,4.8,4.8,0,0,1,1.813,6.329c-.852,2.086-.669,3.022.953,4.624a18.69,18.69,0,0,0,4.476,3.092,77.249,77.249,0,0,0,12.15,4.9c.49.162.986.3,1.474.474a1.225,1.225,0,0,1,.942,1.636,1.2,1.2,0,0,1-1.713.766c-1.729-.56-3.452-1.143-5.175-1.722a1.786,1.786,0,0,0-.7-.188c-2.137-.929-4.338-1.709-6.429-2.745a23.64,23.64,0,0,1-7.337-4.976,5.443,5.443,0,0,1-1.6-4.977,14.492,14.492,0,0,1,.721-2.241,2.064,2.064,0,0,0-.537-2.48,7.476,7.476,0,0,0-3.448-1.725,16.21,16.21,0,0,0-4.512-.905c.078.284.251.346.382.448a4.279,4.279,0,0,1,.921,6.453,27.409,27.409,0,0,1-2.379,2.625,11.047,11.047,0,0,0-2.241,3.094,7.688,7.688,0,0,0,.411,6.752,4.2,4.2,0,0,1,.614,1.491c-.167.64-.478,1.14-1.216,1.194s-1.1-.428-1.394-1a11.806,11.806,0,0,1-1.528-5.339c-.005-.6-.385-.448-.7-.448q-6.99-.008-13.98,0c-.912,0-1.824,0-2.737,0-.98-.006-1.29-.255-1.554-1.217.2-.976.577-1.3,1.553-1.3,1.281-.007,2.561,0,3.842,0q6.649,0,13.3,0c.289,0,.6.122.759-.348a12.524,12.524,0,0,1,3.114-4.692c.7-.727,1.418-1.442,2.054-2.222.909-1.113.781-2-.33-2.925a11.043,11.043,0,0,0-2.138-1.3,5.51,5.51,0,0,1-1.31-.815,1.369,1.369,0,0,1-.291-1.909c.108-.19.21-.384.314-.577l8.886-13.938c2.526-3.962,5.039-7.933,7.586-11.882a5.043,5.043,0,0,1,7.829-1.1,6.625,6.625,0,0,1,.727.835q8.639,11.528,17.272,23.06a1.581,1.581,0,0,1,.462,1.345,1.362,1.362,0,0,1-1.063,1.012,1.729,1.729,0,0,1-1.448-.859q-4.806-6.457-9.645-12.889c-.147-.2-.314-.376-.471-.564q-3.547-4.767-7.1-9.533c-1.339-1.791-3.309-1.7-4.523.2q-2.266,3.543-4.526,7.09c-.874,1.368-.874,1.368.282,2.506a2.355,2.355,0,0,0,3.585.09,4.811,4.811,0,0,1,6.575-.026,2.715,2.715,0,0,0,1.183.721A1.432,1.432,0,0,1-788.417,2103.647Z" transform="translate(848.222 -2088.035)" fill="#030303"/>
        <path id="Trazado_181139" data-name="Trazado 181139" d="M-820.463,2205.966c-.1.192-.206.386-.314.577a1.369,1.369,0,0,0,.291,1.909,5.5,5.5,0,0,0,1.31.815,11.049,11.049,0,0,1,2.138,1.3c1.111.924,1.239,1.813.33,2.926-.637.78-1.355,1.494-2.054,2.221a12.528,12.528,0,0,0-3.114,4.692c-.155.47-.47.348-.759.348q-6.649.01-13.3,0c-1.281,0-2.561-.006-3.842,0-.976.005-1.353.329-1.553,1.3l-1.287-.026a9.471,9.471,0,0,0,2.817-2.969c3.737-5.053,7.5-10.086,11.223-15.151.877-1.194,1.946-2.314,2.077-3.916a1.7,1.7,0,0,0,1.314-.268q2.139,2.873,4.281,5.744C-820.772,2205.652-820.61,2205.8-820.463,2205.966Z" transform="translate(853.444 -2177.645)" fill="#e0a103"/>
        <path id="Trazado_181140" data-name="Trazado 181140" d="M-858.134,2187.085c-.131,1.6-1.2,2.722-2.077,3.916-3.722,5.064-7.486,10.1-11.223,15.151a9.478,9.478,0,0,1-2.817,2.97c-2.253.01-4.505.025-6.758.026a2.208,2.208,0,0,1-1.039-.327q4.845-6.565,9.692-13.131,3.929-5.317,7.869-10.625c1.423-1.92,3.188-1.9,4.649.014A7.3,7.3,0,0,0-858.134,2187.085Z" transform="translate(885.08 -2164.729)" fill="#e0a103"/>
        <path id="Trazado_181141" data-name="Trazado 181141" d="M-698.647,2246.218a7.485,7.485,0,0,1,3.448,1.725,2.065,2.065,0,0,1,.537,2.48,14.474,14.474,0,0,0-.721,2.241,5.442,5.442,0,0,0,1.6,4.976,23.623,23.623,0,0,0,7.337,4.976c2.091,1.036,4.292,1.816,6.43,2.745a.845.845,0,0,1-.726.669h-19.473c.924-1.268.921-1.352.073-2.618a14.2,14.2,0,0,1-.785-1.247c-1.171-2.214-1.645-4.445-.317-6.8.825-1.464,1.974-2.692,2.839-4.122a3.831,3.831,0,0,0,.022-4.359A.977.977,0,0,1-698.647,2246.218Z" transform="translate(740.671 -2214.939)" fill="#ff6b00"/>
        <path id="Trazado_181142" data-name="Trazado 181142" d="M-719.077,2242.547a.98.98,0,0,0,.266.666,3.83,3.83,0,0,1-.022,4.358c-.865,1.43-2.014,2.658-2.839,4.122-1.329,2.357-.854,4.589.317,6.8a14.25,14.25,0,0,0,.785,1.248c.848,1.266.851,1.35-.073,2.617h19.473c-.287.211-.619.123-.931.123q-11.889.016-23.779.021a4.211,4.211,0,0,0-.614-1.491,7.687,7.687,0,0,1-.411-6.752,11.051,11.051,0,0,1,2.241-3.094,27.373,27.373,0,0,0,2.379-2.625,4.28,4.28,0,0,0-.921-6.453.743.743,0,0,1-.382-.448A16.227,16.227,0,0,1-719.077,2242.547Z" transform="translate(761.101 -2211.267)" fill="#ff6b00"/>
        <path id="Trazado_181143" data-name="Trazado 181143" d="M-582.672,2307.33c.2-1.012.561-1.313,1.615-1.315q5.434-.009,10.868-.012c.836.391,1.184.918,1.027,1.562s-.654.971-1.533.971q-5.209.005-10.419,0C-582.1,2308.536-582.421,2308.275-582.672,2307.33Z" transform="translate(644.904 -2262.902)" fill="#030303"/>
        <path id="Trazado_181144" data-name="Trazado 181144" d="M-649.547,2113.866a1.433,1.433,0,0,0-1.211-1.225,2.713,2.713,0,0,1-1.183-.721,4.812,4.812,0,0,0-6.575.026,2.354,2.354,0,0,1-3.585-.091c-1.156-1.138-1.155-1.137-.282-2.506q2.263-3.545,4.526-7.09c1.214-1.9,3.184-1.992,4.523-.2q3.56,4.759,7.1,9.533a24.187,24.187,0,0,1-1.828,1.707A2.539,2.539,0,0,1-649.547,2113.866Z" transform="translate(709.352 -2098.255)" fill="#fefefe"/>
        <path id="Trazado_181145" data-name="Trazado 181145" d="M-706.2,2176.413a26.258,26.258,0,0,0-7.463-1.3l8.391-13.157c1.892,2.238,4.071,3.1,6.79,1.76.271.349-.08.551-.216.766q-3.655,5.772-7.335,11.53A2.5,2.5,0,0,0-706.2,2176.413Z" transform="translate(749.99 -2147.34)" fill="#e0a103"/>
        <path id="Trazado_181146" data-name="Trazado 181146" d="M-636.526,2170.136l.214-.135C-636.348,2170.1-636.351,2170.256-636.526,2170.136Z" transform="translate(688.108 -2153.793)" fill="#d8fdbe"/>
      </g>
      <g id="Grupo_120204" data-name="Grupo 120204" transform="matrix(0.985, -0.174, 0.174, 0.985, 482.148, 1095.101)">
        <path id="Trazado_181127" data-name="Trazado 181127" d="M48.223,0a28.579,28.579,0,0,1,4.443,56.812,28.058,28.058,0,0,1-21.182-5.086c-.423-.3-.636-.282-1,.089-1.432,1.481-2.9,2.931-4.37,4.37-.315.307-.374.481-.067.862a1.892,1.892,0,0,1-.067,2.481,4.487,4.487,0,0,1-.317.337q-7.511,7.512-15.027,15.018A6.128,6.128,0,0,1,.5,72.968a5.946,5.946,0,0,1,1.4-6.75c1.706-1.753,3.455-3.465,5.185-5.195Q12,56.107,16.919,51.191a2.032,2.032,0,0,1,3.011-.3c.264.181.377.132.567-.057,1.56-1.571,3.118-3.146,4.7-4.694.364-.356.063-.541-.1-.761A28.58,28.58,0,0,1,39.348,1.416,29.156,29.156,0,0,1,48.223,0ZM3.16,68.374a3.766,3.766,0,0,0,.6,5.232,3.967,3.967,0,0,0,5.375-.5c2.489-2.462,4.955-4.947,7.43-7.422q3.495-3.494,6.994-6.983c.336-.333.434-.551.028-.916-.744-.669-1.438-1.394-2.154-2.095-.755-.769-1.551-1.5-2.252-2.319-.466-.542-.726-.452-1.186.012Q10.96,60.471,3.89,67.524C3.629,67.786,3.244,67.956,3.16,68.374ZM21.981,28.6A26.249,26.249,0,1,0,48.252,2.341,26.225,26.225,0,0,0,21.981,28.6Zm7.1,21.279c-.1-.122-.18-.225-.269-.314-.507-.511-1.035-1-1.52-1.532-.287-.314-.469-.25-.734.02-1.444,1.464-2.894,2.923-4.365,4.361-.313.306-.244.475.031.732.507.473,1.005.959,1.47,1.474.286.316.459.26.731-.017,1.442-1.466,2.9-2.914,4.356-4.37C28.883,50.132,28.971,50.012,29.079,49.883Z" transform="translate(0 0)"/>
        <path id="Trazado_181128" data-name="Trazado 181128" d="M0,26.264a26.249,26.249,0,1,1,26.231,26.23A26.221,26.221,0,0,1,0,26.264ZM26.255,4.7A21.541,21.541,0,1,0,47.794,26.226,21.577,21.577,0,0,0,26.255,4.7Z" transform="translate(21.981 2.341)" fill="#ff6b00"/>
        <path id="Trazado_181129" data-name="Trazado 181129" d="M19.066,0c.715.7,1.41,1.426,2.154,2.1.406.365.307.583-.028.916Q17.681,6.489,14.2,9.994c-2.475,2.475-4.941,4.96-7.43,7.422a3.967,3.967,0,0,1-5.375.5,3.767,3.767,0,0,1-.6-5.232,23.829,23.829,0,0,0,6.435-2.225A34.566,34.566,0,0,0,17.886,1.673,4.75,4.75,0,0,0,19.066,0Z" transform="translate(2.367 55.69)" fill="#565656"/>
        <path id="Trazado_181130" data-name="Trazado 181130" d="M18.274,2.691a4.755,4.755,0,0,1-1.18,1.674A34.568,34.568,0,0,1,6.435,13.15,23.822,23.822,0,0,1,0,15.375c.084-.419.469-.588.73-.85Q7.779,7.45,14.836.384c.46-.463.719-.553,1.186-.012C16.723,1.187,17.518,1.922,18.274,2.691Z" transform="translate(3.16 52.999)" fill="#565656"/>
        <path id="Trazado_181131" data-name="Trazado 181131" d="M7.095,2.056c-.108.128-.2.249-.3.353-1.453,1.456-2.914,2.9-4.356,4.37-.272.277-.446.334-.731.018-.465-.514-.963-1-1.47-1.474C-.038,5.066-.106,4.9.207,4.591c1.47-1.438,2.92-2.9,4.365-4.361.266-.27.448-.334.734-.02.485.531,1.013,1.022,1.52,1.532C6.915,1.832,6.991,1.934,7.095,2.056Z" transform="translate(21.985 47.827)" fill="#f7c21d"/>
        <path id="Trazado_181132" data-name="Trazado 181132" d="M21.533,0A21.541,21.541,0,1,1,0,21.523,21.6,21.6,0,0,1,21.533,0ZM3.344,27.506a3.328,3.328,0,0,0,.089.451A19.193,19.193,0,0,0,40.3,17.576a17.851,17.851,0,0,0-5.081-9.42,7.011,7.011,0,0,0-.515-.563C28.928,2.451,22.328.988,15.018,3.516A18.966,18.966,0,0,0,2.339,21.467,15.956,15.956,0,0,0,3.344,27.506Z" transform="translate(26.703 7.043)"/>
        <path id="Trazado_181133" data-name="Trazado 181133" d="M1,25.2a15.945,15.945,0,0,1-1-6.039A18.967,18.967,0,0,1,12.679,1.211c7.31-2.528,13.91-1.065,19.689,4.076a7.056,7.056,0,0,1,.515.563,27.794,27.794,0,0,1,0,4.347,12.769,12.769,0,0,1-.76,3.547c-.069-.137-.137-.275-.207-.412C29.3,8.23,25.167,5.462,19.4,5.234c-.842-.033-1.352.421-1.364,1.12s.479,1.171,1.317,1.195a14.854,14.854,0,0,1,1.842.167c4.985.763,9.269,5.326,9.567,10.2-.3.067-.356.345-.486.559a20.555,20.555,0,0,1-8.232,7.873,20.121,20.121,0,0,1-10.433,2.271,19.807,19.807,0,0,1-7.619-1.879C2.983,26.251,2,25.714,1,25.2Z" transform="translate(29.043 9.348)" fill="#a757f7" opacity="0.261"/>
        <path id="Trazado_181134" data-name="Trazado 181134" d="M0,19.35c.995.513,1.979,1.051,2.987,1.536a19.8,19.8,0,0,0,7.619,1.879,20.119,20.119,0,0,0,10.433-2.271,20.552,20.552,0,0,0,8.232-7.873c.131-.214.187-.492.486-.558a2.847,2.847,0,0,1,.111,1.135c.05.844.474,1.34,1.172,1.347.722.007,1.151-.52,1.157-1.41a14.512,14.512,0,0,0-1.078-5.24,12.772,12.772,0,0,0,.76-3.547,27.784,27.784,0,0,0,0-4.347,17.851,17.851,0,0,1,5.081,9.42A19.193,19.193,0,0,1,.089,19.8,3.291,3.291,0,0,1,0,19.35Z" transform="translate(30.048 15.198)" fill="#a757f7" opacity="0.261"/>
        <path id="Trazado_181135" data-name="Trazado 181135" d="M14.088,8.513a14.515,14.515,0,0,1,1.078,5.24c-.006.89-.435,1.417-1.157,1.41-.7-.007-1.122-.5-1.172-1.347a2.852,2.852,0,0,0-.111-1.135c-.3-4.872-4.582-9.435-9.567-10.2a14.8,14.8,0,0,0-1.842-.167C.479,2.293-.012,1.827,0,1.122S.523-.032,1.364,0c5.768.228,9.9,3,12.516,8.1C13.951,8.238,14.019,8.375,14.088,8.513Z" transform="translate(47.078 14.58)"/>
      </g>
    </g>
  </g>
</svg>
