<svg xmlns="http://www.w3.org/2000/svg" xmlns:xlink="http://www.w3.org/1999/xlink" width="532.208" height="810.524" viewBox="0 0 532.208 810.524">
  <defs>
    <linearGradient id="linear-gradient" x1="5.136" y1="-5.988" x2="5.953" y2="-5.257" gradientUnits="objectBoundingBox">
      <stop offset="0" stop-color="#fff"/>
      <stop offset="0.368" stop-color="#fbfbfb"/>
      <stop offset="0.695" stop-color="#f0f0f0"/>
      <stop offset="1" stop-color="#dfdfdf"/>
    </linearGradient>
    <linearGradient id="linear-gradient-2" x1="5.352" y1="-6.284" x2="6.225" y2="-5.613" gradientUnits="objectBoundingBox">
      <stop offset="0" stop-color="#dfdfdf"/>
      <stop offset="0.305" stop-color="#f0f0f0"/>
      <stop offset="0.632" stop-color="#fbfbfb"/>
      <stop offset="1" stop-color="#fff"/>
    </linearGradient>
  </defs>
  <g id="Grupo_120474" data-name="Grupo 120474" transform="translate(-180 -191)">
    <path id="Trazado_181216" data-name="Trazado 181216" d="M-2134.26,321.858l-13.1,7.266,12.84,7.713.112-6.476a395.915,395.915,0,0,1,219.738,73.779l-130.177,178.814-.676.963,1.009.6.876.7.033-.045a176.522,176.522,0,0,1,64.646,86.957l.007,1.319,211.393-68.526c13.339,41,20.1,82.391,20.1,123.039a397.708,397.708,0,0,1-19.424,121.642l-71.955-23.322-139.252-45.135-.332,1.02a176.551,176.551,0,0,1-64.923,88.416l-.881.629.637.875h0l44.241,60.776,85.765,117.82a394.2,394.2,0,0,1-222.6,74.941,5.648,5.648,0,0,0-5.605-4.538,5.649,5.649,0,0,0-5.577,5.718,5.648,5.648,0,0,0,5.717,5.577,5.65,5.65,0,0,0,5.481-4.61,396.34,396.34,0,0,0,224.713-75.981l.87-.631L-2041.214,871.7a178.754,178.754,0,0,0,64.5-87.849l210.194,68.129,1.021.331.331-1.021a400.044,400.044,0,0,0,19.858-123.325c0-41.191-6.9-83.129-20.52-124.654a1.237,1.237,0,0,0-.11-.3l-.42-.805L-1977.212,670.6a178.719,178.719,0,0,0-65.123-87.164l130.182-178.482.787-1.084-.874-.63a398.077,398.077,0,0,0-222.13-75.024Z" transform="translate(2457.515 -130.858)" fill="#565656"/>
    <g id="Grupo_120473" data-name="Grupo 120473">
      <g id="Grupo_120218" data-name="Grupo 120218" transform="translate(0 -730)">
        <circle id="Elipse_4950" data-name="Elipse 4950" cx="132.515" cy="132.515" r="132.515" transform="translate(180 1193.747)" fill="url(#linear-gradient)"/>
        <circle id="Elipse_4951" data-name="Elipse 4951" cx="126.077" cy="126.077" r="126.077" transform="translate(186.438 1200.185)" fill="url(#linear-gradient-2)"/>
      </g>
      <g id="Grupo_120220" data-name="Grupo 120220" transform="translate(264.912 501.219)">
        <path id="Trazado_181072" data-name="Trazado 181072" d="M-487.443,1787.829c-.228-1.689.008-2.091,1.642-2.8a32.585,32.585,0,0,1,44.957,24.1c2,11.224-1.083,21.02-9.137,29.108-3.775,3.791-6.659,8-7.858,13.276-.172.758-.233,1.236.663,1.661a4.062,4.062,0,0,1,2.283,3.637c.018.276.008.554.01.831.007.792-.244,1.723.09,2.337.36.663,1.368.135,2.082.281a1.788,1.788,0,0,1,1.641,1.85,1.736,1.736,0,0,1-1.739,1.753c-.657.078-1.6-.173-1.918.176-.46.5-.14,1.431-.15,2.177-.022,1.841-.007,1.842,1.775,1.92,1.312.058,2.047.713,2.036,1.816-.011,1.087-.764,1.748-2.067,1.814-1.752.089-1.752.089-1.752,1.824,0,.4,0,.793,0,1.189-.031,2.775-1.854,4.749-4.6,4.608-1.683-.087-2.657.392-3.164,1.987a8.258,8.258,0,0,1-.93,1.782,4.35,4.35,0,0,1-3.821,2.228q-5.526.037-11.052,0a4.3,4.3,0,0,1-3.795-2.264,10.173,10.173,0,0,1-.977-1.892,2.31,2.31,0,0,0-2.9-1.805,3.608,3.608,0,0,1-2.3-.431,4.192,4.192,0,0,1-2.409-3.308,16.839,16.839,0,0,1-.085-2.015c-.011-1.782,0-1.782-1.82-1.9a1.917,1.917,0,0,1-2.027-1.882,1.867,1.867,0,0,1,2.013-1.745c1.83-.092,1.83-.092,1.83-1.917v-.476c0-1.776,0-1.776-1.748-1.86-1.267-.061-2.085-.766-2.095-1.806a1.9,1.9,0,0,1,2.064-1.836c1.185-.051,2.371-.06,3.557-.088l28.041.023c2.725,0,2.7,0,2.65-2.7-.018-.948-.384-1.364-1.348-1.363q-13.071.02-26.141,0a1.169,1.169,0,0,0-1.351,1.021,1.864,1.864,0,0,1-1.891,1.636c-1.422-.38-1.831-.963-1.665-2.376a3.915,3.915,0,0,1,2.268-3.26c.776-.363.8-.766.641-1.443a25.12,25.12,0,0,0-7.215-12.706,31.747,31.747,0,0,1-9.973-18.941c-1.719-12.815,2.674-23.214,12.792-31.216,1.027-.812,1.664-.708,2.834.27.647,1.513-.263,2.314-1.332,3.148a28.979,28.979,0,0,0-2.713,43.188,38.4,38.4,0,0,1,6.391,8.067,29.617,29.617,0,0,1,2.939,8.344c.094.534.262.726.82.71,1.423-.04,2.849-.038,4.272,0,.58.015.736-.188.729-.746-.037-3.164-.041-6.328-.057-9.492.016-1.98.042-3.96.045-5.94.007-4.557-.019-9.114.021-13.67.007-.837-.227-1.1-1.059-1.048a31.6,31.6,0,0,1-3.208,0,7.41,7.41,0,0,1-7.063-7.5,7.442,7.442,0,0,1,7.34-7.37,7.376,7.376,0,0,1,7.547,7c.055,1.147.027,2.3.03,3.447,0,.444-.061.955.627.842,1.036-.168,2.163.425,3.106-.354.119-.1.026-.456.026-.694,0-.99-.023-1.982.012-2.972a7.464,7.464,0,0,1,7.566-7.269,7.469,7.469,0,0,1,7.381,7.454,7.442,7.442,0,0,1-7.391,7.428c-1.03.022-2.062.041-3.09-.006-.672-.03-.9.193-.885.873.042,1.465.036,2.932,0,4.4a1.73,1.73,0,0,1-1.813,1.9,1.771,1.771,0,0,1-1.77-1.846c-.041-.83-.011-1.664-.011-2.5,0-2.955,0-2.955-2.936-2.816a.84.84,0,0,1-.119,0c-.493-.05-.713.137-.71.667q.046,9.149.066,18.3c-.02,3-.049,6-.058,9-.01,3.108,0,3.1,3.072,2.912.483-.029.7-.116.7-.658-.035-4.3-.043-8.607-.06-12.912.018-2.008.009-4.018.064-6.025a1.748,1.748,0,0,1,1.868-1.843,1.733,1.733,0,0,1,1.716,1.861c.04.9.041,1.809.06,2.714-.017,5.38-.027,10.76-.064,16.141,0,.6.236.729.773.719,1.385-.027,2.771-.04,4.155.005.6.02.837-.18.941-.756a28.368,28.368,0,0,1,8.513-15.539c7.216-7.022,10.2-15.55,8.848-25.518a26.494,26.494,0,0,0-5.635-13.243c-.2-.291-.379-.6-.6-.87a28.982,28.982,0,0,0-33.755-8.344C-485.979,1789.048-486.293,1789-487.443,1787.829Zm14.607,76.108h-11.41c-3.018,0-2.973,0-3.015,3.06-.015,1.032.35,1.237,1.3,1.233,8.162-.033,16.323-.019,24.485-.019,3.052,0,3.015,0,3.042-3.093.008-.944-.268-1.212-1.206-1.2C-464.04,1863.963-468.438,1863.937-472.836,1863.937Zm-.051,7.854h-12c-2.357,0-2.357,0-2.35,2.389,0,1.579.083,1.662,1.691,1.663q12.119,0,24.237.006c3.093,0,2.824.148,2.868-2.936.013-.889-.25-1.148-1.14-1.14C-464.016,1871.814-468.451,1871.792-472.887,1871.792ZM-465,1818.06c.632,0,1.269.052,1.894-.01a3.891,3.891,0,0,0,3.425-3.777,3.908,3.908,0,0,0-3.239-3.821,3.853,3.853,0,0,0-4.355,2.8,9,9,0,0,0-.158,2.355C-467.433,1818.084-467.43,1818.084-465,1818.06Zm-13.415-2.4c0-.552.026-1.106,0-1.657a3.8,3.8,0,0,0-3.941-3.583,3.776,3.776,0,0,0-3.721,3.685,3.791,3.791,0,0,0,3.563,3.962c.55.037,1.1.019,1.657.02C-478.4,1818.085-478.4,1818.084-478.41,1815.657Zm-1.544,63.764c.79,2.243.964,2.37,3.077,2.37,2.812,0,5.627-.082,8.434.036a2.209,2.209,0,0,0,2.377-1.645c.249-.589.147-.769-.489-.767C-470.987,1879.427-475.42,1879.421-479.954,1879.421Z" transform="translate(521.772 -1767.392)"/>
        <path id="Trazado_181073" data-name="Trazado 181073" d="M-459.734,1843.523c-.019-.9-.02-1.81-.06-2.714a1.732,1.732,0,0,0-1.716-1.86,1.748,1.748,0,0,0-1.867,1.843c-.055,2.008-.046,4.017-.064,6.026-1.324.315-2.353,1.281-3.649,1.658q-.03-9.15-.066-18.3c0-.53.217-.717.71-.667a.744.744,0,0,0,.119,0c2.936-.139,2.936-.139,2.936,2.816,0,.832-.03,1.666.011,2.5a1.771,1.771,0,0,0,1.77,1.846,1.73,1.73,0,0,0,1.813-1.9c.034-1.465.04-2.933,0-4.4-.019-.68.213-.9.885-.873,1.028.046,2.06.027,3.09.005a7.441,7.441,0,0,0,7.391-7.428,7.469,7.469,0,0,0-7.381-7.455,7.464,7.464,0,0,0-7.566,7.269c-.035.99-.009,1.981-.012,2.971,0,.238.092.6-.026.694-.943.779-2.071.186-3.106.354-.688.113-.626-.4-.627-.842,0-1.149.025-2.3-.03-3.447a7.377,7.377,0,0,0-7.547-7,7.443,7.443,0,0,0-7.34,7.37,7.41,7.41,0,0,0,7.063,7.5,31.523,31.523,0,0,0,3.208,0c.832-.053,1.066.211,1.059,1.048-.041,4.556-.015,9.113-.021,13.67,0,1.98-.029,3.96-.044,5.94-2.869.632-5.714,1.439-8.7,1.185a38.4,38.4,0,0,0-6.391-8.067,28.979,28.979,0,0,1,2.714-43.189c1.069-.834,1.979-1.635,1.332-3.148a9.877,9.877,0,0,1,2.053-1.27c1.15,1.174,1.464,1.218,3.242.458a28.982,28.982,0,0,1,33.755,8.344c.222.273.4.579.6.87a3.178,3.178,0,0,0-.015.708,30.076,30.076,0,0,1,.235,10.888,29.533,29.533,0,0,1-8.064,16.367c-2.269,2.317-4.281,4.831-6.38,7.284C-457.374,1841.689-458.237,1842.991-459.734,1843.523Z" transform="translate(514.128 -1775.222)" fill="#ffd05c"/>
        <path id="Trazado_181074" data-name="Trazado 181074" d="M-454.17,2017.162a1.864,1.864,0,0,0,1.891-1.636,1.169,1.169,0,0,1,1.351-1.021q13.07.015,26.141,0c.964,0,1.33.415,1.348,1.363.052,2.7.075,2.7-2.65,2.7q-14.021-.01-28.041-.024Q-454.15,2017.851-454.17,2017.162Z" transform="translate(486.762 -1925.781)" fill="#afafaf"/>
        <path id="Trazado_181075" data-name="Trazado 181075" d="M-408.859,1739.843c0-.907-.045-1.817.011-2.72a1.744,1.744,0,0,1,1.781-1.814,1.711,1.711,0,0,1,1.816,1.771c.065,1.852.061,3.708,0,5.56a1.741,1.741,0,0,1-1.778,1.825,1.807,1.807,0,0,1-1.837-1.9c-.006-.079-.005-.158-.005-.237q0-1.242,0-2.485Z" transform="translate(455.862 -1735.307)"/>
        <path id="Trazado_181076" data-name="Trazado 181076" d="M-273.614,1883.282c.907,0,1.816-.037,2.721.01a1.682,1.682,0,0,1,1.755,1.695,1.728,1.728,0,0,1-1.715,1.876c-1.891.069-3.787.067-5.678.007a1.732,1.732,0,0,1-1.753-1.843,1.7,1.7,0,0,1,1.831-1.741c.945-.04,1.893-.008,2.839-.008Z" transform="translate(366.769 -1836.248)"/>
        <path id="Trazado_181077" data-name="Trazado 181077" d="M-552.145,1883.291c.946,0,1.9-.04,2.839.012a1.671,1.671,0,0,1,1.718,1.725,1.64,1.64,0,0,1-1.628,1.823c-1.967.1-3.944.083-5.912,0a1.7,1.7,0,0,1-1.6-1.853,1.679,1.679,0,0,1,1.748-1.7C-554.04,1883.252-553.091,1883.29-552.145,1883.291Z" transform="translate(556.734 -1836.255)"/>
        <path id="Trazado_181078" data-name="Trazado 181078" d="M-535.209,1954.8a1.9,1.9,0,0,1-1.7-1.161,1.487,1.487,0,0,1,.44-1.925c1.789-1.146,3.622-2.239,5.512-3.2a1.573,1.573,0,0,1,2.122.8,1.56,1.56,0,0,1-.337,2.147,38.945,38.945,0,0,1-5.621,3.245A1.888,1.888,0,0,1-535.209,1954.8Z" transform="translate(543.32 -1880.642)"/>
        <path id="Trazado_181079" data-name="Trazado 181079" d="M-287.432,1952.857a1.794,1.794,0,0,1-2.57,1.757c-1.749-.9-3.448-1.911-5.117-2.957a1.669,1.669,0,0,1-.475-2.4,1.638,1.638,0,0,1,2.272-.641c1.742.919,3.431,1.94,5.124,2.948A1.641,1.641,0,0,1-287.432,1952.857Z" transform="translate(378.791 -1880.678)"/>
        <path id="Trazado_181080" data-name="Trazado 181080" d="M-478.2,1763.481a1.874,1.874,0,0,1-1.565-.98c-.912-1.567-1.838-3.125-2.707-4.716a1.779,1.779,0,0,1,.663-2.55,1.748,1.748,0,0,1,2.437.755c.941,1.549,1.854,3.116,2.71,4.713A1.812,1.812,0,0,1-478.2,1763.481Z" transform="translate(506.259 -1748.744)"/>
        <path id="Trazado_181081" data-name="Trazado 181081" d="M-337.243,1756.91a2.05,2.05,0,0,1-.146.618c-.995,1.745-1.962,3.509-3.039,5.2a1.59,1.59,0,0,1-2.3.491,1.618,1.618,0,0,1-.743-2.242c.918-1.784,1.953-3.512,3.016-5.216a1.559,1.559,0,0,1,1.977-.63A1.786,1.786,0,0,1-337.243,1756.91Z" transform="translate(411.375 -1748.75)"/>
        <path id="Trazado_181082" data-name="Trazado 181082" d="M-535.2,1809.321a1.925,1.925,0,0,1,1.012.278c1.535.887,3.088,1.746,4.607,2.66a1.8,1.8,0,0,1,.784,2.528,1.81,1.81,0,0,1-2.576.591c-1.588-.874-3.156-1.786-4.713-2.714a1.677,1.677,0,0,1-.855-2.016A1.689,1.689,0,0,1-535.2,1809.321Z" transform="translate(543.287 -1785.8)"/>
        <path id="Trazado_181083" data-name="Trazado 181083" d="M-294.008,1815.572a1.824,1.824,0,0,1-1.724-1.121,1.543,1.543,0,0,1,.494-2.017c1.763-1.115,3.562-2.184,5.419-3.13a1.588,1.588,0,0,1,2.134.772,1.536,1.536,0,0,1-.3,2.146,38.5,38.5,0,0,1-5.612,3.25A1.83,1.83,0,0,1-294.008,1815.572Z" transform="translate(378.789 -1785.673)"/>
        <path id="Trazado_181084" data-name="Trazado 181084" d="M-385.7,1868.25c1.5-.532,2.36-1.834,3.309-2.943,2.1-2.454,4.111-4.968,6.38-7.285a29.53,29.53,0,0,0,8.064-16.366,30.078,30.078,0,0,0-.235-10.888,3.182,3.182,0,0,1,.015-.708,26.494,26.494,0,0,1,5.635,13.243c1.355,9.968-1.632,18.5-8.848,25.518a28.367,28.367,0,0,0-8.513,15.539c-.1.576-.345.776-.941.756-1.384-.045-2.77-.032-4.155-.005-.537.01-.777-.116-.773-.719C-385.728,1879.011-385.718,1873.63-385.7,1868.25Z" transform="translate(440.094 -1799.949)" fill="#ffd05c"/>
        <path id="Trazado_181085" data-name="Trazado 181085" d="M-433.712,2039.077c4.4,0,8.8.025,13.193-.02.938-.01,1.214.258,1.206,1.2-.028,3.092.01,3.093-3.042,3.093-8.162,0-16.323-.014-24.485.019-.947,0-1.312-.2-1.3-1.233.043-3.06,0-3.06,3.015-3.06Z" transform="translate(482.647 -1942.532)" fill="#afafaf"/>
        <path id="Trazado_181086" data-name="Trazado 181086" d="M-433.71,2063.8c4.436,0,8.871.023,13.307-.019.89-.009,1.153.251,1.14,1.14-.044,3.084.225,2.941-2.868,2.936q-12.119-.021-24.238-.006c-1.608,0-1.686-.083-1.691-1.663-.006-2.389-.006-2.389,2.35-2.389Z" transform="translate(482.595 -1959.396)" fill="#afafaf"/>
        <path id="Trazado_181087" data-name="Trazado 181087" d="M-447.789,1972.273c2.99.254,5.835-.553,8.7-1.185.015,3.164.02,6.328.057,9.491.006.557-.149.761-.729.746-1.423-.037-2.849-.039-4.272,0-.558.016-.725-.176-.82-.71A29.621,29.621,0,0,0-447.789,1972.273Z" transform="translate(482.409 -1896.162)" fill="#ffd05c"/>
        <path id="Trazado_181088" data-name="Trazado 181088" d="M-383.3,1878.329c-2.434.025-2.438.025-2.432-2.45a9,9,0,0,1,.158-2.356,3.854,3.854,0,0,1,4.355-2.8,3.908,3.908,0,0,1,3.239,3.821,3.891,3.891,0,0,1-3.425,3.777C-382.03,1878.381-382.667,1878.329-383.3,1878.329Z" transform="translate(440.075 -1827.662)" fill="#ffd05c"/>
        <path id="Trazado_181089" data-name="Trazado 181089" d="M-436.746,1875.939c.01,2.427.01,2.428-2.447,2.426-.553,0-1.107.017-1.657-.02a3.791,3.791,0,0,1-3.563-3.962,3.776,3.776,0,0,1,3.721-3.685,3.8,3.8,0,0,1,3.941,3.583C-436.719,1874.832-436.746,1875.386-436.746,1875.939Z" transform="translate(480.107 -1827.673)" fill="#ffd05c"/>
        <path id="Trazado_181090" data-name="Trazado 181090" d="M-408.841,1962.265c1.3-.377,2.325-1.343,3.649-1.658.016,4.3.025,8.607.06,12.911,0,.542-.212.629-.7.658-3.075.184-3.082.2-3.072-2.912C-408.889,1968.264-408.861,1965.265-408.841,1962.265Z" transform="translate(455.878 -1889.012)" fill="#ffd05c"/>
        <path id="Trazado_181091" data-name="Trazado 181091" d="M-425.141,2087.832c4.534,0,8.967.006,13.4-.007.636,0,.738.179.489.768a2.208,2.208,0,0,1-2.377,1.645c-2.807-.117-5.622-.035-8.434-.035C-424.177,2090.2-424.351,2090.074-425.141,2087.832Z" transform="translate(466.958 -1975.802)" fill="#636363"/>
      </g>
      <path id="Trazado_181647" data-name="Trazado 181647" d="M18.869,17.211V23H14.756V5.938h6.809a7.93,7.93,0,0,1,3.463.721,5.431,5.431,0,0,1,2.332,2.051,5.6,5.6,0,0,1,.826,3.018,4.937,4.937,0,0,1-1.787,3.99,7.415,7.415,0,0,1-4.9,1.494Zm0-3.176h2.7a2.542,2.542,0,0,0,1.822-.6,2.221,2.221,0,0,0,.627-1.687,2.745,2.745,0,0,0-.645-1.91,2.282,2.282,0,0,0-1.758-.727H18.869Zm19-.141-1.3-.094a2.336,2.336,0,0,0-2.391,1.172V23H30.225V10.32h3.7l.129,1.629a3.058,3.058,0,0,1,2.777-1.863,3.851,3.851,0,0,1,1.1.141Zm.5,2.648a7.484,7.484,0,0,1,.738-3.381,5.28,5.28,0,0,1,2.121-2.279,6.388,6.388,0,0,1,3.246-.8,5.83,5.83,0,0,1,4.488,1.764,6.768,6.768,0,0,1,1.641,4.8v.141a6.566,6.566,0,0,1-1.646,4.705,5.846,5.846,0,0,1-4.459,1.74,5.912,5.912,0,0,1-4.348-1.623,6.348,6.348,0,0,1-1.77-4.4Zm3.949.246a4.718,4.718,0,0,0,.551,2.578,1.835,1.835,0,0,0,1.629.82q2.109,0,2.156-3.246v-.4q0-3.41-2.18-3.41-1.98,0-2.145,2.941Zm14.918.68,2.109-7.148h4.23l-5.168,14.8-.223.539a3.926,3.926,0,0,1-3.891,2.461,6.189,6.189,0,0,1-1.629-.233V25.074h.516a2.7,2.7,0,0,0,1.271-.24,1.459,1.459,0,0,0,.65-.862l.316-.844L51.014,10.32h4.219Zm13.348,5.766a6.518,6.518,0,0,1-4.723-1.74,6.009,6.009,0,0,1-1.8-4.529v-.328a7.787,7.787,0,0,1,.721-3.434,5.274,5.274,0,0,1,2.1-2.3,6.35,6.35,0,0,1,3.281-.814,5.489,5.489,0,0,1,4.219,1.658,6.516,6.516,0,0,1,1.547,4.623V17.9H68.076A2.846,2.846,0,0,0,69,19.578a2.755,2.755,0,0,0,1.852.609,3.549,3.549,0,0,0,2.93-1.312l1.8,2.133A5.045,5.045,0,0,1,73.5,22.631,7.069,7.069,0,0,1,70.584,23.234Zm-.445-10.1q-1.734,0-2.062,2.3h3.984v-.3a1.956,1.956,0,0,0-.48-1.471A1.912,1.912,0,0,0,70.139,13.133Zm12.738,7.055a1.756,1.756,0,0,0,1.289-.451,1.654,1.654,0,0,0,.445-1.26h3.7A4.384,4.384,0,0,1,86.82,21.9a5.558,5.558,0,0,1-3.85,1.336A5.627,5.627,0,0,1,78.611,21.5a6.834,6.834,0,0,1-1.594-4.8v-.164a7.723,7.723,0,0,1,.709-3.393,5.162,5.162,0,0,1,2.045-2.262,6.1,6.1,0,0,1,3.164-.791,5.488,5.488,0,0,1,3.926,1.371,4.863,4.863,0,0,1,1.453,3.715h-3.7a2.168,2.168,0,0,0-.48-1.512,1.658,1.658,0,0,0-1.289-.527q-1.535,0-1.793,1.957a13.809,13.809,0,0,0-.082,1.711,5.424,5.424,0,0,0,.457,2.648A1.582,1.582,0,0,0,82.877,20.188ZM94.584,7.168V10.32H96.67v2.742H94.584v5.8a1.481,1.481,0,0,0,.258,1,1.383,1.383,0,0,0,1.02.281,5.793,5.793,0,0,0,.984-.07v2.824a7.288,7.288,0,0,1-2.227.34,4.137,4.137,0,0,1-3.012-.961,3.939,3.939,0,0,1-.973-2.918V13.063H89.018V10.32h1.617V7.168Zm2.789,9.375a7.484,7.484,0,0,1,.738-3.381,5.28,5.28,0,0,1,2.121-2.279,6.388,6.388,0,0,1,3.246-.8,5.83,5.83,0,0,1,4.488,1.764,6.768,6.768,0,0,1,1.641,4.8v.141a6.566,6.566,0,0,1-1.646,4.705,5.846,5.846,0,0,1-4.459,1.74,5.912,5.912,0,0,1-4.348-1.623,6.348,6.348,0,0,1-1.77-4.4Zm3.949.246a4.718,4.718,0,0,0,.551,2.578,1.835,1.835,0,0,0,1.629.82q2.109,0,2.156-3.246v-.4q0-3.41-2.18-3.41-1.98,0-2.145,2.941Zm16.664,2.648a.912.912,0,0,0-.527-.809,8.021,8.021,0,0,0-2-.633,9.138,9.138,0,0,1-2.437-.861,4.083,4.083,0,0,1-1.465-1.295,3.092,3.092,0,0,1-.5-1.746,3.5,3.5,0,0,1,1.441-2.877,5.938,5.938,0,0,1,3.773-1.131,6.579,6.579,0,0,1,4.031,1.137,3.555,3.555,0,0,1,1.523,2.988h-3.961q0-1.523-1.605-1.523a1.591,1.591,0,0,0-1.043.346,1.07,1.07,0,0,0-.422.861.982.982,0,0,0,.516.855,4.872,4.872,0,0,0,1.646.539,14.228,14.228,0,0,1,1.986.5q2.859.984,2.859,3.527a3.321,3.321,0,0,1-1.541,2.824,6.758,6.758,0,0,1-3.99,1.09,6.9,6.9,0,0,1-2.906-.586,4.86,4.86,0,0,1-1.992-1.594,3.609,3.609,0,0,1-.715-2.121h3.691a1.526,1.526,0,0,0,.586,1.283,2.41,2.41,0,0,0,1.441.4,1.9,1.9,0,0,0,1.213-.328A1.05,1.05,0,0,0,117.986,19.438ZM19.191,41.2H12.559V48H8.445V30.938H19.859v3.176h-7.3v3.926h6.633Zm1.453.34a7.484,7.484,0,0,1,.738-3.381A5.28,5.28,0,0,1,23.5,35.883a6.388,6.388,0,0,1,3.246-.8,5.83,5.83,0,0,1,4.488,1.764,6.768,6.768,0,0,1,1.641,4.8v.141a6.566,6.566,0,0,1-1.646,4.705,5.846,5.846,0,0,1-4.459,1.74,5.912,5.912,0,0,1-4.348-1.623,6.348,6.348,0,0,1-1.77-4.4Zm3.949.246a4.718,4.718,0,0,0,.551,2.578,1.835,1.835,0,0,0,1.629.82q2.109,0,2.156-3.246v-.4q0-3.41-2.18-3.41-1.98,0-2.145,2.941Zm17.7-2.895-1.3-.094A2.336,2.336,0,0,0,38.6,39.973V48H34.648V35.32h3.7l.129,1.629a3.058,3.058,0,0,1,2.777-1.863,3.851,3.851,0,0,1,1.1.141Zm5.156-3.574.129,1.488A4.36,4.36,0,0,1,51.2,35.086,3.21,3.21,0,0,1,54.441,37a4.22,4.22,0,0,1,3.727-1.91q3.855,0,3.961,4.664V48H58.168V40a2.417,2.417,0,0,0-.328-1.418,1.4,1.4,0,0,0-1.2-.445A1.871,1.871,0,0,0,54.9,39.176l.012.164V48H50.949V40.02a2.541,2.541,0,0,0-.316-1.441,1.393,1.393,0,0,0-1.207-.445,1.894,1.894,0,0,0-1.734,1.043V48H43.742V35.32ZM71.527,48a4.459,4.459,0,0,1-.375-1.137,3.672,3.672,0,0,1-3.047,1.371,4.5,4.5,0,0,1-3.047-1.084A3.45,3.45,0,0,1,63.8,44.426a3.546,3.546,0,0,1,1.523-3.117,7.761,7.761,0,0,1,4.43-1.055h1.219v-.671q0-1.755-1.512-1.755a1.236,1.236,0,0,0-1.406,1.39H64.109a3.54,3.54,0,0,1,1.564-2.985,6.575,6.575,0,0,1,3.99-1.147A5.764,5.764,0,0,1,73.5,36.27a4.115,4.115,0,0,1,1.441,3.246v5.613a5.748,5.748,0,0,0,.539,2.672V48Zm-2.473-2.578a2.2,2.2,0,0,0,1.225-.316,1.983,1.983,0,0,0,.7-.715V42.363H69.828q-2.062,0-2.062,1.852a1.131,1.131,0,0,0,.363.873A1.315,1.315,0,0,0,69.055,45.422ZM81.723,32.168V35.32h2.086v2.742H81.723v5.8a1.481,1.481,0,0,0,.258,1,1.383,1.383,0,0,0,1.02.281,5.793,5.793,0,0,0,.984-.07v2.824a7.288,7.288,0,0,1-2.227.34,4.137,4.137,0,0,1-3.012-.961,3.939,3.939,0,0,1-.973-2.918V38.063H76.156V35.32h1.617V32.168ZM89.527,48H85.566V35.32h3.961Zm-4.2-15.961a1.778,1.778,0,0,1,.609-1.391,2.579,2.579,0,0,1,3.164,0,1.893,1.893,0,0,1,0,2.782,2.579,2.579,0,0,1-3.164,0A1.778,1.778,0,0,1,85.332,32.039ZM97.016,43.3l2-7.98h4.16L99.043,48H95.012L90.875,35.32h4.172Zm6.668-1.758a7.484,7.484,0,0,1,.738-3.381,5.28,5.28,0,0,1,2.121-2.279,6.388,6.388,0,0,1,3.246-.8,5.83,5.83,0,0,1,4.488,1.764,6.768,6.768,0,0,1,1.641,4.8v.141a6.566,6.566,0,0,1-1.646,4.705,5.846,5.846,0,0,1-4.459,1.74,5.912,5.912,0,0,1-4.348-1.623,6.348,6.348,0,0,1-1.77-4.4Zm3.949.246a4.718,4.718,0,0,0,.551,2.578,1.835,1.835,0,0,0,1.629.82q2.109,0,2.156-3.246v-.4q0-3.41-2.18-3.41-1.98,0-2.145,2.941ZM124.3,44.438a.912.912,0,0,0-.527-.809,8.021,8.021,0,0,0-2-.633,9.138,9.138,0,0,1-2.437-.861,4.083,4.083,0,0,1-1.465-1.295,3.092,3.092,0,0,1-.5-1.746,3.5,3.5,0,0,1,1.441-2.877,5.938,5.938,0,0,1,3.773-1.131,6.579,6.579,0,0,1,4.031,1.137,3.555,3.555,0,0,1,1.523,2.988h-3.961q0-1.523-1.605-1.523a1.591,1.591,0,0,0-1.043.346,1.07,1.07,0,0,0-.422.861.982.982,0,0,0,.516.855,4.872,4.872,0,0,0,1.646.539,14.228,14.228,0,0,1,1.986.5q2.859.984,2.859,3.527a3.321,3.321,0,0,1-1.541,2.824,6.758,6.758,0,0,1-3.99,1.09,6.9,6.9,0,0,1-2.906-.586,4.86,4.86,0,0,1-1.992-1.594,3.609,3.609,0,0,1-.715-2.121h3.691a1.526,1.526,0,0,0,.586,1.283,2.41,2.41,0,0,0,1.441.4,1.9,1.9,0,0,0,1.213-.328A1.05,1.05,0,0,0,124.3,44.438Z" transform="translate(246 627.303)" fill="#12263f"/>
    </g>
  </g>
</svg>
