<svg xmlns="http://www.w3.org/2000/svg" xmlns:xlink="http://www.w3.org/1999/xlink" width="207.461" height="220.345" viewBox="0 0 207.461 220.345">
  <defs>
    <linearGradient id="linear-gradient" x1="5.791" y1="-6.655" x2="6.748" y2="-5.995" gradientUnits="objectBoundingBox">
      <stop offset="0" stop-color="#fff"/>
      <stop offset="0.368" stop-color="#fbfbfb"/>
      <stop offset="0.695" stop-color="#f0f0f0"/>
      <stop offset="1" stop-color="#dfdfdf"/>
    </linearGradient>
  </defs>
  <g id="Grupo_120476" data-name="Grupo 120476" transform="translate(-492.943 -1215.352)">
    <g id="Grupo_120198" data-name="Grupo 120198">
      <path id="Trazado_181093" data-name="Trazado 181093" d="M-1520.713,1107.805a386.17,386.17,0,0,1-16.11,109.435l-190.946-61.89a187.237,187.237,0,0,0,6.1-47.544,187.06,187.06,0,0,0-6.5-49.058l190.692-61.853A385.2,385.2,0,0,1-1520.713,1107.805Z" transform="translate(2221.117 218.457)" fill="#565656"/>
      <path id="Trazado_181098" data-name="Trazado 181098" d="M-1514.918,1125.44a373.6,373.6,0,0,1-12.7,95.783l-170.931-55.4a198.806,198.806,0,0,0,4.13-40.38,198.688,198.688,0,0,0-4.457-41.922l170.656-55.353A371.6,371.6,0,0,1-1514.918,1125.44Z" transform="translate(2204.593 200.822)" fill="url(#linear-gradient)"/>
      <path id="Trazado_181099" data-name="Trazado 181099" d="M-1512.25,1134.3a367.49,367.49,0,0,1-11.105,88.921l-160.983-52.178a204.84,204.84,0,0,0,3.321-36.742,204.659,204.659,0,0,0-3.611-38.3l160.7-52.125A364.952,364.952,0,0,1-1512.25,1134.3Z" transform="translate(2196.56 191.959)" fill="#f6f6f6"/>
    </g>
    <g id="Grupo_120209" data-name="Grupo 120209" transform="translate(1887.884 -95.837)">
      <g id="Grupo_120207" data-name="Grupo 120207" transform="translate(-1345.526 1375.629)">
        <path id="Trazado_181147" data-name="Trazado 181147" d="M-1256.989,1442.694a2.178,2.178,0,0,1-.9-2.08c.048-1.5.011-3,.014-4.506,0-1.284.5-1.781,1.766-1.785,1.046,0,1.046,0,1.046-1.061q0-1.274,0-2.547c0-1.372.109-1.535,1.341-2.015,1.166.291,1.44.647,1.441,1.877,0,1.045.035,2.092-.014,3.135-.026.543.171.622.653.621q10.878-.021,21.756-.01c1.391,0,1.391,0,1.284-1.438.01-1,.025-2,.03-3,.005-1.141,0-1.172-1.168-1.143a7.117,7.117,0,0,1-7.031-5.264,3.65,3.65,0,0,1-.066-2.123,1.323,1.323,0,0,1,1.311-.984,1.384,1.384,0,0,1,1.325,1.061,3.316,3.316,0,0,1,.082.58,4.132,4.132,0,0,0,4.1,3.934q4.968.039,9.937,0a4.11,4.11,0,0,0,4.05-3.982c.032-.827-.014-1.657.025-2.483.02-.425-.138-.493-.52-.5a26.51,26.51,0,0,1-3.917-.086,5.829,5.829,0,0,1-3.509-1.713,1.315,1.315,0,0,1,.172-2.138,1.383,1.383,0,0,1,1.79.173,3.442,3.442,0,0,0,2.426.956c1.024,0,2.048-.01,3.07.02.427.013.492-.165.485-.537-.022-1.133-.016-2.266-.006-3.4s.533-1.643,1.645-1.634,2.222.041,3.334.039a1.938,1.938,0,0,0,2.006-1.832,2.351,2.351,0,0,0-.5-1.453q-3.561-5.966-7.152-11.915a4.214,4.214,0,0,1-.752-2.374,10.24,10.24,0,0,0-.178-1.752,15.36,15.36,0,0,0-13.26-12.72,34.7,34.7,0,0,0-13.576,1.185,1.434,1.434,0,0,1-1.991-.824,1.424,1.424,0,0,1,1.074-1.8,35.5,35.5,0,0,1,15.577-1.173,17.944,17.944,0,0,1,14.935,14.933c.108.732.183,1.47.229,2.208a1.672,1.672,0,0,0,.287.779c2.428,4.048,4.866,8.089,7.28,12.146a4.779,4.779,0,0,1-2.731,7.155,9.55,9.55,0,0,1-2.86.163c-.471-.01-.564.137-.56.581q.033,3.793.007,7.586a6.962,6.962,0,0,1-5.812,7.08,8.644,8.644,0,0,1-1.5.1q-2.387.018-4.775,0c-.3,0-.484.022-.48.409.019,1.613.016,3.226,0,4.839,0,.307.118.357.384.352.763-.014,1.526.011,2.289-.011a1.29,1.29,0,0,1,1.1.46c1.556,1.854,2.949,3.831,4.366,5.788.542.748.21,1.529-.773,2.13h-.916a12.526,12.526,0,0,1-.876-.941q-1.6-2.1-3.164-4.236a.942.942,0,0,0-.863-.431q-15.091.02-30.182.007c-.48,0-.7.074-.673.629.049,1.021-.016,2.047.023,3.069a1.805,1.805,0,0,1-1.024,1.9Z" transform="translate(1273.211 -1375.628)" fill="#ff6b00"/>
        <path id="Trazado_181149" data-name="Trazado 181149" d="M-1345.526,1488.613a2.128,2.128,0,0,1,2.138-.892c.648.043,1.3-.009,1.953.014a1.422,1.422,0,0,1,1.491,1.4,1.419,1.419,0,0,1-1.491,1.4c-.868.026-1.737,0-2.6.009a1.882,1.882,0,0,1-1.487-.885Z" transform="translate(1345.526 -1468.115)" fill="#ff6b00"/>
        <path id="Trazado_181151" data-name="Trazado 181151" d="M-1290.824,1415.854a14,14,0,0,1,6,1.831,13.834,13.834,0,0,1,7.022,13.283,12.274,12.274,0,0,1-2.361,6.6,30.762,30.762,0,0,0-3.97,7.387.653.653,0,0,0,.29.936,4.153,4.153,0,0,1-.513,7.192,1.091,1.091,0,0,0-.662.779,7.1,7.1,0,0,1-3.957,4.587,8.148,8.148,0,0,1-4.178.4,10.013,10.013,0,0,1-2.105-.851,6.9,6.9,0,0,1-3.187-4.208.881.881,0,0,0-.523-.659,4.144,4.144,0,0,1-.621-7.249.625.625,0,0,0,.277-.892,28.782,28.782,0,0,0-3.329-6.476,15.084,15.084,0,0,1-2.754-5.64,14.014,14.014,0,0,1,12.5-16.958c.26-.02.517-.068.776-.1Zm-2.992,37.7h-1.845a4.1,4.1,0,0,0,3.386,2.71,3.852,3.852,0,0,0,3.822-1.589,2.472,2.472,0,0,0,.64-1.122Zm9.018-4.243a1.246,1.246,0,0,0-1.285-1.33c-3.584-.01-7.169.008-10.753.016-1.126-.089-1.783.355-1.836,1.241-.056.936.575,1.493,1.7,1.5q1.794,0,3.588,0c2.37,0,4.74.006,7.11,0A1.322,1.322,0,0,0-1284.8,1449.313Zm-6.93-7.207c.136-.376.21-.574.279-.774q1.3-3.793,2.6-7.586a1.4,1.4,0,0,1,1.85-1.06,1.412,1.412,0,0,1,.8,1.93c-.193.6-.4,1.2-.6,1.793-.93,2.736-1.855,5.474-2.8,8.2-.146.42-.1.568.379.537a16.639,16.639,0,0,1,1.7,0,.44.44,0,0,0,.507-.375,29.243,29.243,0,0,1,4.426-8.6,10.885,10.885,0,0,0,.278-12.35,10.717,10.717,0,0,0-11.3-5,11.091,11.091,0,0,0-7.427,17.043,32.454,32.454,0,0,1,4.63,8.933c.058.2.137.348.4.344.76-.013,1.52,0,2.329,0-.082-.264-.144-.47-.21-.674q-1.6-4.929-3.2-9.859a1.4,1.4,0,0,1,.995-1.974,1.393,1.393,0,0,1,1.652,1.118C-1293.559,1436.473-1292.675,1439.2-1291.727,1442.106Z" transform="translate(1312.651 -1408.789)" fill="#ff6b00"/>
        <path id="Trazado_181153" data-name="Trazado 181153" d="M-1316.095,1404.135a1.435,1.435,0,0,1-.8,1.29,1.232,1.232,0,0,1-1.461-.164c-1.037-.988-2.061-1.993-3.036-3.041a1.3,1.3,0,0,1,.119-1.826,1.3,1.3,0,0,1,1.828-.1c1.046.977,2.038,2.014,3.043,3.035A1.4,1.4,0,0,1-1316.095,1404.135Z" transform="translate(1325.877 -1395.709)" fill="#ff6b00"/>
        <path id="Trazado_181154" data-name="Trazado 181154" d="M-1233.875,1378.979c0-.434-.015-.869,0-1.3a1.415,1.415,0,0,1,1.381-1.505,1.392,1.392,0,0,1,1.421,1.461c.03.889.031,1.781,0,2.67a1.412,1.412,0,0,1-1.375,1.45,1.427,1.427,0,0,1-1.423-1.47C-1233.892,1379.848-1233.875,1379.413-1233.875,1378.979Z" transform="translate(1253.4 -1376.076)" fill="#ff6b00"/>
        <path id="Trazado_181155" data-name="Trazado 181155" d="M-1226.809,1404.7l-1.3-.039a13.789,13.789,0,0,1,3.4-2.362c.145.3-.167.348-.286.482C-1225.573,1403.446-1226.284,1403.986-1226.809,1404.7Z" transform="translate(1248.636 -1397.64)" fill="#ff6b00"/>
        <path id="Trazado_181156" data-name="Trazado 181156" d="M-1157.9,1400.093a1.352,1.352,0,0,1,1.24.71,1.213,1.213,0,0,1-.077,1.471,33.241,33.241,0,0,1-3.139,3.142,1.315,1.315,0,0,1-1.784-.162,1.3,1.3,0,0,1-.116-1.785c.993-1.068,2.049-2.078,3.092-3.1A1.068,1.068,0,0,1-1157.9,1400.093Z" transform="translate(1194.153 -1395.815)" fill="#ff6b00"/>
        <path id="Trazado_181157" data-name="Trazado 181157" d="M-1135.286,1490.557c-.434,0-.87.022-1.3,0a1.424,1.424,0,0,1-1.436-1.391,1.4,1.4,0,0,1,1.417-1.4c.91-.036,1.824-.034,2.735,0a1.387,1.387,0,0,1,1.428,1.387,1.4,1.4,0,0,1-1.409,1.408C-1134.329,1490.581-1134.808,1490.557-1135.286,1490.557Z" transform="translate(1174.302 -1468.132)" fill="#ff6b00"/>
      </g>
      <g id="Grupo_120208" data-name="Grupo 120208" transform="translate(-1284.775 1409.161)">
        <path id="Trazado_181163" data-name="Trazado 181163" d="M-993.85,1594.774c.207-3.472,1.373-4.635,4.22-4.183,0-.415-.014-.822,0-1.228a2.964,2.964,0,0,1,1.611-2.657.794.794,0,0,0,.484-.847q-.016-8.47-.007-16.94c0-1.194.3-1.49,1.514-1.49H-938.8c1.2,0,1.5.3,1.5,1.508q0,13.048-.014,26.1c0,.552.136.7.675.663.782-.051,1.569-.023,2.354-.01a1.052,1.052,0,0,1,1.168,1.176q.012,5.1,0,10.2a1.053,1.053,0,0,1-1.172,1.174c-.828.012-1.658.027-2.485-.007-.427-.018-.538.105-.536.534.019,3.139.01,6.279.01,9.418q0,6.344,0,12.688c0,1.115-.324,1.439-1.436,1.439h-57.825c-1.119,0-1.443-.321-1.443-1.43q0-4.84,0-9.68c0-1.124.319-1.49,1.424-1.43.651.036.686-.206.613-.736a10.314,10.314,0,0,0-.929-3.11,11.24,11.24,0,0,1-1.111-4.988c.009-4.208.089-8.418-.032-12.622C-998.1,1596.1-996.426,1594.12-993.85,1594.774Zm52.361.89c.479.007.962-.023,1.436.031.547.063.674-.12.672-.666-.02-7.847-.01-15.695-.02-23.542,0-.644.291-1.556-.125-1.862-.436-.322-1.292-.077-1.964-.08-.109-.007-.217-.021-.325-.021H-984.9a.752.752,0,0,1-.131,0c-.36-.064-.424.113-.423.437q.013,8.04,0,16.08a.55.55,0,0,0,.358.592,2.939,2.939,0,0,1,1.695,2.326,11.139,11.139,0,0,1,.014,1.63,2.5,2.5,0,0,0,.276-.017,3.118,3.118,0,0,1,3.942,3.218c.005,1.264,0,2.527,0,3.791v5.552a1.436,1.436,0,0,0,.234,0,3.12,3.12,0,0,1,3.952,3.206c.006,1.22-.024,2.441.006,3.661a8.538,8.538,0,0,1-2.514,6.437,6.094,6.094,0,0,0-1.492,2.714c-.126.458-.079.642.478.622,1.113-.041,1.427.311,1.43,1.427q.01,3.464.021,6.927c-.007.479.023.962-.031,1.436-.063.547.12.673.666.672q18.182-.026,36.364,0c.541,0,.674-.123.672-.669-.021-6.452-.01-12.9-.02-19.357,0-.644.291-1.556-.125-1.862-.436-.322-1.292-.077-1.964-.08a2.117,2.117,0,0,0-1.434.284,15.161,15.161,0,0,1-4.032,1.456c-2.642.556-5.182.526-7.518-1.1a4.22,4.22,0,0,0-2.425-.662c-1.155-.006-2.311.023-3.465-.015a.979.979,0,0,0-1.021.565c-1.349,2.334-2.741,4.644-4.117,6.963a2.4,2.4,0,0,1-.609.754q-1.967,1.459-3.919,2.939a1.067,1.067,0,0,1-1.327.132,1.091,1.091,0,0,1-.435-1.265c.173-.808.363-1.615.48-2.432a10.8,10.8,0,0,1,1.917-5.059c.095-.127.234-.266.184-.464a2.719,2.719,0,0,1-2.308-3.989q3.673-6.464,7.39-12.9a3.876,3.876,0,0,1,2.706-1.875,13.143,13.143,0,0,1,2.8-.083,1.055,1.055,0,0,0,1.069-.6c2.179-3.714,4.387-7.41,6.588-11.111.594-1,1.051-1.108,2-.479q1.252.827,2.5,1.663c.908.609,1,1.011.447,1.945-1.7,2.861-3.389,5.726-5.1,8.577-.251.417-.243.579.246.768,2.652,1.031,5.292,2.09,7.929,3.16A2.7,2.7,0,0,0-941.489,1595.663Zm-43.957,3.016q0-3.171,0-6.343c0-.959.013-1.918-.006-2.877a1.034,1.034,0,0,0-1.05-1.1,1.049,1.049,0,0,0-1.035,1.113c-.008.174,0,.349,0,.523q0,8.37,0,16.74c0,1.513,0,1.488-1.508,1.518-.5.01-.6-.135-.6-.612.019-4.533.012-9.067.011-13.6a3.144,3.144,0,0,0-.016-.587.99.99,0,0,0-1.032-.9.988.988,0,0,0-1.029.9,3.244,3.244,0,0,0-.015.587q0,6.441,0,12.882c0,1.315,0,1.273-1.305,1.332-.659.03-.814-.149-.806-.8.039-3.16.015-6.321.021-9.481a1.108,1.108,0,0,0-.667-1.159.976.976,0,0,0-1.09.2,1.232,1.232,0,0,0-.342,1.015q.008,6.572,0,13.143a8.426,8.426,0,0,0,.852,3.722,11.576,11.576,0,0,1,1.206,4.441c.02.346.129.431.458.423.872-.021,1.744-.007,2.616-.007q4.512,0,9.025,0c.27,0,.558.085.616-.359a8.229,8.229,0,0,1,2.381-4.687,5.65,5.65,0,0,0,1.583-3.227,46.8,46.8,0,0,0,.094-5.223,1.035,1.035,0,0,0-1.06-1.15,1.059,1.059,0,0,0-1.024,1.189c-.01.872,0,1.744,0,2.616,0,1.425,0,1.4-1.393,1.437-.549.016-.721-.091-.718-.691.029-5.187.017-10.375.017-15.563a5.186,5.186,0,0,0-.01-.588,1.04,1.04,0,0,0-1.053-.958,1.04,1.04,0,0,0-1.023.99c-.018.194-.007.392-.007.588q0,6.278,0,12.555c0,1.585,0,1.564-1.582,1.574-.455,0-.521-.153-.519-.553C-985.439,1604.7-985.446,1601.687-985.446,1598.679Zm28.832,2.124a6.621,6.621,0,0,0,1.833-.286c.472-.094.948-.64,1.346-.363.36.25.451.868.708,1.3.21.35.077.486-.238.619a11.234,11.234,0,0,1-4.374.938c-1.787.008-3.574,0-5.362,0a1.6,1.6,0,0,0-1.808,1.546c-.014.956.707,1.588,1.829,1.591,1.787,0,3.575.02,5.362,0a7.644,7.644,0,0,1,4.391,1.237,4.494,4.494,0,0,0,1.8.739,12.282,12.282,0,0,0,7.307-1.446c.258-.126.244-.321.244-.54,0-2.768,0-5.535,0-8.3a.475.475,0,0,0-.335-.534q-4.121-1.63-8.232-3.284c-.224-.09-.388-.111-.539.144C-953.968,1596.348-955.267,1598.531-956.614,1600.8Zm-30.99,29.4c2.617,0,5.233-.01,7.849.01.452,0,.59-.109.586-.575-.024-2.4-.028-4.8,0-7.194.007-.523-.177-.594-.635-.593q-7.751.016-15.5-.015c-.482,0-.626.11-.619.609q.048,3.6.015,7.194c0,.466.133.58.586.576C-992.75,1630.194-990.177,1630.205-987.6,1630.205Zm52.382-28.191c0-1.243-.01-2.486.006-3.728,0-.343-.057-.506-.456-.5q-2.681.023-5.363-.014c-.4-.005-.46.155-.458.5q.024,3.7.013,7.39c0,.366.1.487.475.484,1.766-.018,3.532-.022,5.3,0,.434.006.5-.162.492-.535C-935.234,1604.412-935.222,1603.213-935.222,1602.014Zm-25.709-1.113a8.778,8.778,0,0,1,1.092.009.978.978,0,0,0,1.07-.6c1.634-2.8,3.3-5.576,4.953-8.362,1.8-3.029,3.588-6.062,5.4-9.084.2-.34.245-.56-.157-.741a1.451,1.451,0,0,1-.38-.252c-.393-.362-.616-.314-.907.18q-5.4,9.159-10.841,18.295C-960.8,1600.5-960.96,1600.64-960.931,1600.9Zm1.766-7.306c-.322,0-.515.018-.7,0a2.681,2.681,0,0,0-2.892,1.633c-1.352,2.507-2.81,4.958-4.224,7.432-.864,1.51-1.736,3.016-2.589,4.533-.342.608-.094.971.59,1.06a1.375,1.375,0,0,0,1.676-.913,7.176,7.176,0,0,1,.693-1.181.927.927,0,0,0,.127-.738,3.576,3.576,0,0,1,2.64-4.369.717.717,0,0,0,.456-.325C-962.009,1598.387-960.623,1596.052-959.165,1593.6Zm-9.927,22.334a4.547,4.547,0,0,0,1.891-1.453q1.6-2.687,3.2-5.377c.472-.793.472-.793-.347-1.129a1.137,1.137,0,0,1-.293-.139c-.32-.261-.47-.087-.635.2-.709,1.221-1.417,2.443-2.159,3.644A8.147,8.147,0,0,0-969.092,1615.93Z" transform="translate(998.042 -1567.429)" fill="#ff6b00"/>
        <path id="Trazado_181174" data-name="Trazado 181174" d="M-863.527,1609.273c4.687,0,9.374.008,14.061-.012.483,0,.617.1.607.6-.031,1.5-.006,1.505-1.519,1.505q-13.571,0-27.142.013c-.539,0-.689-.116-.673-.667.042-1.439.013-1.44,1.455-1.44Z" transform="translate(899.148 -1601.948)" fill="#ff6b00"/>
        <path id="Trazado_181175" data-name="Trazado 181175" d="M-889.619,1635.3c-3.968,0-7.935-.009-11.9.012-.479,0-.619-.1-.609-.6.031-1.507.006-1.508,1.517-1.508q11.478,0,22.956-.013c.535,0,.692.11.676.665-.043,1.441-.013,1.442-1.453,1.442Z" transform="translate(918.899 -1621.699)" fill="#ff6b00"/>
        <path id="Trazado_181176" data-name="Trazado 181176" d="M-889.62,1659.245c-3.968,0-7.935-.01-11.9.013-.49,0-.613-.114-.6-.6.029-1.5.006-1.5,1.522-1.5q11.478,0,22.956-.014c.544,0,.686.125.67.67-.041,1.436-.013,1.437-1.458,1.437Z" transform="translate(918.896 -1641.454)" fill="#ff6b00"/>
        <path id="Trazado_181177" data-name="Trazado 181177" d="M-808.894,1854.689c2.943,0,5.886.012,8.828-.012.484,0,.617.105.606.6-.03,1.5-.006,1.506-1.519,1.506-5.559,0-11.117-.009-16.676.013-.539,0-.689-.117-.673-.667.042-1.439.013-1.44,1.455-1.44Z" transform="translate(849.748 -1804.457)" fill="#ff6b00"/>
        <path id="Trazado_181178" data-name="Trazado 181178" d="M-694.464,1609.347v2.066c-1.263,0-2.526,0-3.789.021-.314.005-.391-.089-.4-.4-.066-1.7-.076-1.7,1.644-1.7C-696.162,1609.334-695.313,1609.342-694.464,1609.347Z" transform="translate(751.014 -1602.007)" fill="#ff6b00"/>
        <path id="Trazado_181179" data-name="Trazado 181179" d="M-694.463,1854.765v2.066c-1.263,0-2.526,0-3.789.021-.314.005-.391-.089-.4-.4-.066-1.7-.076-1.7,1.644-1.7C-696.162,1854.752-695.313,1854.76-694.463,1854.765Z" transform="translate(751.014 -1804.519)" fill="#ff6b00"/>
      </g>
    </g>
  </g>
</svg>
