<svg xmlns="http://www.w3.org/2000/svg" xmlns:xlink="http://www.w3.org/1999/xlink" width="209.468" height="229.853" viewBox="0 0 209.468 229.853">
  <defs>
    <linearGradient id="linear-gradient" x1="5.005" y1="-8.632" x2="6.196" y2="-8.039" gradientUnits="objectBoundingBox">
      <stop offset="0" stop-color="#fff"/>
      <stop offset="0.368" stop-color="#fbfbfb"/>
      <stop offset="0.695" stop-color="#f0f0f0"/>
      <stop offset="1" stop-color="#dfdfdf"/>
    </linearGradient>
    <linearGradient id="linear-gradient-2" x1="5.399" y1="-9.214" x2="6.682" y2="-8.589" gradientUnits="objectBoundingBox">
      <stop offset="0" stop-color="#dfdfdf"/>
      <stop offset="0.305" stop-color="#f0f0f0"/>
      <stop offset="0.632" stop-color="#fbfbfb"/>
      <stop offset="1" stop-color="#fff"/>
    </linearGradient>
  </defs>
  <g id="Grupo_120479" data-name="Grupo 120479" transform="translate(-320.886 -1484.425)">
    <g id="Grupo_120200" data-name="Grupo 120200">
      <path id="Trazado_181092" data-name="Trazado 181092" d="M-1913.284,1776.267a384.152,384.152,0,0,1-209.468,67.547V1642.546a185.348,185.348,0,0,0,91.319-28.585Z" transform="translate(2443.638 -129.536)" fill="#565656"/>
      <path id="Trazado_181102" data-name="Trazado 181102" d="M-1914.674,1791.931a374.359,374.359,0,0,1-183.471,59.149v-180.13a197.229,197.229,0,0,0,77.676-24.356Z" transform="translate(2429.761 -147.939)" fill="url(#linear-gradient)"/>
      <path id="Trazado_181103" data-name="Trazado 181103" d="M-1915.443,1799.469a370.368,370.368,0,0,1-170.4,54.928V1684.774a204.305,204.305,0,0,0,70.747-22.2Z" transform="translate(2422.822 -156.951)" fill="url(#linear-gradient-2)"/>
    </g>
    <g id="Grupo_120211" data-name="Grupo 120211" transform="translate(935.649 -190.035)">
      <path id="Trazado_181201" data-name="Trazado 181201" d="M-515.859,1833.474c-.624,1.5-.812,1.624-2.5,1.624q-23.665,0-47.33-.006c-11.312-.018-20.535-7.023-23.423-17.687a12.9,12.9,0,0,0-.753-2.99v-5.92a5.8,5.8,0,0,0,.585-2.275,23.57,23.57,0,0,1,20.64-18.231c.769-.072.78-.421.817-1,.8-12.465,6.89-21.321,18.456-26.028,16.288-6.628,35.192,3.929,38.4,21.21a38.866,38.866,0,0,1,.587,6.2,23.3,23.3,0,0,1,19.09,4.047,23.047,23.047,0,0,1,9.483,16.07c.022.165-.024.359.2.429v5.5c-.471.575-.357,1.306-.507,1.963a23.681,23.681,0,0,1-22.777,18.7c-1.687.048-3.376.03-5.064.015-1.222-.011-1.657-.388-1.97-1.6.324-1.265.679-1.562,1.963-1.573,1.544-.013,3.088.023,4.631-.009a19.788,19.788,0,0,0,11.714-3.717c6.175-3.734,9.9-12.433,8.571-20.027a20.481,20.481,0,0,0-26.022-16.311c-1.969.569-2.826-.112-2.623-2.172a22.073,22.073,0,0,0-.117-5.165,25.49,25.49,0,0,0-28.019-22.153,25.553,25.553,0,0,0-22.811,26.288c.08,1.821-.326,2.267-2.117,2.359a19.007,19.007,0,0,0-8.963,2.417l-.266.138-.017,0c-.221.1-.453.192-.663.314a20.442,20.442,0,0,0-9.5,22.132,20.475,20.475,0,0,0,20.292,15.9q23.836.022,47.672,0C-516.582,1831.913-516.355,1832.069-515.859,1833.474Z" transform="translate(0 0)" fill="#5a189a"/>
      <path id="Trazado_181202" data-name="Trazado 181202" d="M-202.924,1775.286a20.275,20.275,0,0,1,19.3,17.7c.077.7.153,1.4.17,2.1.031,1.251-.533,1.956-1.53,1.985s-1.593-.646-1.641-1.882a16.862,16.862,0,0,0-6.768-13.26,16.679,16.679,0,0,0-9.991-3.478c-1.4-.041-2.213-1.047-1.768-2.178C-204.859,1775.52-204.259,1775.254-202.924,1775.286Z" transform="translate(-303.241 -12.87)" fill="#5a189a"/>
      <path id="Trazado_181203" data-name="Trazado 181203" d="M-203.07,1807.287a13.575,13.575,0,0,1,12.953,12.945c.034,1.311-.518,2.051-1.549,2.076-1.006.024-1.559-.616-1.634-1.887a10.3,10.3,0,0,0-9.945-9.949c-1.271-.07-1.913-.622-1.893-1.629C-205.119,1807.818-204.375,1807.258-203.07,1807.287Z" transform="translate(-303.351 -38.104)" fill="#5a189a"/>
      <path id="Trazado_181204" data-name="Trazado 181204" d="M-196.9,1845.823a1.6,1.6,0,0,1-1.459,1.741c-.95.073-1.579-.5-1.712-1.573a3.54,3.54,0,0,0-3.514-3.5,1.547,1.547,0,0,1-1.556-1.727,1.6,1.6,0,0,1,1.755-1.442A6.775,6.775,0,0,1-196.9,1845.823Z" transform="translate(-303.348 -63.366)" fill="#5a189a"/>
      <path id="Trazado_181207" data-name="Trazado 181207" d="M-523.962,1921.9c-.039.141-.112.218-.266.138Z" transform="translate(-51.756 -128.471)" fill="#5a189a"/>
      <path id="Trazado_181208" data-name="Trazado 181208" d="M-409.874,1872.375c0-1.02-.362-2.245.076-3.017.888-1.567-.107-2.385-.82-3.388a45.793,45.793,0,0,1-5.607-9.4c-2.408-6.045-1.444-11.621,2.844-16.4a15,15,0,0,1,16.2-4.677c6.224,1.781,9.973,6.069,11.309,12.409a15.155,15.155,0,0,1-1.392,9.646,56.767,56.767,0,0,1-5.819,9.282c-.471.656-1.061,1.279-.238,2.085a.623.623,0,0,1,.106.4c.029,2.669.374,5.368-.35,7.985-1.06,3.83-4.659,6.115-8.874,5.761a8.064,8.064,0,0,1-7.38-7.2A24.666,24.666,0,0,1-409.874,1872.375Zm6.6.6c2.1.188,4.214.016,6.32.089.764.026.641-.482.614-.92s.241-1.059-.614-1.035c-2.106.062-4.216-.1-6.32.085a20.309,20.309,0,0,0-2.912-.086c-.4-.02-.525.166-.565.558-.131,1.268-.041,1.411,1.192,1.389A10.038,10.038,0,0,0-403.278,1872.971Zm-2.085-10.834c-.134-1.219-.279-2.438-.4-3.658-.258-2.623-.252-2.623-2.961-2.464-1.66-.553-1.987-1.469-1.042-2.914a2.911,2.911,0,0,1,1.212-.306c.629.006,1.439.187,1.839-.128.452-.356.014-1.171.02-1.787a1.49,1.49,0,0,1,1.313-1.642,1.483,1.483,0,0,1,1.783,1.241c.128.545.144,1.116.242,1.669.045.253,0,.633.4.638a9.237,9.237,0,0,0,2.93-.091c.635-.211.3-1.261.468-1.922.026-.1.048-.206.077-.308a1.513,1.513,0,0,1,1.8-1.226,1.5,1.5,0,0,1,1.3,1.656c.009.613-.447,1.421.037,1.779.418.309,1.215.1,1.844.129,1.047.041,1.659.574,1.705,1.48a1.576,1.576,0,0,1-1.637,1.682c-.632.039-1.268.027-1.9.005-.452-.015-.7.085-.757.613-.407,3.495-.857,6.985-1.267,10.479-.036.3-.35.825.347.872.458.031.914.089,1.079-.535a9.7,9.7,0,0,1,1.754-3.1,43.591,43.591,0,0,0,5.387-8.917,12.571,12.571,0,0,0-12.59-17.307,10.579,10.579,0,0,0-3.789.818,12.6,12.6,0,0,0-7.808,14.385,26.085,26.085,0,0,0,3.367,7.116c1.461,2.435,3.589,4.446,4.559,7.191.2.568.71.361,1.09.324.514-.05.289-.487.257-.75C-404.906,1865.48-405.14,1863.808-405.363,1862.136Zm3.873,17.756a4.908,4.908,0,0,0,4.651-2.865c.239-.548.276-.831-.472-.822q-4.221.052-8.443.038c-.618,0-.717.166-.478.737A4.985,4.985,0,0,0-401.491,1879.892Zm-.181-14.351c.335-.212.339-.561.382-.911.288-2.368.576-4.736.892-7.1.208-1.561.224-1.483-1.351-1.581-1.024-.064-1.137.306-1.012,1.18C-402.363,1859.93-402.029,1862.742-401.671,1865.541Z" transform="translate(-135.896 -59.78)" fill="#5a189a"/>
    </g>
  </g>
</svg>
