<svg xmlns="http://www.w3.org/2000/svg" xmlns:xlink="http://www.w3.org/1999/xlink" width="208.643" height="229.121" viewBox="0 0 208.643 229.121">
  <defs>
    <linearGradient id="linear-gradient" x1="8.176" y1="-5.97" x2="9.427" y2="-5.458" gradientUnits="objectBoundingBox">
      <stop offset="0" stop-color="#fff"/>
      <stop offset="0.368" stop-color="#fbfbfb"/>
      <stop offset="0.695" stop-color="#f0f0f0"/>
      <stop offset="1" stop-color="#dfdfdf"/>
    </linearGradient>
  </defs>
  <g id="Grupo_120475" data-name="Grupo 120475" transform="translate(-320.887 -938.256)">
    <g id="Grupo_120196" data-name="Grupo 120196">
      <path id="Trazado_181096" data-name="Trazado 181096" d="M-2032.6,590.553a185.5,185.5,0,0,0-90.156-27.863V361.432a388.943,388.943,0,0,1,111.832,19.163,386.041,386.041,0,0,1,96.811,47.509Z" transform="translate(2443.638 576.824)" fill="#565656"/>
      <path id="Trazado_181106" data-name="Trazado 181106" d="M-2021.666,590.8a197.448,197.448,0,0,0-76.479-23.694V387a378.066,378.066,0,0,1,97.765,18.212,375.654,375.654,0,0,1,84.841,40.088Z" transform="translate(2429.761 562.406)" fill="url(#linear-gradient)"/>
      <path id="Trazado_181107" data-name="Trazado 181107" d="M-2016.306,591.234a204.556,204.556,0,0,0-69.534-21.566v-169.6a372.9,372.9,0,0,1,90.73,17.613,370.767,370.767,0,0,1,78.781,36.482Z" transform="translate(2422.822 555.036)" fill="#f6f6f6"/>
    </g>
    <g id="Grupo_120203" data-name="Grupo 120203" transform="translate(1009.845 -747.055)">
      <path id="Trazado_181113" data-name="Trazado 181113" d="M-564.814,1819.688a2.23,2.23,0,0,1-2.339,1.291c-10.6-.027-21.2-.01-31.806-.03-.7,0-1.051.1-1.23.894a3.874,3.874,0,0,1-3.732,2.926q-5.886.053-11.773,0a3.89,3.89,0,0,1-3.783-3.083c-.144-.648-.428-.735-1-.735q-15.947.024-31.894.011c-1.938,0-2.441-.5-2.441-2.438v-59.574c0-1.927.506-2.43,2.447-2.431,1.787,0,3.573-.021,5.359.012.559.01.823-.119.751-.723a5.448,5.448,0,0,1,.008-1.053,1.666,1.666,0,0,1,1.683-1.678q13.487-.027,26.974-.01a2.654,2.654,0,0,1,1.227.43c1.989,1.048,3.987,2.08,5.961,3.157a1.09,1.09,0,0,0,1.195-.012c1.951-1.057,3.928-2.065,5.882-3.117a3.74,3.74,0,0,1,1.836-.472q12.916.018,25.832.009c1.7,0,2.284.568,2.3,2.238.009,1.218.009,1.218,1.2,1.218,1.611,0,3.224.053,4.832-.018a2.578,2.578,0,0,1,2.517,1.132Zm-43.242-8.338c1.621-.849,3.149-1.619,4.647-2.446a3.966,3.966,0,0,1,2-.5c7.91.014,15.82,0,23.729.02.57,0,.812-.079.811-.742q-.029-25.224,0-50.449c0-.555-.157-.675-.685-.668-2.226.03-4.454.047-6.679-.007-.732-.017-.909.168-.9.9.035,5.507.025,11.015.015,16.523,0,1.846-.992,2.544-2.739,1.967-1.3-.43-2.612-.847-3.9-1.308a1.868,1.868,0,0,0-1.352-.01c-1.373.494-2.759.955-4.15,1.4a1.783,1.783,0,0,1-2.537-1.82c0-.234,0-.469,0-.7q0-8.086-.013-16.172c0-.252.272-.739-.293-.743a3.75,3.75,0,0,0-2.043.28c-1.755.991-3.547,1.916-5.343,2.83a.873.873,0,0,0-.575.923c.032,1.9.017,3.808.012,5.713,0,1.3-.658,2.071-1.738,2.082s-1.77-.762-1.774-2.044c-.007-1.9-.023-3.809.012-5.713a.945.945,0,0,0-.616-.993q-2.656-1.349-5.274-2.772a2.664,2.664,0,0,0-1.331-.325q-11.557.013-23.114-.008c-.654,0-.874.12-.873.838q.035,25.048,0,50.1c0,.829.265.931.987.929,7.851-.025,15.7-.009,23.553-.025a4.143,4.143,0,0,1,2.086.528c1.473.813,2.972,1.576,4.571,2.417v-1.072q0-13.491,0-26.982a8.352,8.352,0,0,1,.014-.878,1.741,1.741,0,0,1,1.7-1.586,1.738,1.738,0,0,1,1.791,1.578,7.972,7.972,0,0,1,.015.878q0,13.491,0,26.982Zm-43.242-22.618c0,9.226.011,18.451-.02,27.676,0,.812.137,1.064,1.018,1.061,10.338-.037,20.676.008,31.014-.047,2.392-.013,3.476.472,3.164,3-.08.647.3.871.916.857,1-.023,1.993-.045,2.986.009.577.031.669-.183.659-.7-.032-1.522-.044-3.047.005-4.568a1.007,1.007,0,0,0-.672-1.057q-2.538-1.294-5.042-2.65a3.178,3.178,0,0,0-1.583-.391q-12.432.019-24.864.009c-2.044,0-2.547-.5-2.547-2.528q0-24.03,0-48.06a4.865,4.865,0,0,1,0-.615c.068-.531-.132-.72-.681-.7-1.141.038-2.287.066-3.425-.007-.774-.05-.955.176-.952.949C-651.287,1770.223-651.3,1779.477-651.3,1788.732Zm82.968.032v-18.8c0-3.046-.025-6.093.019-9.138.01-.685-.192-.831-.829-.8a26.373,26.373,0,0,1-3.249,0c-.841-.063-.993.247-.992,1.023q.033,24.164.016,48.329c0,2.082-.487,2.561-2.6,2.561q-12.433,0-24.866,0a2.172,2.172,0,0,0-1.107.173q-2.815,1.517-5.657,2.985a.706.706,0,0,0-.472.725c.027,1.64.024,3.281,0,4.921-.005.417.107.558.536.543.907-.031,1.816-.009,2.724-.009,1.294,0,1.305-.012,1.307-1.347,0-1.977.508-2.477,2.508-2.477q15.86,0,31.72.017c.74,0,.966-.132.963-.932C-568.342,1807.276-568.33,1798.02-568.33,1788.764Zm-27.955-24.531c0,2.284.021,4.568-.013,6.851-.011.694.11,1,.837.627a6.3,6.3,0,0,1,6.027,0c.026.013.059.01.084.024.635.34.719.024.717-.542q-.02-6.94,0-13.878c0-.543-.1-.762-.711-.75q-3.117.06-6.235,0c-.579-.01-.731.157-.723.728C-596.266,1759.607-596.285,1761.92-596.285,1764.233Z" transform="translate(0 0)" fill="#ff6b00"/>
      <path id="Trazado_181118" data-name="Trazado 181118" d="M-574.394,1837.449q4.521,0,9.041,0a6.958,6.958,0,0,1,.876.03,1.668,1.668,0,0,1,1.464,1.509,1.707,1.707,0,0,1-1.065,1.824,1.978,1.978,0,0,1-.683.143c-6.437.008-12.873.018-19.31,0a1.753,1.753,0,0,1-1.807-1.767,1.759,1.759,0,0,1,1.917-1.729C-580.772,1837.439-577.583,1837.45-574.394,1837.449Z" transform="translate(-52.741 -64.565)" fill="#ff6b00"/>
      <path id="Trazado_181119" data-name="Trazado 181119" d="M-574.46,1913.169q-4.652,0-9.3,0c-1.3,0-2.091-.647-2.115-1.7a1.829,1.829,0,0,1,2.048-1.8q9.391-.018,18.783,0c1.4,0,2.189.832,2.026,2.042a1.7,1.7,0,0,1-1.871,1.464C-568.082,1913.176-571.271,1913.169-574.46,1913.169Z" transform="translate(-52.74 -119.806)" fill="#ff6b00"/>
      <path id="Trazado_181120" data-name="Trazado 181120" d="M-426.664,1913.17q-4.652,0-9.3,0c-1.322,0-2.074-.63-2.086-1.715s.752-1.792,2.036-1.795q9.391-.018,18.783,0a1.837,1.837,0,0,1,2.064,1.79c-.014,1.06-.8,1.716-2.1,1.719Q-421.969,1913.177-426.664,1913.17Z" transform="translate(-165.837 -119.807)" fill="#ff6b00"/>
      <path id="Trazado_181121" data-name="Trazado 181121" d="M-574.362,1946c3.16,0,6.32-.01,9.48.005a1.737,1.737,0,0,1,1.8,2.271,1.873,1.873,0,0,1-2.006,1.237c-2.662.01-5.325,0-7.987,0-3.57,0-7.139.008-10.709,0-1.409,0-2.318-.943-2.077-2.093a1.758,1.758,0,0,1,1.931-1.416C-580.74,1945.991-577.551,1946-574.362,1946Z" transform="translate(-52.725 -147.611)" fill="#ff6b00"/>
      <path id="Trazado_181122" data-name="Trazado 181122" d="M-426.674,1949.5q-4.476,0-8.953,0a5.072,5.072,0,0,1-.96-.058,1.7,1.7,0,0,1-1.437-1.893,1.674,1.674,0,0,1,1.7-1.554c.789-.027,1.58-.009,2.37-.009q8.251,0,16.5,0a3.007,3.007,0,0,1,1.212.119,1.8,1.8,0,0,1,1.071,1.838,1.755,1.755,0,0,1-1.673,1.529c-.962.062-1.93.027-2.895.028Q-423.207,1949.507-426.674,1949.5Z" transform="translate(-165.854 -147.603)" fill="#ff6b00"/>
      <path id="Trazado_181123" data-name="Trazado 181123" d="M-574.476,1877.073q-4.653,0-9.305,0c-1.263,0-2.082-.693-2.09-1.744a1.834,1.834,0,0,1,2.069-1.769q9.393-.007,18.786,0c1.278,0,2.039.692,2.021,1.791-.018,1.061-.768,1.718-2,1.72Q-569.736,1877.081-574.476,1877.073Z" transform="translate(-52.746 -92.192)" fill="#ff6b00"/>
      <path id="Trazado_181124" data-name="Trazado 181124" d="M-426.612,1877.074q-4.653,0-9.305,0c-1.364,0-2.132-.65-2.121-1.776.011-1.088.771-1.737,2.076-1.738q9.349-.006,18.7,0c1.264,0,2.087.692,2.1,1.736.016,1.075-.824,1.776-2.145,1.777Q-421.96,1877.078-426.612,1877.074Z" transform="translate(-165.849 -92.192)" fill="#ff6b00"/>
      <path id="Trazado_181125" data-name="Trazado 181125" d="M-560.122,1794.13c-1.7,0-3.391.008-5.087,0a1.772,1.772,0,0,1-1.962-1.678,1.8,1.8,0,0,1,1.932-1.827q5.131-.034,10.262,0a1.735,1.735,0,0,1,1.894,1.837,1.723,1.723,0,0,1-1.952,1.666C-556.73,1794.138-558.426,1794.13-560.122,1794.13Z" transform="translate(-67.052 -28.729)" fill="#ff6b00"/>
      <path id="Trazado_181126" data-name="Trazado 181126" d="M-468.934,1837.618a1.738,1.738,0,0,1,1.711,1.739,1.8,1.8,0,0,1-1.8,1.763,1.8,1.8,0,0,1-1.711-1.761A1.737,1.737,0,0,1-468.934,1837.618Z" transform="translate(-140.838 -64.696)" fill="#ff6b00"/>
    </g>
  </g>
</svg>
