<svg xmlns="http://www.w3.org/2000/svg" width="602.649" height="963.544" viewBox="0 0 602.649 963.544">
  <g id="Grupo_120468" data-name="Grupo 120468" transform="translate(-497.234 -3999.062)">
    <path id="Trazado_181360" data-name="Trazado 181360" d="M1185.712-67.886H665.877a30.345,30.345,0,0,0-30.345,30.345V49.975a30.346,30.346,0,0,0,30.345,30.348h519.836a30.347,30.347,0,0,0,30.347-30.348V-37.541A30.347,30.347,0,0,0,1185.712-67.886Z" transform="translate(-138.298 4085.649)" fill="#ffb600" opacity="0.203"/>
    <g id="Grupo_120282" data-name="Grupo 120282" transform="translate(513.871 3999.062)">
      <g id="Grupo_120276" data-name="Grupo 120276">
        <g id="Grupo_120275" data-name="Grupo 120275">
          <g id="Grupo_120274" data-name="Grupo 120274">
            <g id="Grupo_120273" data-name="Grupo 120273">
              <g id="Grupo_120272" data-name="Grupo 120272">
                <path id="Trazado_181361" data-name="Trazado 181361" d="M1197.556,75.573H960.184a2.742,2.742,0,1,1,0-5.483h237.372a27.637,27.637,0,0,0,27.607-27.6V-45.032a27.637,27.637,0,0,0-27.607-27.6H677.721a27.635,27.635,0,0,0-27.6,27.6V42.486a27.635,27.635,0,0,0,27.6,27.6H911.307a2.742,2.742,0,0,1,0,5.483H677.721a33.123,33.123,0,0,1-33.087-33.087V-45.032a33.124,33.124,0,0,1,33.087-33.086h519.836a33.126,33.126,0,0,1,33.09,33.086V42.486A33.125,33.125,0,0,1,1197.556,75.573Z" transform="translate(-644.634 78.118)" fill="#5a189a"/>
              </g>
            </g>
          </g>
        </g>
      </g>
      <g id="Grupo_120281" data-name="Grupo 120281" transform="translate(263.246 148.253)">
        <g id="Grupo_120277" data-name="Grupo 120277" transform="translate(0 0)">
          <path id="Trazado_181362" data-name="Trazado 181362" d="M818.761,56.924a2.74,2.74,0,0,1-2.742-2.742V33.095A24.646,24.646,0,0,0,791.4,8.476a2.742,2.742,0,0,1,0-5.483,30.135,30.135,0,0,1,30.1,30.1V54.182A2.741,2.741,0,0,1,818.761,56.924Z" transform="translate(-788.659 -2.993)" fill="#5a189a"/>
        </g>
        <g id="Grupo_120280" data-name="Grupo 120280" transform="translate(8.637 29.504)">
          <g id="Grupo_120278" data-name="Grupo 120278" transform="translate(18.723)">
            <path id="Trazado_181363" data-name="Trazado 181363" d="M806.37,45.707a2.739,2.739,0,0,1-2.742-2.742V21.877a2.742,2.742,0,1,1,5.483,0V36.347l14.021-14.023a2.742,2.742,0,0,1,3.877,3.879l-18.7,18.7A2.74,2.74,0,0,1,806.37,45.707Z" transform="translate(-803.628 -19.135)" fill="#5a189a"/>
          </g>
          <g id="Grupo_120279" data-name="Grupo 120279" transform="translate(0 2.364)">
            <path id="Trazado_181364" data-name="Trazado 181364" d="M814.849,44.637a2.732,2.732,0,0,1-1.939-.8L794.188,25.109a2.741,2.741,0,0,1,3.877-3.877l18.722,18.726a2.741,2.741,0,0,1-1.937,4.679Z" transform="translate(-793.384 -20.429)" fill="#5a189a"/>
          </g>
        </g>
      </g>
    </g>
    <path id="Trazado_181365" data-name="Trazado 181365" d="M1185.712,150.916H665.877a30.345,30.345,0,0,0-30.345,30.345v87.516a30.346,30.346,0,0,0,30.345,30.349h519.836a30.347,30.347,0,0,0,30.347-30.349V181.261A30.347,30.347,0,0,0,1185.712,150.916Z" transform="translate(-138.298 4266.77)" fill="#ffb600" opacity="0.601"/>
    <g id="Grupo_120295" data-name="Grupo 120295" transform="translate(513.871 4398.985)">
      <g id="Grupo_120289" data-name="Grupo 120289">
        <g id="Grupo_120288" data-name="Grupo 120288">
          <g id="Grupo_120287" data-name="Grupo 120287">
            <g id="Grupo_120286" data-name="Grupo 120286">
              <g id="Grupo_120284" data-name="Grupo 120284">
                <path id="Trazado_181366" data-name="Trazado 181366" d="M911.307,294.376H677.721a33.124,33.124,0,0,1-33.087-33.088V173.771a33.123,33.123,0,0,1,33.087-33.087H909.628a2.742,2.742,0,1,1,0,5.483H677.721a27.634,27.634,0,0,0-27.6,27.6v87.516a27.635,27.635,0,0,0,27.6,27.6H911.307a2.742,2.742,0,0,1,0,5.483Z" transform="translate(-644.634 -140.685)" fill="#5a189a"/>
              </g>
              <g id="Grupo_120285" data-name="Grupo 120285" transform="translate(312.808)">
                <path id="Trazado_181367" data-name="Trazado 181367" d="M1055.889,294.376H818.517a2.742,2.742,0,1,1,0-5.483h237.372a27.638,27.638,0,0,0,27.607-27.6V173.771a27.636,27.636,0,0,0-27.607-27.6H825.243a2.742,2.742,0,1,1,0-5.483h230.646a33.125,33.125,0,0,1,33.09,33.087v87.516A33.126,33.126,0,0,1,1055.889,294.376Z" transform="translate(-815.775 -140.685)" fill="#5a189a"/>
              </g>
            </g>
          </g>
        </g>
      </g>
      <g id="Grupo_120294" data-name="Grupo 120294" transform="translate(263.246 148.251)">
        <g id="Grupo_120290" data-name="Grupo 120290">
          <path id="Trazado_181368" data-name="Trazado 181368" d="M818.761,275.727a2.742,2.742,0,0,1-2.742-2.742V251.9A24.646,24.646,0,0,0,791.4,227.278a2.742,2.742,0,0,1,0-5.483,30.136,30.136,0,0,1,30.1,30.1v21.089A2.743,2.743,0,0,1,818.761,275.727Z" transform="translate(-788.659 -221.795)" fill="#5a189a"/>
        </g>
        <g id="Grupo_120293" data-name="Grupo 120293" transform="translate(8.637 29.506)">
          <g id="Grupo_120291" data-name="Grupo 120291" transform="translate(18.723)">
            <path id="Trazado_181369" data-name="Trazado 181369" d="M806.37,264.51a2.709,2.709,0,0,1-1.051-.21,2.738,2.738,0,0,1-1.691-2.531V240.68a2.742,2.742,0,1,1,5.483,0v14.47l14.021-14.023A2.741,2.741,0,0,1,827.009,245l-18.7,18.7A2.743,2.743,0,0,1,806.37,264.51Z" transform="translate(-803.628 -237.938)" fill="#5a189a"/>
          </g>
          <g id="Grupo_120292" data-name="Grupo 120292" transform="translate(0 2.364)">
            <path id="Trazado_181370" data-name="Trazado 181370" d="M814.849,263.44a2.735,2.735,0,0,1-1.939-.8l-18.722-18.724a2.741,2.741,0,0,1,3.877-3.877l18.722,18.724a2.743,2.743,0,0,1-1.937,4.681Z" transform="translate(-793.384 -239.232)" fill="#5a189a"/>
          </g>
        </g>
      </g>
    </g>
    <path id="Trazado_181371" data-name="Trazado 181371" d="M1185.712,40.358H665.877A30.345,30.345,0,0,0,635.532,70.7v87.518a30.346,30.346,0,0,0,30.345,30.348h519.836a30.347,30.347,0,0,0,30.347-30.348V70.7A30.347,30.347,0,0,0,1185.712,40.358Z" transform="translate(-138.298 4175.251)" fill="#ffb600" opacity="0.401"/>
    <g id="Grupo_120308" data-name="Grupo 120308" transform="translate(513.871 4196.909)">
      <g id="Grupo_120302" data-name="Grupo 120302">
        <g id="Grupo_120301" data-name="Grupo 120301">
          <g id="Grupo_120300" data-name="Grupo 120300">
            <g id="Grupo_120299" data-name="Grupo 120299">
              <g id="Grupo_120297" data-name="Grupo 120297">
                <path id="Trazado_181372" data-name="Trazado 181372" d="M911.307,183.818H677.721a33.124,33.124,0,0,1-33.087-33.088V63.213a33.123,33.123,0,0,1,33.087-33.086H909.628a2.742,2.742,0,1,1,0,5.483H677.721a27.635,27.635,0,0,0-27.6,27.6V150.73a27.635,27.635,0,0,0,27.6,27.6H911.307a2.742,2.742,0,0,1,0,5.483Z" transform="translate(-644.634 -30.127)" fill="#5a189a"/>
              </g>
              <g id="Grupo_120298" data-name="Grupo 120298" transform="translate(312.808)">
                <path id="Trazado_181373" data-name="Trazado 181373" d="M1055.889,183.818H818.517a2.742,2.742,0,1,1,0-5.483h237.372a27.638,27.638,0,0,0,27.607-27.6V63.213a27.637,27.637,0,0,0-27.607-27.6H825.243a2.742,2.742,0,1,1,0-5.483h230.646a33.125,33.125,0,0,1,33.09,33.086V150.73A33.126,33.126,0,0,1,1055.889,183.818Z" transform="translate(-815.775 -30.127)" fill="#5a189a"/>
              </g>
            </g>
          </g>
        </g>
      </g>
      <g id="Grupo_120307" data-name="Grupo 120307" transform="translate(263.246 148.253)">
        <g id="Grupo_120303" data-name="Grupo 120303">
          <path id="Trazado_181374" data-name="Trazado 181374" d="M818.761,165.169a2.74,2.74,0,0,1-2.742-2.742V141.338A24.645,24.645,0,0,0,791.4,116.721a2.742,2.742,0,0,1,0-5.483,30.134,30.134,0,0,1,30.1,30.1v21.089A2.741,2.741,0,0,1,818.761,165.169Z" transform="translate(-788.659 -111.238)" fill="#5a189a"/>
        </g>
        <g id="Grupo_120306" data-name="Grupo 120306" transform="translate(8.637 29.504)">
          <g id="Grupo_120304" data-name="Grupo 120304" transform="translate(18.723)">
            <path id="Trazado_181375" data-name="Trazado 181375" d="M806.37,153.952a2.739,2.739,0,0,1-2.742-2.742V130.122a2.742,2.742,0,1,1,5.483,0v14.471l14.021-14.023a2.741,2.741,0,0,1,3.877,3.877l-18.7,18.7A2.742,2.742,0,0,1,806.37,153.952Z" transform="translate(-803.628 -127.38)" fill="#5a189a"/>
          </g>
          <g id="Grupo_120305" data-name="Grupo 120305" transform="translate(0 2.364)">
            <path id="Trazado_181376" data-name="Trazado 181376" d="M814.849,152.882a2.734,2.734,0,0,1-1.939-.8l-18.722-18.724a2.741,2.741,0,0,1,3.877-3.877L816.786,148.2a2.743,2.743,0,0,1-1.937,4.681Z" transform="translate(-793.384 -128.673)" fill="#5a189a"/>
          </g>
        </g>
      </g>
    </g>
    <path id="Trazado_181377" data-name="Trazado 181377" d="M1185.712,259.438H665.877a30.345,30.345,0,0,0-30.345,30.345V377.3a30.345,30.345,0,0,0,30.345,30.347h519.836a30.347,30.347,0,0,0,30.347-30.347V289.783A30.347,30.347,0,0,0,1185.712,259.438Z" transform="translate(-138.298 4356.602)" fill="#ffb600" opacity="0.799"/>
    <g id="Grupo_120321" data-name="Grupo 120321" transform="translate(513.871 4595.627)">
      <g id="Grupo_120315" data-name="Grupo 120315">
        <g id="Grupo_120314" data-name="Grupo 120314">
          <g id="Grupo_120313" data-name="Grupo 120313">
            <g id="Grupo_120312" data-name="Grupo 120312">
              <g id="Grupo_120310" data-name="Grupo 120310">
                <path id="Trazado_181378" data-name="Trazado 181378" d="M911.307,401.963H677.721a33.124,33.124,0,0,1-33.087-33.088V281.358a33.126,33.126,0,0,1,33.087-33.088H909.628a2.743,2.743,0,0,1,0,5.485H677.721a27.635,27.635,0,0,0-27.6,27.6v87.516a27.635,27.635,0,0,0,27.6,27.6H911.307a2.742,2.742,0,0,1,0,5.483Z" transform="translate(-644.634 -248.27)" fill="#5a189a"/>
              </g>
              <g id="Grupo_120311" data-name="Grupo 120311" transform="translate(312.808)">
                <path id="Trazado_181379" data-name="Trazado 181379" d="M1055.889,401.963H818.517a2.742,2.742,0,1,1,0-5.483h237.372a27.638,27.638,0,0,0,27.607-27.6V281.358a27.637,27.637,0,0,0-27.607-27.6H825.243a2.743,2.743,0,0,1,0-5.485h230.646a33.127,33.127,0,0,1,33.09,33.088v87.516A33.126,33.126,0,0,1,1055.889,401.963Z" transform="translate(-815.775 -248.27)" fill="#5a189a"/>
              </g>
            </g>
          </g>
        </g>
      </g>
      <g id="Grupo_120320" data-name="Grupo 120320" transform="translate(263.246 148.255)">
        <g id="Grupo_120316" data-name="Grupo 120316">
          <path id="Trazado_181380" data-name="Trazado 181380" d="M818.761,383.313a2.742,2.742,0,0,1-2.742-2.742V359.482A24.646,24.646,0,0,0,791.4,334.865a2.742,2.742,0,0,1,0-5.483,30.136,30.136,0,0,1,30.1,30.1v21.089A2.743,2.743,0,0,1,818.761,383.313Z" transform="translate(-788.659 -329.382)" fill="#5a189a"/>
        </g>
        <g id="Grupo_120319" data-name="Grupo 120319" transform="translate(8.637 29.504)">
          <g id="Grupo_120317" data-name="Grupo 120317" transform="translate(18.723)">
            <path id="Trazado_181381" data-name="Trazado 181381" d="M806.37,372.094a2.739,2.739,0,0,1-2.742-2.742V348.266a2.742,2.742,0,1,1,5.483,0v14.469l14.021-14.019a2.741,2.741,0,1,1,3.877,3.877l-18.7,18.7A2.741,2.741,0,0,1,806.37,372.094Z" transform="translate(-803.628 -345.524)" fill="#5a189a"/>
          </g>
          <g id="Grupo_120318" data-name="Grupo 120318" transform="translate(0 2.364)">
            <path id="Trazado_181382" data-name="Trazado 181382" d="M814.849,371.024a2.732,2.732,0,0,1-1.939-.8L794.188,351.5a2.741,2.741,0,0,1,3.877-3.877l18.722,18.724a2.741,2.741,0,0,1-1.937,4.679Z" transform="translate(-793.384 -346.818)" fill="#5a189a"/>
          </g>
        </g>
      </g>
    </g>
    <path id="Trazado_181383" data-name="Trazado 181383" d="M1185.712,367.959H665.877A30.347,30.347,0,0,0,635.532,398.3v87.518a30.348,30.348,0,0,0,30.345,30.35h519.836a30.35,30.35,0,0,0,30.347-30.35V398.3A30.349,30.349,0,0,0,1185.712,367.959Z" transform="translate(-138.298 4446.434)" fill="#ffb600"/>
    <g id="Grupo_120329" data-name="Grupo 120329" transform="translate(513.871 4799.112)">
      <g id="Grupo_120328" data-name="Grupo 120328">
        <g id="Grupo_120327" data-name="Grupo 120327">
          <g id="Grupo_120326" data-name="Grupo 120326">
            <g id="Grupo_120325" data-name="Grupo 120325">
              <g id="Grupo_120323" data-name="Grupo 120323">
                <path id="Trazado_181384" data-name="Trazado 181384" d="M969.188,513.292H677.721a33.125,33.125,0,0,1-33.087-33.09V392.685A33.124,33.124,0,0,1,677.721,359.6H909.628a2.742,2.742,0,1,1,0,5.483H677.721a27.635,27.635,0,0,0-27.6,27.6V480.2a27.636,27.636,0,0,0,27.6,27.607H969.188a2.742,2.742,0,1,1,0,5.483Z" transform="translate(-644.634 -359.599)" fill="#5a189a"/>
              </g>
              <g id="Grupo_120324" data-name="Grupo 120324" transform="translate(312.808)">
                <path id="Trazado_181385" data-name="Trazado 181385" d="M1055.889,513.292H818.517a2.742,2.742,0,1,1,0-5.483h237.372A27.638,27.638,0,0,0,1083.5,480.2V392.685a27.637,27.637,0,0,0-27.607-27.6H825.243a2.742,2.742,0,1,1,0-5.483h230.646a33.126,33.126,0,0,1,33.09,33.086V480.2A33.126,33.126,0,0,1,1055.889,513.292Z" transform="translate(-815.775 -359.599)" fill="#5a189a"/>
              </g>
            </g>
          </g>
        </g>
      </g>
    </g>
    <path id="Trazado_181553" data-name="Trazado 181553" d="M43.482,8.785H38.255V23H34.74V8.785H29.584V5.938h13.9Zm6.574,14.449a6.225,6.225,0,0,1-4.541-1.711,6.082,6.082,0,0,1-1.752-4.559v-.328a7.66,7.66,0,0,1,.738-3.416,5.418,5.418,0,0,1,2.092-2.32,5.871,5.871,0,0,1,3.088-.814,5.262,5.262,0,0,1,4.1,1.641,6.667,6.667,0,0,1,1.494,4.652v1.383H47.2a3.146,3.146,0,0,0,.99,1.992,2.993,2.993,0,0,0,2.092.75,3.656,3.656,0,0,0,3.059-1.418L55,20.949a5.084,5.084,0,0,1-2.062,1.682A6.767,6.767,0,0,1,50.056,23.234Zm-.387-10.418a2.116,2.116,0,0,0-1.635.683,3.535,3.535,0,0,0-.8,1.954h4.711v-.271a2.521,2.521,0,0,0-.609-1.748A2.183,2.183,0,0,0,49.669,12.816Zm12.8,7.688a2.221,2.221,0,0,0,1.523-.516,1.807,1.807,0,0,0,.609-1.371h3.176a4.344,4.344,0,0,1-.7,2.361,4.64,4.64,0,0,1-1.893,1.664,5.923,5.923,0,0,1-2.654.592,5.5,5.5,0,0,1-4.289-1.729,6.84,6.84,0,0,1-1.57-4.775v-.223a6.762,6.762,0,0,1,1.559-4.676A5.441,5.441,0,0,1,62.5,10.086a5.333,5.333,0,0,1,3.814,1.354,4.792,4.792,0,0,1,1.459,3.6H64.6a2.327,2.327,0,0,0-.609-1.608,2.265,2.265,0,0,0-3.334.244,5,5,0,0,0-.6,2.8v.352a5.063,5.063,0,0,0,.6,2.817A2.065,2.065,0,0,0,62.466,20.5ZM72.826,10.32l.105,1.465a4.427,4.427,0,0,1,3.645-1.7,3.679,3.679,0,0,1,3,1.184,5.522,5.522,0,0,1,1.008,3.539V23H77.2V14.872a2.206,2.206,0,0,0-.469-1.568,2.1,2.1,0,0,0-1.559-.487,2.329,2.329,0,0,0-2.145,1.221V23H69.638V10.32Zm9.8,6.223a7.52,7.52,0,0,1,.727-3.363,5.319,5.319,0,0,1,2.092-2.285,6.1,6.1,0,0,1,3.17-.809,5.774,5.774,0,0,1,4.189,1.57,6.3,6.3,0,0,1,1.811,4.266l.023.867a6.627,6.627,0,0,1-1.629,4.682,6.313,6.313,0,0,1-8.748.006A6.744,6.744,0,0,1,82.623,16.7Zm3.387.24a4.74,4.74,0,0,0,.68,2.764,2.442,2.442,0,0,0,3.867.012,5.186,5.186,0,0,0,.691-3.022,4.692,4.692,0,0,0-.691-2.746,2.248,2.248,0,0,0-1.945-.974,2.211,2.211,0,0,0-1.922.968A5.274,5.274,0,0,0,86.009,16.783ZM100.294,23H96.9V5h3.4Zm2.262-6.457a7.52,7.52,0,0,1,.727-3.363,5.319,5.319,0,0,1,2.092-2.285,6.1,6.1,0,0,1,3.17-.809,5.774,5.774,0,0,1,4.189,1.57,6.3,6.3,0,0,1,1.811,4.266l.023.867a6.627,6.627,0,0,1-1.629,4.682,6.313,6.313,0,0,1-8.748.006,6.744,6.744,0,0,1-1.635-4.781Zm3.387.24a4.74,4.74,0,0,0,.68,2.764,2.442,2.442,0,0,0,3.867.012,5.186,5.186,0,0,0,.691-3.022,4.692,4.692,0,0,0-.691-2.746,2.248,2.248,0,0,0-1.945-.974,2.211,2.211,0,0,0-1.922.968A5.274,5.274,0,0,0,105.943,16.783ZM109.212,5H112.9l-3.246,3.633H106.9Zm6.949,11.566a7.431,7.431,0,0,1,1.389-4.7,4.5,4.5,0,0,1,3.744-1.781,3.946,3.946,0,0,1,3.246,1.43l.141-1.2h3.07V22.578A5.419,5.419,0,0,1,127,25.473a4.854,4.854,0,0,1-2.127,1.875,7.477,7.477,0,0,1-3.211.645,6.953,6.953,0,0,1-2.719-.557,4.825,4.825,0,0,1-2-1.436l1.5-2.062a3.967,3.967,0,0,0,3.07,1.418,2.9,2.9,0,0,0,2.1-.721,2.7,2.7,0,0,0,.75-2.045v-.68a3.917,3.917,0,0,1-3.082,1.324,4.488,4.488,0,0,1-3.7-1.787,7.429,7.429,0,0,1-1.412-4.74Zm3.387.241a4.652,4.652,0,0,0,.691,2.714,2.2,2.2,0,0,0,1.9.983,2.35,2.35,0,0,0,2.215-1.165V13.982a2.345,2.345,0,0,0-2.191-1.165,2.211,2.211,0,0,0-1.916,1A5.244,5.244,0,0,0,119.548,16.807Zm10.277-.264a7.52,7.52,0,0,1,.727-3.363,5.319,5.319,0,0,1,2.092-2.285,6.1,6.1,0,0,1,3.17-.809A5.774,5.774,0,0,1,140,11.656a6.3,6.3,0,0,1,1.811,4.266l.023.867a6.627,6.627,0,0,1-1.629,4.682,6.313,6.313,0,0,1-8.748.006,6.744,6.744,0,0,1-1.635-4.781Zm3.387.24a4.74,4.74,0,0,0,.68,2.764,2.442,2.442,0,0,0,3.867.012,5.186,5.186,0,0,0,.691-3.022,4.692,4.692,0,0,0-.691-2.746,2.248,2.248,0,0,0-1.945-.974,2.211,2.211,0,0,0-1.922.968A5.274,5.274,0,0,0,133.212,16.783Z" transform="translate(561.631 4072.727)" fill="#12263f"/>
    <path id="Trazado_181554" data-name="Trazado 181554" d="M26.688,15.582h-6.75v4.594h7.922V23H16.422V5.938H27.836V8.785h-7.9v4.066h6.75ZM36.566,19.5a1.091,1.091,0,0,0-.615-.979,6.989,6.989,0,0,0-1.975-.639q-4.523-.949-4.523-3.844a3.484,3.484,0,0,1,1.4-2.818,5.649,5.649,0,0,1,3.662-1.131,6.08,6.08,0,0,1,3.861,1.137,3.582,3.582,0,0,1,1.447,2.953H36.438a1.639,1.639,0,0,0-.469-1.2A1.984,1.984,0,0,0,34.5,12.5a2.027,2.027,0,0,0-1.324.387,1.221,1.221,0,0,0-.469.984,1.044,1.044,0,0,0,.533.908,5.485,5.485,0,0,0,1.8.6,14.693,14.693,0,0,1,2.133.568q2.684.984,2.684,3.41a3.307,3.307,0,0,1-1.488,2.807,6.42,6.42,0,0,1-3.844,1.072,6.706,6.706,0,0,1-2.83-.568,4.748,4.748,0,0,1-1.939-1.559,3.621,3.621,0,0,1-.7-2.139h3.211a1.768,1.768,0,0,0,.668,1.383,2.649,2.649,0,0,0,1.664.48,2.452,2.452,0,0,0,1.471-.369A1.149,1.149,0,0,0,36.566,19.5Zm16.887-2.719a7.6,7.6,0,0,1-1.33,4.693,4.264,4.264,0,0,1-3.592,1.764A3.95,3.95,0,0,1,45.426,21.9v5.977H42.039V10.32H45.18l.117,1.242a3.98,3.98,0,0,1,3.211-1.477,4.294,4.294,0,0,1,3.645,1.734,7.811,7.811,0,0,1,1.3,4.781Zm-3.387-.258a5.018,5.018,0,0,0-.627-2.739,2.04,2.04,0,0,0-1.822-.964,2.217,2.217,0,0,0-2.191,1.222v5.207A2.254,2.254,0,0,0,47.641,20.5Q50.066,20.5,50.066,16.519Zm11.32,6.715a6.225,6.225,0,0,1-4.541-1.711,6.082,6.082,0,0,1-1.752-4.559v-.328a7.66,7.66,0,0,1,.738-3.416,5.418,5.418,0,0,1,2.092-2.32,5.871,5.871,0,0,1,3.088-.814,5.262,5.262,0,0,1,4.1,1.641A6.667,6.667,0,0,1,66.6,16.379v1.383H58.527a3.146,3.146,0,0,0,.99,1.992,2.993,2.993,0,0,0,2.092.75,3.656,3.656,0,0,0,3.059-1.418l1.664,1.863a5.084,5.084,0,0,1-2.062,1.682A6.767,6.767,0,0,1,61.387,23.234ZM61,12.816a2.116,2.116,0,0,0-1.635.683,3.535,3.535,0,0,0-.8,1.954h4.711v-.271a2.521,2.521,0,0,0-.609-1.748A2.183,2.183,0,0,0,61,12.816ZM73.8,20.5a2.221,2.221,0,0,0,1.523-.516,1.807,1.807,0,0,0,.609-1.371h3.176a4.344,4.344,0,0,1-.7,2.361,4.64,4.64,0,0,1-1.893,1.664,5.923,5.923,0,0,1-2.654.592,5.5,5.5,0,0,1-4.289-1.729A6.84,6.84,0,0,1,68,16.73v-.223a6.762,6.762,0,0,1,1.559-4.676,5.441,5.441,0,0,1,4.277-1.746,5.333,5.333,0,0,1,3.814,1.354,4.792,4.792,0,0,1,1.459,3.6H75.93a2.327,2.327,0,0,0-.609-1.608,2.265,2.265,0,0,0-3.334.244,5,5,0,0,0-.6,2.8v.352a5.063,5.063,0,0,0,.6,2.817A2.065,2.065,0,0,0,73.8,20.5ZM84.613,23h-3.4V10.32h3.4Zm-3.6-15.961a1.668,1.668,0,0,1,.51-1.254,2.2,2.2,0,0,1,2.771,0,1.658,1.658,0,0,1,.516,1.254A1.663,1.663,0,0,1,84.291,8.3a2.172,2.172,0,0,1-2.754,0A1.663,1.663,0,0,1,81.016,7.039ZM94.75,23a3.761,3.761,0,0,1-.34-1.137,4.1,4.1,0,0,1-3.2,1.371,4.5,4.5,0,0,1-3.088-1.078A3.467,3.467,0,0,1,86.9,19.438a3.583,3.583,0,0,1,1.494-3.094,7.373,7.373,0,0,1,4.318-1.09H94.27v-.727a2.089,2.089,0,0,0-.451-1.406,1.775,1.775,0,0,0-1.424-.527,2.018,2.018,0,0,0-1.342.41,1.393,1.393,0,0,0-.486,1.125H87.18a3.4,3.4,0,0,1,.68-2.039,4.493,4.493,0,0,1,1.922-1.471,7,7,0,0,1,2.789-.533,5.534,5.534,0,0,1,3.721,1.178,4.12,4.12,0,0,1,1.377,3.311v5.5a6.062,6.062,0,0,0,.5,2.73V23Zm-2.8-2.355a2.917,2.917,0,0,0,1.383-.334,2.194,2.194,0,0,0,.938-.9v-2.18H93q-2.543,0-2.707,1.758l-.012.2a1.356,1.356,0,0,0,.445,1.043A1.73,1.73,0,0,0,91.949,20.645ZM103.844,23h-3.4V5h3.4Zm6.363,0h-3.4V10.32h3.4Zm-3.6-15.961a1.668,1.668,0,0,1,.51-1.254,2.2,2.2,0,0,1,2.771,0,1.658,1.658,0,0,1,.516,1.254,1.663,1.663,0,0,1-.521,1.266,2.172,2.172,0,0,1-2.754,0A1.663,1.663,0,0,1,106.609,7.039Zm10.277,13.23h6.2V23H112.563V20.938l5.965-7.887h-5.789V10.32H122.9v2ZM132.555,23a3.761,3.761,0,0,1-.34-1.137,4.1,4.1,0,0,1-3.2,1.371,4.5,4.5,0,0,1-3.088-1.078,3.467,3.467,0,0,1-1.225-2.719,3.583,3.583,0,0,1,1.494-3.094,7.373,7.373,0,0,1,4.318-1.09h1.559v-.727a2.089,2.089,0,0,0-.451-1.406,1.775,1.775,0,0,0-1.424-.527,2.018,2.018,0,0,0-1.342.41,1.393,1.393,0,0,0-.486,1.125h-3.387a3.4,3.4,0,0,1,.68-2.039,4.493,4.493,0,0,1,1.922-1.471,7,7,0,0,1,2.789-.533,5.534,5.534,0,0,1,3.721,1.178,4.12,4.12,0,0,1,1.377,3.311v5.5a6.062,6.062,0,0,0,.5,2.73V23Zm-2.8-2.355a2.917,2.917,0,0,0,1.383-.334,2.194,2.194,0,0,0,.938-.9v-2.18h-1.266q-2.543,0-2.707,1.758l-.012.2a1.356,1.356,0,0,0,.445,1.043A1.73,1.73,0,0,0,129.754,20.645Zm13.594-.141a2.221,2.221,0,0,0,1.523-.516,1.807,1.807,0,0,0,.609-1.371h3.176a4.344,4.344,0,0,1-.7,2.361,4.64,4.64,0,0,1-1.893,1.664,5.923,5.923,0,0,1-2.654.592,5.5,5.5,0,0,1-4.289-1.729,6.84,6.84,0,0,1-1.57-4.775v-.223a6.762,6.762,0,0,1,1.559-4.676,5.441,5.441,0,0,1,4.277-1.746,5.333,5.333,0,0,1,3.814,1.354,4.792,4.792,0,0,1,1.459,3.6H145.48a2.327,2.327,0,0,0-.609-1.608,2.265,2.265,0,0,0-3.334.244,5,5,0,0,0-.6,2.8v.352a5.063,5.063,0,0,0,.6,2.817A2.065,2.065,0,0,0,143.348,20.5ZM154.164,23h-3.4V10.32h3.4Zm-3.6-15.961a1.668,1.668,0,0,1,.51-1.254,2.2,2.2,0,0,1,2.771,0,1.658,1.658,0,0,1,.516,1.254,1.663,1.663,0,0,1-.521,1.266,2.172,2.172,0,0,1-2.754,0A1.663,1.663,0,0,1,150.566,7.039Zm5.859,9.5a7.52,7.52,0,0,1,.727-3.363,5.319,5.319,0,0,1,2.092-2.285,6.1,6.1,0,0,1,3.17-.809,5.774,5.774,0,0,1,4.189,1.57,6.3,6.3,0,0,1,1.811,4.266l.023.867a6.627,6.627,0,0,1-1.629,4.682,6.313,6.313,0,0,1-8.748.006,6.744,6.744,0,0,1-1.635-4.781Zm3.387.24a4.74,4.74,0,0,0,.68,2.764,2.442,2.442,0,0,0,3.867.012,5.186,5.186,0,0,0,.691-3.022,4.692,4.692,0,0,0-.691-2.746,2.248,2.248,0,0,0-1.945-.974,2.211,2.211,0,0,0-1.922.968A5.274,5.274,0,0,0,159.813,16.783ZM163.082,5h3.691l-3.246,3.633h-2.754Zm10.559,5.32.105,1.465a4.427,4.427,0,0,1,3.645-1.7,3.679,3.679,0,0,1,3,1.184,5.522,5.522,0,0,1,1.008,3.539V23h-3.387V14.872a2.206,2.206,0,0,0-.469-1.568,2.1,2.1,0,0,0-1.559-.487,2.329,2.329,0,0,0-2.145,1.221V23h-3.387V10.32ZM41.143,33.2V36.32h2.168V38.8H41.143v6.328a1.511,1.511,0,0,0,.27,1.008,1.354,1.354,0,0,0,1.031.3,5.4,5.4,0,0,0,1-.082V48.93a6.972,6.972,0,0,1-2.051.3q-3.562,0-3.633-3.6V38.8H35.9V36.32h1.852V33.2Zm9.891,16.031a6.225,6.225,0,0,1-4.541-1.711,6.082,6.082,0,0,1-1.752-4.559v-.328a7.66,7.66,0,0,1,.738-3.416A5.418,5.418,0,0,1,47.57,36.9a5.871,5.871,0,0,1,3.088-.814,5.262,5.262,0,0,1,4.1,1.641,6.667,6.667,0,0,1,1.494,4.652v1.383H48.174a3.146,3.146,0,0,0,.99,1.992,2.993,2.993,0,0,0,2.092.75,3.656,3.656,0,0,0,3.059-1.418l1.664,1.863a5.084,5.084,0,0,1-2.062,1.682A6.767,6.767,0,0,1,51.033,49.234Zm-.387-10.418a2.116,2.116,0,0,0-1.635.683,3.535,3.535,0,0,0-.8,1.954H52.92v-.271a2.521,2.521,0,0,0-.609-1.748A2.183,2.183,0,0,0,50.646,38.816Zm12.8,7.688a2.221,2.221,0,0,0,1.523-.516,1.807,1.807,0,0,0,.609-1.371h3.176a4.344,4.344,0,0,1-.7,2.361,4.64,4.64,0,0,1-1.893,1.664,5.923,5.923,0,0,1-2.654.592,5.5,5.5,0,0,1-4.289-1.729,6.84,6.84,0,0,1-1.57-4.775v-.223A6.762,6.762,0,0,1,59.2,37.832a5.441,5.441,0,0,1,4.277-1.746,5.333,5.333,0,0,1,3.814,1.354,4.792,4.792,0,0,1,1.459,3.6H65.576a2.327,2.327,0,0,0-.609-1.608,2.265,2.265,0,0,0-3.334.244,5,5,0,0,0-.6,2.8v.352a5.063,5.063,0,0,0,.6,2.817A2.065,2.065,0,0,0,63.443,46.5ZM73.8,36.32l.105,1.465a4.427,4.427,0,0,1,3.645-1.7,3.679,3.679,0,0,1,3,1.184,5.522,5.522,0,0,1,1.008,3.539V49H78.174V40.872a2.206,2.206,0,0,0-.469-1.568,2.1,2.1,0,0,0-1.559-.487A2.329,2.329,0,0,0,74,40.038V49H70.615V36.32Zm9.8,6.223a7.52,7.52,0,0,1,.727-3.363,5.319,5.319,0,0,1,2.092-2.285,6.1,6.1,0,0,1,3.17-.809,5.774,5.774,0,0,1,4.189,1.57,6.3,6.3,0,0,1,1.811,4.266l.023.867a6.627,6.627,0,0,1-1.629,4.682,6.313,6.313,0,0,1-8.748.006A6.744,6.744,0,0,1,83.6,42.7Zm3.387.24a4.74,4.74,0,0,0,.68,2.764,2.442,2.442,0,0,0,3.867.012,5.186,5.186,0,0,0,.691-3.022,4.692,4.692,0,0,0-.691-2.746,2.248,2.248,0,0,0-1.945-.974,2.211,2.211,0,0,0-1.922.968A5.274,5.274,0,0,0,86.986,42.783ZM101.271,49h-3.4V31h3.4Zm2.262-6.457a7.52,7.52,0,0,1,.727-3.363,5.319,5.319,0,0,1,2.092-2.285,6.1,6.1,0,0,1,3.17-.809,5.774,5.774,0,0,1,4.189,1.57,6.3,6.3,0,0,1,1.811,4.266l.023.867a6.627,6.627,0,0,1-1.629,4.682,6.313,6.313,0,0,1-8.748.006,6.744,6.744,0,0,1-1.635-4.781Zm3.387.24a4.74,4.74,0,0,0,.68,2.764,2.442,2.442,0,0,0,3.867.012,5.186,5.186,0,0,0,.691-3.022,4.692,4.692,0,0,0-.691-2.746,2.248,2.248,0,0,0-1.945-.974,2.211,2.211,0,0,0-1.922.968A5.274,5.274,0,0,0,106.92,42.783ZM110.189,31h3.691l-3.246,3.633h-2.754Zm6.949,11.566a7.431,7.431,0,0,1,1.389-4.7,4.5,4.5,0,0,1,3.744-1.781,3.946,3.946,0,0,1,3.246,1.43l.141-1.2h3.07V48.578a5.419,5.419,0,0,1-.756,2.895,4.854,4.854,0,0,1-2.127,1.875,7.477,7.477,0,0,1-3.211.645,6.953,6.953,0,0,1-2.719-.557,4.825,4.825,0,0,1-2-1.436l1.5-2.062a3.967,3.967,0,0,0,3.07,1.418,2.9,2.9,0,0,0,2.1-.721,2.7,2.7,0,0,0,.75-2.045v-.68a3.917,3.917,0,0,1-3.082,1.324,4.488,4.488,0,0,1-3.7-1.787,7.429,7.429,0,0,1-1.412-4.74Zm3.387.241a4.652,4.652,0,0,0,.691,2.714,2.2,2.2,0,0,0,1.9.983,2.35,2.35,0,0,0,2.215-1.165V39.982a2.345,2.345,0,0,0-2.191-1.165,2.211,2.211,0,0,0-1.916,1A5.244,5.244,0,0,0,120.525,42.807ZM134.9,49h-3.4V36.32h3.4Zm-3.6-15.961a1.668,1.668,0,0,1,.51-1.254,2.2,2.2,0,0,1,2.771,0,1.79,1.79,0,0,1-.006,2.52,2.172,2.172,0,0,1-2.754,0A1.663,1.663,0,0,1,131.307,33.039ZM142.967,46.5a2.221,2.221,0,0,0,1.523-.516,1.807,1.807,0,0,0,.609-1.371h3.176a4.344,4.344,0,0,1-.7,2.361,4.64,4.64,0,0,1-1.893,1.664,5.923,5.923,0,0,1-2.654.592,5.5,5.5,0,0,1-4.289-1.729,6.84,6.84,0,0,1-1.57-4.775v-.223a6.762,6.762,0,0,1,1.559-4.676A5.441,5.441,0,0,1,143,36.086a5.333,5.333,0,0,1,3.814,1.354,4.792,4.792,0,0,1,1.459,3.6H145.1a2.327,2.327,0,0,0-.609-1.608,2.265,2.265,0,0,0-3.334.244,5,5,0,0,0-.6,2.8v.352a5.063,5.063,0,0,0,.6,2.817A2.065,2.065,0,0,0,142.967,46.5Zm14.59,2.5a3.761,3.761,0,0,1-.34-1.137,4.1,4.1,0,0,1-3.2,1.371,4.5,4.5,0,0,1-3.088-1.078,3.467,3.467,0,0,1-1.225-2.719,3.583,3.583,0,0,1,1.494-3.094,7.373,7.373,0,0,1,4.318-1.09h1.559v-.727a2.089,2.089,0,0,0-.451-1.406,1.775,1.775,0,0,0-1.424-.527,2.018,2.018,0,0,0-1.342.41,1.393,1.393,0,0,0-.486,1.125h-3.387a3.4,3.4,0,0,1,.68-2.039,4.493,4.493,0,0,1,1.922-1.471,7,7,0,0,1,2.789-.533,5.534,5.534,0,0,1,3.721,1.178,4.12,4.12,0,0,1,1.377,3.311v5.5a6.062,6.062,0,0,0,.5,2.73V49Zm-2.8-2.355a2.917,2.917,0,0,0,1.383-.334,2.194,2.194,0,0,0,.938-.9v-2.18h-1.266q-2.543,0-2.707,1.758l-.012.2a1.356,1.356,0,0,0,.445,1.043A1.73,1.73,0,0,0,154.756,46.645Z" transform="translate(548.719 4262.715)" fill="#12263f"/>
    <path id="Trazado_181555" data-name="Trazado 181555" d="M46.023,8.785H40.8V23H37.281V8.785H32.124V5.938h13.9ZM52.6,23.234a6.225,6.225,0,0,1-4.541-1.711A6.082,6.082,0,0,1,46.3,16.965v-.328a7.66,7.66,0,0,1,.738-3.416,5.418,5.418,0,0,1,2.092-2.32,5.871,5.871,0,0,1,3.088-.814,5.262,5.262,0,0,1,4.1,1.641,6.667,6.667,0,0,1,1.494,4.652v1.383H49.738a3.146,3.146,0,0,0,.99,1.992,2.993,2.993,0,0,0,2.092.75,3.656,3.656,0,0,0,3.059-1.418l1.664,1.863a5.084,5.084,0,0,1-2.062,1.682A6.767,6.767,0,0,1,52.6,23.234ZM52.21,12.816a2.116,2.116,0,0,0-1.635.683,3.535,3.535,0,0,0-.8,1.954h4.711v-.271a2.521,2.521,0,0,0-.609-1.748A2.183,2.183,0,0,0,52.21,12.816ZM52.515,5h3.691L52.96,8.633H50.206ZM65.007,20.5a2.221,2.221,0,0,0,1.523-.516,1.807,1.807,0,0,0,.609-1.371h3.176a4.344,4.344,0,0,1-.7,2.361,4.64,4.64,0,0,1-1.893,1.664,5.923,5.923,0,0,1-2.654.592,5.5,5.5,0,0,1-4.289-1.729,6.84,6.84,0,0,1-1.57-4.775v-.223a6.762,6.762,0,0,1,1.559-4.676,5.441,5.441,0,0,1,4.277-1.746,5.333,5.333,0,0,1,3.814,1.354,4.792,4.792,0,0,1,1.459,3.6H67.14a2.327,2.327,0,0,0-.609-1.608,2.265,2.265,0,0,0-3.334.244,5,5,0,0,0-.6,2.8v.352a5.063,5.063,0,0,0,.6,2.817A2.065,2.065,0,0,0,65.007,20.5ZM75.366,10.32l.105,1.465a4.427,4.427,0,0,1,3.645-1.7,3.679,3.679,0,0,1,3,1.184,5.522,5.522,0,0,1,1.008,3.539V23H79.738V14.872a2.206,2.206,0,0,0-.469-1.568,2.1,2.1,0,0,0-1.559-.487,2.329,2.329,0,0,0-2.145,1.221V23H72.179V10.32ZM89.265,23h-3.4V10.32h3.4Zm-3.6-15.961a1.668,1.668,0,0,1,.51-1.254,2.2,2.2,0,0,1,2.771,0,1.658,1.658,0,0,1,.516,1.254A1.663,1.663,0,0,1,88.943,8.3a2.172,2.172,0,0,1-2.754,0A1.663,1.663,0,0,1,85.667,7.039ZM97.327,20.5a2.221,2.221,0,0,0,1.523-.516,1.807,1.807,0,0,0,.609-1.371h3.176a4.344,4.344,0,0,1-.7,2.361,4.64,4.64,0,0,1-1.893,1.664,5.923,5.923,0,0,1-2.654.592A5.5,5.5,0,0,1,93.1,21.506a6.84,6.84,0,0,1-1.57-4.775v-.223a6.762,6.762,0,0,1,1.559-4.676,5.441,5.441,0,0,1,4.277-1.746,5.333,5.333,0,0,1,3.814,1.354,4.792,4.792,0,0,1,1.459,3.6H99.46a2.327,2.327,0,0,0-.609-1.608,2.265,2.265,0,0,0-3.334.244,5,5,0,0,0-.6,2.8v.352a5.063,5.063,0,0,0,.6,2.817A2.065,2.065,0,0,0,97.327,20.5Zm6.715-3.961a7.52,7.52,0,0,1,.727-3.363,5.319,5.319,0,0,1,2.092-2.285,6.1,6.1,0,0,1,3.17-.809,5.774,5.774,0,0,1,4.189,1.57,6.3,6.3,0,0,1,1.811,4.266l.023.867a6.627,6.627,0,0,1-1.629,4.682,6.313,6.313,0,0,1-8.748.006,6.744,6.744,0,0,1-1.635-4.781Zm3.387.24a4.74,4.74,0,0,0,.68,2.764,2.442,2.442,0,0,0,3.867.012,5.186,5.186,0,0,0,.691-3.022,4.692,4.692,0,0,0-.691-2.746,2.248,2.248,0,0,0-1.945-.974,2.211,2.211,0,0,0-1.922.968A5.274,5.274,0,0,0,107.429,16.783Z" transform="translate(573.253 4477.79)" fill="#12263f"/>
    <path id="Trazado_181556" data-name="Trazado 181556" d="M21.965,16.988V23H18.449V5.938h6.656a7.7,7.7,0,0,1,3.381.7,5.181,5.181,0,0,1,2.244,2,5.571,5.571,0,0,1,.785,2.947A4.9,4.9,0,0,1,29.8,15.541a7.15,7.15,0,0,1-4.752,1.447Zm0-2.848h3.141a3.088,3.088,0,0,0,2.127-.656,2.387,2.387,0,0,0,.732-1.875,2.814,2.814,0,0,0-.738-2.027,2.758,2.758,0,0,0-2.039-.8H21.965ZM40.832,13.5a9.2,9.2,0,0,0-1.219-.094,2.481,2.481,0,0,0-2.52,1.3V23H33.707V10.32h3.2L37,11.832a3.138,3.138,0,0,1,2.824-1.746,3.549,3.549,0,0,1,1.055.152Zm.68,3.047a7.52,7.52,0,0,1,.727-3.363,5.319,5.319,0,0,1,2.092-2.285,6.1,6.1,0,0,1,3.17-.809,5.774,5.774,0,0,1,4.189,1.57A6.3,6.3,0,0,1,53.5,15.922l.023.867a6.627,6.627,0,0,1-1.629,4.682,5.662,5.662,0,0,1-4.371,1.764,5.69,5.69,0,0,1-4.377-1.758A6.744,6.744,0,0,1,41.512,16.7Zm3.387.24a4.74,4.74,0,0,0,.68,2.764,2.442,2.442,0,0,0,3.867.012,5.186,5.186,0,0,0,.691-3.022,4.692,4.692,0,0,0-.691-2.746,2.248,2.248,0,0,0-1.945-.974,2.211,2.211,0,0,0-1.922.968A5.274,5.274,0,0,0,44.9,16.783ZM56.535,23V12.8H54.648V10.32h1.887V9.242A4.377,4.377,0,0,1,57.76,5.932a4.743,4.743,0,0,1,3.428-1.178,7.982,7.982,0,0,1,1.723.232l-.035,2.6a4.318,4.318,0,0,0-1.031-.105q-1.91,0-1.91,1.808V10.32h2.52V12.8h-2.52V23ZM71.8,21.711a4.247,4.247,0,0,1-3.469,1.523,4.005,4.005,0,0,1-3.111-1.172,5,5,0,0,1-1.1-3.434V10.32h3.387v8.2q0,1.983,1.8,1.983a2.445,2.445,0,0,0,2.367-1.2V10.32h3.4V23H71.9ZM80.758,10.32l.105,1.465a4.427,4.427,0,0,1,3.645-1.7,3.679,3.679,0,0,1,3,1.184,5.522,5.522,0,0,1,1.008,3.539V23H85.129V14.872A2.206,2.206,0,0,0,84.66,13.3a2.1,2.1,0,0,0-1.559-.487,2.329,2.329,0,0,0-2.145,1.221V23H77.57V10.32Zm9.8,6.246a7.641,7.641,0,0,1,1.33-4.723,4.316,4.316,0,0,1,3.639-1.758,3.884,3.884,0,0,1,3.059,1.383V5h3.4V23H98.922l-.164-1.348A3.985,3.985,0,0,1,95.5,23.234a4.3,4.3,0,0,1-3.592-1.764A7.887,7.887,0,0,1,90.555,16.566Zm3.387.241a5.033,5.033,0,0,0,.621,2.743,2.022,2.022,0,0,0,1.8.954,2.265,2.265,0,0,0,2.215-1.33V14.147a2.233,2.233,0,0,0-2.191-1.33Q93.941,12.816,93.941,16.807ZM108.18,23h-3.4V10.32h3.4Zm-3.6-15.961a1.668,1.668,0,0,1,.51-1.254,2.2,2.2,0,0,1,2.771,0,1.658,1.658,0,0,1,.516,1.254,1.663,1.663,0,0,1-.521,1.266,2.172,2.172,0,0,1-2.754,0A1.663,1.663,0,0,1,104.582,7.039Zm10.277,13.23h6.2V23H110.535V20.938l5.965-7.887h-5.789V10.32h10.16v2ZM130.527,23a3.761,3.761,0,0,1-.34-1.137,4.1,4.1,0,0,1-3.2,1.371,4.5,4.5,0,0,1-3.088-1.078,3.467,3.467,0,0,1-1.225-2.719,3.583,3.583,0,0,1,1.494-3.094,7.373,7.373,0,0,1,4.318-1.09h1.559v-.727a2.089,2.089,0,0,0-.451-1.406,1.775,1.775,0,0,0-1.424-.527,2.018,2.018,0,0,0-1.342.41,1.393,1.393,0,0,0-.486,1.125h-3.387a3.4,3.4,0,0,1,.68-2.039,4.493,4.493,0,0,1,1.922-1.471,7,7,0,0,1,2.789-.533,5.534,5.534,0,0,1,3.721,1.178,4.12,4.12,0,0,1,1.377,3.311v5.5a6.062,6.062,0,0,0,.5,2.73V23Zm-2.8-2.355a2.917,2.917,0,0,0,1.383-.334,2.194,2.194,0,0,0,.938-.9v-2.18h-1.266q-2.543,0-2.707,1.758l-.012.2a1.356,1.356,0,0,0,.445,1.043A1.73,1.73,0,0,0,127.727,20.645ZM141.32,20.5a2.221,2.221,0,0,0,1.523-.516,1.807,1.807,0,0,0,.609-1.371h3.176a4.344,4.344,0,0,1-.7,2.361,4.64,4.64,0,0,1-1.893,1.664,5.923,5.923,0,0,1-2.654.592,5.5,5.5,0,0,1-4.289-1.729,6.84,6.84,0,0,1-1.57-4.775v-.223a6.762,6.762,0,0,1,1.559-4.676,5.441,5.441,0,0,1,4.277-1.746,5.333,5.333,0,0,1,3.814,1.354,4.792,4.792,0,0,1,1.459,3.6h-3.176a2.327,2.327,0,0,0-.609-1.608,2.265,2.265,0,0,0-3.334.244,5,5,0,0,0-.6,2.8v.352a5.063,5.063,0,0,0,.6,2.817A2.065,2.065,0,0,0,141.32,20.5ZM152.137,23h-3.4V10.32h3.4Zm-3.6-15.961a1.668,1.668,0,0,1,.51-1.254,2.2,2.2,0,0,1,2.771,0,1.658,1.658,0,0,1,.516,1.254,1.663,1.663,0,0,1-.521,1.266,2.172,2.172,0,0,1-2.754,0A1.663,1.663,0,0,1,148.539,7.039Zm5.859,9.5a7.52,7.52,0,0,1,.727-3.363,5.319,5.319,0,0,1,2.092-2.285,6.1,6.1,0,0,1,3.17-.809,5.774,5.774,0,0,1,4.189,1.57,6.3,6.3,0,0,1,1.811,4.266l.023.867a6.627,6.627,0,0,1-1.629,4.682,6.313,6.313,0,0,1-8.748.006A6.744,6.744,0,0,1,154.4,16.7Zm3.387.24a4.74,4.74,0,0,0,.68,2.764,2.442,2.442,0,0,0,3.867.012,5.186,5.186,0,0,0,.691-3.022,4.692,4.692,0,0,0-.691-2.746,2.248,2.248,0,0,0-1.945-.974,2.211,2.211,0,0,0-1.922.968A5.274,5.274,0,0,0,157.785,16.783ZM161.055,5h3.691L161.5,8.633h-2.754Zm10.559,5.32.105,1.465a4.427,4.427,0,0,1,3.645-1.7,3.679,3.679,0,0,1,3,1.184,5.522,5.522,0,0,1,1.008,3.539V23h-3.387V14.872a2.206,2.206,0,0,0-.469-1.568,2.1,2.1,0,0,0-1.559-.487,2.329,2.329,0,0,0-2.145,1.221V23h-3.387V10.32ZM16.75,33.2V36.32h2.168V38.8H16.75v6.328a1.511,1.511,0,0,0,.27,1.008,1.354,1.354,0,0,0,1.031.3,5.4,5.4,0,0,0,1-.082V48.93a6.972,6.972,0,0,1-2.051.3q-3.562,0-3.633-3.6V38.8H11.512V36.32h1.852V33.2Zm9.891,16.031A6.225,6.225,0,0,1,22.1,47.523a6.082,6.082,0,0,1-1.752-4.559v-.328a7.66,7.66,0,0,1,.738-3.416,5.418,5.418,0,0,1,2.092-2.32,5.871,5.871,0,0,1,3.088-.814,5.262,5.262,0,0,1,4.1,1.641,6.667,6.667,0,0,1,1.494,4.652v1.383H23.781a3.146,3.146,0,0,0,.99,1.992,2.993,2.993,0,0,0,2.092.75,3.656,3.656,0,0,0,3.059-1.418l1.664,1.863a5.084,5.084,0,0,1-2.062,1.682A6.767,6.767,0,0,1,26.641,49.234Zm-.387-10.418a2.116,2.116,0,0,0-1.635.683,3.535,3.535,0,0,0-.8,1.954h4.711v-.271a2.521,2.521,0,0,0-.609-1.748A2.183,2.183,0,0,0,26.254,38.816Zm.3-7.816H30.25L27,34.633H24.25ZM39.051,46.5a2.221,2.221,0,0,0,1.523-.516,1.807,1.807,0,0,0,.609-1.371h3.176a4.344,4.344,0,0,1-.7,2.361,4.64,4.64,0,0,1-1.893,1.664,5.923,5.923,0,0,1-2.654.592,5.5,5.5,0,0,1-4.289-1.729,6.84,6.84,0,0,1-1.57-4.775v-.223a6.762,6.762,0,0,1,1.559-4.676,5.441,5.441,0,0,1,4.277-1.746A5.333,5.333,0,0,1,42.9,37.439a4.792,4.792,0,0,1,1.459,3.6H41.184a2.327,2.327,0,0,0-.609-1.608,2.265,2.265,0,0,0-3.334.244,5,5,0,0,0-.6,2.8v.352a5.063,5.063,0,0,0,.6,2.817A2.065,2.065,0,0,0,39.051,46.5ZM49.41,36.32l.105,1.465a4.427,4.427,0,0,1,3.645-1.7,3.679,3.679,0,0,1,3,1.184,5.522,5.522,0,0,1,1.008,3.539V49H53.781V40.872a2.206,2.206,0,0,0-.469-1.568,2.1,2.1,0,0,0-1.559-.487,2.329,2.329,0,0,0-2.145,1.221V49H46.223V36.32ZM63.309,49h-3.4V36.32h3.4Zm-3.6-15.961a1.668,1.668,0,0,1,.51-1.254,2.2,2.2,0,0,1,2.771,0,1.79,1.79,0,0,1-.006,2.52,2.172,2.172,0,0,1-2.754,0A1.663,1.663,0,0,1,59.711,33.039ZM71.371,46.5a2.221,2.221,0,0,0,1.523-.516,1.807,1.807,0,0,0,.609-1.371H76.68a4.344,4.344,0,0,1-.7,2.361,4.64,4.64,0,0,1-1.893,1.664,5.923,5.923,0,0,1-2.654.592,5.5,5.5,0,0,1-4.289-1.729,6.84,6.84,0,0,1-1.57-4.775v-.223a6.762,6.762,0,0,1,1.559-4.676,5.441,5.441,0,0,1,4.277-1.746,5.333,5.333,0,0,1,3.814,1.354,4.792,4.792,0,0,1,1.459,3.6H73.5a2.327,2.327,0,0,0-.609-1.608,2.265,2.265,0,0,0-3.334.244,5,5,0,0,0-.6,2.8v.352a5.063,5.063,0,0,0,.6,2.817A2.065,2.065,0,0,0,71.371,46.5ZM85.961,49a3.761,3.761,0,0,1-.34-1.137,4.1,4.1,0,0,1-3.2,1.371,4.5,4.5,0,0,1-3.088-1.078,3.467,3.467,0,0,1-1.225-2.719A3.583,3.583,0,0,1,79.6,42.344a7.373,7.373,0,0,1,4.318-1.09H85.48v-.727a2.089,2.089,0,0,0-.451-1.406,1.775,1.775,0,0,0-1.424-.527,2.018,2.018,0,0,0-1.342.41,1.393,1.393,0,0,0-.486,1.125H78.391a3.4,3.4,0,0,1,.68-2.039,4.493,4.493,0,0,1,1.922-1.471,7,7,0,0,1,2.789-.533A5.534,5.534,0,0,1,87.5,37.264a4.12,4.12,0,0,1,1.377,3.311v5.5a6.062,6.062,0,0,0,.5,2.73V49Zm-2.8-2.355a2.917,2.917,0,0,0,1.383-.334,2.194,2.194,0,0,0,.938-.9v-2.18H84.215q-2.543,0-2.707,1.758l-.012.2a1.356,1.356,0,0,0,.445,1.043A1.73,1.73,0,0,0,83.16,46.645Zm13.77-4.1a7.52,7.52,0,0,1,.727-3.363,5.319,5.319,0,0,1,2.092-2.285,6.1,6.1,0,0,1,3.17-.809,5.774,5.774,0,0,1,4.189,1.57,6.3,6.3,0,0,1,1.811,4.266l.023.867a6.627,6.627,0,0,1-1.629,4.682,6.313,6.313,0,0,1-8.748.006A6.744,6.744,0,0,1,96.93,42.7Zm3.387.24a4.74,4.74,0,0,0,.68,2.764,2.442,2.442,0,0,0,3.867.012,5.186,5.186,0,0,0,.691-3.022,4.692,4.692,0,0,0-.691-2.746,2.248,2.248,0,0,0-1.945-.974,2.211,2.211,0,0,0-1.922.968A5.274,5.274,0,0,0,100.316,42.783Zm22.125-.006a7.6,7.6,0,0,1-1.33,4.693,4.264,4.264,0,0,1-3.592,1.764,3.95,3.95,0,0,1-3.105-1.336v5.977h-3.387V36.32h3.141l.117,1.242a3.98,3.98,0,0,1,3.211-1.477,4.294,4.294,0,0,1,3.645,1.734,7.811,7.811,0,0,1,1.3,4.781Zm-3.387-.258a5.018,5.018,0,0,0-.627-2.739,2.04,2.04,0,0,0-1.822-.964,2.217,2.217,0,0,0-2.191,1.222v5.207a2.254,2.254,0,0,0,2.215,1.258Q119.055,46.5,119.055,42.519Zm11.32,6.715a6.225,6.225,0,0,1-4.541-1.711,6.082,6.082,0,0,1-1.752-4.559v-.328a7.66,7.66,0,0,1,.738-3.416,5.418,5.418,0,0,1,2.092-2.32A5.871,5.871,0,0,1,130,36.086a5.262,5.262,0,0,1,4.1,1.641,6.667,6.667,0,0,1,1.494,4.652v1.383h-8.074a3.146,3.146,0,0,0,.99,1.992,2.993,2.993,0,0,0,2.092.75,3.656,3.656,0,0,0,3.059-1.418l1.664,1.863a5.084,5.084,0,0,1-2.062,1.682A6.767,6.767,0,0,1,130.375,49.234Zm-.387-10.418a2.116,2.116,0,0,0-1.635.683,3.535,3.535,0,0,0-.8,1.954h4.711v-.271a2.521,2.521,0,0,0-.609-1.748A2.183,2.183,0,0,0,129.988,38.816Zm14.648.68a9.2,9.2,0,0,0-1.219-.094,2.481,2.481,0,0,0-2.52,1.3V49h-3.387V36.32h3.2l.094,1.512a3.138,3.138,0,0,1,2.824-1.746,3.549,3.549,0,0,1,1.055.152Zm8.625,9.5a3.761,3.761,0,0,1-.34-1.137,4.1,4.1,0,0,1-3.2,1.371,4.5,4.5,0,0,1-3.088-1.078,3.467,3.467,0,0,1-1.225-2.719,3.583,3.583,0,0,1,1.494-3.094,7.373,7.373,0,0,1,4.318-1.09h1.559v-.727a2.089,2.089,0,0,0-.451-1.406,1.775,1.775,0,0,0-1.424-.527,2.018,2.018,0,0,0-1.342.41,1.393,1.393,0,0,0-.486,1.125h-3.387a3.4,3.4,0,0,1,.68-2.039,4.493,4.493,0,0,1,1.922-1.471,7,7,0,0,1,2.789-.533,5.534,5.534,0,0,1,3.721,1.178,4.12,4.12,0,0,1,1.377,3.311v5.5a6.062,6.062,0,0,0,.5,2.73V49Zm-2.8-2.355a2.917,2.917,0,0,0,1.383-.334,2.194,2.194,0,0,0,.938-.9v-2.18h-1.266q-2.543,0-2.707,1.758l-.012.2a1.356,1.356,0,0,0,.445,1.043A1.73,1.73,0,0,0,150.461,46.645ZM165.906,39.5a9.2,9.2,0,0,0-1.219-.094,2.481,2.481,0,0,0-2.52,1.3V49h-3.387V36.32h3.2l.094,1.512a3.138,3.138,0,0,1,2.824-1.746,3.549,3.549,0,0,1,1.055.152Zm5.2,9.5h-3.4V36.32h3.4Zm-3.6-15.961a1.668,1.668,0,0,1,.51-1.254,2.2,2.2,0,0,1,2.771,0,1.79,1.79,0,0,1-.006,2.52,2.172,2.172,0,0,1-2.754,0A1.663,1.663,0,0,1,167.512,33.039Zm5.859,9.5a7.52,7.52,0,0,1,.727-3.363,5.319,5.319,0,0,1,2.092-2.285,6.1,6.1,0,0,1,3.17-.809,5.774,5.774,0,0,1,4.189,1.57,6.3,6.3,0,0,1,1.811,4.266l.023.867a6.627,6.627,0,0,1-1.629,4.682,6.313,6.313,0,0,1-8.748.006,6.744,6.744,0,0,1-1.635-4.781Zm3.387.24a4.74,4.74,0,0,0,.68,2.764,2.442,2.442,0,0,0,3.867.012A5.186,5.186,0,0,0,182,42.537a4.692,4.692,0,0,0-.691-2.746,2.248,2.248,0,0,0-1.945-.974,2.211,2.211,0,0,0-1.922.968A5.274,5.274,0,0,0,176.758,42.783ZM67.82,75a3.761,3.761,0,0,1-.34-1.137,4.1,4.1,0,0,1-3.2,1.371,4.5,4.5,0,0,1-3.088-1.078,3.467,3.467,0,0,1-1.225-2.719,3.583,3.583,0,0,1,1.494-3.094,7.373,7.373,0,0,1,4.318-1.09H67.34v-.727a2.089,2.089,0,0,0-.451-1.406,1.775,1.775,0,0,0-1.424-.527,2.018,2.018,0,0,0-1.342.41,1.393,1.393,0,0,0-.486,1.125H60.25a3.4,3.4,0,0,1,.68-2.039,4.493,4.493,0,0,1,1.922-1.471,7,7,0,0,1,2.789-.533,5.534,5.534,0,0,1,3.721,1.178,4.12,4.12,0,0,1,1.377,3.311v5.5a6.062,6.062,0,0,0,.5,2.73V75Zm-2.8-2.355a2.917,2.917,0,0,0,1.383-.334,2.194,2.194,0,0,0,.938-.9v-2.18H66.074q-2.543,0-2.707,1.758l-.012.2a1.356,1.356,0,0,0,.445,1.043A1.73,1.73,0,0,0,65.02,72.645Zm15.914,1.066a4.247,4.247,0,0,1-3.469,1.523,4.005,4.005,0,0,1-3.111-1.172,5,5,0,0,1-1.1-3.434V62.32h3.387v8.2q0,1.983,1.8,1.983a2.445,2.445,0,0,0,2.367-1.2V62.32h3.4V75H81.027ZM91.6,66.105,93.73,62.32h3.621l-3.609,6.211L97.5,75H93.871l-2.262-3.984L89.359,75H85.715l3.762-6.469-3.6-6.211h3.633ZM102.555,75h-3.4V62.32h3.4Zm-3.6-15.961a1.668,1.668,0,0,1,.51-1.254,2.2,2.2,0,0,1,2.771,0,1.79,1.79,0,0,1-.006,2.52,2.172,2.172,0,0,1-2.754,0A1.663,1.663,0,0,1,98.957,59.039ZM108.918,75h-3.4V57h3.4Zm6.363,0h-3.4V62.32h3.4Zm-3.6-15.961a1.668,1.668,0,0,1,.51-1.254,2.2,2.2,0,0,1,2.771,0,1.79,1.79,0,0,1-.006,2.52,2.172,2.172,0,0,1-2.754,0A1.663,1.663,0,0,1,111.684,59.039ZM125.418,75a3.761,3.761,0,0,1-.34-1.137,4.1,4.1,0,0,1-3.2,1.371,4.5,4.5,0,0,1-3.088-1.078,3.467,3.467,0,0,1-1.225-2.719,3.583,3.583,0,0,1,1.494-3.094,7.373,7.373,0,0,1,4.318-1.09h1.559v-.727a2.089,2.089,0,0,0-.451-1.406,1.775,1.775,0,0,0-1.424-.527,2.018,2.018,0,0,0-1.342.41,1.393,1.393,0,0,0-.486,1.125h-3.387a3.4,3.4,0,0,1,.68-2.039,4.493,4.493,0,0,1,1.922-1.471,7,7,0,0,1,2.789-.533,5.534,5.534,0,0,1,3.721,1.178,4.12,4.12,0,0,1,1.377,3.311v5.5a6.062,6.062,0,0,0,.5,2.73V75Zm-2.8-2.355A2.917,2.917,0,0,0,124,72.311a2.194,2.194,0,0,0,.938-.9v-2.18h-1.266q-2.543,0-2.707,1.758l-.012.2a1.356,1.356,0,0,0,.445,1.043A1.73,1.73,0,0,0,122.617,72.645ZM138.063,65.5a9.2,9.2,0,0,0-1.219-.094,2.481,2.481,0,0,0-2.52,1.3V75h-3.387V62.32h3.2l.094,1.512a3.138,3.138,0,0,1,2.824-1.746,3.549,3.549,0,0,1,1.055.152Z" transform="translate(548.719 4654.145)" fill="#12263f"/>
    <path id="Trazado_181557" data-name="Trazado 181557" d="M24.393,17.316a6.038,6.038,0,0,1-2.033,4.336,7.141,7.141,0,0,1-4.834,1.582,6.421,6.421,0,0,1-5.162-2.209,9.058,9.058,0,0,1-1.881-6.064V13.918a10.228,10.228,0,0,1,.867-4.336,6.5,6.5,0,0,1,2.479-2.877,6.943,6.943,0,0,1,3.744-1A6.956,6.956,0,0,1,22.33,7.285a6.488,6.488,0,0,1,2.086,4.441H20.9a3.563,3.563,0,0,0-.92-2.4,3.407,3.407,0,0,0-2.408-.744,2.987,2.987,0,0,0-2.631,1.26,7.06,7.06,0,0,0-.9,3.908v1.289a7.556,7.556,0,0,0,.838,4.043,2.932,2.932,0,0,0,2.643,1.277,3.471,3.471,0,0,0,2.432-.744,3.361,3.361,0,0,0,.92-2.3Zm1.559-.773a7.52,7.52,0,0,1,.727-3.363,5.319,5.319,0,0,1,2.092-2.285,6.1,6.1,0,0,1,3.17-.809,5.774,5.774,0,0,1,4.189,1.57,6.3,6.3,0,0,1,1.811,4.266l.023.867a6.627,6.627,0,0,1-1.629,4.682,5.662,5.662,0,0,1-4.371,1.764,5.69,5.69,0,0,1-4.377-1.758A6.744,6.744,0,0,1,25.951,16.7Zm3.387.24a4.74,4.74,0,0,0,.68,2.764,2.442,2.442,0,0,0,3.867.012,5.186,5.186,0,0,0,.691-3.022,4.692,4.692,0,0,0-.691-2.746,2.248,2.248,0,0,0-1.945-.974,2.211,2.211,0,0,0-1.922.968A5.274,5.274,0,0,0,29.338,16.783ZM43.225,10.32l.105,1.418a4.456,4.456,0,0,1,3.645-1.652,3.382,3.382,0,0,1,3.363,1.934,4.354,4.354,0,0,1,3.809-1.934,3.782,3.782,0,0,1,3.07,1.2A5.521,5.521,0,0,1,58.225,14.9V23h-3.4V14.9a2.424,2.424,0,0,0-.422-1.58,1.867,1.867,0,0,0-1.488-.5,2.114,2.114,0,0,0-2.109,1.456L50.818,23H47.432V14.907A2.394,2.394,0,0,0,47,13.31a1.885,1.885,0,0,0-1.477-.493,2.194,2.194,0,0,0-2.086,1.2V23H40.049V10.32ZM72.24,16.777a7.6,7.6,0,0,1-1.33,4.693,4.264,4.264,0,0,1-3.592,1.764A3.95,3.95,0,0,1,64.213,21.9v5.977H60.826V10.32h3.141l.117,1.242a3.98,3.98,0,0,1,3.211-1.477,4.294,4.294,0,0,1,3.645,1.734,7.811,7.811,0,0,1,1.3,4.781Zm-3.387-.258a5.018,5.018,0,0,0-.627-2.739,2.04,2.04,0,0,0-1.822-.964,2.217,2.217,0,0,0-2.191,1.222v5.207A2.254,2.254,0,0,0,66.428,20.5Q68.854,20.5,68.854,16.519ZM77.912,23h-3.4V5h3.4Zm8.625.234A6.225,6.225,0,0,1,82,21.523a6.082,6.082,0,0,1-1.752-4.559v-.328a7.66,7.66,0,0,1,.738-3.416,5.418,5.418,0,0,1,2.092-2.32,5.871,5.871,0,0,1,3.088-.814,5.262,5.262,0,0,1,4.1,1.641,6.667,6.667,0,0,1,1.494,4.652v1.383H83.678a3.146,3.146,0,0,0,.99,1.992,2.993,2.993,0,0,0,2.092.75,3.656,3.656,0,0,0,3.059-1.418l1.664,1.863a5.084,5.084,0,0,1-2.062,1.682A6.767,6.767,0,0,1,86.537,23.234ZM86.15,12.816a2.116,2.116,0,0,0-1.635.683,3.535,3.535,0,0,0-.8,1.954h4.711v-.271a2.521,2.521,0,0,0-.609-1.748A2.183,2.183,0,0,0,86.15,12.816Zm10.7-2.5.105,1.418a4.456,4.456,0,0,1,3.645-1.652,3.382,3.382,0,0,1,3.363,1.934,4.354,4.354,0,0,1,3.809-1.934,3.782,3.782,0,0,1,3.07,1.2A5.521,5.521,0,0,1,111.85,14.9V23h-3.4V14.9a2.424,2.424,0,0,0-.422-1.58,1.867,1.867,0,0,0-1.488-.5,2.114,2.114,0,0,0-2.109,1.456L104.443,23h-3.387V14.907a2.394,2.394,0,0,0-.434-1.6,1.885,1.885,0,0,0-1.477-.493,2.194,2.194,0,0,0-2.086,1.2V23H93.674V10.32Zm23.438,12.914a6.225,6.225,0,0,1-4.541-1.711,6.082,6.082,0,0,1-1.752-4.559v-.328a7.66,7.66,0,0,1,.738-3.416,5.418,5.418,0,0,1,2.092-2.32,5.871,5.871,0,0,1,3.088-.814,5.262,5.262,0,0,1,4.1,1.641,6.667,6.667,0,0,1,1.494,4.652v1.383h-8.074a3.146,3.146,0,0,0,.99,1.992,2.993,2.993,0,0,0,2.092.75,3.656,3.656,0,0,0,3.059-1.418l1.664,1.863a5.084,5.084,0,0,1-2.062,1.682A6.767,6.767,0,0,1,120.287,23.234ZM119.9,12.816a2.116,2.116,0,0,0-1.635.683,3.535,3.535,0,0,0-.8,1.954h4.711v-.271a2.521,2.521,0,0,0-.609-1.748A2.183,2.183,0,0,0,119.9,12.816Zm10.641-2.5.105,1.465a4.427,4.427,0,0,1,3.645-1.7,3.679,3.679,0,0,1,3,1.184,5.522,5.522,0,0,1,1.008,3.539V23h-3.387V14.872a2.206,2.206,0,0,0-.469-1.568,2.1,2.1,0,0,0-1.559-.487,2.329,2.329,0,0,0-2.145,1.221V23h-3.387V10.32ZM144.92,7.2V10.32h2.168V12.8H144.92v6.328a1.511,1.511,0,0,0,.27,1.008,1.354,1.354,0,0,0,1.031.3,5.4,5.4,0,0,0,1-.082V22.93a6.972,6.972,0,0,1-2.051.3q-3.562,0-3.633-3.6V12.8h-1.852V10.32h1.852V7.2Zm11.4,15.8a3.761,3.761,0,0,1-.34-1.137,4.1,4.1,0,0,1-3.2,1.371,4.5,4.5,0,0,1-3.088-1.078,3.467,3.467,0,0,1-1.225-2.719,3.583,3.583,0,0,1,1.494-3.094,7.373,7.373,0,0,1,4.318-1.09h1.559v-.727a2.089,2.089,0,0,0-.451-1.406,1.775,1.775,0,0,0-1.424-.527,2.018,2.018,0,0,0-1.342.41,1.393,1.393,0,0,0-.486,1.125h-3.387a3.4,3.4,0,0,1,.68-2.039,4.493,4.493,0,0,1,1.922-1.471,7,7,0,0,1,2.789-.533,5.534,5.534,0,0,1,3.721,1.178,4.12,4.12,0,0,1,1.377,3.311v5.5a6.062,6.062,0,0,0,.5,2.73V23Zm-2.8-2.355a2.917,2.917,0,0,0,1.383-.334,2.194,2.194,0,0,0,.938-.9v-2.18h-1.266q-2.543,0-2.707,1.758l-.012.2a1.356,1.356,0,0,0,.445,1.043A1.73,1.73,0,0,0,153.521,20.645ZM168.967,13.5a9.2,9.2,0,0,0-1.219-.094,2.481,2.481,0,0,0-2.52,1.3V23h-3.387V10.32h3.2l.094,1.512a3.138,3.138,0,0,1,2.824-1.746,3.549,3.549,0,0,1,1.055.152Zm5.2,9.5h-3.4V10.32h3.4Zm-3.6-15.961a1.668,1.668,0,0,1,.51-1.254,2.2,2.2,0,0,1,2.771,0,1.658,1.658,0,0,1,.516,1.254,1.663,1.663,0,0,1-.521,1.266,2.172,2.172,0,0,1-2.754,0A1.663,1.663,0,0,1,170.572,7.039ZM184.307,23a3.761,3.761,0,0,1-.34-1.137,4.1,4.1,0,0,1-3.2,1.371,4.5,4.5,0,0,1-3.088-1.078,3.467,3.467,0,0,1-1.225-2.719,3.583,3.583,0,0,1,1.494-3.094,7.373,7.373,0,0,1,4.318-1.09h1.559v-.727a2.089,2.089,0,0,0-.451-1.406,1.775,1.775,0,0,0-1.424-.527,2.018,2.018,0,0,0-1.342.41,1.393,1.393,0,0,0-.486,1.125h-3.387a3.4,3.4,0,0,1,.68-2.039,4.493,4.493,0,0,1,1.922-1.471,7,7,0,0,1,2.789-.533,5.534,5.534,0,0,1,3.721,1.178,4.12,4.12,0,0,1,1.377,3.311v5.5a6.062,6.062,0,0,0,.5,2.73V23Zm-2.8-2.355a2.917,2.917,0,0,0,1.383-.334,2.194,2.194,0,0,0,.938-.9v-2.18h-1.266q-2.543,0-2.707,1.758l-.012.2a1.356,1.356,0,0,0,.445,1.043A1.73,1.73,0,0,0,181.506,20.645Z" transform="translate(549 4876.5)" fill="#12263f"/>
    <g id="Grupo_120330" data-name="Grupo 120330" transform="translate(0 -63.5)">
      <text id="instructor_técnico." data-name="instructor técnico." transform="translate(826 4956)" fill="#12263f" font-size="20" font-family="Roboto-Regular, Roboto" opacity="0.81"><tspan x="0" y="19">instructor técnico.</tspan></text>
      <text id="instructor_líder." data-name="instructor líder." transform="translate(826 4923)" fill="#12263f" font-size="20" font-family="Roboto-Regular, Roboto" opacity="0.81"><tspan x="0" y="19">instructor líder.</tspan></text>
      <rect id="Rectángulo_36690" data-name="Rectángulo 36690" width="25" height="25" transform="translate(794 4923)" fill="#ff6b00"/>
      <rect id="Rectángulo_36691" data-name="Rectángulo 36691" width="25" height="25" transform="translate(794 4956)" fill="#ff6b00"/>
      <text id="_1" data-name="1" transform="translate(807 4942)" fill="#f6f6f6" font-size="20" font-family="Roboto-Black, Roboto" font-weight="800" opacity="0.81"><tspan x="-5.791" y="0">1</tspan></text>
      <text id="_1-2" data-name="1" transform="translate(807 4975)" fill="#f6f6f6" font-size="20" font-family="Roboto-Black, Roboto" font-weight="800" opacity="0.81"><tspan x="-5.791" y="0">1</tspan></text>
    </g>
    <g id="Grupo_120331" data-name="Grupo 120331" transform="translate(0 -261.5)">
      <text id="instructores_técnicos." data-name="instructores técnicos." transform="translate(826 4956)" fill="#12263f" font-size="20" font-family="Roboto-Regular, Roboto" opacity="0.81"><tspan x="0" y="19">instructores técnicos.</tspan></text>
      <text id="instructor_líder.-2" data-name="instructor líder." transform="translate(826 4923)" fill="#12263f" font-size="20" font-family="Roboto-Regular, Roboto" opacity="0.81"><tspan x="0" y="19">instructor líder.</tspan></text>
      <rect id="Rectángulo_36690-2" data-name="Rectángulo 36690" width="25" height="25" transform="translate(794 4923)" fill="#ff6b00"/>
      <rect id="Rectángulo_36691-2" data-name="Rectángulo 36691" width="25" height="25" transform="translate(794 4956)" fill="#ff6b00"/>
      <text id="_1-3" data-name="1" transform="translate(807 4942)" fill="#f6f6f6" font-size="20" font-family="Roboto-Black, Roboto" font-weight="800" opacity="0.81"><tspan x="-5.791" y="0">1</tspan></text>
      <text id="_2" data-name="2" transform="translate(807 4975)" fill="#f6f6f6" font-size="20" font-family="Roboto-Black, Roboto" font-weight="800" opacity="0.81"><tspan x="-5.791" y="0">2</tspan></text>
    </g>
    <g id="Grupo_120332" data-name="Grupo 120332" transform="translate(0 -460.5)">
      <text id="instructores_técnicos.-2" data-name="instructores técnicos." transform="translate(826 4956)" fill="#12263f" font-size="20" font-family="Roboto-Regular, Roboto" opacity="0.81"><tspan x="0" y="19">instructores técnicos.</tspan></text>
      <text id="instructor_líder.-3" data-name="instructor líder." transform="translate(826 4923)" fill="#12263f" font-size="20" font-family="Roboto-Regular, Roboto" opacity="0.81"><tspan x="0" y="19">instructor líder.</tspan></text>
      <rect id="Rectángulo_36690-3" data-name="Rectángulo 36690" width="25" height="25" transform="translate(794 4923)" fill="#ff6b00"/>
      <rect id="Rectángulo_36691-3" data-name="Rectángulo 36691" width="25" height="25" transform="translate(794 4956)" fill="#ff6b00"/>
      <text id="_1-4" data-name="1" transform="translate(807 4942)" fill="#f6f6f6" font-size="20" font-family="Roboto-Black, Roboto" font-weight="800" opacity="0.81"><tspan x="-5.791" y="0">1</tspan></text>
      <text id="_3" data-name="3" transform="translate(807 4975)" fill="#f6f6f6" font-size="20" font-family="Roboto-Black, Roboto" font-weight="800" opacity="0.81"><tspan x="-5.791" y="0">3</tspan></text>
    </g>
    <g id="Grupo_120333" data-name="Grupo 120333" transform="translate(0 -662.5)">
      <text id="instructores_técnicos.-3" data-name="instructores técnicos." transform="translate(826 4956)" fill="#12263f" font-size="20" font-family="Roboto-Regular, Roboto" opacity="0.81"><tspan x="0" y="19">instructores técnicos.</tspan></text>
      <text id="instructor_líder.-4" data-name="instructor líder." transform="translate(826 4923)" fill="#12263f" font-size="20" font-family="Roboto-Regular, Roboto" opacity="0.81"><tspan x="0" y="19">instructor líder.</tspan></text>
      <rect id="Rectángulo_36690-4" data-name="Rectángulo 36690" width="25" height="25" transform="translate(794 4923)" fill="#ff6b00"/>
      <rect id="Rectángulo_36691-4" data-name="Rectángulo 36691" width="25" height="25" transform="translate(794 4956)" fill="#ff6b00"/>
      <text id="_1-5" data-name="1" transform="translate(807 4942)" fill="#f6f6f6" font-size="20" font-family="Roboto-Black, Roboto" font-weight="800" opacity="0.81"><tspan x="-5.791" y="0">1</tspan></text>
      <text id="_3-2" data-name="3" transform="translate(807 4975)" fill="#f6f6f6" font-size="20" font-family="Roboto-Black, Roboto" font-weight="800" opacity="0.81"><tspan x="-5.791" y="0">3</tspan></text>
    </g>
    <g id="Grupo_120334" data-name="Grupo 120334" transform="translate(0 -864.5)">
      <text id="instructores_técnicos.-4" data-name="instructores técnicos." transform="translate(826 4956)" fill="#12263f" font-size="20" font-family="Roboto-Regular, Roboto" opacity="0.81"><tspan x="0" y="19">instructores técnicos.</tspan></text>
      <text id="instructor_líder.-5" data-name="instructor líder." transform="translate(826 4923)" fill="#12263f" font-size="20" font-family="Roboto-Regular, Roboto" opacity="0.81"><tspan x="0" y="19">instructor líder.</tspan></text>
      <rect id="Rectángulo_36690-5" data-name="Rectángulo 36690" width="25" height="25" transform="translate(794 4923)" fill="#ff6b00"/>
      <rect id="Rectángulo_36691-5" data-name="Rectángulo 36691" width="25" height="25" transform="translate(794 4956)" fill="#ff6b00"/>
      <text id="_1-6" data-name="1" transform="translate(807 4942)" fill="#f6f6f6" font-size="20" font-family="Roboto-Black, Roboto" font-weight="800" opacity="0.81"><tspan x="-5.791" y="0">1</tspan></text>
      <text id="_4" data-name="4" transform="translate(807 4975)" fill="#f6f6f6" font-size="20" font-family="Roboto-Black, Roboto" font-weight="800" opacity="0.81"><tspan x="-5.791" y="0">4</tspan></text>
    </g>
  </g>
</svg>
