<svg xmlns="http://www.w3.org/2000/svg" width="81.965" height="69.408" viewBox="0 0 81.965 69.408">
  <g id="Grupo_120154" data-name="Grupo 120154" transform="translate(0)">
    <path id="Trazado_180231" data-name="Trazado 180231" d="M-689.4,1772.858a1.351,1.351,0,0,1-1.553,1.15c-3.68-.024-7.36.009-11.04-.028-.64-.006-.805.221-.879.792a7.7,7.7,0,0,0,2.631,7.026,1.644,1.644,0,0,0,1.347.526,6.705,6.705,0,0,1,1.278.009,3.767,3.767,0,0,1,3.591,2.68c.181.556.429,1.09.6,1.649a1.735,1.735,0,0,1-1.6,2.32c-.159.015-.32.007-.48.007q-15.36,0-30.72,0a2.142,2.142,0,0,1-1.694-.544,1.524,1.524,0,0,1-.465-1.46,11.033,11.033,0,0,1,1.094-2.9,3.9,3.9,0,0,1,3.069-1.764c.82-.112,1.717.309,2.462-.311a8.1,8.1,0,0,0,2.671-3.9,8.467,8.467,0,0,0,.209-3.407c-.059-.551-.273-.726-.855-.724-9.093.022-18.187-.014-27.28.036-2.3.013-3.915-.789-4.712-3.007-.013-.036-.083-.051-.126-.075v-48.189c.23-.073.187-.307.251-.464a4.094,4.094,0,0,1,3.727-2.69c.212-.017.426-.009.64-.009H-674.5c2.442,0,4.078,1.194,4.525,3.321a5.449,5.449,0,0,1,.085,1.112q.006,22.766,0,45.531A4.1,4.1,0,0,1-674.3,1774c-3.761,0-7.521-.008-11.282.008a1.283,1.283,0,0,1-1.463-1.145c.208-.989.54-1.259,1.594-1.263q5.539-.023,11.077-.039c1.415.084,2.078-.534,2.082-1.96.006-2.295,0-4.589,0-6.884,0-1.766,0-1.766-1.765-1.66-.239-.01-.478-.029-.717-.029q-36.9,0-73.8,0c-.239,0-.479.016-.718.025-.111-.033-.148.014-.129.12q-.015,4.158-.028,8.315c0,1.55.565,2.11,2.129,2.11q8.277,0,16.555,0h39.588C-689.955,1771.595-689.66,1771.807-689.4,1772.858Zm-56.776-22.133c.941.244,1.2.556,1.207,1.493.007,1.868.038,3.737-.016,5.6-.02.692.2.813.842.813q33.257-.029,66.515,0c.7,0,.872-.16.87-.867q-.04-15.169,0-30.338c0-.747-.143-.972-.94-.971q-33.177.034-66.355,0c-.7,0-.937.131-.933.9.035,6.484.021,12.967.019,19.451,0,1.011-.213,1.279-1.21,1.583-.982-.312-1.19-.583-1.191-1.6q0-10.444,0-20.887c0-1.493.344-1.844,1.821-1.844h69.381c1.437,0,1.8.362,1.8,1.785q0,15.766,0,31.531a4.931,4.931,0,0,1,0,.56c-.057.5.091.77.649.682a1.776,1.776,0,0,1,.559,0c.712.12.885-.171.881-.873-.032-4.989-.017-9.977-.017-14.965q0-9.363,0-18.727a1.8,1.8,0,0,0-1.983-2.062c-.24-.009-.48-.009-.72-.009h-72.181c-1.655,0-2.263.612-2.263,2.264q0,16.526,0,33.052c0,1.349,0,1.323,1.365,1.34.55.007.736-.14.726-.712-.034-1.893-.017-3.788-.011-5.682C-747.364,1751.294-747.089,1750.959-746.175,1750.725Zm43.058,31.563a9.792,9.792,0,0,1-2.154-7.7c.095-.577-.19-.586-.619-.584-3.253.011-6.506.029-9.759-.012-.717-.009-.895.153-.807.876a9.489,9.489,0,0,1-1.868,7c-.084.114-.26.21-.16.422Zm6.993,4.295c-.2-1.439-.656-1.864-2.014-1.865q-8.159-.006-16.319,0-4.56,0-9.119,0a2.219,2.219,0,0,0-1.373.327,1.526,1.526,0,0,0-.638,1.388c.049.359.646.143.986.143q13.8.021,27.6.011Z" transform="translate(751.85 -1719.581)" fill="#020202"/>
    <path id="Trazado_180232" data-name="Trazado 180232" d="M-680.569,1925.106c-.261-1.05-.556-1.263-1.775-1.263h-39.588q-8.278,0-16.555,0c-1.564,0-2.132-.56-2.129-2.11q.007-4.158.028-8.315l.129-.12c.24-.009.479-.025.718-.025q36.9,0,73.8,0c.239,0,.478.019.717.029,0,1.494.05,2.99-.007,4.481-.077,2.008.313,4.043-.312,6.023q-5.539.019-11.077.039c-1.054,0-1.386.274-1.594,1.263Zm-21.506-5.329c.506,0,1.014.029,1.517-.007a1.227,1.227,0,0,0,1.22-1.226,1.2,1.2,0,0,0-1.267-1.159q-1.437-.033-2.875,0a1.2,1.2,0,0,0-1.259,1.167,1.226,1.226,0,0,0,1.228,1.218C-703.035,1919.8-702.554,1919.777-702.075,1919.776Z" transform="translate(743.02 -1871.829)" fill="#e8e8e8"/>
    <path id="Trazado_180233" data-name="Trazado 180233" d="M-725.336,1773.63c1-.3,1.21-.572,1.21-1.583,0-6.484.016-12.968-.019-19.451,0-.765.235-.9.933-.9q33.177.029,66.355,0c.8,0,.942.224.94.971q-.039,15.169,0,30.338c0,.707-.169.867-.87.867q-33.257-.028-66.515,0c-.644,0-.862-.12-.842-.813.054-1.866.023-3.735.016-5.6,0-.937-.266-1.249-1.207-1.493Q-725.335,1774.8-725.336,1773.63Zm55.812-.649c.162.031.265.045.365.071a4.077,4.077,0,0,0,4.7-1.615,4.045,4.045,0,0,0-.174-4.706,4.05,4.05,0,0,0-4.727-1.286.662.662,0,0,1-.645-.037,1.178,1.178,0,0,0-1.911,1.075c-.022,3.009-.015,6.018,0,9.027a1.19,1.19,0,0,0,1.178,1.329c.744.015,1.2-.486,1.217-1.357C-669.515,1774.661-669.524,1773.84-669.524,1772.981Zm-27.2-5.193c0,1.545-.02,3.091.007,4.635a1.2,1.2,0,0,0,1.644,1.252,1.259,1.259,0,0,0,.758-1.281,22.443,22.443,0,0,1,.109-3.826c.129-.654.465-1.179,1.219-1.125s.706.707.724,1.217c.045,1.277.016,2.557.061,3.835a1.2,1.2,0,0,0,1.248,1.27,1.179,1.179,0,0,0,1.142-1.285c.007-1.464.023-2.934-.084-4.393a3.12,3.12,0,0,0-2.81-3.081c-.545-.09-1.253.485-1.561-.117a4.135,4.135,0,0,1-.055-1.734,1.153,1.153,0,0,0-.874-1.264c-.838-.233-1.51.341-1.524,1.341C-696.736,1764.75-696.721,1766.269-696.72,1767.788Zm10.715,2.066c0,.827-.01,1.654,0,2.481.015.91.507,1.459,1.256,1.43.712-.027,1.138-.553,1.142-1.446.008-1.627.01-3.254,0-4.881,0-.426,0-.725.567-.818a1.036,1.036,0,0,0,.826-1.132,1.017,1.017,0,0,0-.793-1.077c-.594-.1-.648-.4-.6-.865a3.191,3.191,0,0,0,0-.559,1.11,1.11,0,0,0-1.113-1.137,1.126,1.126,0,0,0-1.246,1,4.678,4.678,0,0,0-.034.957c0,.276.013.483-.38.547a1.073,1.073,0,0,0-.952,1.112,1.1,1.1,0,0,0,.938,1.209c.356.078.4.24.4.541C-686.014,1768.093-686.005,1768.973-686,1769.854Zm8.471-.016c0,.8,0,1.6,0,2.4.007.979.466,1.546,1.227,1.531.736-.014,1.17-.559,1.173-1.5.005-1.624.01-3.248,0-4.873,0-.4.014-.669.525-.757a1.057,1.057,0,0,0,.862-1.109,1.063,1.063,0,0,0-.9-1.157c-.509-.075-.5-.336-.484-.7a4.815,4.815,0,0,0-.008-.718,1.142,1.142,0,0,0-1.141-1.115,1.173,1.173,0,0,0-1.238,1.1,5.962,5.962,0,0,0-.011.878c.01.289-.012.471-.393.53a1.068,1.068,0,0,0-.946,1.114,1.1,1.1,0,0,0,.939,1.206c.35.074.407.223.4.529C-677.544,1768.08-677.534,1768.959-677.533,1769.838Zm-33.015,2.825a1.277,1.277,0,0,0,1.158-.714c1.491-2.332,2.993-4.657,4.478-6.992.483-.76.385-1.415-.222-1.825-.629-.425-1.3-.23-1.809.552-.914,1.406-1.815,2.82-2.719,4.232-.617.964-1.258,1.913-1.838,2.9A1.169,1.169,0,0,0-710.549,1772.662Zm5.182,0a1.272,1.272,0,0,0,1.157-.716c1.491-2.33,2.993-4.653,4.479-6.987a1.243,1.243,0,0,0-.228-1.832c-.625-.42-1.294-.222-1.807.564-.786,1.2-1.556,2.414-2.332,3.623-.733,1.141-1.482,2.273-2.19,3.43A1.184,1.184,0,0,0-705.367,1772.662Zm-8.5-7.388a1.177,1.177,0,0,0-1.19-1.292,1.2,1.2,0,0,0-1.207,1.209,1.252,1.252,0,0,0,1.163,1.351A1.219,1.219,0,0,0-713.871,1765.274Zm0,5.045a1.171,1.171,0,0,0-1.246-1.234,1.2,1.2,0,0,0-1.153,1.26,1.241,1.241,0,0,0,1.219,1.3A1.226,1.226,0,0,0-713.87,1770.319Z" transform="translate(731.009 -1744.828)" fill="#ffb580"/>
    <path id="Trazado_180234" data-name="Trazado 180234" d="M-737.351,1757.16q0,1.171,0,2.342c-.914.234-1.189.569-1.192,1.509-.007,1.894-.023,3.788.011,5.682.01.572-.176.718-.726.712-1.365-.017-1.365.009-1.365-1.34q0-16.526,0-33.052c0-1.653.608-2.264,2.263-2.264h72.181c.24,0,.48,0,.72.009a1.8,1.8,0,0,1,1.983,2.062q0,9.363,0,18.727c0,4.989-.015,9.977.017,14.965,0,.7-.168.993-.881.873a1.779,1.779,0,0,0-.559,0c-.559.088-.706-.187-.649-.682a4.931,4.931,0,0,0,0-.56q0-15.766,0-31.531c0-1.424-.363-1.785-1.8-1.785h-69.381c-1.477,0-1.821.35-1.821,1.844q0,10.444,0,20.887C-738.541,1756.577-738.333,1756.848-737.351,1757.16Z" transform="translate(743.024 -1728.358)" fill="#a757f7"/>
    <path id="Trazado_180235" data-name="Trazado 180235" d="M-580.638,1982.193H-596c-.1-.212.076-.308.16-.422a9.489,9.489,0,0,0,1.868-7c-.088-.723.09-.885.807-.876,3.253.041,6.506.023,9.759.012.429,0,.714.007.619.584A9.792,9.792,0,0,0-580.638,1982.193Z" transform="translate(629.372 -1919.486)" fill="#afafaf"/>
    <path id="Trazado_180236" data-name="Trazado 180236" d="M-599.672,2025.87h-.879q-13.8,0-27.6-.011c-.34,0-.938.216-.986-.143a1.527,1.527,0,0,1,.638-1.388,2.219,2.219,0,0,1,1.373-.327q4.56.008,9.119,0,8.159,0,16.319,0C-600.328,2024.006-599.87,2024.431-599.672,2025.87Z" transform="translate(655.4 -1958.868)" fill="#e8e8e8"/>
    <path id="Trazado_180237" data-name="Trazado 180237" d="M-389.726,1923.776c.625-1.98.235-4.015.312-6.023.057-1.492.008-2.987.007-4.481,1.765-.105,1.765-.105,1.765,1.66,0,2.295,0,4.589,0,6.884C-387.648,1923.242-388.311,1923.859-389.726,1923.776Z" transform="translate(467.205 -1871.801)" fill="#c0d3e2"/>
    <path id="Trazado_180238" data-name="Trazado 180238" d="M-740.374,1913.35l-.129.12C-740.521,1913.364-740.485,1913.317-740.374,1913.35Z" transform="translate(742.934 -1871.884)" fill="#c0d3e2"/>
    <path id="Trazado_180239" data-name="Trazado 180239" d="M-570.266,1934.834c-.479,0-.96.028-1.437-.006a1.226,1.226,0,0,1-1.227-1.218,1.2,1.2,0,0,1,1.259-1.167q1.437-.034,2.875,0a1.2,1.2,0,0,1,1.267,1.159,1.227,1.227,0,0,1-1.22,1.226C-569.252,1934.863-569.76,1934.833-570.266,1934.834Z" transform="translate(611.211 -1886.886)" fill="#020202"/>
    <path id="Trazado_180240" data-name="Trazado 180240" d="M-473.331,1822.456c0,.859.01,1.68,0,2.5-.013.871-.473,1.372-1.217,1.357a1.19,1.19,0,0,1-1.178-1.329c-.013-3.009-.019-6.018,0-9.027a1.178,1.178,0,0,1,1.911-1.075.663.663,0,0,0,.645.037,4.05,4.05,0,0,1,4.727,1.286,4.045,4.045,0,0,1,.174,4.706,4.077,4.077,0,0,1-4.7,1.615C-473.066,1822.5-473.169,1822.487-473.331,1822.456Zm1.679-2.111a1.706,1.706,0,0,0,1.654-1.634,1.705,1.705,0,0,0-1.673-1.695,1.7,1.7,0,0,0-1.653,1.633A1.7,1.7,0,0,0-471.652,1820.345Z" transform="translate(534.815 -1794.303)" fill="#020202"/>
    <path id="Trazado_180241" data-name="Trazado 180241" d="M-591.616,1805.039c0-1.518-.015-3.037.005-4.555.013-1,.686-1.574,1.524-1.341a1.153,1.153,0,0,1,.874,1.264,4.134,4.134,0,0,0,.055,1.734c.308.6,1.016.026,1.561.117a3.12,3.12,0,0,1,2.811,3.081c.107,1.459.091,2.928.084,4.393a1.179,1.179,0,0,1-1.142,1.285,1.2,1.2,0,0,1-1.248-1.27c-.045-1.277-.016-2.557-.061-3.835-.018-.51.027-1.163-.724-1.217s-1.09.471-1.219,1.125a22.442,22.442,0,0,0-.11,3.826,1.259,1.259,0,0,1-.758,1.281,1.2,1.2,0,0,1-1.644-1.252C-591.635,1808.129-591.615,1806.584-591.616,1805.039Z" transform="translate(625.904 -1782.079)" fill="#020202"/>
    <path id="Trazado_180242" data-name="Trazado 180242" d="M-546.4,1807.129c0-.88-.009-1.76,0-2.641,0-.3-.04-.463-.4-.54a1.1,1.1,0,0,1-.938-1.21,1.072,1.072,0,0,1,.952-1.111c.393-.063.381-.271.38-.547a4.684,4.684,0,0,1,.034-.957,1.126,1.126,0,0,1,1.246-1,1.11,1.11,0,0,1,1.112,1.137,3.191,3.191,0,0,1,0,.559c-.05.467.005.77.6.865a1.017,1.017,0,0,1,.792,1.077,1.036,1.036,0,0,1-.826,1.132c-.565.093-.57.392-.567.818.013,1.627.01,3.254,0,4.881,0,.893-.43,1.418-1.142,1.446-.749.029-1.241-.52-1.256-1.43C-546.41,1808.782-546.4,1807.956-546.4,1807.129Z" transform="translate(591.404 -1782.103)" fill="#020202"/>
    <path id="Trazado_180243" data-name="Trazado 180243" d="M-506.826,1807.083c0-.879-.01-1.757.005-2.636.005-.306-.052-.455-.4-.529a1.1,1.1,0,0,1-.939-1.206,1.068,1.068,0,0,1,.946-1.114c.38-.06.4-.241.393-.53a5.976,5.976,0,0,1,.011-.878,1.173,1.173,0,0,1,1.238-1.1,1.143,1.143,0,0,1,1.141,1.115,4.825,4.825,0,0,1,.008.719c-.018.361-.025.622.484.7a1.063,1.063,0,0,1,.9,1.157,1.057,1.057,0,0,1-.862,1.109c-.511.088-.529.355-.525.757.015,1.624.01,3.248,0,4.872,0,.939-.437,1.484-1.173,1.5-.762.015-1.221-.553-1.227-1.531C-506.83,1808.681-506.826,1807.882-506.826,1807.083Z" transform="translate(560.301 -1782.073)" fill="#020202"/>
    <path id="Trazado_180244" data-name="Trazado 180244" d="M-660.466,1813.849a1.168,1.168,0,0,1-.952-1.849c.58-.986,1.221-1.935,1.838-2.9.9-1.412,1.805-2.826,2.719-4.232.509-.782,1.18-.976,1.809-.552.607.41.705,1.065.222,1.825-1.485,2.336-2.987,4.66-4.478,6.993A1.276,1.276,0,0,1-660.466,1813.849Z" transform="translate(680.926 -1786.015)" fill="#020202"/>
    <path id="Trazado_180245" data-name="Trazado 180245" d="M-636.243,1813.852a1.184,1.184,0,0,1-.922-1.919c.708-1.157,1.457-2.288,2.19-3.43.776-1.209,1.547-2.421,2.333-3.623.513-.785,1.183-.983,1.807-.563a1.242,1.242,0,0,1,.228,1.832c-1.486,2.333-2.988,4.657-4.479,6.987A1.272,1.272,0,0,1-636.243,1813.852Z" transform="translate(661.885 -1786.018)" fill="#020202"/>
    <path id="Trazado_180246" data-name="Trazado 180246" d="M-680.563,1810.4a1.218,1.218,0,0,1-1.234,1.268,1.252,1.252,0,0,1-1.163-1.351,1.2,1.2,0,0,1,1.207-1.209A1.177,1.177,0,0,1-680.563,1810.4Z" transform="translate(697.701 -1789.949)" fill="#020202"/>
    <path id="Trazado_180247" data-name="Trazado 180247" d="M-680.562,1834.185a1.226,1.226,0,0,1-1.18,1.323,1.241,1.241,0,0,1-1.219-1.3,1.2,1.2,0,0,1,1.153-1.26A1.171,1.171,0,0,1-680.562,1834.185Z" transform="translate(697.7 -1808.694)" fill="#020202"/>
    <path id="Trazado_180248" data-name="Trazado 180248" d="M-462.779,1829.07a1.7,1.7,0,0,1-1.672-1.695,1.7,1.7,0,0,1,1.653-1.633,1.705,1.705,0,0,1,1.673,1.695A1.706,1.706,0,0,1-462.779,1829.07Z" transform="translate(525.942 -1803.028)" fill="#ffb580"/>
  </g>
</svg>
