<svg xmlns="http://www.w3.org/2000/svg" width="368.745" height="219.497" viewBox="0 0 368.745 219.497">
  <g id="Grupo_120153" data-name="Grupo 120153" transform="translate(-175.429 -147.923)">
    <path id="Trazado_180050" data-name="Trazado 180050" d="M201.2,366.7s-38.947-10.98-21.088-61.258,51.832-28.588,42.015-72.559C209.185,174.9,264,135.47,324.263,151.53s44.112,33.91,114.931,15.934c86.336-21.915,93.618,69.26,73.594,99.546S567.448,301.662,536.6,366.7Z" transform="translate(0)" fill="#ffb580"/>
    <g id="Grupo_120097" data-name="Grupo 120097" transform="translate(466.272 233.986)">
      <path id="Trazado_180051" data-name="Trazado 180051" d="M2451.248,823.79s9.979-20.346,15.56-18.541S2451.248,823.79,2451.248,823.79Z" transform="translate(-2444.072 -805.136)" fill="#a757f7"/>
      <path id="Trazado_180052" data-name="Trazado 180052" d="M2396.444,887.286s23.9-23.431,33.194-19.158-5.662,8.855-11.365,10.1S2396.444,887.286,2396.444,887.286Z" transform="translate(-2396.444 -859.427)" fill="#a757f7"/>
    </g>
    <path id="Trazado_180053" data-name="Trazado 180053" d="M2400.488,1312.29c8.539-5.61.427-20.464.427-20.464s-19.92-5.362-21.334-8.358,17.926,1.259,17.926,1.259c-1.4-6.244-13.873-19.236-13.873-19.236s-18.813,7.248-19.446,4,16.985-5.568,16.985-5.568c-3.677-5.281-12.3-8.508-12.3-8.508-13.368-3.185-16.768,14.145-16.768,14.145a32.777,32.777,0,0,1-15.532.767h0a23.762,23.762,0,0,0-4.407-.622l.523,1.6c.471-.01.932,0,1.382.027a.009.009,0,0,1,.008,0h.019c.283.028.686.071,1.177.127h0c1.115.175,1.929.273,2.506.315h.005c3.477.479,8.073,1.3,9.353,2.441a3.276,3.276,0,0,1,.621-.582l-.621.582c-4.961,4.653-1.457,18.64,2.6,25.742s5.117,3.079,7.259-2.163-1.593-13.532-1.058-16.518,3.117.276,4.391,5.48-2.97,9.406-1.064,17.862,19.378,9.647,19.378,9.647c-3.613-5.086-3.817-16.262-1.992-17.292s6.557,14.067,7.91,16.217S2391.948,1317.9,2400.488,1312.29Z" transform="translate(-1874.309 -962.122)" fill="#7926cb"/>
    <g id="Grupo_120098" data-name="Grupo 120098" transform="translate(219.928 251.903)">
      <path id="Trazado_180054" data-name="Trazado 180054" d="M656.349,965.489s-12.586-25.663-19.626-23.385S656.349,965.489,656.349,965.489Z" transform="translate(-619.787 -941.961)" fill="#5a189a"/>
      <path id="Trazado_180055" data-name="Trazado 180055" d="M560.862,1045.577s-30.15-29.553-41.867-24.164,7.142,11.169,14.334,12.743S560.862,1045.577,560.862,1045.577Z" transform="translate(-515.249 -1010.438)" fill="#5a189a"/>
    </g>
    <path id="Trazado_180056" data-name="Trazado 180056" d="M429.451,1264.588c.155-8.979,15-9.933,15-9.933s13.343,12.278,16.233,11.921-9.358-12.725-9.358-12.725c5.3-1.9,20.808,1.267,20.808,1.267s3.456,17.381,6.169,16.324-3.845-15.234-3.845-15.234c5.651.25,12.1,5.141,12.1,5.141,8.648,8.434-2.629,19.1-2.629,19.1a28.812,28.812,0,0,0,6.728,11.9h0a20.9,20.9,0,0,1,2.533,2.982l-1.432.361q-.321-.532-.669-1.014a.008.008,0,0,0,0-.006l-.01-.014c-.154-.2-.374-.476-.647-.815h0v0c-.654-.746-1.109-1.3-1.411-1.714l0,0c-1.99-2.358-19.37,4.04-26.552,4.363s-4.692-2.355-1.8-6.409,10.8-5.175,12.768-6.975-1.669-2.186-6.134-.687-5.592,6.626-12.769,9.183-16.272-9.863-16.272-9.863c5.476.294,13.874-4.805,13.782-6.645s-13.531,1.739-15.764,1.744S429.3,1273.567,429.451,1264.588Z" transform="translate(-220.755 -960.58)" fill="#a757f7"/>
    <g id="Grupo_120100" data-name="Grupo 120100" transform="translate(249.456 216.05)">
      <path id="Trazado_180057" data-name="Trazado 180057" d="M850.924,818.175H744.906a4.176,4.176,0,0,1-4.17-4.182V672.353a4.175,4.175,0,0,1,4.327-4.179l110.032,5.074V813.993A4.176,4.176,0,0,1,850.924,818.175Z" transform="translate(-740.736 -668.171)" fill="#ff6b00"/>
      <path id="Trazado_180058" data-name="Trazado 180058" d="M1618.2,818.175h106.018a4.176,4.176,0,0,0,4.17-4.182V672.353a4.175,4.175,0,0,0-4.327-4.179l-110.032,5.074V813.993A4.176,4.176,0,0,0,1618.2,818.175Z" transform="translate(-1499.672 -668.171)" fill="#ff6b00"/>
      <path id="Trazado_180059" data-name="Trazado 180059" d="M774.127,715.11,770.69,717.9a2.1,2.1,0,0,0-.769,1.629V856.85a2.057,2.057,0,0,0,2.033,2.08h8.559a2.061,2.061,0,0,0,2.03-2.207Z" transform="translate(-766.099 -708.963)" fill="#ffd05c"/>
      <path id="Trazado_180060" data-name="Trazado 180060" d="M2371.752,715.11l3.438,2.792a2.1,2.1,0,0,1,.769,1.629V856.85a2.057,2.057,0,0,1-2.033,2.08h-8.558a2.061,2.061,0,0,1-2.03-2.207Z" transform="translate(-2150.854 -708.963)" fill="#ffd05c"/>
      <path id="Trazado_180061" data-name="Trazado 180061" d="M896.044,851.871h-99.75a3.983,3.983,0,0,1-3.924-4.04V710.985a3.978,3.978,0,0,1,4.071-4.037l87.068,3.365a17.382,17.382,0,0,1,16.458,17.595V847.831A3.983,3.983,0,0,1,896.044,851.871Z" transform="translate(-785.609 -701.867)" fill="#fff7f0"/>
      <path id="Trazado_180062" data-name="Trazado 180062" d="M1617.632,851.787h100.4a3.655,3.655,0,0,0,3.6-3.708V710.556a3.651,3.651,0,0,0-3.736-3.705l-89.251,3.449a15.431,15.431,0,0,0-14.611,15.619v122.16A3.656,3.656,0,0,0,1617.632,851.787Z" transform="translate(-1499.672 -701.783)" fill="#fff7f0"/>
      <g id="Grupo_120099" data-name="Grupo 120099" transform="translate(114.088 32.316)">
        <rect id="Rectángulo_36646" data-name="Rectángulo 36646" width="0.541" height="88.857" fill="#f9dec7"/>
      </g>
    </g>
    <g id="Grupo_120104" data-name="Grupo 120104" transform="translate(387.335 183.288)">
      <g id="Grupo_120101" data-name="Grupo 120101" transform="translate(0 0)">
        <path id="Trazado_180063" data-name="Trazado 180063" d="M1970.131,804.41a.715.715,0,0,1,.122.766.006.006,0,0,1,0,0,4.758,4.758,0,0,1-1.515,1.639c-.091.072-.172.138-.243.2l-.055.048-.042.037c-.665.6-.417.746-1.614,1.973-1.364,1.4-2.3,1.418-2.56,1.287-.224-.111.237-.855.748-1.691l.074-.122c.068-.111.136-.224.2-.336.6-1.006.45-1.481.321-2.986-.105-1.223-1.853-6.841-1.853-6.841l2.6-.428s.75,4.469,1.606,5.162c.458.37.973.378,1.413.653q.047.029.092.059A3.4,3.4,0,0,1,1970.131,804.41Z" transform="translate(-1941.447 -748.203)" fill="#ffb27d"/>
        <path id="Trazado_180064" data-name="Trazado 180064" d="M1973.108,843a.716.716,0,0,1,.122.766.006.006,0,0,1,0,0,5.507,5.507,0,0,1-1.517,1.633c-.09.074-.169.141-.24.2l-.054.048-.042.037c-.665.6-.417.746-1.613,1.973-1.364,1.4-2.3,1.418-2.56,1.287-.224-.111.237-.855.748-1.691a5.767,5.767,0,0,0,2.426-1.761c.823-1.034,1.375-2.367,1.936-3.137l.092.059A3.411,3.411,0,0,1,1973.108,843Z" transform="translate(-1944.423 -786.791)" fill="#233862"/>
        <path id="Trazado_180065" data-name="Trazado 180065" d="M1801.422,796.584c-.166.8-1.306.658-2.579.337s-.973.052-2.786-.162-2.359-.894-2.412-1.165c-.048-.24.85-.318,1.812-.422l.364-.041a7.854,7.854,0,0,0,2.878-1.392,11.518,11.518,0,0,0,2.348-2.75l2.488.215s-1.32,1.975-1.831,2.833a3.006,3.006,0,0,0-.256,1.695A3.2,3.2,0,0,1,1801.422,796.584Z" transform="translate(-1793.643 -742.144)" fill="#ffb27d"/>
        <path id="Trazado_180066" data-name="Trazado 180066" d="M1798.843,824.682c-1.273-.321-.973.052-2.786-.162s-2.359-.894-2.412-1.165c-.048-.24.85-.318,1.812-.422l.009.019a5.115,5.115,0,0,0,2.594.826c1.231.039,2.538-.3,3.388-.285a3.2,3.2,0,0,1-.025.851C1801.256,825.145,1800.116,825,1798.843,824.682Z" transform="translate(-1793.643 -769.905)" fill="#233862"/>
        <path id="Trazado_180067" data-name="Trazado 180067" d="M1935.188,699.956s-.173.113-.432.256a5.789,5.789,0,0,1-1.134.493,4.6,4.6,0,0,1-1.167.152c-.27,0-.447-.016-.447-.016l-2.981-8.2-.539-1.482-.573-1.577-.2-.549-.971-2.669s2.372-6.082,4.791-3.183a5.871,5.871,0,0,1,.829,1.5c.177.43.344.915.5,1.44.12.394.235.811.347,1.246.3,1.181.568,2.485.8,3.794C1934.795,695.533,1935.188,699.956,1935.188,699.956Z" transform="translate(-1909.315 -647.774)" fill="#a37603"/>
        <path id="Trazado_180068" data-name="Trazado 180068" d="M1875.044,640.158l-12.086.509a25.516,25.516,0,0,1-6.4-2.7c-.126-.063-.243-.122-.354-.175a7.234,7.234,0,0,0-1.021-.464c-.92-.192-1.392,1.306-2.171,3.149-.159.375-.329.764-.52,1.156a5.922,5.922,0,0,1-.737,1.061c-.064.077-.13.156-.2.237a118.842,118.842,0,0,1-9.56,8.941s-.081,0-.212,0a6.962,6.962,0,0,1-1.809-.219,2.761,2.761,0,0,1-.586-.3,1.329,1.329,0,0,1-.279-.25s8.24-16.11,12.505-20.5h0c.062-.064.123-.125.184-.182a3.473,3.473,0,0,1,1.223-.864c1.453-.457,10.856.053,10.856.053l.3-.488.5-.036.086-.006.419-.03h0l.578-.041.859-.061,2.323-.165.373-.026,4.3-.305s.2.442.461,1.175c.1.286.217.616.334.981C1875.177,633,1876.17,637.313,1875.044,640.158Z" transform="translate(-1833.155 -600.884)" fill="#e0a103"/>
        <path id="Trazado_180069" data-name="Trazado 180069" d="M2029.073,429.528c-2.147-1.833-3.679-2.286-3.892-5.188-.115-1.575-2.23-6.785-5.807-6.33a5.361,5.361,0,0,1-.9.053,3.343,3.343,0,0,0-1.818.456c-1.722,1.008-4.894,10.331-2.756,13.607a2.374,2.374,0,0,0,1.705,1.1l.276.155h0c.385.216.807.453,1.255.707,2.527,1.425,5.837,3.309,7.531,4.262h0l.289.163.493.274c.2.109.314.169.323.169a7.355,7.355,0,0,0,1.049.295,4,4,0,0,0,2.877-.267,4.573,4.573,0,0,0,.911-.789C2032.331,436.269,2032.784,432.695,2029.073,429.528Z" transform="translate(-1984.435 -417.983)" fill="#233862"/>
        <path id="Trazado_180070" data-name="Trazado 180070" d="M2050.6,487.588a4.44,4.44,0,0,0,2.767.1,4.938,4.938,0,0,0,1.844-2.177c-.477-.026-1-.446-1.382-3.187l-.2.071-3.425,1.205s.24,1.1.392,2.143C2050.72,486.626,2050.787,487.466,2050.6,487.588Z" transform="translate(-2016.603 -473.903)" fill="#ffb27d"/>
        <path id="Trazado_180071" data-name="Trazado 180071" d="M2050.2,484.079s.146.77.349,1.869a3.99,3.99,0,0,0,3.076-3.074Z" transform="translate(-2016.603 -474.376)" fill="#ed975d"/>
        <path id="Trazado_180072" data-name="Trazado 180072" d="M2030.591,445.869s4.679-.594,4.264-3.5-.091-4.943-3.1-4.687-3.426,1.449-3.523,2.453S2029.364,445.949,2030.591,445.869Z" transform="translate(-1997.512 -435.082)" fill="#ffb27d"/>
        <path id="Trazado_180073" data-name="Trazado 180073" d="M2029.659,436.814s2.974,2.6,5.008,2.822a3.9,3.9,0,0,0,2.809-.426,7.949,7.949,0,0,1-1.9-2.617,1.431,1.431,0,0,0-1.174-.852C2032.947,435.606,2030.192,435.529,2029.659,436.814Z" transform="translate(-1998.753 -433.354)" fill="#233862"/>
        <path id="Trazado_180074" data-name="Trazado 180074" d="M2027.853,438.984a7.369,7.369,0,0,0-1.328,1.676,5.659,5.659,0,0,0-.174,3.007s-1.538-3.044-.645-4.511A1.246,1.246,0,0,1,2027.853,438.984Z" transform="translate(-1995.074 -435.741)" fill="#233862"/>
        <path id="Trazado_180075" data-name="Trazado 180075" d="M2022.825,514.846c.075,9.463-.014,7.485,1.015,8.39a3.978,3.978,0,0,0,1.871.419c2.9.213,8-.229,8.2-.764.682-1.851.214-2.43.792-5.267.06-.3.135-.628.221-.984.479-1.948.938-2.608-.692-5.754-.046-.088-.092-.176-.283-.537a21.742,21.742,0,0,0-2.875-4.545c-3.968,2.318-4.273.344-4.273.344S2022.788,510.23,2022.825,514.846Z" transform="translate(-1992.813 -494.303)" fill="#ff8d3b"/>
        <path id="Trazado_180076" data-name="Trazado 180076" d="M1950.333,724.654s-.173.113-.432.256a5.791,5.791,0,0,1-1.134.493,4.611,4.611,0,0,1-1.167.152c-.27,0-.447-.016-.447-.016l-2.981-8.2.874-1.482,2.235-3.794.733-1.246c.12.395.235.812.347,1.246.3,1.18.568,2.485.8,3.794C1949.939,720.232,1950.333,724.654,1950.333,724.654Z" transform="translate(-1924.459 -672.473)" fill="#e0a103"/>
        <path id="Trazado_180077" data-name="Trazado 180077" d="M2000.551,508.441s-4.071.661-4.561,2.408l-3.372,12.019s2.065.386,3.026-.562,3.385-8.836,3.385-8.836Z" transform="translate(-1966.562 -496.595)" fill="#ff8d3b"/>
        <path id="Trazado_180078" data-name="Trazado 180078" d="M2044.858,575.9c2.9.213,8-.229,8.2-.764.682-1.851.214-2.43.792-5.267l-1.372-3.95s.2,4.39-1.1,5.535-5.314,2.19-5.95,3.15A3.533,3.533,0,0,0,2044.858,575.9Z" transform="translate(-2011.961 -546.543)" fill="#c15201"/>
        <path id="Trazado_180079" data-name="Trazado 180079" d="M2036.656,625.14s-2.858-.658-3.322-.407a6.729,6.729,0,0,0-1.743,1.489c-.144.321,1.03-.237,1.411-.336a3.385,3.385,0,0,1,1.214.275,4.042,4.042,0,0,0,2.177.234Z" transform="translate(-2000.422 -597.61)" fill="#ffb27d"/>
        <path id="Trazado_180080" data-name="Trazado 180080" d="M2069.269,505.8s3.842.264,5.159,2.129c1.855,2.625,5.491,13.784,3.352,15.254-2.41,1.655-10.917.36-10.917.36a3.458,3.458,0,0,1,.125-1.964c.4-.638,6.813-1.628,7.111-1.922s-3.656-5.792-3.649-6.68S2069.269,505.8,2069.269,505.8Z" transform="translate(-2031.005 -494.304)" fill="#ff8d3b"/>
        <path id="Trazado_180081" data-name="Trazado 180081" d="M2036.4,631.188a5.529,5.529,0,0,1-.8.86.587.587,0,0,1-.324.067l.409-.724Z" transform="translate(-2003.632 -603.269)" fill="#ffb27d"/>
        <path id="Trazado_180082" data-name="Trazado 180082" d="M2033.367,625.112l-1.75.834a.311.311,0,0,0,.288.114,4.167,4.167,0,0,0,.758-.2Z" transform="translate(-2000.454 -597.988)" fill="#ffb27d"/>
      </g>
      <g id="Grupo_120103" data-name="Grupo 120103" transform="translate(14.469 19.152)">
        <g id="Grupo_120102" data-name="Grupo 120102">
          <path id="Trazado_180083" data-name="Trazado 180083" d="M1922.008,574.682l-13.793-.1-4.077-10.347,13.772.1Z" transform="translate(-1904.139 -564.238)" fill="#565656"/>
          <path id="Trazado_180084" data-name="Trazado 180084" d="M1934.055,640.176l18.214.128,0,.4-18.052-.127Z" transform="translate(-1930.137 -630.232)" fill="#565656"/>
        </g>
        <path id="Trazado_180085" data-name="Trazado 180085" d="M1961.966,599.709a.478.478,0,0,1,.473-.653.94.94,0,0,1,.84.663.478.478,0,0,1-.473.654A.941.941,0,0,1,1961.966,599.709Z" transform="translate(-1954.372 -594.497)" fill="#fff"/>
      </g>
    </g>
    <g id="Grupo_120110" data-name="Grupo 120110" transform="translate(261.161 347.019)">
      <g id="Grupo_120109" data-name="Grupo 120109">
        <path id="Rectángulo_36647" data-name="Rectángulo 36647" d="M9.466,0h73.24a9.466,9.466,0,0,1,9.466,9.466v0a9.466,9.466,0,0,1-9.466,9.466H9.466A9.466,9.466,0,0,1,0,9.466v0A9.466,9.466,0,0,1,9.466,0Z" transform="translate(92.172 18.945) rotate(-180)" fill="#5a189a"/>
        <path id="Trazado_180086" data-name="Trazado 180086" d="M1219.14,1678.17l-.066,4.138a6.629,6.629,0,0,0,6.522,6.733l48.934.782.013-.824a8.435,8.435,0,0,1-4.546-7.623l.023-1.455a8.433,8.433,0,0,1,4.787-7.473v-.017l-48.934-.782A6.629,6.629,0,0,0,1219.14,1678.17Z" transform="translate(-1168.14 -1671.21)" fill="#ffe39f"/>
        <g id="Grupo_120105" data-name="Grupo 120105" transform="translate(50.188)">
          <path id="Trazado_180087" data-name="Trazado 180087" d="M1270.868,1687.252h-51.553c-3.325,0-5.93-4.161-5.93-9.472s2.6-9.472,5.93-9.472h51.553a.775.775,0,1,1,0,1.55h-51.553c-2.374,0-4.379,3.628-4.379,7.922s2.005,7.922,4.379,7.922h51.553a.775.775,0,1,1,0,1.55Z" transform="translate(-1213.386 -1668.308)" fill="#7926cb"/>
        </g>
        <g id="Grupo_120106" data-name="Grupo 120106" transform="translate(58.419 5.044)">
          <rect id="Rectángulo_36648" data-name="Rectángulo 36648" width="44.334" height="0.122" fill="#e8c2a3"/>
        </g>
        <g id="Grupo_120107" data-name="Grupo 120107" transform="translate(85.292 6.773)">
          <rect id="Rectángulo_36649" data-name="Rectángulo 36649" width="16.83" height="0.112" fill="#e8c2a3"/>
        </g>
        <g id="Grupo_120108" data-name="Grupo 120108" transform="translate(72.763 12.652)">
          <rect id="Rectángulo_36650" data-name="Rectángulo 36650" width="29.36" height="0.112" fill="#e8c2a3"/>
        </g>
      </g>
      <path id="Trazado_180088" data-name="Trazado 180088" d="M1272.765,1707.29a4.812,4.812,0,0,1,2.545,4.165,22.825,22.825,0,0,1,0,4.925l-2.746-1.306-2.772,1.306v-5.023s-.1-4.067-3.885-4.067Z" transform="translate(-1208.84 -1702.185)" fill="#7926cb"/>
    </g>
    <g id="Grupo_120116" data-name="Grupo 120116" transform="translate(258.461 332.771)">
      <g id="Grupo_120115" data-name="Grupo 120115" transform="translate(0)">
        <rect id="Rectángulo_36651" data-name="Rectángulo 36651" width="68.788" height="14.251" rx="7.125" transform="translate(68.788 14.26) rotate(180)" fill="#ffb600"/>
        <path id="Trazado_180089" data-name="Trazado 180089" d="M1099.829,1566.92l-.049,3.11a4.966,4.966,0,0,0,4.867,5.061l36.52.588.01-.62a6.345,6.345,0,0,1-3.393-5.729l.017-1.094a6.343,6.343,0,0,1,3.573-5.618v-.012l-36.52-.588A4.963,4.963,0,0,0,1099.829,1566.92Z" transform="translate(-1061.768 -1561.688)" fill="#ffe39f"/>
        <g id="Grupo_120111" data-name="Grupo 120111" transform="translate(37.456)">
          <path id="Trazado_180090" data-name="Trazado 180090" d="M1138.433,1573.745h-38.474c-2.482,0-4.425-3.127-4.425-7.12s1.944-7.12,4.425-7.12h38.474a.583.583,0,0,1,0,1.165h-38.474c-1.772,0-3.268,2.727-3.268,5.955s1.5,5.955,3.268,5.955h38.474a.583.583,0,0,1,0,1.165Z" transform="translate(-1095.534 -1559.505)" fill="#e0a103"/>
        </g>
        <g id="Grupo_120112" data-name="Grupo 120112" transform="translate(48.904 3.795)">
          <rect id="Rectángulo_36652" data-name="Rectángulo 36652" width="27.78" height="0.084" fill="#e8c2a3"/>
        </g>
        <g id="Grupo_120113" data-name="Grupo 120113" transform="translate(63.654 5.091)">
          <rect id="Rectángulo_36653" data-name="Rectángulo 36653" width="12.56" height="0.084" fill="#e8c2a3"/>
        </g>
        <g id="Grupo_120114" data-name="Grupo 120114" transform="translate(54.303 9.51)">
          <rect id="Rectángulo_36654" data-name="Rectángulo 36654" width="21.911" height="0.084" fill="#e8c2a3"/>
        </g>
      </g>
    </g>
    <g id="Grupo_120121" data-name="Grupo 120121" transform="translate(411.381 288.317)">
      <g id="Grupo_120117" data-name="Grupo 120117" transform="translate(30.646 11.972)">
        <path id="Trazado_180091" data-name="Trazado 180091" d="M2326.134,1468.753a14.165,14.165,0,0,1,.647,2.678,9.707,9.707,0,0,1-.823,2.638c-.317.436-.474-1.776-.725-2.109s-.051.833-.229.941-.546-.857-.7-1.2.388-1.6.39-2.472S2326.134,1468.753,2326.134,1468.753Z" transform="translate(-2309.477 -1448.077)" fill="#ffb27d"/>
        <path id="Trazado_180092" data-name="Trazado 180092" d="M2211.313,1314.818a3.1,3.1,0,0,1,4.663-2.913l.131.082c3.21,2.066,10.136,11.707,10.612,12.672s1.884,8.649,1.884,8.649-1.739.636-2.552-.024c0,0-2.82-7.286-3.237-7.651s-11.278-6.458-11.37-8.743C2211.42,1316.286,2211.371,1315.559,2211.313,1314.818Z" transform="translate(-2211.303 -1311.458)" fill="#ffe39f"/>
      </g>
      <g id="Grupo_120118" data-name="Grupo 120118" transform="translate(0 10.747)">
        <rect id="Rectángulo_36655" data-name="Rectángulo 36655" width="2.872" height="14.445" transform="matrix(-0.329, -0.944, 0.944, -0.329, 3.643, 8.013)" fill="#f99746"/>
        <path id="Trazado_180093" data-name="Trazado 180093" d="M1977.273,1345.049l3.644.252-.944-2.712Z" transform="translate(-1977.273 -1337.287)" fill="#f9ddbf"/>
        <path id="Rectángulo_36656" data-name="Rectángulo 36656" d="M0,0H2.871a0,0,0,0,1,0,0V.286A1.393,1.393,0,0,1,1.478,1.679h0A1.478,1.478,0,0,1,0,.2V0A0,0,0,0,1,0,0Z" transform="matrix(-0.329, -0.944, 0.944, -0.329, 17.285, 3.264)" fill="#f9ddbf"/>
      </g>
      <g id="Grupo_120119" data-name="Grupo 120119" transform="translate(26.553 34.328)">
        <path id="Trazado_180094" data-name="Trazado 180094" d="M2328.27,1764.315s1.294,1.181,1.042,2.021-1.42,1.4-1.578,2.424-.789,1.585-1.357,1.585h-2.709s-.418-.722.592-.939,1.391-1.423,1.328-2.542a19.745,19.745,0,0,1,.095-2.611l2.146-.5Z" transform="translate(-2304.785 -1726.884)" fill="#2c0b4b"/>
        <path id="Trazado_180095" data-name="Trazado 180095" d="M2187.652,1784.452s.232,2.688-.336,2.968l-7.271-.015s0-.839,1.168-1.026,3.219-.87,3.567-2.393S2187.652,1784.452,2187.652,1784.452Z" transform="translate(-2180.045 -1743.965)" fill="#2c0b4b"/>
        <path id="Trazado_180096" data-name="Trazado 180096" d="M2191.257,1497.075s.383,4.711.834,10.375c.613,7.693,1.349,17.144,1.422,18.934.126,3.109.632,8.082.632,8.082a4.013,4.013,0,0,0,3.6.683,80.241,80.241,0,0,0,2.749-14.609c.009-.123.019-.247.028-.371.568-7.646,1.452-23.746,1.452-23.746Z" transform="translate(-2189.789 -1494.557)" fill="#5a189a"/>
        <path id="Trazado_180097" data-name="Trazado 180097" d="M2191.257,1497.075s.383,4.711.834,10.375l8.4,13.089c.009-.123.019-.247.028-.371.568-7.646,1.452-23.746,1.452-23.746Z" transform="translate(-2189.789 -1494.557)" fill="#421072"/>
        <path id="Trazado_180098" data-name="Trazado 180098" d="M2204.632,1485.259s6.913,17.063,11.458,25.082,5.966,10.257,5.966,10.257,2.6-1.026,2.841-1.725c0,0-1.738-15.481-4.782-19.255-1.72-2.133-3.74-8.532-3.835-10.77s-.615-6.667-.615-6.667Z" transform="translate(-2201.412 -1482.182)" fill="#5a189a"/>
      </g>
      <path id="Trazado_180099" data-name="Trazado 180099" d="M2201.41,1272.919s-4.632,2.349-7.344,1.565a6.368,6.368,0,0,1,1.8-1.5c-.1-.539-.186-1.007-.235-1.4a13.022,13.022,0,0,1-.142-1.437l1.776-1.455,1.684-1.392A6.9,6.9,0,0,0,2201.41,1272.919Z" transform="translate(-2165.677 -1261.11)" fill="#ffb27d"/>
      <path id="Trazado_180100" data-name="Trazado 180100" d="M2190.509,1323.987a19.073,19.073,0,0,1-5.712,2.461c-2.444.579-5.447.409-6.452.562a.417.417,0,0,1-.293-.074c-.079-.041-.522-3.021-.967-6.784-.02-.151-.041-.3-.049-.457l-.007-.051c-.173-1.471-.324-3.016-.456-4.565-.107-1.2-.2-2.4-.256-3.516-.077-1.4-.109-2.687-.077-3.745.014-.484.042-.919.085-1.3a9.221,9.221,0,0,1,2.3-4.937l.819-.932a4.493,4.493,0,0,0,2.834-.723c1-.659,2.084-1.439,2.288-1.32,1.533.839,2.777,3.084,3.668,5.954a32.741,32.741,0,0,1,1.154,5.512c.081.616.15,1.248.2,1.877.01.116.019.233.028.347.12,1.721.317,3.333.535,4.773.293,1.942.626,3.569.862,4.715.118.583.208,1.034.262,1.357C2191.325,1323.426,2190.76,1323.83,2190.509,1323.987Z" transform="translate(-2150.175 -1288.308)" fill="#ffd05c"/>
      <path id="Trazado_180101" data-name="Trazado 180101" d="M2208.416,1278a6.2,6.2,0,0,1-3.378,2.825,13.1,13.1,0,0,1-.142-1.437l1.776-1.455Z" transform="translate(-2175.089 -1270.347)" fill="#ed985f"/>
      <path id="Trazado_180102" data-name="Trazado 180102" d="M2192.384,1240.216s4.476.641,4.84-2.11,1.188-4.521-1.655-5.046-3.538.453-3.886,1.342S2191.229,1239.978,2192.384,1240.216Z" transform="translate(-2163.4 -1231.226)" fill="#ffb27d"/>
      <path id="Trazado_180103" data-name="Trazado 180103" d="M2188.714,1221.478c.04-.047.132-.087.34-.1a.842.842,0,0,0-.39-.1,1.046,1.046,0,0,0-.713-.911.624.624,0,0,1,.311.444c-.588-.581-1.831-.987-5.245-.649-4.5.445-2.957,3.3-2.366,3.633s2.04-.64,3.128-.575,1.326,1.631,1.7,1.839.221-.17.715-.406.558.59.425,1.131.566,1.236.566,1.236l.678-.76c.678-.76,1.268-3.932.94-4.6Z" transform="translate(-2153.376 -1220.035)" fill="#2c3a64"/>
      <path id="Trazado_180104" data-name="Trazado 180104" d="M2184.091,1369.255a20.248,20.248,0,0,1-7.774,3.5c-.077-1.4-.109-2.687-.077-3.745Z" transform="translate(-2150.175 -1349.502)" fill="#e0a103"/>
      <g id="Grupo_120120" data-name="Grupo 120120" transform="translate(6.61 12.93)">
        <path id="Trazado_180105" data-name="Trazado 180105" d="M2031.88,1326.274c-.059-.064-.829-2.636-2.159-2.449-.868.122-2.287.625-1.91,1.769.148.45,2.793,2,2.793,2Z" transform="translate(-2027.748 -1323.155)" fill="#ffb27d"/>
        <path id="Trazado_180106" data-name="Trazado 180106" d="M2073.358,1320.051a3.1,3.1,0,0,1-.324,5.489l-.142.059c-3.543,1.421-14.084,1.579-16.477,1.317-2.595-.284-8.143-3.471-8.143-3.471s.488-1.786,1.5-2.067a61.507,61.507,0,0,0,8.112,1.79c1.425.082,11.8-5.457,13.712-4.21C2072.1,1319.288,2072.719,1319.669,2073.358,1320.051Z" transform="translate(-2045.584 -1318.775)" fill="#ffe39f"/>
      </g>
    </g>
    <g id="Grupo_120131" data-name="Grupo 120131" transform="translate(370.234 227.214)">
      <g id="Grupo_120123" data-name="Grupo 120123" transform="translate(0 102.268)">
        <path id="Trazado_180107" data-name="Trazado 180107" d="M1687.034,1558.378l-23.982,1.179v-23.982l23.982-1.179Z" transform="translate(-1663.052 -1534.396)" fill="#f9dec7"/>
        <g id="Grupo_120122" data-name="Grupo 120122" transform="translate(1.801 5.289)">
          <path id="Trazado_180108" data-name="Trazado 180108" d="M1676.807,1617.871l7.084-13.119,5.208,6.849,2.6-2.971,5.511,8.239Z" transform="translate(-1676.807 -1600.828)" fill="#fff7f0"/>
          <path id="Trazado_180109" data-name="Trazado 180109" d="M1756.679,1576.708a1.946,1.946,0,0,1,1.833-1.923,1.729,1.729,0,0,1,1.833,1.743,1.947,1.947,0,0,1-1.833,1.923A1.729,1.729,0,0,1,1756.679,1576.708Z" transform="translate(-1746.22 -1574.783)" fill="#fff7f0"/>
        </g>
      </g>
      <g id="Grupo_120125" data-name="Grupo 120125" transform="translate(60.698)">
        <path id="Trazado_180110" data-name="Trazado 180110" d="M2161.117,787.977l-34.55,1.7v-34.55l34.55-1.7Z" transform="translate(-2126.567 -753.427)" fill="#f9dec7"/>
        <g id="Grupo_120124" data-name="Grupo 120124" transform="translate(2.595 7.619)">
          <path id="Trazado_180111" data-name="Trazado 180111" d="M2146.384,873.686l10.205-18.9,7.5,9.866,3.747-4.28,7.94,11.869Z" transform="translate(-2146.384 -849.132)" fill="#fff7f0"/>
          <path id="Trazado_180112" data-name="Trazado 180112" d="M2261.452,814.384a2.8,2.8,0,0,1,2.641-2.771,2.49,2.49,0,0,1,2.641,2.511,2.8,2.8,0,0,1-2.641,2.771A2.49,2.49,0,0,1,2261.452,814.384Z" transform="translate(-2246.384 -811.61)" fill="#fff7f0"/>
        </g>
      </g>
      <g id="Grupo_120126" data-name="Grupo 120126" transform="translate(0 58.65)">
        <path id="Trazado_180113" data-name="Trazado 180113" d="M1696.837,1203.27l-33.785,1.66v-1.968l33.785-1.66Z" transform="translate(-1663.052 -1201.302)" fill="#f99746"/>
        <path id="Trazado_180114" data-name="Trazado 180114" d="M1681.164,1246.1l-18.112.89v-.984l18.112-.89Z" transform="translate(-1663.052 -1239.38)" fill="#f9dec7"/>
        <path id="Trazado_180115" data-name="Trazado 180115" d="M1675.855,1273.093l-12.8.629v-.984l12.8-.629Z" transform="translate(-1663.052 -1262.837)" fill="#f9dec7"/>
        <path id="Trazado_180116" data-name="Trazado 180116" d="M1792.613,1267.355l-12.8.629V1267l12.8-.629Z" transform="translate(-1764.52 -1257.85)" fill="#f9dec7"/>
        <path id="Trazado_180117" data-name="Trazado 180117" d="M1907.115,1260.815l-15.6.766v-.984l15.6-.767Z" transform="translate(-1861.597 -1252.167)" fill="#f9dec7"/>
        <path id="Trazado_180118" data-name="Trazado 180118" d="M1674.167,1298.214l-11.115.546v-.984l11.115-.546Z" transform="translate(-1663.052 -1284.669)" fill="#f9dec7"/>
        <path id="Trazado_180119" data-name="Trazado 180119" d="M1775.53,1293.233l-11.115.546v-.984l11.115-.546Z" transform="translate(-1751.141 -1280.339)" fill="#f9dec7"/>
        <path id="Trazado_180120" data-name="Trazado 180120" d="M1874.937,1287.555l-13.544.666v-.984l13.544-.666Z" transform="translate(-1835.42 -1275.405)" fill="#f9dec7"/>
      </g>
      <g id="Grupo_120127" data-name="Grupo 120127" transform="translate(0 36.443)">
        <path id="Trazado_180121" data-name="Trazado 180121" d="M1696.837,1033.687l-33.785,1.66v-1.968l33.785-1.66Z" transform="translate(-1663.052 -1031.719)" fill="#f99746"/>
        <path id="Trazado_180122" data-name="Trazado 180122" d="M1681.164,1076.518l-18.112.89v-.984l18.112-.89Z" transform="translate(-1663.052 -1069.797)" fill="#f9dec7"/>
        <path id="Trazado_180123" data-name="Trazado 180123" d="M1846.332,1068.4l-18.112.89v-.984l18.112-.89Z" transform="translate(-1806.591 -1062.741)" fill="#f9dec7"/>
        <path id="Trazado_180124" data-name="Trazado 180124" d="M1675.855,1103.51l-12.8.63v-.984l12.8-.629Z" transform="translate(-1663.052 -1093.254)" fill="#f9dec7"/>
        <path id="Trazado_180125" data-name="Trazado 180125" d="M1792.613,1097.772l-12.8.629v-.984l12.8-.629Z" transform="translate(-1764.52 -1088.267)" fill="#f9dec7"/>
        <path id="Trazado_180126" data-name="Trazado 180126" d="M1907.115,1091.232l-15.6.767v-.984l15.6-.767Z" transform="translate(-1861.597 -1082.584)" fill="#f9dec7"/>
        <path id="Trazado_180127" data-name="Trazado 180127" d="M1674.167,1128.631l-11.115.546v-.984l11.115-.546Z" transform="translate(-1663.052 -1115.086)" fill="#f9dec7"/>
        <path id="Trazado_180128" data-name="Trazado 180128" d="M1775.53,1123.65l-11.115.546v-.984l11.115-.546Z" transform="translate(-1751.141 -1110.756)" fill="#f9dec7"/>
        <path id="Trazado_180129" data-name="Trazado 180129" d="M1874.937,1117.972l-13.544.666v-.984l13.544-.666Z" transform="translate(-1835.42 -1105.822)" fill="#f9dec7"/>
      </g>
      <g id="Grupo_120128" data-name="Grupo 120128" transform="translate(60.503 39.765)">
        <path id="Trazado_180130" data-name="Trazado 180130" d="M2148.85,1058.473l-23.766,1.168v-1.384l23.766-1.168Z" transform="translate(-2125.084 -1057.089)" fill="#f99746"/>
        <path id="Trazado_180131" data-name="Trazado 180131" d="M2137.825,1088.6l-12.741.626v-.692l12.741-.626Z" transform="translate(-2125.084 -1083.875)" fill="#f9dec7"/>
        <path id="Trazado_180132" data-name="Trazado 180132" d="M2254.014,1082.893l-12.741.626v-.692l12.741-.626Z" transform="translate(-2226.058 -1078.913)" fill="#f9dec7"/>
        <path id="Trazado_180133" data-name="Trazado 180133" d="M2134.091,1107.592l-9.007.443v-.692l9.007-.443Z" transform="translate(-2125.084 -1100.377)" fill="#f9dec7"/>
        <path id="Trazado_180134" data-name="Trazado 180134" d="M2216.226,1103.554l-9.007.443v-.692l9.007-.443Z" transform="translate(-2196.463 -1096.868)" fill="#f9dec7"/>
        <path id="Trazado_180135" data-name="Trazado 180135" d="M2296.773,1098.954l-10.975.539v-.692l10.975-.539Z" transform="translate(-2264.753 -1092.87)" fill="#f9dec7"/>
        <path id="Trazado_180136" data-name="Trazado 180136" d="M2132.9,1125.263l-7.819.384v-.692l7.819-.384Z" transform="translate(-2125.084 -1115.734)" fill="#f9dec7"/>
        <path id="Trazado_180137" data-name="Trazado 180137" d="M2204.208,1121.759l-7.819.384v-.692l7.819-.384Z" transform="translate(-2187.051 -1112.689)" fill="#f9dec7"/>
        <path id="Trazado_180138" data-name="Trazado 180138" d="M2274.136,1117.764l-9.528.468v-.692l9.528-.468Z" transform="translate(-2246.338 -1109.217)" fill="#f9dec7"/>
      </g>
      <g id="Grupo_120129" data-name="Grupo 120129" transform="translate(0 81.815)">
        <path id="Trazado_180139" data-name="Trazado 180139" d="M1696.837,1380.171l-33.785,1.66v-1.968l33.785-1.66Z" transform="translate(-1663.052 -1378.203)" fill="#f99746"/>
        <path id="Trazado_180140" data-name="Trazado 180140" d="M1681.164,1423l-18.112.89v-.984l18.112-.89Z" transform="translate(-1663.052 -1416.28)" fill="#f9dec7"/>
        <path id="Trazado_180141" data-name="Trazado 180141" d="M1846.332,1414.884l-18.112.89v-.984l18.112-.89Z" transform="translate(-1806.591 -1409.226)" fill="#f9dec7"/>
        <path id="Trazado_180142" data-name="Trazado 180142" d="M1675.855,1449.995l-12.8.629v-.984l12.8-.629Z" transform="translate(-1663.052 -1439.739)" fill="#f9dec7"/>
        <path id="Trazado_180143" data-name="Trazado 180143" d="M1792.613,1444.256l-12.8.629v-.984l12.8-.629Z" transform="translate(-1764.52 -1434.752)" fill="#f9dec7"/>
        <path id="Trazado_180144" data-name="Trazado 180144" d="M1907.115,1437.716l-15.6.767v-.984l15.6-.767Z" transform="translate(-1861.597 -1429.068)" fill="#f9dec7"/>
        <path id="Trazado_180145" data-name="Trazado 180145" d="M1674.167,1475.116l-11.115.546v-.984l11.115-.546Z" transform="translate(-1663.052 -1461.57)" fill="#f9dec7"/>
        <path id="Trazado_180146" data-name="Trazado 180146" d="M1775.53,1470.134l-11.115.546v-.984l11.115-.546Z" transform="translate(-1751.141 -1457.24)" fill="#f9dec7"/>
        <path id="Trazado_180147" data-name="Trazado 180147" d="M1874.937,1464.457l-13.544.666v-.984l13.544-.666Z" transform="translate(-1835.42 -1452.307)" fill="#f9dec7"/>
      </g>
      <g id="Grupo_120130" data-name="Grupo 120130" transform="translate(30.167 112.673)">
        <path id="Trazado_180148" data-name="Trazado 180148" d="M1919.517,1615.818l-26.1,1.283v-1.968l26.1-1.282Z" transform="translate(-1893.422 -1613.851)" fill="#f99746"/>
        <path id="Trazado_180149" data-name="Trazado 180149" d="M1907.412,1657.31l-13.99.688v-.984l13.99-.688Z" transform="translate(-1893.422 -1650.764)" fill="#f9dec7"/>
        <path id="Trazado_180150" data-name="Trazado 180150" d="M2034.987,1651.041l-13.99.688v-.984l13.99-.688Z" transform="translate(-2004.291 -1645.316)" fill="#f9dec7"/>
        <path id="Trazado_180151" data-name="Trazado 180151" d="M1903.311,1683.849l-9.889.486v-.984l9.889-.486Z" transform="translate(-1893.422 -1673.828)" fill="#f9dec7"/>
        <path id="Trazado_180152" data-name="Trazado 180152" d="M1993.494,1679.417l-9.889.486v-.984l9.889-.486Z" transform="translate(-1971.795 -1669.976)" fill="#f9dec7"/>
        <path id="Trazado_180153" data-name="Trazado 180153" d="M2081.936,1674.366l-12.05.592v-.984l12.05-.592Z" transform="translate(-2046.778 -1665.586)" fill="#f9dec7"/>
        <path id="Trazado_180154" data-name="Trazado 180154" d="M1902.007,1708.827l-8.585.422v-.984l8.585-.422Z" transform="translate(-1893.422 -1695.534)" fill="#f9dec7"/>
        <path id="Trazado_180155" data-name="Trazado 180155" d="M1980.3,1704.979l-8.585.422v-.984l8.585-.422Z" transform="translate(-1961.462 -1692.191)" fill="#f9dec7"/>
        <path id="Trazado_180156" data-name="Trazado 180156" d="M2057.081,1700.593l-10.462.514v-.984l10.462-.514Z" transform="translate(-2026.558 -1688.379)" fill="#f9dec7"/>
      </g>
    </g>
    <g id="Grupo_120137" data-name="Grupo 120137" transform="translate(265.143 227.72)">
      <g id="Grupo_120133" data-name="Grupo 120133" transform="translate(48.638 6.841)">
        <path id="Trazado_180157" data-name="Trazado 180157" d="M1269.6,848.541l-37.649-1.367V809.525l37.649,1.367Z" transform="translate(-1231.954 -809.525)" fill="#f9dec7"/>
        <g id="Grupo_120132" data-name="Grupo 120132" transform="translate(2.828 8.345)">
          <path id="Trazado_180158" data-name="Trazado 180158" d="M1253.549,934.594l11.121-19.646,8.177,11.45,4.083-4.315,8.652,13.673Z" transform="translate(-1253.549 -909.488)" fill="#fff7f0"/>
          <path id="Trazado_180159" data-name="Trazado 180159" d="M1378.939,876.023a2.755,2.755,0,0,1,2.878-2.773,3.008,3.008,0,0,1,2.878,2.982,2.755,2.755,0,0,1-2.878,2.773A3.007,3.007,0,0,1,1378.939,876.023Z" transform="translate(-1362.519 -873.248)" fill="#fff7f0"/>
        </g>
      </g>
      <g id="Grupo_120134" data-name="Grupo 120134" transform="translate(48.005 57.509)">
        <path id="Trazado_180160" data-name="Trazado 180160" d="M1260.9,1199.647l-33.785-1.226v-1.968l33.785,1.226Z" transform="translate(-1227.116 -1196.452)" fill="#f99746"/>
        <path id="Trazado_180161" data-name="Trazado 180161" d="M1245.228,1236.027l-18.112-.658v-.984l18.112.657Z" transform="translate(-1227.116 -1229.418)" fill="#f9dec7"/>
        <path id="Trazado_180162" data-name="Trazado 180162" d="M1239.919,1260.834l-12.8-.465v-.984l12.8.465Z" transform="translate(-1227.116 -1251.145)" fill="#f9dec7"/>
        <path id="Trazado_180163" data-name="Trazado 180163" d="M1356.677,1265.074l-12.8-.465v-.984l12.8.465Z" transform="translate(-1328.584 -1254.829)" fill="#f9dec7"/>
        <path id="Trazado_180164" data-name="Trazado 180164" d="M1471.18,1269.23l-15.6-.567v-.984l15.6.566Z" transform="translate(-1425.662 -1258.352)" fill="#f9dec7"/>
        <path id="Trazado_180165" data-name="Trazado 180165" d="M1238.231,1285.261l-11.115-.4v-.984l11.115.4Z" transform="translate(-1227.116 -1272.425)" fill="#f9dec7"/>
        <path id="Trazado_180166" data-name="Trazado 180166" d="M1339.595,1288.94l-11.115-.4v-.984l11.115.4Z" transform="translate(-1315.206 -1275.623)" fill="#f9dec7"/>
        <path id="Trazado_180167" data-name="Trazado 180167" d="M1439,1292.55l-13.544-.492v-.984l13.544.492Z" transform="translate(-1399.484 -1278.683)" fill="#f9dec7"/>
      </g>
      <g id="Grupo_120135" data-name="Grupo 120135" transform="translate(48.005 80.674)">
        <path id="Trazado_180168" data-name="Trazado 180168" d="M1260.9,1376.548l-33.785-1.227v-1.968l33.785,1.226Z" transform="translate(-1227.116 -1373.354)" fill="#f99746"/>
        <path id="Trazado_180169" data-name="Trazado 180169" d="M1245.228,1412.929l-18.112-.658v-.984l18.112.657Z" transform="translate(-1227.116 -1406.32)" fill="#f9dec7"/>
        <path id="Trazado_180170" data-name="Trazado 180170" d="M1410.4,1418.925l-18.112-.658v-.984l18.112.658Z" transform="translate(-1370.655 -1411.531)" fill="#f9dec7"/>
        <path id="Trazado_180171" data-name="Trazado 180171" d="M1239.919,1437.736l-12.8-.465v-.984l12.8.465Z" transform="translate(-1227.116 -1428.046)" fill="#f9dec7"/>
        <path id="Trazado_180172" data-name="Trazado 180172" d="M1356.677,1441.974l-12.8-.465v-.984l12.8.465Z" transform="translate(-1328.584 -1431.729)" fill="#f9dec7"/>
        <path id="Trazado_180173" data-name="Trazado 180173" d="M1471.18,1446.131l-15.6-.566v-.984l15.6.566Z" transform="translate(-1425.662 -1435.254)" fill="#f9dec7"/>
        <path id="Trazado_180174" data-name="Trazado 180174" d="M1238.231,1462.162l-11.115-.4v-.984l11.115.4Z" transform="translate(-1227.116 -1449.327)" fill="#f9dec7"/>
        <path id="Trazado_180175" data-name="Trazado 180175" d="M1339.595,1465.842l-11.115-.4v-.984l11.115.4Z" transform="translate(-1315.206 -1452.524)" fill="#f9dec7"/>
        <path id="Trazado_180176" data-name="Trazado 180176" d="M1439,1469.45l-13.544-.492v-.984l13.544.492Z" transform="translate(-1399.484 -1455.584)" fill="#f9dec7"/>
      </g>
      <g id="Grupo_120136" data-name="Grupo 120136" transform="translate(0)">
        <path id="Trazado_180177" data-name="Trazado 180177" d="M894.316,760.481l-33.785-1.227v-1.968l33.785,1.227Z" transform="translate(-860.531 -757.286)" fill="#f99746"/>
        <path id="Trazado_180178" data-name="Trazado 180178" d="M878.643,796.861l-18.112-.658v-.984l18.112.657Z" transform="translate(-860.531 -790.252)" fill="#f9dec7"/>
        <path id="Trazado_180179" data-name="Trazado 180179" d="M1043.812,802.857,1025.7,802.2v-.984l18.112.658Z" transform="translate(-1004.07 -795.463)" fill="#f9dec7"/>
        <path id="Trazado_180180" data-name="Trazado 180180" d="M873.334,821.669l-12.8-.465v-.984l12.8.465Z" transform="translate(-860.531 -811.979)" fill="#f9dec7"/>
        <path id="Trazado_180181" data-name="Trazado 180181" d="M990.092,825.907l-12.8-.465v-.984l12.8.465Z" transform="translate(-961.999 -815.662)" fill="#f9dec7"/>
        <path id="Trazado_180182" data-name="Trazado 180182" d="M1104.595,830.064l-15.6-.566v-.984l15.6.566Z" transform="translate(-1059.077 -819.186)" fill="#f9dec7"/>
        <path id="Trazado_180183" data-name="Trazado 180183" d="M871.646,846.095l-11.115-.4v-.984l11.115.4Z" transform="translate(-860.531 -833.259)" fill="#f9dec7"/>
        <path id="Trazado_180184" data-name="Trazado 180184" d="M973.01,849.774l-11.115-.4v-.984l11.115.4Z" transform="translate(-948.621 -836.457)" fill="#f9dec7"/>
        <path id="Trazado_180185" data-name="Trazado 180185" d="M1072.416,853.383l-13.544-.492v-.984l13.544.492Z" transform="translate(-1032.899 -839.517)" fill="#f9dec7"/>
      </g>
    </g>
    <g id="Grupo_120138" data-name="Grupo 120138" transform="translate(278.755 190.392)">
      <path id="Trazado_180186" data-name="Trazado 180186" d="M967.241,472.941l2.965-.7,9.76,13.231-3.361.8-2.115-2.96-6.18,1.468-.557,3.6-3.278.779Zm5.426,7.8-3.068-4.278-.816,5.2Z" transform="translate(-964.474 -472.237)" fill="#5a189a"/>
    </g>
    <g id="Grupo_120139" data-name="Grupo 120139" transform="translate(298.106 175.436)">
      <path id="Trazado_180187" data-name="Trazado 180187" d="M1112.3,365.023a7.923,7.923,0,0,1,14.107-3.947l-2.189,2.068a5.2,5.2,0,0,0-3.678-2.047,4.736,4.736,0,0,0-.933,9.4,5.421,5.421,0,0,0,4.1-1.361l1.87,2.45a8,8,0,0,1-13.279-6.559Z" transform="translate(-1112.253 -358.024)" fill="#ff6b00"/>
    </g>
    <g id="Grupo_120140" data-name="Grupo 120140" transform="translate(343.426 177.16)">
      <path id="Trazado_180188" data-name="Trazado 180188" d="M1458.339,372.408l6.885-1.112a5.423,5.423,0,0,1,4.089.688,3.7,3.7,0,0,1,0,5.913c1.822.38,3.042,1.2,3.37,3.238.438,2.712-1.547,4.423-4.894,4.964l-7.054,1.139Zm7.154,5c1.441-.233,2.276-.846,2.092-1.99-.157-.975-1.009-1.4-2.386-1.18l-3.22.52.506,3.135Zm1.833,5.834c1.441-.233,2.227-.881,2.042-2.025-.161-1-1-1.49-2.675-1.22l-3.771.609.527,3.262Z" transform="translate(-1458.339 -371.188)" fill="#ff6b00"/>
    </g>
    <g id="Grupo_120141" data-name="Grupo 120141" transform="translate(317.56 196.054)">
      <path id="Trazado_180189" data-name="Trazado 180189" d="M1260.844,522.573a7.71,7.71,0,0,1,8.505-7.073,8.248,8.248,0,0,1,5.705,2.552l-2.287,2.325a5.532,5.532,0,0,0-3.784-1.851,4.755,4.755,0,0,0-.568,9.471,5.274,5.274,0,0,0,3.177-.634l.182-2.138-3.314-.282.242-2.844,6.5.553-.553,6.5a9.75,9.75,0,0,1-6.595,1.83A7.528,7.528,0,0,1,1260.844,522.573Z" transform="translate(-1260.811 -515.469)" fill="#565656"/>
    </g>
    <g id="Grupo_120142" data-name="Grupo 120142" transform="translate(489.088 204.181)">
      <path id="Trazado_180190" data-name="Trazado 180190" d="M2581.669,592.58a8.188,8.188,0,0,1-4.634.336,7.771,7.771,0,1,1,9.439-5.943,7.594,7.594,0,0,1-2.194,3.945l1.24,1.6-2.542,1.853Zm-1.945-2.627-1.963-2.543,2.546-1.874,1.952,2.694a5.044,5.044,0,0,0,.834-1.973,4.564,4.564,0,0,0-3.474-5.56,4.5,4.5,0,0,0-5.386,3.686,4.564,4.564,0,0,0,3.474,5.56A4.841,4.841,0,0,0,2579.724,589.953Z" transform="translate(-2570.677 -577.532)" fill="#565656"/>
    </g>
    <g id="Grupo_120143" data-name="Grupo 120143" transform="translate(466.272 185.708)">
      <path id="Trazado_180191" data-name="Trazado 180191" d="M2396.444,438.258l3.02-.409,8.216,8.22-1.242-9.165,3.232-.438,2.017,14.885-2.786.377-8.491-8.486,1.282,9.463-3.232.438Z" transform="translate(-2396.444 -436.466)" fill="#5a189a"/>
    </g>
    <g id="Grupo_120144" data-name="Grupo 120144" transform="translate(368.312 195.393)">
      <path id="Trazado_180192" data-name="Trazado 180192" d="M1648.38,510.421l3.522.366,2.043,10.439,4.407-9.811,2.817.293,2.3,10.508,4.146-9.8,3.436.357-6.665,14.517-2.86-.3-2.356-10.126-4.388,9.425-2.86-.3Z" transform="translate(-1648.38 -510.421)" fill="#5a189a"/>
    </g>
    <g id="Grupo_120146" data-name="Grupo 120146" transform="translate(213.949 355.101)">
      <path id="Trazado_180193" data-name="Trazado 180193" d="M469.588,1750.795a4.182,4.182,0,0,0,.033.536,4.39,4.39,0,0,0,4.36,3.858h61.793a4.394,4.394,0,0,0,0-8.788H473.982A4.394,4.394,0,0,0,469.588,1750.795Z" transform="translate(-469.588 -1744.256)" fill="#5a189a"/>
      <path id="Trazado_180194" data-name="Trazado 180194" d="M501.105,1731.38h21.187a.676.676,0,0,0,.674-.674h0a.676.676,0,0,0-.674-.674H501.105a.676.676,0,0,0-.674.674h0A.676.676,0,0,0,501.105,1731.38Z" transform="translate(-496.392 -1730.031)" fill="#5a189a"/>
      <rect id="Rectángulo_36657" data-name="Rectángulo 36657" width="2.296" height="0.795" transform="translate(8.18 2.144) rotate(180)" fill="#5a189a"/>
      <path id="Trazado_180195" data-name="Trazado 180195" d="M473.659,1796.01a4.4,4.4,0,0,0,3.861,2.292h13.089v-2.292Z" transform="translate(-473.126 -1787.37)" fill="#421072"/>
      <path id="Trazado_180196" data-name="Trazado 180196" d="M602.638,1749.508v2.574a3.1,3.1,0,0,1-3.106,3.107H535.164a3.1,3.1,0,0,1-3.106-3.107v-2.574a3.106,3.106,0,0,1,3.106-3.107h64.368A3.106,3.106,0,0,1,602.638,1749.508Z" transform="translate(-523.877 -1744.257)" fill="#a757f7"/>
      <path id="Trazado_180197" data-name="Trazado 180197" d="M603.248,1796.01a3.106,3.106,0,0,1-3,2.292H535.882a3.105,3.105,0,0,1-3-2.292Z" transform="translate(-524.595 -1787.37)" fill="#7926cb"/>
      <g id="Grupo_120145" data-name="Grupo 120145" transform="translate(72.368 2.144)">
        <path id="Trazado_180198" data-name="Trazado 180198" d="M1022.222,1750.81a4.884,4.884,0,0,0,1.278,3.393l.052.054a3.119,3.119,0,0,0,2.205.963c1.3,0,4.533-1.966,6.534-3.271,1-.651,1.69-1.138,1.69-1.138s-.693-.487-1.69-1.138c-2-1.307-5.231-3.273-6.534-3.273a2.921,2.921,0,0,0-1.082.209,3.542,3.542,0,0,0-1.49,1.176,4.851,4.851,0,0,0-.895,2.15.228.228,0,0,0,0,.029A5.42,5.42,0,0,0,1022.222,1750.81Z" transform="translate(-1022.222 -1746.4)" fill="#c183ff"/>
        <path id="Trazado_180199" data-name="Trazado 180199" d="M1022.222,1774.464a4.884,4.884,0,0,0,1.278,3.393l9.907-3.408-11.12-.831A5.42,5.42,0,0,0,1022.222,1774.464Z" transform="translate(-1022.222 -1770.054)" fill="#a757f7"/>
        <path id="Trazado_180200" data-name="Trazado 180200" d="M1029.583,1749.176l9.883,2.7-8.393-3.875A3.543,3.543,0,0,0,1029.583,1749.176Z" transform="translate(-1028.619 -1747.79)" fill="#d8b1ff"/>
        <path id="Trazado_180201" data-name="Trazado 180201" d="M1094.195,1772.53a1.22,1.22,0,0,0,.645,1.138c1-.651,1.69-1.138,1.69-1.138s-.693-.487-1.69-1.138A1.217,1.217,0,0,0,1094.195,1772.53Z" transform="translate(-1084.77 -1768.119)" fill="#421072"/>
      </g>
    </g>
    <g id="Grupo_120152" data-name="Grupo 120152" transform="translate(244.975 247.915)">
      <g id="Grupo_120147" data-name="Grupo 120147" transform="translate(0 35.012)">
        <path id="Trazado_180202" data-name="Trazado 180202" d="M871.028,1263.105h0a1.139,1.139,0,0,0,1.036-.72l26.632-81.821a.538.538,0,0,0-.565-.73h0a1.139,1.139,0,0,0-1.036.72l-26.632,81.82A.538.538,0,0,0,871.028,1263.105Z" transform="translate(-848.965 -1179.709)" fill="#2c0b4b"/>
        <path id="Trazado_180203" data-name="Trazado 180203" d="M707.12,1262.147h0a1.139,1.139,0,0,0,1.036-.72l26.632-81.821a.538.538,0,0,0-.564-.73h0a1.139,1.139,0,0,0-1.036.72l-26.632,81.82A.538.538,0,0,0,707.12,1262.147Z" transform="translate(-706.521 -1178.877)" fill="#2c0b4b"/>
        <path id="Trazado_180204" data-name="Trazado 180204" d="M883.829,1262.429l21.554.126a1.079,1.079,0,0,0,.978-.68h0a.509.509,0,0,0-.533-.689l-21.554-.126a1.079,1.079,0,0,0-.978.68h0A.509.509,0,0,0,883.829,1262.429Z" transform="translate(-860.12 -1250.298)" fill="#2c0b4b"/>
        <path id="Trazado_180205" data-name="Trazado 180205" d="M848.32,1371.52l21.554.126a1.079,1.079,0,0,0,.978-.68h0a.509.509,0,0,0-.533-.689l-21.553-.126a1.079,1.079,0,0,0-.979.68h0A.509.509,0,0,0,848.32,1371.52Z" transform="translate(-829.261 -1345.103)" fill="#2c0b4b"/>
        <path id="Trazado_180206" data-name="Trazado 180206" d="M814.121,1476.589l21.554.126a1.079,1.079,0,0,0,.979-.68h0a.509.509,0,0,0-.533-.689l-21.554-.126a1.079,1.079,0,0,0-.978.68h0A.509.509,0,0,0,814.121,1476.589Z" transform="translate(-799.54 -1436.414)" fill="#2c0b4b"/>
        <path id="Trazado_180207" data-name="Trazado 180207" d="M775.621,1594.872l21.554.126a1.079,1.079,0,0,0,.978-.68h0a.509.509,0,0,0-.533-.689l-21.554-.126a1.078,1.078,0,0,0-.978.68h0A.509.509,0,0,0,775.621,1594.872Z" transform="translate(-766.081 -1539.208)" fill="#2c0b4b"/>
        <path id="Trazado_180208" data-name="Trazado 180208" d="M735.323,1718.676l21.554.126a1.078,1.078,0,0,0,.978-.68h0a.509.509,0,0,0-.533-.689l-21.554-.126a1.078,1.078,0,0,0-.978.68h0A.509.509,0,0,0,735.323,1718.676Z" transform="translate(-731.061 -1646.8)" fill="#2c0b4b"/>
      </g>
      <g id="Grupo_120151" data-name="Grupo 120151" transform="translate(18.427)">
        <path id="Trazado_180209" data-name="Trazado 180209" d="M1043.487,1032.265s.255-.573.42-.845.87-1.067.99-.886.6,1.392.345,1.731.016.93-1.252,1.287Z" transform="translate(-1017.788 -1014.925)" fill="#ffb27d"/>
        <path id="Trazado_180210" data-name="Trazado 180210" d="M935.837,1016.29s6.494,5.42,9.026,4.919a50,50,0,0,0,5.019-1.435l.608,1.554s-2.725,3.7-5.566,3.721a16.185,16.185,0,0,1-7.722-1.923Z" transform="translate(-924.235 -1002.569)" fill="#c15201"/>
        <path id="Trazado_180211" data-name="Trazado 180211" d="M848.87,1446.407s.188,3.041.777,3.084c.078.006,2.984.006,2.984.006l3.709-.021a1.2,1.2,0,0,0-1.109-1.083,5.028,5.028,0,0,1-3.556-2.384C850.985,1444.5,848.87,1446.407,848.87,1446.407Z" transform="translate(-848.656 -1375.512)" fill="#ff6b00"/>
        <path id="Trazado_180212" data-name="Trazado 180212" d="M847.237,1205.366a7.734,7.734,0,0,0,2.008.377,7.371,7.371,0,0,0,1.875-.268,51.316,51.316,0,0,1,1.38-6.576c.612-2.371,1.487-5.419,2.732-9.207a124.663,124.663,0,0,0,4.582-17.173c.005-.031.007-.046.007-.046l-.011-.005-10.578-4.644s1.307,14.428-.361,19.967a23.347,23.347,0,0,0-.605,2.653A106.359,106.359,0,0,0,847.237,1205.366Z" transform="translate(-847.237 -1134.259)" fill="#636363"/>
        <path id="Trazado_180213" data-name="Trazado 180213" d="M863.279,1198.9c.612-2.371,1.487-5.419,2.731-9.207a124.663,124.663,0,0,0,4.582-17.173c0-.017,0-.034,0-.051l-10.578-4.644s1.307,14.428-.361,19.967C859.417,1188.565,863.279,1198.9,863.279,1198.9Z" transform="translate(-858.016 -1134.259)" fill="#565656"/>
        <path id="Trazado_180214" data-name="Trazado 180214" d="M911.959,1446.407s.188,3.041.777,3.084c.078.006,2.984.006,2.984.006l3.709-.021a1.2,1.2,0,0,0-1.109-1.083,5.028,5.028,0,0,1-3.556-2.384C914.074,1444.5,911.959,1446.407,911.959,1446.407Z" transform="translate(-903.484 -1375.512)" fill="#ff6b00"/>
        <path id="Trazado_180215" data-name="Trazado 180215" d="M883.119,1170.42a150.57,150.57,0,0,1-1.48,20.83c-1.618,11.48-1.069,16.353-1.069,16.353a11.029,11.029,0,0,1-1.56.4,7.079,7.079,0,0,1-2.315-.268s-2.315-11.484-1.652-17.23-3.171-19.717-3.171-19.717Z" transform="translate(-868.647 -1136.516)" fill="#636363"/>
        <path id="Trazado_180216" data-name="Trazado 180216" d="M900.479,972.664l2.065,1.354,1.881-.532a4.493,4.493,0,0,0,.44-2.255,14.047,14.047,0,0,0-.074-1.5L902,968.5l-1.039-.458c0,.016.081.853.092.976A7.109,7.109,0,0,1,900.479,972.664Z" transform="translate(-893.507 -960.639)" fill="#ffb27d"/>
        <path id="Trazado_180217" data-name="Trazado 180217" d="M871.607,1022.61c-2.57,2.481-12.3,2.064-12.9-.67s.654-23.272,5.044-24.563c.911-.268,5.781,1.306,5.781,1.306a30.867,30.867,0,0,1,1.265,4.544c.1.5.381,5.744.594,10.654.1,2.3.183,4.52.226,6.147A17.713,17.713,0,0,1,871.607,1022.61Z" transform="translate(-857.087 -986.106)" fill="#c15201"/>
        <path id="Trazado_180218" data-name="Trazado 180218" d="M905.961,972.093c.565.956,2.548,1.792,3.6,2.175a14.045,14.045,0,0,0-.074-1.5l-2.786-1.23C906.084,971.529,905.709,971.666,905.961,972.093Z" transform="translate(-898.202 -963.676)" fill="#fca56b"/>
        <path id="Trazado_180219" data-name="Trazado 180219" d="M899.888,930.607s-4.488,1.4-5.317-1.408-1.966-4.519.864-5.532,3.706-.106,4.211.764S901.034,930.17,899.888,930.607Z" transform="translate(-887.553 -921.686)" fill="#ffb27d"/>
        <path id="Trazado_180220" data-name="Trazado 180220" d="M886.51,913.983s-.286,3.268-.962,3.126-1.42-.445-1.321.54-.657,2.674-1.632,2.67c-2.09-.009-4.361-5.372-3.789-6.389C880.456,910.995,888.9,910.4,886.51,913.983Z" transform="translate(-874.594 -911.509)" fill="#163560"/>
        <path id="Trazado_180221" data-name="Trazado 180221" d="M902.743,988.975c-.058-.024-3.341-1.5-3.725-1.37s-.863,1.3-.863,1.3l5.782,1.307A2.871,2.871,0,0,0,902.743,988.975Z" transform="translate(-891.487 -977.633)" fill="#ff8d3b"/>
        <g id="Grupo_120149" data-name="Grupo 120149" transform="translate(11.57 2.07)">
          <path id="Trazado_180222" data-name="Trazado 180222" d="M955.718,1107.91l-18.406,17.329c-.361.339-.816.448-1.011.24l-.621-.66c-.2-.207-.06-.655.3-.995l18.406-17.329c.361-.34.816-.448,1.011-.24l.621.66C956.214,1107.123,956.078,1107.57,955.718,1107.91Z" transform="translate(-935.59 -1082.731)" fill="#5a189a"/>
          <path id="Trazado_180223" data-name="Trazado 180223" d="M945.389,1184.469l-8.077,7.6c-.361.34-.816.448-1.011.24l-.621-.66c-.2-.207-.06-.655.3-.995l8.077-7.6Z" transform="translate(-935.59 -1149.566)" fill="#ffb600"/>
          <path id="Trazado_180224" data-name="Trazado 180224" d="M1052.834,945.951a14.426,14.426,0,1,0,23.911-14.5c-.074-.074-.15-.147-.226-.218a14.427,14.427,0,0,0-23.685,14.716Zm4.123-13.315a13.288,13.288,0,1,1,.572,18.783A13.272,13.272,0,0,1,1056.958,932.637Z" transform="translate(-1036.938 -927.315)" fill="#5a189a"/>
          <g id="Grupo_120148" data-name="Grupo 120148" transform="translate(16.41 1.139)" opacity="0.5">
            <path id="Trazado_180225" data-name="Trazado 180225" d="M1083.868,958.405a13.288,13.288,0,1,1-.573-18.782A13.234,13.234,0,0,1,1083.868,958.405Z" transform="translate(-1060.903 -936.014)" fill="#ffe39f"/>
          </g>
        </g>
        <path id="Trazado_180226" data-name="Trazado 180226" d="M896.4,1058.606c-10.142-7.227-9.3-16.87-9.3-16.87,3.707,2.091,7.385,6.713,9.073,10.723C896.278,1054.755,896.362,1056.979,896.4,1058.606Z" transform="translate(-881.87 -1024.683)" fill="#903e02"/>
        <g id="Grupo_120150" data-name="Grupo 120150" transform="translate(5.024 12.578)">
          <path id="Trazado_180227" data-name="Trazado 180227" d="M1026.605,1140.121a2.767,2.767,0,0,0,1.3-.8s.305.021-.05.672c-.03.054-.1.194-.145.293a.063.063,0,0,0,.053.091,6.736,6.736,0,0,1,1.623.034c.109.023.141.285.137.4a1.014,1.014,0,0,1-.214.693,3.545,3.545,0,0,1-1.281.671,3.877,3.877,0,0,1-1.983-.249l-.649-.3.2-1.207.163.034C1026.014,1140.5,1026.335,1140.188,1026.605,1140.121Z" transform="translate(-1007.086 -1122.067)" fill="#f99746"/>
          <path id="Trazado_180228" data-name="Trazado 180228" d="M888.964,1007.563s-9.113,1.735,2.681,14.931c1.886,2.11,12.077,4.858,12.077,4.858s1.034-.879.512-1.591c0,0-7.016-5.095-8.56-5.905-.694-.364-2.7-8.132-3.828-10A5.1,5.1,0,0,0,888.964,1007.563Z" transform="translate(-885.605 -1007.563)" fill="#c15201"/>
        </g>
        <path id="Trazado_180229" data-name="Trazado 180229" d="M1045.374,1030.411a4.648,4.648,0,0,0,.356-.87,4.808,4.808,0,0,1,.588-1.331c.062-.062.266.018.29.284a1.547,1.547,0,0,1-.146.576,6.484,6.484,0,0,0-.193,1.145C1046.128,1030.674,1045.374,1030.411,1045.374,1030.411Z" transform="translate(-1019.428 -1012.91)" fill="#ffb27d"/>
      </g>
    </g>
    <path id="Trazado_180230" data-name="Trazado 180230" d="M557.327,1814.105l-365.7-.126a.5.5,0,0,1-.495-.5v-.39a.5.5,0,0,1,.495-.495l365.7.126a.5.5,0,0,1,.495.495v.391A.5.5,0,0,1,557.327,1814.105Z" transform="translate(-13.651 -1446.685)" fill="#2e3552"/>
  </g>
</svg>
